<svg width="100%" height="100%" viewBox="0 0 386 56" fill="none" xmlns="http://www.w3.org/2000/svg">
<path fill-rule="evenodd" clip-rule="evenodd" d="M24.792 0L35.4002 6.14319L24.792 12.2863L14.1602 6.14319L24.792 0Z" fill="white"/>
<path fill-rule="evenodd" clip-rule="evenodd" d="M13 20.1145V7.82812L23.6318 13.9713V26.2339L13 20.1145Z" fill="white"/>
<path fill-rule="evenodd" clip-rule="evenodd" d="M36.5356 20.1379L36.5594 7.85156L25.9277 13.9947V26.2811L36.5356 20.1379Z" fill="white"/>
<path fill-rule="evenodd" clip-rule="evenodd" d="M11.7703 21.6074L22.4021 27.7506L11.7703 33.87L1.16211 27.7506L11.7703 21.6074Z" fill="white"/>
<path fill-rule="evenodd" clip-rule="evenodd" d="M0 41.6984V29.4121L10.6082 35.5554L10.6318 47.8419L0 41.6984Z" fill="white" fill-opacity="0.98"/>
<path fill-rule="evenodd" clip-rule="evenodd" d="M23.5379 41.7455V29.459L12.9297 35.602V47.8885L23.5379 41.7455Z" fill="white"/>
<path fill-rule="evenodd" clip-rule="evenodd" d="M37.6258 21.9395L48.2342 28.0826L37.6258 34.2258L26.9941 28.0826L37.6258 21.9395Z" fill="white"/>
<path fill-rule="evenodd" clip-rule="evenodd" d="M25.834 42.054V29.7676L36.4657 35.9109V48.197L25.834 42.054Z" fill="white"/>
<path fill-rule="evenodd" clip-rule="evenodd" d="M49.3954 42.0775V29.791L38.7637 35.9341V48.2205L49.3954 42.0775Z" fill="white"/>
<path fill-rule="evenodd" clip-rule="evenodd" d="M38.8574 20.2786V7.99219L49.4653 14.1354V26.4217L38.8574 20.2786Z" fill="white"/>
<path fill-rule="evenodd" clip-rule="evenodd" d="M10.868 20.3039V8.01758L0.259766 14.1608V26.4471L10.868 20.3039Z" fill="white"/>
<path fill-rule="evenodd" clip-rule="evenodd" d="M24.792 43.7129L35.4002 49.8559L24.792 55.9994L14.1602 49.8559L24.792 43.7129Z" fill="white"/>
<path d="M89.2762 31.4285C89.2762 32.1599 89.1813 32.8201 88.9916 33.4091C88.8113 33.9886 88.5694 34.5015 88.2659 34.948C87.9623 35.3945 87.6065 35.7744 87.1986 36.0879C86.7907 36.4014 86.3685 36.6579 85.9322 36.8574C85.4958 37.0569 85.0499 37.2041 84.5945 37.2991C84.1487 37.3941 83.7265 37.4416 83.3281 37.4416H69.0555V33.7368H83.3281C84.0396 33.7368 84.5898 33.5278 84.9788 33.1099C85.3772 32.6919 85.5764 32.1314 85.5764 31.4285C85.5764 31.0865 85.5242 30.773 85.4199 30.488C85.3155 30.2031 85.1637 29.9561 84.9645 29.7471C84.7748 29.5381 84.5376 29.3766 84.253 29.2626C83.9779 29.1486 83.6696 29.0916 83.3281 29.0916H74.8186C74.221 29.0916 73.5759 28.9871 72.8834 28.7782C72.1908 28.5597 71.5458 28.2129 70.9481 27.738C70.3599 27.263 69.8666 26.6408 69.4682 25.8714C69.0792 25.1019 68.8848 24.1615 68.8848 23.05C68.8848 21.9386 69.0792 21.0029 69.4682 20.243C69.8666 19.4735 70.3599 18.8513 70.9481 18.3764C71.5458 17.8919 72.1908 17.5452 72.8834 17.3362C73.5759 17.1177 74.221 17.0084 74.8186 17.0084H87.4121V20.7132H74.8186C74.1166 20.7132 73.5664 20.9269 73.168 21.3544C72.779 21.7819 72.5845 22.3471 72.5845 23.05C72.5845 23.7625 72.779 24.3277 73.168 24.7457C73.5664 25.1542 74.1166 25.3584 74.8186 25.3584H83.3281H83.3566C83.755 25.3679 84.1771 25.4249 84.623 25.5294C85.0689 25.6244 85.51 25.7764 85.9464 25.9853C86.3923 26.1943 86.8144 26.4603 87.2128 26.7833C87.6113 27.0968 87.9623 27.4767 88.2659 27.9232C88.5789 28.3697 88.8256 28.8827 89.0058 29.4621C89.1861 30.0416 89.2762 30.697 89.2762 31.4285Z" fill="white"/>
<path d="M96.0781 37.4416H92.3783V17.0084H96.0781V37.4416Z" fill="white"/>
<path d="M120.539 35.575C120.539 35.8409 120.492 36.0879 120.397 36.3159C120.302 36.5439 120.169 36.7434 119.998 36.9144C119.837 37.0759 119.643 37.2041 119.415 37.2991C119.187 37.3941 118.941 37.4416 118.675 37.4416H105.327C104.986 37.4416 104.616 37.4036 104.218 37.3276C103.829 37.2421 103.44 37.1139 103.051 36.9429C102.671 36.7719 102.306 36.5534 101.955 36.2874C101.604 36.0119 101.291 35.6842 101.016 35.3042C100.75 34.9147 100.537 34.4683 100.375 33.9648C100.214 33.4518 100.134 32.8771 100.134 32.2407V22.2093C100.134 21.8674 100.172 21.5016 100.247 21.1122C100.333 20.7132 100.461 20.3237 100.632 19.9437C100.802 19.5543 101.025 19.1838 101.3 18.8323C101.576 18.4808 101.903 18.1721 102.282 17.9061C102.671 17.6307 103.117 17.4122 103.62 17.2507C104.123 17.0892 104.692 17.0084 105.327 17.0084H120.368V20.7132H105.327C104.844 20.7132 104.474 20.8414 104.218 21.0979C103.961 21.3544 103.833 21.7344 103.833 22.2378V32.2407C103.833 32.7156 103.961 33.0861 104.218 33.3521C104.483 33.6086 104.853 33.7368 105.327 33.7368H116.839V29.0916H106.992V25.3584H118.675C118.941 25.3584 119.187 25.4106 119.415 25.5151C119.643 25.6101 119.837 25.7431 119.998 25.9141C120.169 26.0851 120.302 26.2846 120.397 26.5126C120.492 26.731 120.539 26.9685 120.539 27.225V35.575Z" fill="white"/>
<path d="M144.787 35.8599C144.787 36.1259 144.735 36.3729 144.63 36.6009C144.536 36.8289 144.403 37.0284 144.232 37.1993C144.071 37.3608 143.876 37.4891 143.649 37.5841C143.421 37.6791 143.179 37.7266 142.923 37.7266C142.695 37.7266 142.463 37.6838 142.226 37.5983C141.998 37.5128 141.794 37.3751 141.614 37.1851L128.095 23.05V37.4416H124.396V18.5901C124.396 18.2101 124.5 17.8681 124.709 17.5642C124.927 17.2507 125.202 17.0179 125.534 16.866C125.885 16.7235 126.245 16.6902 126.615 16.7662C126.985 16.8327 127.303 17.0037 127.569 17.2792L141.087 31.4V17.0084H144.787V35.8599Z" fill="white"/>
<path d="M169.12 37.4416H165.42V32.4259H152.414V37.4416H148.714V27.225C148.714 25.7336 148.971 24.361 149.483 23.107C149.995 21.8531 150.707 20.7749 151.617 19.8725C152.528 18.9701 153.605 18.2671 154.847 17.7636C156.09 17.2602 157.447 17.0084 158.917 17.0084H167.256C167.512 17.0084 167.754 17.0559 167.982 17.1509C168.209 17.2459 168.409 17.3789 168.579 17.5499C168.75 17.7209 168.883 17.9204 168.978 18.1484C169.073 18.3764 169.12 18.6186 169.12 18.8751V37.4416ZM152.414 28.7212H165.42V20.7132H158.917C158.803 20.7132 158.561 20.7322 158.191 20.7702C157.831 20.7987 157.409 20.8794 156.925 21.0124C156.451 21.1454 155.948 21.3497 155.417 21.6251C154.885 21.9006 154.397 22.2806 153.951 22.7651C153.505 23.2495 153.135 23.8575 152.841 24.5889C152.556 25.3109 152.414 26.1896 152.414 27.225V28.7212Z" fill="white"/>
<path d="M192.172 37.4416H175.296C175.03 37.4416 174.784 37.3941 174.556 37.2991C174.328 37.2041 174.129 37.0759 173.958 36.9144C173.797 36.7434 173.669 36.5439 173.574 36.3159C173.479 36.0879 173.432 35.8409 173.432 35.575V17.0084H177.131V33.7368H192.172V37.4416Z" fill="white"/>
<path d="M224.076 17.0084L214.414 36.7149C214.262 37.0189 214.034 37.2611 213.731 37.4416C213.437 37.6316 213.109 37.7266 212.749 37.7266C212.398 37.7266 212.071 37.6316 211.767 37.4416C211.473 37.2611 211.245 37.0189 211.084 36.7149L201.436 17.0084H205.577L212.749 31.7277L219.949 17.0084H224.076Z" fill="white"/>
<path d="M242.945 29.0916H231.262V25.3584H242.945V29.0916ZM244.61 37.4416H231.262C230.75 37.4416 230.19 37.3513 229.583 37.1708C228.976 36.9904 228.411 36.6959 227.889 36.2874C227.377 35.8694 226.945 35.3327 226.594 34.6773C226.253 34.0123 226.082 33.2001 226.082 32.2407V18.8751C226.082 18.6186 226.13 18.3764 226.225 18.1484C226.319 17.9204 226.447 17.7209 226.609 17.5499C226.779 17.3789 226.979 17.2459 227.206 17.1509C227.434 17.0559 227.681 17.0084 227.946 17.0084H244.61V20.7132H229.782V32.2407C229.782 32.7251 229.91 33.0956 230.166 33.3521C230.422 33.6086 230.797 33.7368 231.29 33.7368H244.61V37.4416Z" fill="white"/>
<path d="M268.587 35.8599C268.587 36.1259 268.535 36.3729 268.43 36.6009C268.335 36.8289 268.203 37.0284 268.032 37.1993C267.871 37.3608 267.676 37.4891 267.448 37.5841C267.221 37.6791 266.979 37.7266 266.723 37.7266C266.495 37.7266 266.263 37.6838 266.025 37.5983C265.798 37.5128 265.594 37.3751 265.414 37.1851L251.895 23.05V37.4416H248.195V18.5901C248.195 18.2101 248.3 17.8681 248.508 17.5642C248.727 17.2507 249.002 17.0179 249.334 16.866C249.685 16.7235 250.045 16.6902 250.415 16.7662C250.785 16.8327 251.103 17.0037 251.369 17.2792L264.887 31.4V17.0084H268.587V35.8599Z" fill="white"/>
<path d="M291.34 20.7132H283.187V37.4416H279.487V20.7132H271.319V17.0084H291.34V20.7132Z" fill="white"/>
<path d="M314.066 35.575C314.066 35.8409 314.018 36.0879 313.923 36.3159C313.828 36.5439 313.696 36.7434 313.525 36.9144C313.354 37.0759 313.155 37.2041 312.927 37.2991C312.699 37.3941 312.458 37.4416 312.201 37.4416H303.863C303.075 37.4416 302.278 37.3561 301.472 37.1851C300.666 37.0141 299.883 36.7529 299.124 36.4014C298.375 36.0404 297.668 35.5845 297.004 35.0335C296.34 34.4825 295.756 33.8318 295.254 33.0814C294.76 32.3214 294.371 31.457 294.087 30.488C293.802 29.5096 293.66 28.4219 293.66 27.225V17.0084H297.36V27.225C297.36 28.2699 297.502 29.1534 297.787 29.8753C298.081 30.5973 298.451 31.2005 298.896 31.685C299.342 32.1694 299.831 32.5494 300.362 32.8249C300.893 33.1004 301.396 33.3046 301.871 33.4376C302.354 33.5706 302.777 33.6561 303.137 33.6941C303.507 33.7226 303.749 33.7368 303.863 33.7368H310.366V17.0084H314.066V35.575Z" fill="white"/>
<path d="M338.769 23.8765C338.769 24.7219 338.664 25.4771 338.456 26.1421C338.247 26.807 337.962 27.396 337.602 27.909C337.251 28.4124 336.843 28.8447 336.378 29.2056C335.913 29.5666 335.425 29.8658 334.912 30.1033C334.41 30.3313 333.897 30.4975 333.375 30.602C332.863 30.7065 332.379 30.7588 331.924 30.7588L339.651 37.4416H333.93L326.218 30.7588H323.557V27.054H331.924C332.389 27.016 332.811 26.921 333.19 26.769C333.579 26.6076 333.911 26.3938 334.187 26.1278C334.471 25.8619 334.689 25.5436 334.841 25.1732C334.993 24.7932 335.069 24.361 335.069 23.8765V21.5396C335.069 21.3307 335.04 21.1739 334.983 21.0694C334.936 20.9554 334.87 20.8747 334.784 20.8272C334.708 20.7702 334.623 20.7369 334.528 20.7274C334.443 20.7179 334.362 20.7132 334.286 20.7132H322.077V37.4416H318.377V18.8751C318.377 18.6186 318.425 18.3764 318.519 18.1484C318.614 17.9204 318.742 17.7209 318.904 17.5499C319.074 17.3789 319.274 17.2459 319.501 17.1509C319.729 17.0559 319.976 17.0084 320.241 17.0084H334.286C335.112 17.0084 335.809 17.1604 336.378 17.4644C336.947 17.7589 337.407 18.1341 337.758 18.5901C338.119 19.0366 338.375 19.521 338.527 20.0435C338.688 20.566 338.769 21.0552 338.769 21.5111V23.8765Z" fill="white"/>
<path d="M359.26 29.0916H347.577V25.3584H359.26V29.0916ZM360.925 37.4416H347.577C347.065 37.4416 346.505 37.3513 345.898 37.1708C345.291 36.9904 344.726 36.6959 344.204 36.2874C343.692 35.8694 343.26 35.3327 342.91 34.6773C342.568 34.0123 342.397 33.2001 342.397 32.2407V18.8751C342.397 18.6186 342.445 18.3764 342.54 18.1484C342.634 17.9204 342.762 17.7209 342.924 17.5499C343.094 17.3789 343.294 17.2459 343.521 17.1509C343.749 17.0559 343.996 17.0084 344.261 17.0084H360.925V20.7132H346.097V32.2407C346.097 32.7251 346.225 33.0956 346.481 33.3521C346.737 33.6086 347.112 33.7368 347.605 33.7368H360.925V37.4416Z" fill="white"/>
<path d="M384.034 31.4285C384.034 32.1599 383.939 32.8201 383.749 33.4091C383.569 33.9886 383.327 34.5015 383.024 34.948C382.72 35.3945 382.364 35.7744 381.956 36.0879C381.548 36.4014 381.126 36.6579 380.69 36.8574C380.253 37.0569 379.808 37.2041 379.352 37.2991C378.906 37.3941 378.484 37.4416 378.086 37.4416H363.813V33.7368H378.086C378.797 33.7368 379.347 33.5278 379.736 33.1099C380.135 32.6919 380.334 32.1314 380.334 31.4285C380.334 31.0865 380.282 30.773 380.178 30.488C380.073 30.2031 379.921 29.9561 379.722 29.7471C379.532 29.5381 379.295 29.3766 379.011 29.2626C378.736 29.1486 378.427 29.0916 378.086 29.0916H369.576C368.979 29.0916 368.334 28.9871 367.641 28.7782C366.949 28.5597 366.303 28.2129 365.706 27.738C365.118 27.263 364.624 26.6408 364.226 25.8714C363.837 25.1019 363.642 24.1615 363.642 23.05C363.642 21.9386 363.837 21.0029 364.226 20.243C364.624 19.4735 365.118 18.8513 365.706 18.3764C366.303 17.8919 366.949 17.5452 367.641 17.3362C368.334 17.1177 368.979 17.0084 369.576 17.0084H382.17V20.7132H369.576C368.874 20.7132 368.324 20.9269 367.926 21.3544C367.537 21.7819 367.342 22.3471 367.342 23.05C367.342 23.7625 367.537 24.3277 367.926 24.7457C368.324 25.1542 368.874 25.3584 369.576 25.3584H378.086H378.114C378.513 25.3679 378.935 25.4249 379.381 25.5294C379.827 25.6244 380.268 25.7764 380.704 25.9853C381.15 26.1943 381.572 26.4603 381.971 26.7833C382.369 27.0968 382.72 27.4767 383.024 27.9232C383.337 28.3697 383.583 28.8827 383.763 29.4621C383.944 30.0416 384.034 30.697 384.034 31.4285Z" fill="white"/>
</svg>
