<svg width="100%" height="100%" viewBox="0 0 24 24" fill="none" xmlns="http://www.w3.org/2000/svg">
<path fill-rule="evenodd" clip-rule="evenodd" d="M12 24C18.6274 24 24 18.6274 24 12C24 5.37258 18.6274 0 12 0C5.37258 0 0 5.37258 0 12C0 18.6274 5.37258 24 12 24ZM15.3249 10.828C15.9873 10.9299 16.446 11.2356 16.7007 11.6432C16.9555 12.0509 17.1084 12.7643 17.1084 13.6815C17.1084 15.5159 16.5478 17.0445 15.4268 18.2165C14.3058 19.3885 12.879 20 11.1465 20C10.4841 20 9.82168 19.8981 9.15928 19.6433C8.49685 19.3885 7.98726 19.0318 7.52867 18.6242C7.01912 18.1656 6.61147 17.6051 6.3567 17.0955C6.15286 16.535 6 15.9745 6 15.414C6 14.8025 6.15292 14.2929 6.40765 13.9362C6.66243 13.5796 7.12103 13.3758 7.68154 13.2229C7.65109 13.1468 7.62063 13.0752 7.59153 13.0067C7.52327 12.8463 7.46248 12.7034 7.42675 12.5605C7.37572 12.4076 7.32487 12.2547 7.32487 12.1528C7.32487 11.8471 7.4778 11.4904 7.83443 11.1337C8.19113 10.777 8.49687 10.6241 8.80261 10.6241C8.95552 10.6241 9.05737 10.6242 9.21023 10.6752L9.21105 10.6755C9.36369 10.7264 9.51632 10.7774 9.7198 10.93C9.46822 10.0914 9.21666 9.32952 8.99874 8.66952C8.8194 8.12636 8.66284 7.65222 8.54783 7.26116C8.29303 6.39492 8.19113 5.83438 8.19113 5.47768C8.19113 5.01909 8.29301 4.66243 8.54783 4.40765C8.75164 4.15286 9.10834 4 9.51597 4C10.1784 4 11.0446 5.52862 12.1147 8.63693C12.2568 8.99217 12.3494 9.29789 12.427 9.55408C12.4606 9.66536 12.4915 9.7673 12.5224 9.85989C12.5846 9.73549 12.6467 9.55416 12.7205 9.33907C12.7676 9.20171 12.8195 9.05058 12.879 8.89171C13.9491 5.83437 14.8663 4.30568 15.5797 4.30568C15.9364 4.30568 16.2421 4.40756 16.4969 4.66238C16.7007 4.91715 16.8536 5.27388 16.8536 5.68151C16.8536 5.98724 16.7517 6.59872 16.4969 7.46499C16.3909 7.7655 16.2787 8.09667 16.1561 8.4585C15.9253 9.13967 15.6577 9.9295 15.3249 10.828ZM7.4778 15.3121C7.47777 15.3121 7.47774 15.3121 7.47771 15.3121L7.47794 15.312L7.47783 15.3121C7.47782 15.3121 7.47781 15.3121 7.4778 15.3121ZM7.88536 15.8726C7.73253 15.6179 7.57968 15.4141 7.4778 15.3121C7.427 15.3631 7.37606 15.4142 7.37606 15.6687C7.32503 15.7196 7.32502 15.7706 7.32502 15.8725C7.32502 16.3311 7.57979 16.7387 8.03838 17.1973C8.54795 17.6559 9.00655 17.8598 9.46516 17.8598C9.7709 17.8598 10.0257 17.7578 10.2295 17.554C10.4333 17.3502 10.5352 17.0955 10.5352 16.8407V16.6369C10.5352 16.5859 10.5225 16.5477 10.5097 16.5095C10.4969 16.4712 10.4842 16.433 10.4842 16.382C10.5439 16.382 10.5861 16.3995 10.621 16.4141C10.6458 16.4243 10.6669 16.4331 10.688 16.4331H10.8918C10.9515 16.4331 10.9937 16.4156 11.0287 16.4011C11.0534 16.3908 11.0745 16.382 11.0957 16.382C11.1467 16.382 11.1975 16.3312 11.2486 16.2802V16.382C11.2486 16.9935 11.2995 17.4521 11.5033 17.8088C11.7072 18.1655 11.9619 18.3693 12.2677 18.3693V18.2675V18.1656C12.2677 18.1146 12.2166 17.9108 12.1148 17.5541C12.0129 17.1974 11.9618 16.9426 11.9618 16.6878C11.9618 16.2802 12.1147 15.8726 12.3695 15.414C12.6243 14.9554 12.981 14.5477 13.4396 14.242C13.6434 14.0891 13.8982 13.9363 14.3058 13.7834C14.7135 13.6305 14.9683 13.4776 15.0701 13.3757C15.0701 13.2229 15.0193 13.1209 14.9683 13.019C14.9173 12.9682 14.8154 12.9172 14.7135 12.9172H14.2549C13.0319 12.9172 12.1147 12.7643 11.5542 12.5605C10.9937 12.3566 10.7389 11.9999 10.7389 11.4904C10.7389 11.2866 10.7899 11.1336 10.8918 11.0318C10.9937 10.9299 11.1976 10.8789 11.4523 10.8789C12.3696 10.8789 13.2867 10.9808 14.153 11.1846C15.0192 11.3884 15.5798 11.5922 15.8855 11.847C16.0384 11.9489 16.1913 12.1528 16.2422 12.4585C16.293 12.7642 16.3441 13.1209 16.3441 13.6305C16.3441 15.2611 15.8855 16.5859 14.9173 17.656C13.9491 18.7261 12.7772 19.2356 11.3504 19.2356C10.5351 19.2356 9.87269 19.0828 9.21026 18.777C8.54785 18.4713 8.03827 18.0127 7.57968 17.5031C7.27395 17.1464 7.07016 16.7388 6.91725 16.3821C6.76447 15.9745 6.71342 15.6688 6.71342 15.363C6.71342 15.0063 6.81532 14.6496 7.01916 14.3948C7.22298 14.1401 7.47775 13.9872 7.73252 13.9872C7.83444 13.9872 7.98732 14.0891 8.19116 14.242C8.31208 14.3629 8.49678 14.5795 8.72004 14.8413C8.779 14.9105 8.84065 14.9828 8.90452 15.0573C9.15932 15.363 9.36306 15.6687 9.51597 15.9235C9.66877 16.1783 9.71983 16.3821 9.71983 16.484C9.71983 16.535 9.66878 16.6369 9.5669 16.7388C9.465 16.8407 9.36312 16.8917 9.2102 16.8917C8.80257 16.8917 8.34395 16.535 7.88536 15.8726ZM11.1465 15.4139C11.0446 15.5158 10.8917 15.5668 10.7899 15.5668L10.7899 15.5668C10.6407 15.5668 10.4916 15.5122 10.3025 15.443C10.2332 15.4176 10.1585 15.3903 10.0765 15.363C9.77079 15.1082 9.46504 14.7515 9.1593 14.3438C8.85357 13.9362 8.64973 13.5795 8.44591 13.2228C8.29302 12.8661 8.19116 12.5605 8.19116 12.4075C8.19116 12.2037 8.2421 12.0509 8.44591 11.847C8.64973 11.6432 8.80256 11.5413 8.95548 11.5413C9.15931 11.5413 9.36311 11.5922 9.56693 11.7961C9.77076 11.9489 10.0255 12.2547 10.2294 12.6114C10.5351 13.07 10.7899 13.5796 10.9937 14.0891C11.1976 14.5987 11.2994 14.9043 11.2994 15.0572C11.2994 15.1591 11.2484 15.312 11.1465 15.4139ZM11.8599 10.2674L10.637 6.85345C10.6097 6.7761 10.5832 6.70079 10.5575 6.62758C10.2949 5.88084 10.1092 5.35296 9.92359 5.12093C9.77068 4.86615 9.61787 4.71327 9.41406 4.71327C9.26114 4.71327 9.15928 4.76432 9.05736 4.8662C8.90445 5.01912 8.85354 5.17195 8.85354 5.37577C8.85354 5.73246 9.00644 6.29293 9.26116 7.10823C9.51593 7.92352 9.92361 9.04454 10.4332 10.3694C10.4842 10.2675 10.535 10.2165 10.637 10.2165C10.7389 10.1655 10.8408 10.1655 10.9427 10.1655H11.1975C11.288 10.1956 11.3963 10.208 11.533 10.2236C11.6273 10.2343 11.7351 10.2466 11.8599 10.2674ZM12.1697 13.4784C12.4741 13.529 12.7785 13.5796 13.0829 13.5796C12.879 13.7325 12.6752 13.8853 12.4204 14.0892C12.2166 14.293 12.0128 14.4968 11.8599 14.7006C11.809 14.4459 11.758 14.242 11.6561 13.9872C11.6052 13.8599 11.5542 13.7453 11.5033 13.6307C11.4523 13.516 11.4013 13.4014 11.3503 13.2739C11.6051 13.3759 11.8599 13.4266 12.1657 13.4777L12.1697 13.4784ZM15.4406 8.15978C15.1988 8.86979 14.9171 9.69706 14.5606 10.6241L13.1847 10.3693L14.3058 7.21009C14.5605 6.44576 14.8153 5.93617 15.0191 5.57948C15.223 5.22282 15.4268 5.06991 15.6306 5.06991C15.7835 5.06991 15.8854 5.12096 15.9873 5.22284C16.0892 5.3757 16.1402 5.52859 16.1402 5.73241C16.1402 5.92673 16.0013 6.39886 15.7676 7.19302C15.7561 7.23191 15.7444 7.27157 15.7325 7.312C15.6408 7.57209 15.5444 7.85514 15.4406 8.15978Z" fill="white"/>
</svg>
