<svg width="123" height="32" viewBox="0 0 123 32" fill="none" xmlns="http://www.w3.org/2000/svg">
<path d="M40.448 21L44.656 9.32H47.312L51.648 21H50.032L48.752 17.512H43.264L42.016 21H40.448ZM43.76 16.104H48.224L46.256 10.728H45.664L43.76 16.104ZM56.8 21.096C56.16 21.096 55.6053 21.0053 55.136 20.824C54.6773 20.6427 54.32 20.3333 54.064 19.896C53.8187 19.448 53.696 18.8453 53.696 18.088V13.608H52.224V12.456H53.696V9.864H55.168V12.456H58.112V13.608H55.168V18.28C55.168 18.7387 55.2907 19.096 55.536 19.352C55.792 19.5973 56.1493 19.72 56.608 19.72H58.112V21.096H56.8ZM63.6125 21.096C62.9725 21.096 62.4178 21.0053 61.9485 20.824C61.4898 20.6427 61.1325 20.3333 60.8765 19.896C60.6312 19.448 60.5085 18.8453 60.5085 18.088V13.608H59.0365V12.456H60.5085V9.864H61.9805V12.456H64.9245V13.608H61.9805V18.28C61.9805 18.7387 62.1032 19.096 62.3485 19.352C62.6045 19.5973 62.9618 19.72 63.4205 19.72H64.9245V21.096H63.6125ZM69.4338 21.224C68.4631 21.224 67.7004 20.984 67.1458 20.504C66.6018 20.0133 66.3298 19.3253 66.3298 18.44C66.3298 17.5333 66.6338 16.8507 67.2418 16.392C67.8498 15.9227 68.7084 15.688 69.8177 15.688H71.9778V15.48C71.9778 14.296 71.3804 13.704 70.1858 13.704C69.6951 13.704 69.1831 13.7147 68.6498 13.736C68.1164 13.7573 67.6738 13.7787 67.3218 13.8V12.456C67.6631 12.424 68.0418 12.4027 68.4578 12.392C68.8844 12.3707 69.2898 12.36 69.6738 12.36C70.9858 12.36 71.9404 12.6 72.5378 13.08C73.1458 13.56 73.4498 14.3973 73.4498 15.592V21H72.2338V19.304C71.8498 20.584 70.9164 21.224 69.4338 21.224ZM69.7538 20.008C70.1164 20.008 70.4631 19.944 70.7938 19.816C71.1244 19.6773 71.3964 19.4533 71.6098 19.144C71.8338 18.824 71.9564 18.3867 71.9778 17.832V16.84H69.7538C69.1351 16.84 68.6604 16.9893 68.3298 17.288C67.9991 17.5867 67.8338 17.9707 67.8338 18.44C67.8338 18.9093 67.9991 19.288 68.3298 19.576C68.6604 19.864 69.1351 20.008 69.7538 20.008ZM79.9329 21.288C79.1969 21.288 78.5569 21.16 78.0129 20.904C77.4795 20.648 77.0369 20.3067 76.6849 19.88C76.3329 19.4427 76.0662 18.9627 75.8849 18.44C75.7142 17.9173 75.6289 17.3947 75.6289 16.872V16.584C75.6289 16.04 75.7142 15.5067 75.8849 14.984C76.0662 14.4613 76.3329 13.992 76.6849 13.576C77.0475 13.1493 77.4955 12.808 78.0289 12.552C78.5622 12.296 79.1862 12.168 79.9009 12.168C80.6155 12.168 81.2555 12.3013 81.8209 12.568C82.3969 12.8347 82.8555 13.2133 83.1969 13.704C83.5489 14.184 83.7462 14.7547 83.7889 15.416H82.3169C82.2422 14.8827 81.9969 14.44 81.5809 14.088C81.1649 13.7253 80.6049 13.544 79.9009 13.544C79.2929 13.544 78.7862 13.6827 78.3809 13.96C77.9755 14.2373 77.6715 14.616 77.4689 15.096C77.2662 15.576 77.1649 16.12 77.1649 16.728C77.1649 17.3147 77.2662 17.8533 77.4689 18.344C77.6715 18.824 77.9755 19.208 78.3809 19.496C78.7969 19.7733 79.3142 19.912 79.9329 19.912C80.6475 19.912 81.2235 19.7307 81.6609 19.368C82.0982 18.9947 82.3489 18.536 82.4129 17.992H83.8849C83.8529 18.664 83.6555 19.2453 83.2929 19.736C82.9409 20.2267 82.4715 20.6107 81.8849 20.888C81.3089 21.1547 80.6582 21.288 79.9329 21.288ZM85.972 21V9.32H87.508V13.96C87.7427 13.3947 88.0787 12.9627 88.516 12.664C88.964 12.3547 89.5347 12.2 90.228 12.2H90.292C91.316 12.2 92.0893 12.5413 92.612 13.224C93.1347 13.896 93.396 14.8613 93.396 16.12V21H91.86V15.8C91.86 15.1067 91.6627 14.568 91.268 14.184C90.884 13.8 90.3827 13.608 89.764 13.608C89.0813 13.608 88.532 13.8373 88.116 14.296C87.7107 14.744 87.508 15.336 87.508 16.072V21H85.972ZM105.143 21.288C104.076 21.288 103.164 21.1013 102.407 20.728C101.66 20.3547 101.058 19.8693 100.599 19.272C100.14 18.6747 99.8043 18.0293 99.591 17.336C99.3777 16.632 99.271 15.9547 99.271 15.304V14.952C99.271 14.248 99.3777 13.544 99.591 12.84C99.815 12.136 100.156 11.496 100.615 10.92C101.074 10.344 101.671 9.88 102.407 9.528C103.143 9.176 104.023 9 105.047 9C106.604 9 107.831 9.4 108.727 10.2C109.634 10.9893 110.162 12.0453 110.311 13.368H108.711C108.572 12.376 108.162 11.64 107.479 11.16C106.807 10.68 105.996 10.44 105.047 10.44C104.13 10.44 103.356 10.6533 102.727 11.08C102.108 11.496 101.644 12.0613 101.335 12.776C101.026 13.48 100.871 14.2693 100.871 15.144C100.871 15.976 101.026 16.7493 101.335 17.464C101.655 18.1787 102.13 18.7547 102.759 19.192C103.399 19.6293 104.194 19.848 105.143 19.848C106.146 19.848 106.988 19.5973 107.671 19.096C108.354 18.5947 108.77 17.8693 108.919 16.92H110.519C110.412 17.72 110.14 18.4507 109.703 19.112C109.276 19.7733 108.679 20.3013 107.911 20.696C107.154 21.0907 106.231 21.288 105.143 21.288ZM115.463 21L111.415 9.32H113.031L116.535 19.592H117.127L120.343 9.32H121.911L118.151 21H115.463Z" fill="white"/>
<path d="M40 23H122.391V23.8H40V23Z" fill="white"/>
<path d="M19.166 15.1667C18.8899 14.8905 18.4422 14.8905 18.166 15.1667L10.9993 22.3333C9.52602 23.8067 7.13935 23.8067 5.66602 22.3333C4.19268 20.86 4.19268 18.4733 5.66602 17L13.9993 8.66667C14.9193 7.74667 16.4127 7.74667 17.3327 8.66667C18.2527 9.58667 18.2527 11.08 17.3327 12L10.3327 19C9.96602 19.3667 9.36602 19.3667 8.99935 19C8.63268 18.6333 8.63268 18.0333 8.99935 17.6667L14.8327 11.8333C15.1088 11.5572 15.1088 11.1095 14.8327 10.8333C14.5565 10.5572 14.1088 10.5572 13.8327 10.8333L7.99935 16.6667C7.07935 17.5867 7.07935 19.08 7.99935 20C8.91935 20.92 10.4127 20.92 11.3327 20L18.3327 13C19.806 11.5267 19.806 9.14 18.3327 7.66667C16.8593 6.19333 14.4727 6.19333 12.9993 7.66667L4.66602 16C2.63935 18.0267 2.63935 21.3067 4.66602 23.3333C6.69268 25.36 9.97268 25.36 11.9993 23.3333L19.166 16.1667C19.4422 15.8905 19.4422 15.4428 19.166 15.1667Z" fill="white"/>
</svg>
