<svg width="24" height="24" viewBox="0 0 24 24" fill="none" xmlns="http://www.w3.org/2000/svg">
<path d="M19.166 11.1667C18.8899 10.8905 18.4422 10.8905 18.166 11.1667L10.9993 18.3333C9.52602 19.8067 7.13935 19.8067 5.66602 18.3333C4.19268 16.86 4.19268 14.4733 5.66602 13L13.9993 4.66667C14.9193 3.74667 16.4127 3.74667 17.3327 4.66667C18.2527 5.58667 18.2527 7.08 17.3327 8L10.3327 15C9.96602 15.3667 9.36602 15.3667 8.99935 15C8.63268 14.6333 8.63268 14.0333 8.99935 13.6667L14.8327 7.83333C15.1088 7.55719 15.1088 7.10948 14.8327 6.83333V6.83333C14.5565 6.55719 14.1088 6.55719 13.8327 6.83333L7.99935 12.6667C7.07935 13.5867 7.07935 15.08 7.99935 16C8.91935 16.92 10.4127 16.92 11.3327 16L18.3327 9C19.806 7.52667 19.806 5.14 18.3327 3.66667C16.8593 2.19333 14.4727 2.19333 12.9993 3.66667L4.66602 12C2.63935 14.0267 2.63935 17.3067 4.66602 19.3333C6.69268 21.36 9.97268 21.36 11.9993 19.3333L19.166 12.1667C19.4422 11.8905 19.4422 11.4428 19.166 11.1667V11.1667Z" fill="white"/>
</svg>
