<svg width="154" height="128" viewBox="0 0 154 128" fill="none" xmlns="http://www.w3.org/2000/svg">
<path d="M135.79 95.7752C144.742 79.1403 140.531 59.4835 126.385 51.8705C112.238 44.2575 93.513 51.5712 84.5609 68.2061C75.6087 84.8409 79.8195 104.498 93.966 112.111C108.112 119.724 126.838 112.41 135.79 95.7752Z" stroke="#FFF399" stroke-width="2" stroke-miterlimit="10"/>
<path d="M69.4382 59.6892C78.3903 43.0544 74.1795 23.3976 60.0331 15.7846C45.8866 8.17158 27.1615 15.4853 18.2093 32.1201C9.25715 48.755 13.468 68.4118 27.6144 76.0248C41.7609 83.6378 60.486 76.3241 69.4382 59.6892Z" stroke="#FFF399" stroke-width="2" stroke-miterlimit="10"/>
<path d="M93.9673 112.124L27.5918 75.957" stroke="#FFF399" stroke-width="2" stroke-miterlimit="10"/>
<path d="M60.0469 15.75L126.352 51.8465" stroke="#FFF399" stroke-width="2" stroke-miterlimit="10"/>
<path d="M84.5748 68.1766L18.1992 32.0801" stroke="#FFF399" stroke-width="2" stroke-miterlimit="10"/>
</svg>
