<svg width="100%" height="100%" viewBox="0 0 113 108" fill="none" xmlns="http://www.w3.org/2000/svg">
<path d="M111.15 30.1234V94.5729L47.8723 106.291L1 78.1675V13.7181L64.2777 2L111.15 30.1234Z" fill="black"/>
<path d="M47.8723 41.8415L111.15 30.1234M47.8723 41.8415L1 13.7181M47.8723 41.8415V106.291M111.15 30.1234V94.5729M111.15 30.1234L64.2777 2M111.15 94.5729L47.8723 106.291M111.15 94.5729L64.2777 66.4495M47.8723 106.291L1 78.1675M1 78.1675V13.7181M1 78.1675L64.2777 66.4495M1 13.7181L64.2777 2M64.2777 2V66.4495" stroke="url(#paint0_linear_421:12881)" stroke-width="2"/>
<defs>
<linearGradient id="paint0_linear_421:12881" x1="-19.1464" y1="105.899" x2="133.551" y2="49.4393" gradientUnits="userSpaceOnUse">
<stop offset="0.0139607" stop-color="#8F67E2"/>
<stop offset="0.1403" stop-color="#7D89E5"/>
<stop offset="0.2948" stop-color="#6AACE9"/>
<stop offset="0.4216" stop-color="#5EC1EB"/>
<stop offset="0.5042" stop-color="#5AC9EC"/>
<stop offset="1" stop-color="#51EABD"/>
</linearGradient>
</defs>
</svg>
