<svg width="92" height="117" viewBox="0 0 92 117" fill="none" xmlns="http://www.w3.org/2000/svg">
<path d="M70.3863 34.7588L1.07617 25.7216L91.0001 1L70.3863 34.7588Z" stroke="#F7AE92" stroke-width="2" stroke-miterlimit="1"/>
<path d="M70.3863 34.7588L1.07617 25.7216L91.0001 1L70.3863 34.7588Z" stroke="#F7AE92" stroke-width="2" stroke-miterlimit="1"/>
<path d="M70.3102 115.646L1 106.534L90.924 81.8867L70.3102 115.646Z" stroke="#F7AE92" stroke-width="2" stroke-miterlimit="1"/>
<path d="M70.3102 115.646L1 106.534L90.924 81.8867L70.3102 115.646Z" stroke="#F7AE92" stroke-width="2" stroke-miterlimit="1"/>
<path d="M70.3125 115.646L70.3872 34.7588L91.001 1L90.9263 81.8868L70.3125 115.646Z" stroke="#F7AE92" stroke-width="2" stroke-miterlimit="1"/>
<path d="M70.3125 115.646L70.3872 34.7588L91.001 1L90.9263 81.8868L70.3125 115.646Z" stroke="#F7AE92" stroke-width="2" stroke-miterlimit="1"/>
<path d="M90.924 81.8868L1 106.534L1.07476 25.7216L90.9987 1L90.924 81.8868Z" stroke="#F7AE92" stroke-width="2" stroke-miterlimit="1"/>
<path d="M90.924 81.8868L1 106.534L1.07476 25.7216L90.9987 1L90.924 81.8868Z" stroke="#F7AE92" stroke-width="2" stroke-miterlimit="1"/>
<path d="M1 106.535L1.07476 25.7227L70.3849 34.7599L70.3102 115.647L1 106.535Z" stroke="#F7AE92" stroke-width="2" stroke-miterlimit="1"/>
<path d="M1 106.535L1.07476 25.7227L70.3849 34.7599L70.3102 115.647L1 106.535Z" stroke="#F7AE92" stroke-width="2" stroke-miterlimit="1"/>
</svg>
