<svg width="112" height="104" viewBox="0 0 112 104" fill="none" xmlns="http://www.w3.org/2000/svg">
<path d="M71.3479 17.6387L110.998 43.1686L95.7431 95.6782L46.7006 102.549L31.6348 54.3261L71.3479 17.6387Z" stroke="#DE59CB" stroke-width="2" stroke-miterlimit="1"/>
<path d="M71.3479 17.6387L110.998 43.1686L95.7431 95.6782L46.7006 102.549L31.6348 54.3261L71.3479 17.6387Z" stroke="#DE59CB" stroke-width="2" stroke-miterlimit="1"/>
<path d="M40.7132 1L80.3633 26.5299L65.1084 79.0395L16.0658 85.9105L1 37.6874L40.7132 1Z" stroke="#DE59CB" stroke-width="2" stroke-miterlimit="1"/>
<path d="M40.7132 1L80.3633 26.5299L65.1084 79.0395L16.0658 85.9105L1 37.6874L40.7132 1Z" stroke="#DE59CB" stroke-width="2" stroke-miterlimit="1"/>
<path d="M40.7132 1L71.349 17.6417L31.6359 54.3291L1 37.6874L40.7132 1Z" stroke="#DE59CB" stroke-width="2" stroke-miterlimit="1"/>
<path d="M40.7132 1L71.349 17.6417L31.6359 54.3291L1 37.6874L40.7132 1Z" stroke="#DE59CB" stroke-width="2" stroke-miterlimit="1"/>
<path d="M1 37.6836L31.6359 54.3253L46.7017 102.548L16.0658 85.9067L1 37.6836Z" stroke="#DE59CB" stroke-width="2" stroke-miterlimit="1"/>
<path d="M1 37.6836L31.6359 54.3253L46.7017 102.548L16.0658 85.9067L1 37.6836Z" stroke="#DE59CB" stroke-width="2" stroke-miterlimit="1"/>
<path d="M16.0684 85.9106L65.111 78.9766L95.7468 95.6813L46.7043 102.552L16.0684 85.9106Z" stroke="#DE59CB" stroke-width="2" stroke-miterlimit="1"/>
<path d="M16.0684 85.9106L65.111 78.9766L95.7468 95.6813L46.7043 102.552L16.0684 85.9106Z" stroke="#DE59CB" stroke-width="2" stroke-miterlimit="1"/>
<path d="M65.1094 78.9798L80.3643 26.5332L111 43.1749L95.7452 95.6845L65.1094 78.9798Z" stroke="#DE59CB" stroke-width="2" stroke-miterlimit="1"/>
<path d="M65.1094 78.9798L80.3643 26.5332L111 43.1749L95.7452 95.6845L65.1094 78.9798Z" stroke="#DE59CB" stroke-width="2" stroke-miterlimit="1"/>
<path d="M80.363 26.5299L40.7129 1L71.3487 17.6417L110.999 43.1716L80.363 26.5299Z" stroke="#DE59CB" stroke-width="2" stroke-miterlimit="1"/>
<path d="M80.363 26.5299L40.7129 1L71.3487 17.6417L110.999 43.1716L80.363 26.5299Z" stroke="#DE59CB" stroke-width="2" stroke-miterlimit="1"/>
</svg>
