<svg width="224" height="56" viewBox="0 0 224 56" fill="none" xmlns="http://www.w3.org/2000/svg">
<path d="M0 8C0 3.58172 3.58172 0 8 0H216C220.418 0 224 3.58172 224 8V48C224 52.4183 220.418 56 216 56H8C3.58172 56 0 52.4183 0 48V8Z" fill="black"/>
<path d="M95.348 33.304C94.3027 33.304 93.3907 33.1333 92.612 32.792C91.8333 32.44 91.188 31.9707 90.676 31.384C90.1747 30.7973 89.8013 30.152 89.556 29.448C89.3107 28.7333 89.188 28.0133 89.188 27.288V26.936C89.188 26.2 89.3107 25.48 89.556 24.776C89.8013 24.072 90.1693 23.432 90.66 22.856C91.1613 22.28 91.78 21.8213 92.516 21.48C93.2627 21.1387 94.1213 20.968 95.092 20.968C96.1373 20.968 97.0653 21.1653 97.876 21.56C98.6867 21.9547 99.3373 22.4987 99.828 23.192C100.319 23.8747 100.607 24.664 100.692 25.56H98.068C97.9613 24.92 97.636 24.4027 97.092 24.008C96.548 23.6133 95.8813 23.416 95.092 23.416C94.4093 23.416 93.8227 23.576 93.332 23.896C92.852 24.2053 92.484 24.6427 92.228 25.208C91.972 25.7627 91.844 26.4027 91.844 27.128C91.844 28.2693 92.148 29.1867 92.756 29.88C93.3747 30.5733 94.2387 30.92 95.348 30.92C95.9453 30.92 96.4787 30.8187 96.948 30.616C97.4173 30.4027 97.7907 30.1253 98.068 29.784V28.808H95.012V26.92H101.444V28.808H100.484V30.792C99.9827 31.6027 99.2893 32.2267 98.404 32.664C97.5187 33.0907 96.5 33.304 95.348 33.304ZM107.268 33.304C106.244 33.304 105.369 33.096 104.644 32.68C103.929 32.264 103.385 31.72 103.012 31.048C102.639 30.3653 102.452 29.624 102.452 28.824V28.456C102.452 27.6347 102.644 26.8827 103.028 26.2C103.423 25.5067 103.977 24.9573 104.692 24.552C105.417 24.136 106.276 23.928 107.268 23.928C108.26 23.928 109.119 24.136 109.844 24.552C110.569 24.9573 111.124 25.5067 111.508 26.2C111.903 26.8827 112.1 27.6347 112.1 28.456V28.824C112.1 29.624 111.908 30.3653 111.524 31.048C111.151 31.72 110.607 32.264 109.892 32.68C109.177 33.096 108.303 33.304 107.268 33.304ZM107.268 31.144C108.004 31.144 108.564 30.9093 108.948 30.44C109.343 29.96 109.54 29.3627 109.54 28.648C109.54 27.912 109.337 27.304 108.932 26.824C108.537 26.3333 107.983 26.088 107.268 26.088C106.553 26.088 105.999 26.3333 105.604 26.824C105.209 27.304 105.012 27.912 105.012 28.648C105.012 29.3627 105.204 29.96 105.588 30.44C105.972 30.9093 106.532 31.144 107.268 31.144ZM117.871 33.112C116.985 33.112 116.271 33.0053 115.727 32.792C115.183 32.568 114.783 32.2 114.527 31.688C114.281 31.1653 114.159 30.4613 114.159 29.576V26.104H112.831V24.232H114.159V21.864H116.543V24.232H119.103V26.104H116.543V29.672C116.543 30.088 116.649 30.408 116.863 30.632C117.087 30.8453 117.401 30.952 117.807 30.952H119.103V33.112H117.871ZM125.592 23.368C125.112 23.368 124.754 23.2453 124.52 23C124.296 22.744 124.184 22.424 124.184 22.04C124.184 21.6453 124.296 21.3253 124.52 21.08C124.754 20.824 125.112 20.696 125.592 20.696C126.072 20.696 126.424 20.824 126.648 21.08C126.882 21.3253 127 21.6453 127 22.04C127 22.424 126.882 22.744 126.648 23C126.424 23.2453 126.072 23.368 125.592 23.368ZM124.6 33V26.12H123.432V24.232H127.16V33H124.6ZM133.511 33.112C132.626 33.112 131.911 33.0053 131.367 32.792C130.823 32.568 130.423 32.2 130.167 31.688C129.922 31.1653 129.799 30.4613 129.799 29.576V26.104H128.471V24.232H129.799V21.864H132.183V24.232H134.743V26.104H132.183V29.672C132.183 30.088 132.29 30.408 132.503 30.632C132.727 30.8453 133.042 30.952 133.447 30.952H134.743V33.112H133.511Z" fill="url(#paint0_linear_1059_13862)"/>
<path d="M8 1H216V-1H8V1ZM223 8V48H225V8H223ZM216 55H8V57H216V55ZM1 48V8H-1V48H1ZM8 55C4.134 55 1 51.866 1 48H-1C-1 52.9706 3.02943 57 8 57V55ZM223 48C223 51.866 219.866 55 216 55V57C220.971 57 225 52.9706 225 48H223ZM216 1C219.866 1 223 4.13401 223 8H225C225 3.02944 220.971 -1 216 -1V1ZM8 -1C3.02944 -1 -1 3.02944 -1 8H1C1 4.13401 4.13401 1 8 1V-1Z" fill="url(#paint1_linear_1059_13862)"/>
<defs>
<linearGradient id="paint0_linear_1059_13862" x1="82.4946" y1="24.2061" x2="157.463" y2="25.4406" gradientUnits="userSpaceOnUse">
<stop stop-color="#8758FE"/>
<stop offset="0.2326" stop-color="#B264FE"/>
<stop offset="0.6051" stop-color="#FF78FF"/>
</linearGradient>
<linearGradient id="paint1_linear_1059_13862" x1="-28.6214" y1="21.3607" x2="328.056" y2="37.3566" gradientUnits="userSpaceOnUse">
<stop stop-color="#8758FE"/>
<stop offset="0.2326" stop-color="#B264FE"/>
<stop offset="0.6051" stop-color="#FF78FF"/>
</linearGradient>
</defs>
</svg>
