<svg width="224" height="56" viewBox="0 0 224 56" fill="none" xmlns="http://www.w3.org/2000/svg">
<path d="M0 8C0 3.58172 3.58172 0 8 0H216C220.418 0 224 3.58172 224 8V48C224 52.4183 220.418 56 216 56H8C3.58172 56 0 52.4183 0 48V8Z" fill="black"/>
<path d="M78.132 33V23.608H74.852V21.32H84.052V23.608H80.756V33H78.132ZM85.0274 33V24.232H87.0594V27.208C87.1554 26.216 87.4594 25.4533 87.9714 24.92C88.494 24.3867 89.2034 24.12 90.0994 24.12H90.4354V26.328H89.7954C89.0807 26.328 88.5314 26.52 88.1474 26.904C87.774 27.288 87.5874 27.832 87.5874 28.536V33H85.0274ZM93.6274 32.808L90.9394 24.232H93.5154L95.4514 30.808H95.7714L97.3714 24.232H99.8034L97.3554 33.704C97.174 34.3867 96.9287 34.9307 96.6194 35.336C96.3207 35.7413 95.9154 36.0293 95.4034 36.2C94.902 36.3813 94.2674 36.472 93.4994 36.472H91.9314V34.296H93.7554C94.1607 34.296 94.4754 34.216 94.6994 34.056C94.934 33.896 95.1047 33.608 95.2114 33.192L95.2914 32.808H93.6274ZM107.008 33.224C106.058 33.224 105.29 32.9787 104.704 32.488C104.128 31.9973 103.84 31.304 103.84 30.408C103.84 29.768 104.005 29.2453 104.336 28.84C104.666 28.424 105.13 28.12 105.728 27.928C106.325 27.7253 107.013 27.624 107.792 27.624H109.376V27.592C109.376 26.696 108.928 26.248 108.032 26.248C107.797 26.248 107.488 26.2587 107.104 26.28C106.72 26.2907 106.32 26.3067 105.904 26.328C105.498 26.3387 105.136 26.3547 104.816 26.376V24.216C105.189 24.184 105.648 24.1573 106.192 24.136C106.736 24.104 107.237 24.088 107.696 24.088C109.04 24.088 110.064 24.376 110.768 24.952C111.482 25.5173 111.84 26.408 111.84 27.624V33H109.808V31.352C109.616 31.96 109.285 32.424 108.816 32.744C108.346 33.064 107.744 33.224 107.008 33.224ZM107.776 31.448C108.192 31.448 108.554 31.3307 108.864 31.096C109.173 30.8613 109.344 30.4133 109.376 29.752V29.048H107.776C107.328 29.048 106.981 29.16 106.736 29.384C106.501 29.608 106.384 29.9013 106.384 30.264C106.384 30.616 106.501 30.904 106.736 31.128C106.981 31.3413 107.328 31.448 107.776 31.448ZM117.468 36.488C117.03 36.488 116.588 36.472 116.14 36.44C115.692 36.408 115.286 36.3653 114.924 36.312V34.152C115.297 34.2053 115.708 34.248 116.156 34.28C116.604 34.3227 117.02 34.344 117.404 34.344C118.438 34.344 119.185 34.1627 119.644 33.8C120.113 33.448 120.348 32.888 120.348 32.12V31.352C120.07 31.9067 119.676 32.3333 119.164 32.632C118.662 32.92 118.07 33.064 117.388 33.064C116.588 33.064 115.894 32.8773 115.308 32.504C114.721 32.12 114.268 31.5973 113.948 30.936C113.628 30.2747 113.468 29.5333 113.468 28.712V28.344C113.468 27.512 113.638 26.7707 113.98 26.12C114.321 25.4587 114.796 24.936 115.404 24.552C116.022 24.168 116.737 23.976 117.548 23.976C118.305 23.976 118.956 24.1573 119.5 24.52C120.044 24.8827 120.454 25.4053 120.732 26.088V24.232H122.764V31.96C122.764 33.5813 122.326 34.7387 121.452 35.432C120.588 36.136 119.26 36.488 117.468 36.488ZM118.188 30.904C118.774 30.904 119.27 30.712 119.676 30.328C120.092 29.9333 120.3 29.384 120.3 28.68V28.216C120.3 27.7573 120.198 27.3733 119.996 27.064C119.804 26.744 119.548 26.504 119.228 26.344C118.908 26.1733 118.566 26.088 118.204 26.088C117.553 26.088 117.025 26.312 116.62 26.76C116.225 27.1973 116.028 27.784 116.028 28.52C116.028 29.2667 116.23 29.8533 116.636 30.28C117.041 30.696 117.558 30.904 118.188 30.904ZM127.477 33.224C126.527 33.224 125.759 32.9787 125.173 32.488C124.597 31.9973 124.309 31.304 124.309 30.408C124.309 29.768 124.474 29.2453 124.805 28.84C125.135 28.424 125.599 28.12 126.197 27.928C126.794 27.7253 127.482 27.624 128.261 27.624H129.845V27.592C129.845 26.696 129.397 26.248 128.501 26.248C128.266 26.248 127.957 26.2587 127.573 26.28C127.189 26.2907 126.789 26.3067 126.373 26.328C125.967 26.3387 125.605 26.3547 125.285 26.376V24.216C125.658 24.184 126.117 24.1573 126.661 24.136C127.205 24.104 127.706 24.088 128.165 24.088C129.509 24.088 130.533 24.376 131.237 24.952C131.951 25.5173 132.309 26.408 132.309 27.624V33H130.277V31.352C130.085 31.96 129.754 32.424 129.285 32.744C128.815 33.064 128.213 33.224 127.477 33.224ZM128.245 31.448C128.661 31.448 129.023 31.3307 129.333 31.096C129.642 30.8613 129.813 30.4133 129.845 29.752V29.048H128.245C127.797 29.048 127.45 29.16 127.205 29.384C126.97 29.608 126.853 29.9013 126.853 30.264C126.853 30.616 126.97 30.904 127.205 31.128C127.45 31.3413 127.797 31.448 128.245 31.448ZM135.889 23.368C135.409 23.368 135.051 23.2453 134.817 23C134.593 22.744 134.481 22.424 134.481 22.04C134.481 21.6453 134.593 21.3253 134.817 21.08C135.051 20.824 135.409 20.696 135.889 20.696C136.369 20.696 136.721 20.824 136.945 21.08C137.179 21.3253 137.297 21.6453 137.297 22.04C137.297 22.424 137.179 22.744 136.945 23C136.721 23.2453 136.369 23.368 135.889 23.368ZM134.897 33V26.12H133.729V24.232H137.457V33H134.897ZM139.824 33V24.232H141.856V26.472C142.208 24.7973 143.195 23.96 144.816 23.96H144.928C145.942 23.96 146.72 24.296 147.264 24.968C147.808 25.6293 148.08 26.6373 148.08 27.992V33H145.52V27.848C145.52 27.3787 145.382 26.9947 145.104 26.696C144.827 26.3973 144.454 26.248 143.984 26.248C143.504 26.248 143.115 26.4027 142.816 26.712C142.528 27.0107 142.384 27.4053 142.384 27.896V33H139.824Z" fill="url(#paint0_linear_1062_15129)"/>
<path d="M8 1H216V-1H8V1ZM223 8V48H225V8H223ZM216 55H8V57H216V55ZM1 48V8H-1V48H1ZM8 55C4.134 55 1 51.866 1 48H-1C-1 52.9706 3.02943 57 8 57V55ZM223 48C223 51.866 219.866 55 216 55V57C220.971 57 225 52.9706 225 48H223ZM216 1C219.866 1 223 4.13401 223 8H225C225 3.02944 220.971 -1 216 -1V1ZM8 -1C3.02944 -1 -1 3.02944 -1 8H1C1 4.13401 4.13401 1 8 1V-1Z" fill="url(#paint1_linear_1062_15129)"/>
<defs>
<linearGradient id="paint0_linear_1062_15129" x1="64.917" y1="24.2061" x2="184.498" y2="27.3484" gradientUnits="userSpaceOnUse">
<stop stop-color="#8758FE"/>
<stop offset="0.2326" stop-color="#B264FE"/>
<stop offset="0.6051" stop-color="#FF78FF"/>
</linearGradient>
<linearGradient id="paint1_linear_1062_15129" x1="-28.6214" y1="21.3607" x2="328.056" y2="37.3566" gradientUnits="userSpaceOnUse">
<stop stop-color="#8758FE"/>
<stop offset="0.2326" stop-color="#B264FE"/>
<stop offset="0.6051" stop-color="#FF78FF"/>
</linearGradient>
</defs>
</svg>
