<svg width="24" height="18" viewBox="0 0 24 18" fill="none" xmlns="http://www.w3.org/2000/svg">
<path d="M20.3468 1.51199C18.7822 0.803999 17.1206 0.287998 15.3862 0C15.1679 0.372002 14.9253 0.875995 14.7555 1.272C12.9108 1.00799 11.0793 1.00799 9.26006 1.272C9.09025 0.875995 8.83554 0.372002 8.62935 0C6.88287 0.287998 5.22126 0.803999 3.66761 1.51199C0.526326 6.09598 -0.322673 10.572 0.101825 14.9879C2.18793 16.4879 4.20128 17.4 6.17944 18C6.66458 17.352 7.10121 16.6559 7.4772 15.924C6.76161 15.66 6.08242 15.336 5.42748 14.9519C5.59727 14.832 5.76708 14.7 5.92475 14.568C9.87864 16.356 14.1612 16.356 18.0666 14.568C18.2364 14.7 18.3941 14.832 18.5639 14.9519C17.9089 15.336 17.2297 15.66 16.5141 15.924C16.8901 16.6559 17.3268 17.352 17.8119 18C19.7888 17.4 21.8143 16.4879 23.8895 14.9879C24.4109 9.876 23.0635 5.43602 20.3468 1.51199ZM8.02297 12.264C6.83436 12.264 5.86408 11.196 5.86408 9.888C5.86408 8.58002 6.81011 7.51197 8.02297 7.51197C9.22367 7.51197 10.2061 8.58002 10.1818 9.888C10.1818 11.196 9.22367 12.264 8.02297 12.264ZM15.9926 12.264C14.804 12.264 13.8325 11.196 13.8325 9.888C13.8325 8.58002 14.7797 7.51197 15.9926 7.51197C17.1934 7.51197 18.1757 8.58002 18.1515 9.888C18.1515 11.196 17.2055 12.264 15.9926 12.264Z" fill="url(#paint0_linear_768:12164)"/>
<defs>
<linearGradient id="paint0_linear_768:12164" x1="-4.38959" y1="17.9324" x2="26.6636" y2="3.43749" gradientUnits="userSpaceOnUse">
<stop offset="0.0139607" stop-color="#8F67E2"/>
<stop offset="0.1403" stop-color="#7D89E5"/>
<stop offset="0.2948" stop-color="#6AACE9"/>
<stop offset="0.4216" stop-color="#5EC1EB"/>
<stop offset="0.5042" stop-color="#5AC9EC"/>
<stop offset="1" stop-color="#51EABD"/>
</linearGradient>
</defs>
</svg>
