<svg width="205" height="40" viewBox="0 0 205 40" fill="none" xmlns="http://www.w3.org/2000/svg">
<path d="M3.75977 16.4453L12.5437 23.8395L30.7887 16.4453H3.75977Z" fill="url(#paint0_linear_1284_1118)"/>
<path d="M3.0293 17.2832L7.03821 40.0004L11.7954 24.624L3.0293 17.2832Z" fill="url(#paint1_linear_1284_1118)"/>
<path d="M17.4967 0L2.58352 14.9488L0 0H17.4967Z" fill="url(#paint2_linear_1284_1118)"/>
<path d="M18.9572 0L26.1376 7.21604L3.74121 15.3586L18.9572 0Z" fill="url(#paint3_linear_1284_1118)"/>
<path d="M45.9156 0.0178157L27.2787 6.78842L20.4902 0L45.9156 0.0178157Z" fill="url(#paint4_linear_1284_1118)"/>
<path d="M50.8508 18.299V22.4683H58.1381V25.3903H50.8508V31.1275H47.1982V15.377H59.1003V18.299H50.8508Z" fill="white"/>
<path d="M73.1406 31.1275L70.1116 26.7444H69.9334H66.7619V31.1275H63.1094V15.377H69.9334C71.3232 15.377 72.5348 15.6086 73.5682 16.0718C74.6016 16.5351 75.3856 17.1943 75.9379 18.0496C76.4902 18.9048 76.7753 19.9204 76.7753 21.0785C76.7753 22.2545 76.4902 23.2522 75.9379 24.1075C75.3856 24.9627 74.5838 25.6041 73.5504 26.0496L77.0782 31.1097H73.1406V31.1275ZM72.2319 19.0473C71.6617 18.5663 70.8243 18.3346 69.7374 18.3346H66.7619V23.8224H69.7374C70.8243 23.8224 71.6617 23.5908 72.2319 23.1097C72.802 22.6286 73.0871 21.9516 73.0871 21.0785C73.0871 20.2055 72.802 19.5284 72.2319 19.0473Z" fill="white"/>
<path d="M92.8105 27.7425H85.5054L84.1157 31.1099H80.374L87.3941 15.3594H90.9932L98.031 31.1099H94.2003L92.8105 27.7425ZM91.6702 24.9808L89.1758 18.9585L86.6814 24.9808H91.6702Z" fill="white"/>
<path d="M111.626 23.0029H114.958V29.3994C114.103 30.0408 113.105 30.5397 111.983 30.8782C110.86 31.2168 109.72 31.3949 108.579 31.3949C106.94 31.3949 105.479 31.0386 104.161 30.3437C102.86 29.6488 101.827 28.6867 101.096 27.4395C100.348 26.2101 99.9736 24.8025 99.9736 23.2346C99.9736 21.6666 100.348 20.2769 101.096 19.0297C101.844 17.8003 102.878 16.8203 104.196 16.1254C105.515 15.4306 106.994 15.0742 108.651 15.0742C110.023 15.0742 111.288 15.3058 112.41 15.7691C113.533 16.2323 114.477 16.9094 115.243 17.8003L112.909 19.9918C111.787 18.8159 110.432 18.2101 108.829 18.2101C107.831 18.2101 106.922 18.4239 106.156 18.8337C105.372 19.2613 104.767 19.8493 104.339 20.6154C103.911 21.3816 103.68 22.2546 103.68 23.2524C103.68 24.2323 103.893 25.1054 104.339 25.8715C104.767 26.6377 105.372 27.2257 106.156 27.6533C106.922 28.0809 107.813 28.2947 108.793 28.2947C109.844 28.2947 110.789 28.0631 111.626 27.6176V23.0029Z" fill="white"/>
<path d="M123.065 30.3437C121.764 29.6488 120.749 28.6867 120 27.4395C119.252 26.2101 118.878 24.8025 118.878 23.2346C118.878 21.6666 119.252 20.2769 120 19.0297C120.749 17.8003 121.764 16.8203 123.065 16.1254C124.366 15.4306 125.827 15.0742 127.448 15.0742C128.82 15.0742 130.049 15.3058 131.154 15.7869C132.259 16.268 133.185 16.9629 133.934 17.8537L131.6 20.0096C130.531 18.7802 129.212 18.1566 127.644 18.1566C126.664 18.1566 125.791 18.3704 125.043 18.7981C124.277 19.2257 123.689 19.8136 123.261 20.5798C122.833 21.3459 122.62 22.219 122.62 23.1811C122.62 24.1611 122.833 25.0341 123.261 25.8003C123.689 26.5664 124.277 27.1544 125.043 27.582C125.809 28.0096 126.682 28.2234 127.644 28.2234C129.212 28.2234 130.531 27.5998 131.6 26.3526L133.934 28.5085C133.185 29.4172 132.259 30.1299 131.136 30.5932C130.032 31.0742 128.784 31.3058 127.43 31.3058C125.827 31.3949 124.366 31.0386 123.065 30.3437Z" fill="white"/>
<path d="M140.758 30.3432C139.439 29.6305 138.424 28.6684 137.675 27.4212C136.927 26.1918 136.553 24.7842 136.553 23.2519C136.553 21.7018 136.927 20.312 137.675 19.0826C138.424 17.8532 139.439 16.8733 140.758 16.1606C142.076 15.4479 143.537 15.1094 145.176 15.1094C146.816 15.1094 148.277 15.4657 149.595 16.1606C150.896 16.8733 151.929 17.8354 152.677 19.0826C153.426 20.312 153.8 21.7196 153.8 23.2519C153.8 24.802 153.426 26.1918 152.677 27.4212C151.929 28.6506 150.896 29.6305 149.595 30.3432C148.294 31.0559 146.816 31.3945 145.176 31.3945C143.537 31.3945 142.076 31.0381 140.758 30.3432ZM147.706 27.6528C148.455 27.2252 149.043 26.6372 149.47 25.8711C149.898 25.1049 150.112 24.2319 150.112 23.2519C150.112 22.272 149.898 21.3989 149.47 20.6506C149.043 19.8844 148.455 19.2965 147.706 18.8688C146.958 18.4412 146.121 18.2274 145.194 18.2274C144.268 18.2274 143.43 18.4412 142.682 18.8688C141.934 19.2965 141.346 19.8844 140.918 20.6506C140.49 21.4167 140.277 22.2898 140.277 23.2519C140.277 24.2319 140.49 25.1049 140.918 25.8711C141.346 26.6372 141.934 27.2252 142.682 27.6528C143.43 28.0804 144.268 28.2942 145.194 28.2942C146.103 28.2942 146.94 28.0804 147.706 27.6528Z" fill="white"/>
<path d="M157.452 15.377H161.105V28.152H168.998V31.1275H157.452V15.377Z" fill="white"/>
<path d="M174.806 30.3432C173.488 29.6305 172.472 28.6684 171.724 27.4212C170.976 26.1918 170.602 24.7842 170.602 23.2519C170.602 21.7018 170.976 20.312 171.724 19.0826C172.472 17.8532 173.488 16.8733 174.806 16.1606C176.125 15.4479 177.586 15.1094 179.225 15.1094C180.864 15.1094 182.325 15.4657 183.644 16.1606C184.945 16.8733 185.978 17.8354 186.726 19.0826C187.475 20.312 187.849 21.7196 187.849 23.2519C187.849 24.802 187.475 26.1918 186.726 27.4212C185.978 28.6506 184.945 29.6305 183.644 30.3432C182.343 31.0559 180.864 31.3944 179.225 31.3944C177.586 31.3944 176.107 31.0381 174.806 30.3432ZM181.737 27.6528C182.486 27.2252 183.074 26.6372 183.501 25.8711C183.929 25.1049 184.143 24.2319 184.143 23.2519C184.143 22.272 183.929 21.3989 183.501 20.6506C183.074 19.8844 182.486 19.2965 181.737 18.8688C180.989 18.4412 180.152 18.2274 179.225 18.2274C178.299 18.2274 177.461 18.4412 176.713 18.8688C175.965 19.2965 175.377 19.8844 174.949 20.6506C174.521 21.4167 174.308 22.2898 174.308 23.2519C174.308 24.2319 174.521 25.1049 174.949 25.8711C175.377 26.6372 175.965 27.2252 176.713 27.6528C177.461 28.0804 178.299 28.2942 179.225 28.2942C180.152 28.2942 180.989 28.0804 181.737 27.6528Z" fill="white"/>
<path d="M200.855 31.1275L197.826 26.7444H197.648H194.477V31.1275H190.824V15.377H197.648C199.038 15.377 200.25 15.6086 201.283 16.0718C202.316 16.5351 203.1 17.1943 203.653 18.0496C204.205 18.9048 204.49 19.9204 204.49 21.0785C204.49 22.2545 204.205 23.2522 203.653 24.1075C203.083 24.9627 202.299 25.6041 201.265 26.0496L204.793 31.1097H200.855V31.1275ZM199.929 19.0473C199.359 18.5663 198.521 18.3346 197.434 18.3346H194.459V23.8224H197.434C198.521 23.8224 199.359 23.5908 199.929 23.1097C200.499 22.6286 200.784 21.9516 200.784 21.0785C200.784 20.2055 200.499 19.5284 199.929 19.0473Z" fill="white"/>
<defs>
<linearGradient id="paint0_linear_1284_1118" x1="0.306171" y1="19.2658" x2="43.3589" y2="21.0302" gradientUnits="userSpaceOnUse">
<stop stop-color="#8758FE"/>
<stop offset="0.2326" stop-color="#B264FE"/>
<stop offset="0.6051" stop-color="#FF78FF"/>
</linearGradient>
<linearGradient id="paint1_linear_1284_1118" x1="8.0722" y1="17.6269" x2="2.19067" y2="47.2698" gradientUnits="userSpaceOnUse">
<stop offset="0.0376844" stop-color="#946BFF"/>
<stop offset="0.192" stop-color="#8A64F8"/>
<stop offset="0.4547" stop-color="#6F52E7"/>
<stop offset="0.7919" stop-color="#4334CA"/>
<stop offset="0.9" stop-color="#342AC0"/>
</linearGradient>
<linearGradient id="paint2_linear_1284_1118" x1="-2.56351" y1="14.3959" x2="13.6496" y2="-6.23897" gradientUnits="userSpaceOnUse">
<stop offset="0.0831546" stop-color="#5A83E2"/>
<stop offset="0.4214" stop-color="#5CB2E7"/>
<stop offset="0.8255" stop-color="#5FE6EC"/>
</linearGradient>
<linearGradient id="paint3_linear_1284_1118" x1="-0.355091" y1="15.3009" x2="27.641" y2="1.00882" gradientUnits="userSpaceOnUse">
<stop offset="0.0139607" stop-color="#8F67E2"/>
<stop offset="0.1403" stop-color="#7D89E5"/>
<stop offset="0.2948" stop-color="#6AACE9"/>
<stop offset="0.4216" stop-color="#5EC1EB"/>
<stop offset="0.5042" stop-color="#5AC9EC"/>
<stop offset="1" stop-color="#51EABD"/>
</linearGradient>
<linearGradient id="paint4_linear_1284_1118" x1="24.5059" y1="3.21155" x2="49.9236" y2="-4.37846" gradientUnits="userSpaceOnUse">
<stop stop-color="#66E7C1"/>
<stop offset="0.8201" stop-color="#96FF86"/>
</linearGradient>
</defs>
</svg>
