<svg width="46" height="40" viewBox="0 0 46 40" fill="none" xmlns="http://www.w3.org/2000/svg">
<path d="M3.76074 16.4473L12.5526 23.8279L30.823 16.4473H3.76074Z" fill="url(#paint0_linear_1230_4549)"/>
<path d="M3.04785 17.2676L7.05874 39.9992L11.8076 24.6289L3.04785 17.2676Z" fill="url(#paint1_linear_1230_4549)"/>
<path d="M17.5195 0L2.59905 14.9407L0 0H17.5195Z" fill="url(#paint2_linear_1230_4549)"/>
<path d="M18.9893 0L26.1768 7.20744L3.76074 15.3511L18.9893 0Z" fill="url(#paint3_linear_1230_4549)"/>
<path d="M45.9618 0.00641172L27.3064 6.79064L20.5039 0L45.9618 0.00641172Z" fill="url(#paint4_linear_1230_4549)"/>
<defs>
<linearGradient id="paint0_linear_1230_4549" x1="0.314339" y1="19.2623" x2="43.4" y2="21.0295" gradientUnits="userSpaceOnUse">
<stop stop-color="#8758FE"/>
<stop offset="0.2326" stop-color="#B264FE"/>
<stop offset="0.6051" stop-color="#FF78FF"/>
</linearGradient>
<linearGradient id="paint1_linear_1230_4549" x1="8.08573" y1="17.6225" x2="2.2087" y2="47.2663" gradientUnits="userSpaceOnUse">
<stop offset="0.0376844" stop-color="#946BFF"/>
<stop offset="0.192" stop-color="#8A64F8"/>
<stop offset="0.4547" stop-color="#6F52E7"/>
<stop offset="0.7919" stop-color="#4334CA"/>
<stop offset="0.9" stop-color="#342AC0"/>
</linearGradient>
<linearGradient id="paint2_linear_1230_4549" x1="-2.55738" y1="14.3927" x2="13.6522" y2="-6.25408" gradientUnits="userSpaceOnUse">
<stop offset="0.0831546" stop-color="#5A83E2"/>
<stop offset="0.4214" stop-color="#5CB2E7"/>
<stop offset="0.8255" stop-color="#5FE6EC"/>
</linearGradient>
<linearGradient id="paint3_linear_1230_4549" x1="-0.346674" y1="15.2977" x2="27.6616" y2="0.987964" gradientUnits="userSpaceOnUse">
<stop offset="0.0139607" stop-color="#8F67E2"/>
<stop offset="0.1403" stop-color="#7D89E5"/>
<stop offset="0.2948" stop-color="#6AACE9"/>
<stop offset="0.4216" stop-color="#5EC1EB"/>
<stop offset="0.5042" stop-color="#5AC9EC"/>
<stop offset="1" stop-color="#51EABD"/>
</linearGradient>
<linearGradient id="paint4_linear_1230_4549" x1="24.5329" y1="3.20869" x2="49.9667" y2="-4.3922" gradientUnits="userSpaceOnUse">
<stop stop-color="#66E7C1"/>
<stop offset="0.8201" stop-color="#96FF86"/>
</linearGradient>
</defs>
</svg>
