<svg width="158" height="40" viewBox="0 0 158 40" fill="none" xmlns="http://www.w3.org/2000/svg">
<path d="M3.75977 16.4453L12.5437 23.8395L30.7887 16.4453H3.75977Z" fill="url(#paint0_linear_1112:1176)"/>
<path d="M3.0293 17.2832L7.03821 40.0004L11.7954 24.624L3.0293 17.2832Z" fill="url(#paint1_linear_1112:1176)"/>
<path d="M17.4967 0L2.58352 14.9488L0 0H17.4967Z" fill="url(#paint2_linear_1112:1176)"/>
<path d="M18.9582 0L26.1386 7.21604L3.74219 15.3586L18.9582 0Z" fill="url(#paint3_linear_1112:1176)"/>
<path d="M45.9156 0.0178157L27.2787 6.78842L20.4902 0L45.9156 0.0178157Z" fill="url(#paint4_linear_1112:1176)"/>
<path d="M45.6291 8.3076V11.3117H50.8855V13.4221H45.6291V17.5618H43V6.19531H51.5774V8.3076H45.6291Z" fill="white"/>
<path d="M61.5401 17.5616L59.3501 14.3968H56.9276V17.5616H54.293V6.1951H59.2099C60.1092 6.17393 61.0025 6.34581 61.8298 6.69917C62.5385 6.99437 63.1401 7.49949 63.5536 8.14671C63.9672 8.79394 64.173 9.5523 64.1434 10.32C64.1734 11.0869 63.9646 11.8442 63.5459 12.4873C63.1271 13.1303 62.5191 13.6272 61.8058 13.9094L64.3538 17.5616H61.5401ZM60.8741 8.85023C60.462 8.50926 59.8618 8.33878 59.0734 8.33878H56.9276V12.3012H59.0697C59.8593 12.3012 60.4596 12.1282 60.8704 11.7823C61.0775 11.6016 61.2407 11.3759 61.3475 11.1224C61.4543 10.869 61.5019 10.5946 61.4866 10.32C61.483 9.68112 61.2757 9.1912 60.8649 8.85023H60.8741Z" fill="white"/>
<path d="M75.2066 15.1264H69.9336L68.9281 17.5618H66.2344L71.2971 6.19531H73.9004L78.9778 17.5618H76.2103L75.2066 15.1264ZM74.3801 13.1304L72.5775 8.77843L70.7768 13.1304H74.3801Z" fill="white"/>
<path d="M88.3031 11.7027H90.7016V16.3187C90.0557 16.7987 89.3307 17.1618 88.5595 17.3914C87.7658 17.6363 86.9399 17.7608 86.1094 17.7607C85.007 17.7754 83.9183 17.5152 82.9415 17.0037C82.0263 16.5254 81.2603 15.8042 80.7275 14.9191C80.1996 13.997 79.9219 12.9528 79.9219 11.8901C79.9219 10.8274 80.1996 9.78312 80.7275 8.86103C81.256 7.9678 82.0226 7.23956 82.9415 6.75798C83.9335 6.24459 85.037 5.98514 86.1536 6.0028C87.0813 5.9903 88.0023 6.16095 88.864 6.50502C89.6514 6.82378 90.352 7.32496 90.9082 7.96737L89.22 9.52574C88.8494 9.11607 88.3961 8.78984 87.8901 8.56862C87.384 8.3474 86.8368 8.23624 86.2846 8.24249C85.6127 8.22944 84.9482 8.38631 84.3529 8.69855C83.8012 8.99062 83.3452 9.43547 83.0393 9.97995C82.7292 10.5625 82.567 11.2125 82.567 11.8725C82.567 12.5326 82.7292 13.1825 83.0393 13.7651C83.3446 14.3103 83.7974 14.7582 84.3455 15.0576C84.9308 15.3724 85.5871 15.5314 86.2514 15.5192C86.9626 15.5299 87.6652 15.363 88.2957 15.0336L88.3031 11.7027Z" fill="white"/>
<path d="M104.744 17.5635L104.729 10.7447L101.392 16.3634H100.207L96.886 10.8906V17.5635H94.4082V6.19705H96.5835L100.838 13.2577L105.024 6.19336H107.183L107.214 17.5598L104.744 17.5635Z" fill="white"/>
<path d="M119.914 15.4513V17.5618H111.121V6.19531H119.704V8.3076H113.734V10.7744H119.007V12.8202H113.734V15.4513H119.914Z" fill="white"/>
<path d="M134.233 6.19531V17.5618H132.076L126.405 10.671V17.571H123.809V6.19531H125.984L131.63 13.0972V6.19531H134.233Z" fill="white"/>
<path d="M140.492 8.33899H136.857V6.19531H146.756V8.33899H143.121V17.5618H140.492V8.33899Z" fill="white"/>
<path d="M150.375 17.3931C149.646 17.2051 148.958 16.8833 148.346 16.444L149.237 14.4628C149.766 14.8405 150.352 15.131 150.973 15.3233C151.623 15.5362 152.302 15.6459 152.986 15.6482C153.732 15.6482 154.286 15.5368 154.646 15.314C154.808 15.2293 154.943 15.1022 155.037 14.9463C155.131 14.7905 155.181 14.6118 155.181 14.4296C155.183 14.3007 155.156 14.173 155.101 14.0562C155.047 13.9394 154.966 13.8367 154.866 13.7557C154.626 13.5612 154.35 13.4152 154.054 13.3254C153.725 13.2171 153.279 13.0983 152.717 12.9691C151.996 12.8058 151.285 12.5993 150.589 12.3505C150.04 12.1467 149.552 11.8061 149.17 11.3609C148.776 10.9067 148.578 10.3004 148.578 9.54216C148.572 8.90363 148.758 8.27806 149.113 7.74745C149.516 7.17504 150.077 6.73238 150.728 6.47343C151.565 6.1375 152.462 5.97725 153.364 6.0026C154.08 6.00184 154.794 6.08865 155.49 6.2611C156.13 6.41016 156.744 6.65941 157.307 6.99966L156.501 9.01039C155.548 8.44154 154.462 8.13335 153.353 8.11673C152.615 8.11673 152.071 8.23614 151.722 8.47494C151.56 8.57248 151.426 8.71062 151.333 8.87575C151.241 9.04088 151.193 9.22729 151.194 9.4166C151.194 9.80558 151.397 10.0948 151.803 10.2844C152.402 10.5319 153.025 10.7175 153.661 10.8383C154.382 11.0004 155.091 11.2064 155.787 11.455C156.333 11.6564 156.821 11.9909 157.205 12.4281C157.6 12.8725 157.798 13.4732 157.798 14.2302C157.802 14.8649 157.613 15.4859 157.255 16.0101C156.845 16.5826 156.279 17.0249 155.624 17.2841C154.783 17.6195 153.883 17.7798 152.979 17.755C152.098 17.7586 151.221 17.6368 150.375 17.3931Z" fill="white"/>
<path d="M45.6291 24.546V27.5501H50.8855V29.6605H45.6291V33.802H43V22.4355H51.5774V24.546H45.6291Z" fill="white"/>
<path d="M56.0708 33.2348C55.1505 32.7519 54.3812 32.0241 53.8475 31.1318C53.3217 30.2154 53.0449 29.1771 53.0449 28.1203C53.0449 27.0635 53.3217 26.0252 53.8475 25.1088C54.3812 24.2164 55.1505 23.4887 56.0708 23.0058C57.057 22.5026 58.1482 22.2402 59.2552 22.2402C60.3622 22.2402 61.4535 22.5026 62.4397 23.0058C63.3656 23.5004 64.1399 24.2376 64.6797 25.1384C65.2196 26.0392 65.5047 27.0699 65.5047 28.1203C65.5047 29.1707 65.2196 30.2014 64.6797 31.1022C64.1399 32.003 63.3656 32.7402 62.4397 33.2348C61.4535 33.738 60.3622 34.0004 59.2552 34.0004C58.1482 34.0004 57.057 33.738 56.0708 33.2348ZM61.0763 31.2943C61.6122 30.99 62.053 30.5425 62.3493 30.0018C62.6532 29.4206 62.8119 28.7744 62.8119 28.1185C62.8119 27.4625 62.6532 26.8163 62.3493 26.2351C62.053 25.6944 61.6122 25.2469 61.0763 24.9426C60.5187 24.6385 59.8939 24.4791 59.2589 24.4791C58.624 24.4791 57.9991 24.6385 57.4416 24.9426C56.9057 25.2469 56.4649 25.6944 56.1686 26.2351C55.8647 26.8163 55.7059 27.4625 55.7059 28.1185C55.7059 28.7744 55.8647 29.4206 56.1686 30.0018C56.4649 30.5425 56.9057 30.99 57.4416 31.2943C57.9991 31.5984 58.624 31.7578 59.2589 31.7578C59.8939 31.7578 60.5187 31.5984 61.0763 31.2943Z" fill="white"/>
<path d="M68.5006 32.6443C67.5966 31.7457 67.1445 30.4625 67.1445 28.7946V22.4355H69.7737V28.7133C69.7737 30.7481 70.6174 31.7654 72.305 31.7654C73.1279 31.7654 73.7552 31.5192 74.1869 31.0269C74.6186 30.5345 74.8351 29.7633 74.8363 28.7133V22.4355H77.4323V28.8001C77.4323 30.4668 76.9809 31.75 76.078 32.6499C75.1752 33.5497 73.912 33.999 72.2884 33.9977C70.6673 33.9977 69.4047 33.5466 68.5006 32.6443Z" fill="white"/>
<path d="M90.5243 22.4355V33.802H88.3675L82.7033 26.9002V33.802H80.1074V22.4355H82.2827L87.9247 29.3374V22.4355H90.5243Z" fill="white"/>
<path d="M93.3008 22.4351H98.4668C99.5966 22.4122 100.716 22.6537 101.736 23.1404C102.649 23.5785 103.417 24.2693 103.95 25.1308C104.466 26.0417 104.738 27.0711 104.738 28.1183C104.738 29.1656 104.466 30.1949 103.95 31.1058C103.418 31.9673 102.649 32.6576 101.736 33.0944C100.716 33.5817 99.5967 33.8239 98.4668 33.8016H93.3008V22.4351ZM98.3321 31.6413C99.4674 31.6413 100.373 31.3249 101.05 30.6922C101.726 30.0595 102.064 29.2015 102.063 28.1183C102.063 27.0363 101.725 26.1784 101.05 25.5444C100.375 24.9105 99.4686 24.5942 98.3321 24.5954H95.9336V31.6413H98.3321Z" fill="white"/>
<path d="M113.81 31.3666H108.537L107.53 33.802H104.838L109.899 22.4355H112.496L117.574 33.802H114.806L113.81 31.3666ZM112.982 29.3688L111.181 25.0168L109.38 29.3688H112.982Z" fill="white"/>
<path d="M120.041 24.5792H116.406V22.4355H126.299V24.5792H122.665V33.802H120.035L120.041 24.5792Z" fill="white"/>
<path d="M128.09 22.4355H130.719V33.802H128.09V22.4355Z" fill="white"/>
<path d="M135.804 33.2348C134.887 32.75 134.121 32.0225 133.59 31.1318C133.064 30.2154 132.787 29.1771 132.787 28.1203C132.787 27.0635 133.064 26.0252 133.59 25.1088C134.121 24.2181 134.887 23.4907 135.804 23.0058C136.79 22.5026 137.881 22.2402 138.988 22.2402C140.095 22.2402 141.186 22.5026 142.173 23.0058C143.099 23.5 143.874 24.237 144.414 25.1379C144.954 26.0387 145.24 27.0696 145.24 28.1203C145.24 29.171 144.954 30.2019 144.414 31.1027C143.874 32.0036 143.099 32.7406 142.173 33.2348C141.186 33.738 140.095 34.0004 138.988 34.0004C137.881 34.0004 136.79 33.738 135.804 33.2348ZM140.809 31.2943C141.346 30.9903 141.787 30.5427 142.084 30.0018C142.387 29.4203 142.545 28.7742 142.545 28.1185C142.545 27.4627 142.387 26.8166 142.084 26.2351C141.787 25.6942 141.346 25.2467 140.809 24.9426C140.252 24.6385 139.627 24.4791 138.992 24.4791C138.357 24.4791 137.732 24.6385 137.175 24.9426C136.639 25.2469 136.198 25.6944 135.902 26.2351C135.598 26.8163 135.439 27.4625 135.439 28.1185C135.439 28.7744 135.598 29.4206 135.902 30.0018C136.198 30.5425 136.639 30.99 137.175 31.2943C137.732 31.5984 138.357 31.7578 138.992 31.7578C139.627 31.7578 140.252 31.5984 140.809 31.2943Z" fill="white"/>
<path d="M157.686 22.4355V33.802H155.528L149.865 26.9002V33.802H147.268V22.4355H149.443L155.089 29.3374V22.4355H157.686Z" fill="white"/>
<defs>
<linearGradient id="paint0_linear_1112:1176" x1="0.306171" y1="19.2658" x2="43.3589" y2="21.0302" gradientUnits="userSpaceOnUse">
<stop stop-color="#8758FE"/>
<stop offset="0.2326" stop-color="#B264FE"/>
<stop offset="0.6051" stop-color="#FF78FF"/>
</linearGradient>
<linearGradient id="paint1_linear_1112:1176" x1="8.0722" y1="17.6269" x2="2.19067" y2="47.2698" gradientUnits="userSpaceOnUse">
<stop offset="0.0376844" stop-color="#946BFF"/>
<stop offset="0.192" stop-color="#8A64F8"/>
<stop offset="0.4547" stop-color="#6F52E7"/>
<stop offset="0.7919" stop-color="#4334CA"/>
<stop offset="0.9" stop-color="#342AC0"/>
</linearGradient>
<linearGradient id="paint2_linear_1112:1176" x1="-2.56351" y1="14.3959" x2="13.6496" y2="-6.23897" gradientUnits="userSpaceOnUse">
<stop offset="0.0831546" stop-color="#5A83E2"/>
<stop offset="0.4214" stop-color="#5CB2E7"/>
<stop offset="0.8255" stop-color="#5FE6EC"/>
</linearGradient>
<linearGradient id="paint3_linear_1112:1176" x1="-0.354115" y1="15.3009" x2="27.6419" y2="1.00882" gradientUnits="userSpaceOnUse">
<stop offset="0.0139607" stop-color="#8F67E2"/>
<stop offset="0.1403" stop-color="#7D89E5"/>
<stop offset="0.2948" stop-color="#6AACE9"/>
<stop offset="0.4216" stop-color="#5EC1EB"/>
<stop offset="0.5042" stop-color="#5AC9EC"/>
<stop offset="1" stop-color="#51EABD"/>
</linearGradient>
<linearGradient id="paint4_linear_1112:1176" x1="24.5059" y1="3.21155" x2="49.9236" y2="-4.37846" gradientUnits="userSpaceOnUse">
<stop stop-color="#66E7C1"/>
<stop offset="0.8201" stop-color="#96FF86"/>
</linearGradient>
</defs>
</svg>
