<?xml version="1.0" encoding="utf-8"?>
<!-- Generator: Adobe Illustrator 24.0.2, SVG Export Plug-In . SVG Version: 6.00 Build 0)  -->
<svg version="1.1" id="Слой_1" xmlns="http://www.w3.org/2000/svg" xmlns:xlink="http://www.w3.org/1999/xlink" x="0px" y="0px"
	 viewBox="0 0 1400 500" style="enable-background:new 0 0 1400 500;" xml:space="preserve">
<style type="text/css">
	.st0{fill:url(#SVGID_1_);}
	.st1{fill:url(#SVGID_2_);}
	.st2{fill:url(#SVGID_3_);}
	.st3{fill:url(#SVGID_4_);}
	.st4{fill:url(#SVGID_5_);}
	.st5{fill:#FFFFFF;}
	.st6{fill:url(#SVGID_6_);}
	.st7{fill:url(#SVGID_7_);}
	.st8{fill:url(#SVGID_8_);}
	.st9{fill:url(#SVGID_9_);}
	.st10{fill:url(#SVGID_10_);}
	.st11{fill:url(#SVGID_11_);}
	.st12{fill:url(#SVGID_12_);}
	.st13{fill:url(#SVGID_13_);}
	.st14{fill:url(#SVGID_14_);}
	.st15{fill:url(#SVGID_15_);}
	.st16{fill:url(#SVGID_16_);}
	.st17{fill:url(#SVGID_17_);}
	.st18{fill:url(#SVGID_18_);}
	.st19{fill:url(#SVGID_19_);}
	.st20{fill:url(#SVGID_20_);}
	.st21{fill:url(#SVGID_21_);}
	.st22{fill:url(#SVGID_22_);}
	.st23{fill:url(#SVGID_23_);}
	.st24{fill:url(#SVGID_24_);}
	.st25{fill:url(#SVGID_25_);}
</style>
<g>
	<g>
		<linearGradient id="SVGID_1_" gradientUnits="userSpaceOnUse" x1="127.1167" y1="245.8611" x2="368.7502" y2="255.7641">
			<stop  offset="0" style="stop-color:#8758FE"/>
			<stop  offset="0.2326" style="stop-color:#B264FE"/>
			<stop  offset="0.6051" style="stop-color:#FF78FF"/>
		</linearGradient>
		<polygon class="st0" points="146.5,230.1 195.8,271.5 298.2,230.1 		"/>
		<linearGradient id="SVGID_2_" gradientUnits="userSpaceOnUse" x1="170.7033" y1="236.6602" x2="137.6932" y2="403.0308">
			<stop  offset="3.768444e-02" style="stop-color:#946BFF"/>
			<stop  offset="0.192" style="stop-color:#8A64F8"/>
			<stop  offset="0.4547" style="stop-color:#6F52E7"/>
			<stop  offset="0.7919" style="stop-color:#4334CA"/>
			<stop  offset="0.9" style="stop-color:#342AC0"/>
		</linearGradient>
		<polygon class="st1" points="142.4,234.7 164.9,362.3 191.6,276 		"/>
		<linearGradient id="SVGID_3_" gradientUnits="userSpaceOnUse" x1="111.0123" y1="218.5283" x2="202.0083" y2="102.7152">
			<stop  offset="8.315464e-02" style="stop-color:#5A83E2"/>
			<stop  offset="0.4214" style="stop-color:#5CB2E7"/>
			<stop  offset="0.8255" style="stop-color:#5FE6EC"/>
		</linearGradient>
		<polygon class="st2" points="223.6,137.7 139.9,221.6 125.4,137.7 		"/>
		<linearGradient id="SVGID_4_" gradientUnits="userSpaceOnUse" x1="123.4095" y1="223.6077" x2="280.5374" y2="143.3933">
			<stop  offset="1.396075e-02" style="stop-color:#8F67E2"/>
			<stop  offset="0.1403" style="stop-color:#7D89E5"/>
			<stop  offset="0.2948" style="stop-color:#6AACE9"/>
			<stop  offset="0.4216" style="stop-color:#5EC1EB"/>
			<stop  offset="0.5042" style="stop-color:#5AC9EC"/>
			<stop  offset="1" style="stop-color:#51EABD"/>
		</linearGradient>
		<polygon class="st3" points="231.8,137.7 272.1,178.2 146.4,223.9 		"/>
		<linearGradient id="SVGID_5_" gradientUnits="userSpaceOnUse" x1="262.9381" y1="155.7561" x2="405.5947" y2="113.1572">
			<stop  offset="0" style="stop-color:#66E7C1"/>
			<stop  offset="0.8201" style="stop-color:#96FF86"/>
		</linearGradient>
		<polygon class="st4" points="383.1,137.8 278.5,175.9 240.4,137.7 		"/>
	</g>
	<g>
		<g>
			<path class="st5" d="M410.8,240.4v23.4h40.9v16.4h-40.9v32.2h-20.5V224h66.8v16.4H410.8z"/>
			<path class="st5" d="M535.9,312.4l-17-24.6h-1h-17.8v24.6h-20.5V224h38.3c7.8,0,14.6,1.3,20.4,3.9c5.8,2.6,10.2,6.3,13.3,11.1
				c3.1,4.8,4.7,10.5,4.7,17c0,6.6-1.6,12.2-4.7,17s-7.6,8.4-13.4,10.9l19.8,28.4H535.9z M530.8,244.7c-3.2-2.7-7.9-4-14-4h-16.7
				v30.8h16.7c6.1,0,10.8-1.3,14-4c3.2-2.7,4.8-6.5,4.8-11.4C535.6,251.1,534,247.3,530.8,244.7z"/>
			<path class="st5" d="M646.3,293.5h-41l-7.8,18.9h-21l39.4-88.4h20.2l39.5,88.4h-21.5L646.3,293.5z M639.9,277.9l-14-33.8
				l-14,33.8H639.9z"/>
			<path class="st5" d="M751.9,266.8h18.7v35.9c-4.8,3.6-10.4,6.4-16.7,8.3s-12.7,2.9-19.1,2.9c-9.2,0-17.4-2-24.8-5.9
				c-7.3-3.9-13.1-9.3-17.2-16.3c-4.2-6.9-6.3-14.8-6.3-23.6c0-8.8,2.1-16.6,6.3-23.6c4.2-6.9,10-12.4,17.4-16.3
				c7.4-3.9,15.7-5.9,25-5.9c7.7,0,14.8,1.3,21.1,3.9c6.3,2.6,11.6,6.4,15.9,11.4l-13.1,12.1c-6.3-6.6-13.9-10-22.9-10
				c-5.6,0-10.7,1.2-15,3.5c-4.4,2.4-7.8,5.7-10.2,10c-2.4,4.3-3.7,9.2-3.7,14.8c0,5.5,1.2,10.4,3.7,14.7c2.4,4.3,5.8,7.6,10.2,10
				c4.3,2.4,9.3,3.6,14.8,3.6c5.9,0,11.2-1.3,15.9-3.8V266.8z"/>
			<path class="st5" d="M816.1,308c-7.3-3.9-13-9.3-17.2-16.3c-4.2-6.9-6.3-14.8-6.3-23.6c0-8.8,2.1-16.6,6.3-23.6
				c4.2-6.9,9.9-12.4,17.2-16.3c7.3-3.9,15.5-5.9,24.6-5.9c7.7,0,14.6,1.3,20.8,4c6.2,2.7,11.4,6.6,15.6,11.6l-13.1,12.1
				c-6-6.9-13.4-10.4-22.2-10.4c-5.5,0-10.4,1.2-14.6,3.6c-4.3,2.4-7.6,5.7-10,10c-2.4,4.3-3.6,9.2-3.6,14.6
				c0,5.5,1.2,10.4,3.6,14.7c2.4,4.3,5.7,7.6,10,10c4.3,2.4,9.2,3.6,14.6,3.6c8.8,0,16.2-3.5,22.2-10.5l13.1,12.1
				c-4.2,5.1-9.4,9.1-15.7,11.7c-6.2,2.7-13.2,4-20.8,4C831.6,313.9,823.4,312,816.1,308z"/>
			<path class="st5" d="M915.4,308c-7.4-4-13.1-9.4-17.3-16.4c-4.2-6.9-6.3-14.8-6.3-23.4c0-8.7,2.1-16.5,6.3-23.4
				c4.2-6.9,9.9-12.4,17.3-16.4c7.4-4,15.6-5.9,24.8-5.9c9.2,0,17.4,2,24.8,5.9c7.3,4,13.1,9.4,17.3,16.4c4.2,6.9,6.3,14.8,6.3,23.4
				c0,8.7-2.1,16.5-6.3,23.4c-4.2,6.9-10,12.4-17.3,16.4c-7.3,4-15.6,5.9-24.8,5.9C931,313.9,922.8,311.9,915.4,308z M954.4,292.9
				c4.2-2.4,7.5-5.7,9.9-10c2.4-4.3,3.6-9.2,3.6-14.7c0-5.5-1.2-10.4-3.6-14.6c-2.4-4.3-5.7-7.6-9.9-10c-4.2-2.4-8.9-3.6-14.1-3.6
				c-5.2,0-9.9,1.2-14.1,3.6c-4.2,2.4-7.5,5.7-9.9,10c-2.4,4.3-3.6,9.2-3.6,14.6c0,5.5,1.2,10.4,3.6,14.7c2.4,4.3,5.7,7.6,9.9,10
				s8.9,3.6,14.1,3.6C945.4,296.5,950.1,295.3,954.4,292.9z"/>
			<path class="st5" d="M1009.1,224h20.5v71.7h44.3v16.7h-64.8V224z"/>
			<path class="st5" d="M1106.5,308c-7.4-4-13.1-9.4-17.3-16.4c-4.2-6.9-6.3-14.8-6.3-23.4c0-8.7,2.1-16.5,6.3-23.4
				c4.2-6.9,9.9-12.4,17.3-16.4c7.4-4,15.6-5.9,24.8-5.9c9.2,0,17.4,2,24.8,5.9c7.3,4,13.1,9.4,17.3,16.4c4.2,6.9,6.3,14.8,6.3,23.4
				c0,8.7-2.1,16.5-6.3,23.4c-4.2,6.9-10,12.4-17.3,16.4c-7.3,4-15.6,5.9-24.8,5.9C1122.1,313.9,1113.8,311.9,1106.5,308z
				 M1145.4,292.9c4.2-2.4,7.5-5.7,9.9-10c2.4-4.3,3.6-9.2,3.6-14.7c0-5.5-1.2-10.4-3.6-14.6c-2.4-4.3-5.7-7.6-9.9-10
				c-4.2-2.4-8.9-3.6-14.1-3.6c-5.2,0-9.9,1.2-14.1,3.6c-4.2,2.4-7.5,5.7-9.9,10c-2.4,4.3-3.6,9.2-3.6,14.6c0,5.5,1.2,10.4,3.6,14.7
				c2.4,4.3,5.7,7.6,9.9,10c4.2,2.4,8.9,3.6,14.1,3.6C1136.5,296.5,1141.2,295.3,1145.4,292.9z"/>
			<path class="st5" d="M1252.7,312.4l-17-24.6h-1h-17.8v24.6h-20.5V224h38.3c7.8,0,14.6,1.3,20.4,3.9c5.8,2.6,10.2,6.3,13.3,11.1
				c3.1,4.8,4.7,10.5,4.7,17c0,6.6-1.6,12.2-4.7,17c-3.2,4.8-7.6,8.4-13.4,10.9l19.8,28.4H1252.7z M1247.5,244.7
				c-3.2-2.7-7.9-4-14-4h-16.7v30.8h16.7c6.1,0,10.8-1.3,14-4c3.2-2.7,4.8-6.5,4.8-11.4C1252.3,251.1,1250.7,247.3,1247.5,244.7z"/>
		</g>
	</g>
</g>
</svg>
