<svg width="192" height="56" viewBox="0 0 192 56" fill="none" xmlns="http://www.w3.org/2000/svg">
<path d="M0 8C0 3.58172 3.58172 0 8 0H184C188.418 0 192 3.58172 192 8V48C192 52.4183 188.418 56 184 56H8C3.58173 56 0 52.4183 0 48V8Z" fill="url(#paint_blue_linear)"/>
<path fill-rule="evenodd" clip-rule="evenodd" d="M62 16C55.37 16 50 21.37 50 28C50 33.31 53.435 37.795 58.205 39.385C58.805 39.49 59.03 39.13 59.03 38.815C59.03 38.53 59.015 37.585 59.015 36.58C56 37.135 55.22 35.845 54.98 35.17C54.845 34.825 54.26 33.76 53.75 33.475C53.33 33.25 52.73 32.695 53.735 32.68C54.68 32.665 55.355 33.55 55.58 33.91C56.66 35.725 58.385 35.215 59.075 34.9C59.18 34.12 59.495 33.595 59.84 33.295C57.17 32.995 54.38 31.96 54.38 27.37C54.38 26.065 54.845 24.985 55.61 24.145C55.49 23.845 55.07 22.615 55.73 20.965C55.73 20.965 56.735 20.65 59.03 22.195C59.99 21.925 61.01 21.79 62.03 21.79C63.05 21.79 64.07 21.925 65.03 22.195C67.325 20.635 68.33 20.965 68.33 20.965C68.99 22.615 68.57 23.845 68.45 24.145C69.215 24.985 69.68 26.05 69.68 27.37C69.68 31.975 66.875 32.995 64.205 33.295C64.64 33.67 65.015 34.39 65.015 35.515C65.015 37.12 65 38.41 65 38.815C65 39.13 65.225 39.505 65.825 39.385C70.565 37.795 74 33.295 74 28C74 21.37 68.63 16 62 16Z" fill="black"/>
<path d="M88.848 33.304C87.8027 33.304 86.8907 33.1333 86.112 32.792C85.3333 32.44 84.688 31.9707 84.176 31.384C83.6747 30.7973 83.3013 30.152 83.056 29.448C82.8107 28.7333 82.688 28.0133 82.688 27.288V26.936C82.688 26.2 82.8107 25.48 83.056 24.776C83.3013 24.072 83.6693 23.432 84.16 22.856C84.6613 22.28 85.28 21.8213 86.016 21.48C86.7627 21.1387 87.6213 20.968 88.592 20.968C89.6373 20.968 90.5653 21.1653 91.376 21.56C92.1867 21.9547 92.8373 22.4987 93.328 23.192C93.8187 23.8747 94.1067 24.664 94.192 25.56H91.568C91.4613 24.92 91.136 24.4027 90.592 24.008C90.048 23.6133 89.3813 23.416 88.592 23.416C87.9093 23.416 87.3227 23.576 86.832 23.896C86.352 24.2053 85.984 24.6427 85.728 25.208C85.472 25.7627 85.344 26.4027 85.344 27.128C85.344 28.2693 85.648 29.1867 86.256 29.88C86.8747 30.5733 87.7387 30.92 88.848 30.92C89.4453 30.92 89.9787 30.8187 90.448 30.616C90.9173 30.4027 91.2907 30.1253 91.568 29.784V28.808H88.512V26.92H94.944V28.808H93.984V30.792C93.4827 31.6027 92.7893 32.2267 91.904 32.664C91.0187 33.0907 90 33.304 88.848 33.304ZM97.9041 23.368C97.4241 23.368 97.0668 23.2453 96.8321 23C96.6081 22.744 96.4961 22.424 96.4961 22.04C96.4961 21.6453 96.6081 21.3253 96.8321 21.08C97.0668 20.824 97.4241 20.696 97.9041 20.696C98.3841 20.696 98.7361 20.824 98.9601 21.08C99.1948 21.3253 99.3121 21.6453 99.3121 22.04C99.3121 22.424 99.1948 22.744 98.9601 23C98.7361 23.2453 98.3841 23.368 97.9041 23.368ZM96.9121 33V26.12H95.7441V24.232H99.4721V33H96.9121ZM105.824 33.112C104.939 33.112 104.224 33.0053 103.68 32.792C103.136 32.568 102.736 32.2 102.48 31.688C102.235 31.1653 102.112 30.4613 102.112 29.576V26.104H100.784V24.232H102.112V21.864H104.496V24.232H107.056V26.104H104.496V29.672C104.496 30.088 104.603 30.408 104.816 30.632C105.04 30.8453 105.355 30.952 105.76 30.952H107.056V33.112H105.824ZM108.921 33V21.32H111.545V25.976H116.473V21.32H119.097V33H116.473V28.28H111.545V33H108.921ZM124.534 33.272C123.521 33.272 122.742 32.9467 122.198 32.296C121.654 31.6453 121.382 30.6533 121.382 29.32V24.232H123.942V29.448C123.942 29.9173 124.076 30.2907 124.342 30.568C124.609 30.8453 124.966 30.984 125.414 30.984C125.873 30.984 126.246 30.84 126.534 30.552C126.822 30.264 126.966 29.8747 126.966 29.384V24.232H129.526V33H127.494V30.952C127.132 32.4987 126.182 33.272 124.646 33.272H124.534ZM137.279 33.288C136.468 33.288 135.769 33.096 135.183 32.712C134.596 32.328 134.175 31.7733 133.919 31.048V33H131.887V21.32H134.447V25.624C134.756 25.08 135.167 24.6693 135.679 24.392C136.191 24.1147 136.772 23.976 137.423 23.976C138.223 23.976 138.916 24.1733 139.503 24.568C140.089 24.952 140.543 25.48 140.863 26.152C141.193 26.8133 141.359 27.5707 141.359 28.424V28.776C141.359 29.6293 141.193 30.3973 140.863 31.08C140.532 31.752 140.063 32.2907 139.455 32.696C138.847 33.0907 138.121 33.288 137.279 33.288ZM136.607 31.144C137.257 31.144 137.78 30.9093 138.175 30.44C138.58 29.96 138.783 29.3467 138.783 28.6C138.783 27.8533 138.58 27.2507 138.175 26.792C137.78 26.3333 137.257 26.104 136.607 26.104C136.212 26.104 135.844 26.1947 135.503 26.376C135.172 26.5573 134.9 26.8187 134.687 27.16C134.484 27.5013 134.383 27.9067 134.383 28.376V28.968C134.383 29.4267 134.489 29.8213 134.703 30.152C134.927 30.472 135.209 30.7173 135.551 30.888C135.892 31.0587 136.244 31.144 136.607 31.144Z" fill="black"/>
<defs>
<linearGradient id="paint_blue_linear" x1="-35.1168" y1="55.7898" x2="88.8457" y2="-93.0004" gradientUnits="userSpaceOnUse">
<stop offset="0.0139607" stop-color="#8F67E2"/>
<stop offset="0.1403" stop-color="#7D89E5"/>
<stop offset="0.2948" stop-color="#6AACE9"/>
<stop offset="0.4216" stop-color="#5EC1EB"/>
<stop offset="0.5042" stop-color="#5AC9EC"/>
<stop offset="1" stop-color="#51EABD"/>
</linearGradient>
</defs>
</svg>
