<svg width="100%" height="100%" viewBox="0 0 218 56" fill="none" xmlns="http://www.w3.org/2000/svg">
<path d="M69.4819 53.6321C69.3655 53.9922 69.2085 54.3206 69.0074 54.612C68.8064 54.905 68.5683 55.154 68.2931 55.357C68.018 55.5601 67.7093 55.719 67.3689 55.832C67.0285 55.945 66.6617 55.9997 66.2666 55.9997C65.7833 55.9997 65.3336 55.9044 64.9138 55.7137C64.4958 55.523 64.1325 55.2617 63.8273 54.928C63.5205 54.5943 63.2788 54.2023 63.1025 53.7539C62.9261 53.3054 62.8379 52.8217 62.8379 52.3026C62.8379 51.7853 62.9261 51.3015 63.1025 50.8513C63.2788 50.4011 63.5205 50.0109 63.8273 49.6772C64.1342 49.3435 64.4958 49.0822 64.9138 48.8915C65.3318 48.7008 65.7833 48.6055 66.2666 48.6055C66.6687 48.6055 67.0409 48.6602 67.3848 48.7697C67.7287 48.8791 68.0374 49.0345 68.3143 49.2393C68.5894 49.4441 68.8275 49.6931 69.0286 49.9844C69.2297 50.2775 69.3849 50.6041 69.4925 50.9643H68.0339C67.8769 50.6376 67.6458 50.3693 67.3407 50.1574C67.0338 49.9455 66.6775 49.8414 66.2684 49.8414C65.9756 49.8414 65.704 49.9067 65.4517 50.0356C65.1995 50.1645 64.9808 50.3428 64.7939 50.567C64.6069 50.7912 64.4588 51.0543 64.3494 51.3527C64.2401 51.6529 64.1854 51.9689 64.1854 52.3026C64.1854 52.6433 64.2401 52.9629 64.3494 53.2631C64.4588 53.5632 64.6069 53.8245 64.7939 54.0505C64.9808 54.2747 65.1995 54.4531 65.4517 54.5819C65.704 54.7108 65.9756 54.7762 66.2684 54.7762C66.6758 54.7762 67.0338 54.6667 67.3407 54.4495C67.6476 54.2324 67.8786 53.9587 68.0339 53.6321H69.4819Z" fill="white"/>
<path d="M90.8205 54.4583L90.3407 55.8779H88.9121L91.3813 48.7891H93.0851L95.5543 55.8779H94.1257L93.646 54.4583H90.8205ZM92.2279 50.2916L91.2385 53.203H93.2174L92.2279 50.2916Z" fill="white"/>
<path d="M120.751 51.0773C120.751 51.4039 120.697 51.7076 120.589 51.9865C120.48 52.2655 120.325 52.5056 120.125 52.7069C119.924 52.9082 119.681 53.0635 119.395 53.1765C119.109 53.2895 118.794 53.3442 118.446 53.3442H116.783V55.8779H115.436V48.7891H118.414C118.781 48.7891 119.111 48.8438 119.404 48.9515C119.697 49.061 119.942 49.2146 120.139 49.4105C120.337 49.6083 120.489 49.8484 120.593 50.1309C120.699 50.4152 120.751 50.7294 120.751 51.0773ZM116.781 50.0462V52.1101H118.404C118.716 52.1101 118.961 52.0289 119.139 51.8647C119.316 51.7005 119.404 51.4392 119.404 51.0773C119.404 50.7171 119.316 50.454 119.139 50.2916C118.963 50.1274 118.718 50.0462 118.404 50.0462H116.781Z" fill="white"/>
<path d="M142.16 55.8779H140.812V48.7891H142.16V55.8779Z" fill="white"/>
<path d="M165.359 50.0462V55.8796H164.011V50.0462H162.113V48.7891H167.256V50.0462H165.359Z" fill="white"/>
<path d="M188.516 54.4583L188.036 55.8779H186.607L189.077 48.7891H190.78L193.25 55.8779H191.821L191.341 54.4583H188.516ZM189.925 50.2916L188.936 53.203H190.914L189.925 50.2916Z" fill="white"/>
<path d="M214.478 54.6208H217.999V55.8779H213.131V48.7891H214.478V54.6208Z" fill="white"/>
<path d="M88.0629 17.0149C88.0629 21.8314 86.6431 25.9575 83.9393 28.9396C82.4736 30.5904 80.6411 31.8739 78.4876 32.7002C76.2882 33.5724 73.8137 34.0297 71.0658 34.0297H64.7886H63.002V0H68.3161H71.0658C73.8154 0 76.2882 0.413145 78.4876 1.32948C80.6411 2.15577 82.4736 3.43934 83.9393 5.09016C86.6414 8.07222 88.0629 12.2001 88.0629 17.0149ZM82.747 17.0149C82.747 13.5296 81.7858 10.6394 79.9974 8.66721C77.9814 6.41963 75.0042 5.31968 71.064 5.31968H68.3143V28.71H71.064C75.0042 28.71 77.9814 27.5642 79.9974 25.3625C81.7858 23.3904 82.747 20.4542 82.747 17.0149Z" fill="white"/>
<path d="M121.284 35.5428L112.305 15.0427L103.874 35.5428L88.2969 0H94.1613L103.737 22.4263L109.372 8.29998L112.121 1.28357L115.099 8.20816L121.146 22.4263L130.08 0H135.898L121.284 35.5428Z" fill="white"/>
<path d="M189.087 23.9394C189.087 25.6362 188.72 27.1493 187.988 28.5264C187.254 29.81 186.201 30.9117 184.873 31.7821C182.536 33.2493 179.375 34.0297 175.527 34.0297H172.502H168.012V0H173.326H175.525C179.282 0 182.032 0.688574 183.956 2.10986C185.011 2.89025 185.788 3.89839 186.293 5.04425C186.751 6.0983 186.981 7.29183 186.981 8.62131C186.981 10.4557 186.385 12.7033 184.323 14.8591C184.873 15.2263 185.376 15.6395 185.88 16.0968C186.887 17.1049 187.667 18.2066 188.217 19.4443C188.811 20.8214 189.087 22.3345 189.087 23.9394ZM173.326 4.76882V15.0886C174.379 14.8591 175.617 14.4919 176.807 13.9887C178.502 13.3001 179.831 12.5215 180.748 11.6034C181.709 10.687 182.167 9.72303 182.167 8.62307C182.167 6.97226 181.571 6.32959 181.069 5.96235C179.786 5.00011 177.312 4.77059 175.525 4.77059H173.326V4.76882ZM184.321 23.9394C184.321 22.1509 183.725 20.7296 182.534 19.582C181.846 18.8934 180.977 18.3443 179.922 17.8853C179.464 18.0689 179.005 18.2984 178.502 18.4821C176.624 19.2624 174.746 19.7197 173.326 20.0411V29.2132H175.525C178.411 29.2132 180.748 28.7083 182.259 27.746C183.679 26.8297 184.321 25.6379 184.321 23.9394Z" fill="white"/>
<path d="M204.521 34.0297C201.039 33.8002 197.466 32.4248 193.801 29.9018L196.824 25.5444C201.863 29.0755 206.628 29.6723 209.835 27.287C212.126 25.5444 213.225 22.5182 212.401 20.0411C211.988 18.8952 211.256 17.9771 210.11 17.2885C208.69 16.4163 206.766 16.0049 204.383 16.0049L199.847 16.0509L205.711 5.27378H195.953V0H214.69L208.597 11.0984C210.2 11.4656 211.62 12.0165 212.904 12.7492C215.057 14.0787 216.615 16.0049 217.394 18.3443C218.174 20.5919 218.128 23.1608 217.348 25.5444C216.523 27.8837 215.011 30.0395 213.041 31.5067C210.842 33.1575 208.186 34.0297 205.299 34.0297C205.025 34.0297 204.75 34.0297 204.521 34.0297Z" fill="white"/>
<path d="M161.735 0H140.625V4.76878H161.735V0Z" fill="white"/>
<path d="M161.543 13.8516H140.625V18.6681H161.543V13.8516Z" fill="white"/>
<path d="M161.735 29.2148H140.625V34.0313H161.735V29.2148Z" fill="white"/>
<path d="M0 0.0390625V55.6017H55.5047V0.0390625H0ZM18.0589 47.9021H11.3655V29.9108H18.0589V47.9021ZM31.1176 47.9021H24.3113V20.5657H31.1176V47.9021ZM44.1392 47.9021H37.2942V7.73697H44.1392V47.9021Z" fill="white"/>
</svg>
