<svg width="384" height="368" viewBox="0 0 384 368" fill="none" xmlns="http://www.w3.org/2000/svg">
<path d="M81.1518 22.4643V69.3616L35.1071 77.8884L1 57.4241V10.5268L47.0446 2L81.1518 22.4643Z" fill="black"/>
<path d="M35.1071 30.9911L81.1518 22.4643M35.1071 30.9911L1 10.5268M35.1071 30.9911V77.8884M81.1518 22.4643V69.3616L35.1071 77.8884M81.1518 22.4643L47.0446 2L1 10.5268M35.1071 77.8884L1 57.4241V10.5268" stroke="url(#paint0_linear)" stroke-width="2"/>
<path d="M81.1518 215.169V262.067L35.1071 270.593L1 250.129V203.232L47.0446 194.705L81.1518 215.169Z" fill="black"/>
<path d="M35.1071 223.696L81.1518 215.169M35.1071 223.696L1 203.232M35.1071 223.696V270.593M81.1518 215.169V262.067L35.1071 270.593M81.1518 215.169L47.0446 194.705L1 203.232M35.1071 270.593L1 250.129V203.232" stroke="url(#paint1_linear)" stroke-width="2"/>
<path d="M181.767 118.818V165.715L135.722 174.242L101.615 153.778V106.88L147.66 98.3535L181.767 118.818Z" fill="black"/>
<path d="M135.722 127.345L181.767 118.818M135.722 127.345L101.615 106.88M135.722 127.345V174.242M181.767 118.818V165.715L135.722 174.242M181.767 118.818L147.66 98.3535L101.615 106.88M135.722 174.242L101.615 153.778V106.88" stroke="url(#paint2_linear)" stroke-width="2"/>
<path d="M181.767 311.523V358.42L135.722 366.947L101.615 346.483V299.585L147.66 291.059L181.767 311.523Z" fill="black"/>
<path d="M135.722 320.05L181.767 311.523M135.722 320.05L101.615 299.585M135.722 320.05V366.947M181.767 311.523V358.42L135.722 366.947M181.767 311.523L147.66 291.059L101.615 299.585M135.722 366.947L101.615 346.483V299.585" stroke="url(#paint3_linear)" stroke-width="2"/>
<path d="M282.384 22.4643V69.3616L236.34 77.8884L202.232 57.4241V10.5268L248.277 2L282.384 22.4643Z" fill="black"/>
<path d="M236.34 30.9911L282.384 22.4643M236.34 30.9911L202.232 10.5268M236.34 30.9911V77.8884M282.384 22.4643V69.3616L236.34 77.8884M282.384 22.4643L248.277 2L202.232 10.5268M236.34 77.8884L202.232 57.4241V10.5268" stroke="url(#paint4_linear)" stroke-width="2"/>
<path d="M382.999 118.818V165.715L336.955 174.242L302.848 153.778V106.88L348.892 98.3535L382.999 118.818Z" fill="black"/>
<path d="M336.955 127.345L382.999 118.818M336.955 127.345L302.848 106.88M336.955 127.345V174.242M382.999 118.818V165.715L336.955 174.242M382.999 118.818L348.892 98.3535L302.848 106.88M336.955 174.242L302.848 153.778V106.88" stroke="url(#paint5_linear)" stroke-width="2"/>
<path d="M282.384 215.169V262.067L236.34 270.593L202.232 250.129V203.232L248.277 194.705L282.384 215.169Z" fill="black"/>
<path d="M236.34 223.696L282.384 215.169M236.34 223.696L202.232 203.232M236.34 223.696V270.593M282.384 215.169V262.067L236.34 270.593M282.384 215.169L248.277 194.705L202.232 203.232M236.34 270.593L202.232 250.129V203.232" stroke="url(#paint6_linear)" stroke-width="2"/>
<path d="M382.999 311.523V358.42L336.955 366.947L302.848 346.483V299.585L348.892 291.059L382.999 311.523Z" fill="black"/>
<path d="M336.955 320.05L382.999 311.523M336.955 320.05L302.848 299.585M336.955 320.05V366.947M382.999 311.523V358.42L336.955 366.947M382.999 311.523L348.892 291.059L302.848 299.585M336.955 366.947L302.848 346.483V299.585" stroke="url(#paint7_linear)" stroke-width="2"/>
<path d="M81.1518 118.818V165.715L35.1071 174.242L1 153.778V106.88L47.0446 98.3535L81.1518 118.818Z" fill="black"/>
<path d="M35.1071 127.345L81.1518 118.818M35.1071 127.345L1 106.88M35.1071 127.345V174.242M81.1518 118.818V165.715M81.1518 118.818L47.0446 98.3535M81.1518 165.715L35.1071 174.242M81.1518 165.715L47.0446 145.251M35.1071 174.242L1 153.778M1 153.778V106.88M1 153.778L47.0446 145.251M1 106.88L47.0446 98.3535M47.0446 98.3535V145.251" stroke="url(#paint8_linear)" stroke-width="2"/>
<path d="M81.1518 311.523V358.42L35.1071 366.947L1 346.483V299.585L47.0446 291.059L81.1518 311.523Z" fill="black"/>
<path d="M35.1071 320.05L81.1518 311.523M35.1071 320.05L1 299.585M35.1071 320.05V366.947M81.1518 311.523V358.42M81.1518 311.523L47.0446 291.059M81.1518 358.42L35.1071 366.947M81.1518 358.42L47.0446 337.956M35.1071 366.947L1 346.483M1 346.483V299.585M1 346.483L47.0446 337.956M1 299.585L47.0446 291.059M47.0446 291.059V337.956" stroke="url(#paint9_linear)" stroke-width="2"/>
<path d="M181.767 22.4643V69.3616L135.722 77.8884L101.615 57.4241V10.5268L147.66 2L181.767 22.4643Z" fill="black"/>
<path d="M135.722 30.9911L181.767 22.4643M135.722 30.9911L101.615 10.5268M135.722 30.9911V77.8884M181.767 22.4643V69.3616M181.767 22.4643L147.66 2M181.767 69.3616L135.722 77.8884M181.767 69.3616L147.66 48.8973M135.722 77.8884L101.615 57.4241M101.615 57.4241V10.5268M101.615 57.4241L147.66 48.8973M101.615 10.5268L147.66 2M147.66 2V48.8973" stroke="url(#paint10_linear)" stroke-width="2"/>
<path d="M181.767 215.169V262.067L135.722 270.593L101.615 250.129V203.232L147.66 194.705L181.767 215.169Z" fill="black"/>
<path d="M135.722 223.696L181.767 215.169M135.722 223.696L101.615 203.232M135.722 223.696V270.593M181.767 215.169V262.067M181.767 215.169L147.66 194.705M181.767 262.067L135.722 270.593M181.767 262.067L147.66 241.602M135.722 270.593L101.615 250.129M101.615 250.129V203.232M101.615 250.129L147.66 241.602M101.615 203.232L147.66 194.705M147.66 194.705V241.602" stroke="url(#paint11_linear)" stroke-width="2"/>
<path d="M282.384 118.818V165.715L236.34 174.242L202.232 153.778V106.88L248.277 98.3535L282.384 118.818Z" fill="black"/>
<path d="M236.34 127.345L282.384 118.818M236.34 127.345L202.232 106.88M236.34 127.345V174.242M282.384 118.818V165.715M282.384 118.818L248.277 98.3535M282.384 165.715L236.34 174.242M282.384 165.715L248.277 145.251M236.34 174.242L202.232 153.778M202.232 153.778V106.88M202.232 153.778L248.277 145.251M202.232 106.88L248.277 98.3535M248.277 98.3535V145.251" stroke="url(#paint12_linear)" stroke-width="2"/>
<path d="M382.999 22.4643V69.3616L336.955 77.8884L302.848 57.4241V10.5268L348.892 2L382.999 22.4643Z" fill="black"/>
<path d="M336.955 30.9911L382.999 22.4643M336.955 30.9911L302.848 10.5268M336.955 30.9911V77.8884M382.999 22.4643V69.3616M382.999 22.4643L348.892 2M382.999 69.3616L336.955 77.8884M382.999 69.3616L348.892 48.8973M336.955 77.8884L302.848 57.4241M302.848 57.4241V10.5268M302.848 57.4241L348.892 48.8973M302.848 10.5268L348.892 2M348.892 2V48.8973" stroke="url(#paint13_linear)" stroke-width="2"/>
<path d="M282.384 311.523V358.42L236.34 366.947L202.232 346.483V299.585L248.277 291.059L282.384 311.523Z" fill="black"/>
<path d="M236.34 320.05L282.384 311.523M236.34 320.05L202.232 299.585M236.34 320.05V366.947M282.384 311.523V358.42M282.384 311.523L248.277 291.059M282.384 358.42L236.34 366.947M282.384 358.42L248.277 337.956M236.34 366.947L202.232 346.483M202.232 346.483V299.585M202.232 346.483L248.277 337.956M202.232 299.585L248.277 291.059M248.277 291.059V337.956" stroke="url(#paint14_linear)" stroke-width="2"/>
<path d="M382.999 215.169V262.067L336.955 270.593L302.848 250.129V203.232L348.892 194.705L382.999 215.169Z" fill="black"/>
<path d="M336.955 223.696L382.999 215.169M336.955 223.696L302.848 203.232M336.955 223.696V270.593M382.999 215.169V262.067M382.999 215.169L348.892 194.705M382.999 262.067L336.955 270.593M382.999 262.067L348.892 241.602M336.955 270.593L302.848 250.129M302.848 250.129V203.232M302.848 250.129L348.892 241.602M302.848 203.232L348.892 194.705M348.892 194.705V241.602" stroke="url(#paint15_linear)" stroke-width="2"/>
<defs>
<linearGradient id="paint0_linear" x1="-9.24131" y1="30.9469" x2="118.624" y2="32.4611" gradientUnits="userSpaceOnUse">
<stop stop-color="#8758FE"/>
<stop offset="0.2326" stop-color="#B264FE"/>
<stop offset="0.6051" stop-color="#FF78FF"/>
</linearGradient>
<linearGradient id="paint1_linear" x1="-9.24131" y1="223.652" x2="118.624" y2="225.166" gradientUnits="userSpaceOnUse">
<stop stop-color="#8758FE"/>
<stop offset="0.2326" stop-color="#B264FE"/>
<stop offset="0.6051" stop-color="#FF78FF"/>
</linearGradient>
<linearGradient id="paint2_linear" x1="91.3739" y1="127.3" x2="219.239" y2="128.815" gradientUnits="userSpaceOnUse">
<stop stop-color="#8758FE"/>
<stop offset="0.2326" stop-color="#B264FE"/>
<stop offset="0.6051" stop-color="#FF78FF"/>
</linearGradient>
<linearGradient id="paint3_linear" x1="91.3739" y1="320.006" x2="219.239" y2="321.52" gradientUnits="userSpaceOnUse">
<stop stop-color="#8758FE"/>
<stop offset="0.2326" stop-color="#B264FE"/>
<stop offset="0.6051" stop-color="#FF78FF"/>
</linearGradient>
<linearGradient id="paint4_linear" x1="191.991" y1="30.9469" x2="319.856" y2="32.4611" gradientUnits="userSpaceOnUse">
<stop stop-color="#8758FE"/>
<stop offset="0.2326" stop-color="#B264FE"/>
<stop offset="0.6051" stop-color="#FF78FF"/>
</linearGradient>
<linearGradient id="paint5_linear" x1="292.606" y1="127.3" x2="420.472" y2="128.815" gradientUnits="userSpaceOnUse">
<stop stop-color="#8758FE"/>
<stop offset="0.2326" stop-color="#B264FE"/>
<stop offset="0.6051" stop-color="#FF78FF"/>
</linearGradient>
<linearGradient id="paint6_linear" x1="191.991" y1="223.652" x2="319.856" y2="225.166" gradientUnits="userSpaceOnUse">
<stop stop-color="#8758FE"/>
<stop offset="0.2326" stop-color="#B264FE"/>
<stop offset="0.6051" stop-color="#FF78FF"/>
</linearGradient>
<linearGradient id="paint7_linear" x1="292.606" y1="320.006" x2="420.472" y2="321.52" gradientUnits="userSpaceOnUse">
<stop stop-color="#8758FE"/>
<stop offset="0.2326" stop-color="#B264FE"/>
<stop offset="0.6051" stop-color="#FF78FF"/>
</linearGradient>
<linearGradient id="paint8_linear" x1="-13.6597" y1="173.957" x2="97.4524" y2="132.873" gradientUnits="userSpaceOnUse">
<stop offset="0.0139607" stop-color="#8F67E2"/>
<stop offset="0.1403" stop-color="#7D89E5"/>
<stop offset="0.2948" stop-color="#6AACE9"/>
<stop offset="0.4216" stop-color="#5EC1EB"/>
<stop offset="0.5042" stop-color="#5AC9EC"/>
<stop offset="1" stop-color="#51EABD"/>
</linearGradient>
<linearGradient id="paint9_linear" x1="-13.6597" y1="366.662" x2="97.4524" y2="325.578" gradientUnits="userSpaceOnUse">
<stop offset="0.0139607" stop-color="#8F67E2"/>
<stop offset="0.1403" stop-color="#7D89E5"/>
<stop offset="0.2948" stop-color="#6AACE9"/>
<stop offset="0.4216" stop-color="#5EC1EB"/>
<stop offset="0.5042" stop-color="#5AC9EC"/>
<stop offset="1" stop-color="#51EABD"/>
</linearGradient>
<linearGradient id="paint10_linear" x1="86.9555" y1="77.6035" x2="198.068" y2="36.5197" gradientUnits="userSpaceOnUse">
<stop offset="0.0139607" stop-color="#8F67E2"/>
<stop offset="0.1403" stop-color="#7D89E5"/>
<stop offset="0.2948" stop-color="#6AACE9"/>
<stop offset="0.4216" stop-color="#5EC1EB"/>
<stop offset="0.5042" stop-color="#5AC9EC"/>
<stop offset="1" stop-color="#51EABD"/>
</linearGradient>
<linearGradient id="paint11_linear" x1="86.9555" y1="270.309" x2="198.068" y2="229.225" gradientUnits="userSpaceOnUse">
<stop offset="0.0139607" stop-color="#8F67E2"/>
<stop offset="0.1403" stop-color="#7D89E5"/>
<stop offset="0.2948" stop-color="#6AACE9"/>
<stop offset="0.4216" stop-color="#5EC1EB"/>
<stop offset="0.5042" stop-color="#5AC9EC"/>
<stop offset="1" stop-color="#51EABD"/>
</linearGradient>
<linearGradient id="paint12_linear" x1="187.573" y1="173.957" x2="298.685" y2="132.873" gradientUnits="userSpaceOnUse">
<stop offset="0.0139607" stop-color="#8F67E2"/>
<stop offset="0.1403" stop-color="#7D89E5"/>
<stop offset="0.2948" stop-color="#6AACE9"/>
<stop offset="0.4216" stop-color="#5EC1EB"/>
<stop offset="0.5042" stop-color="#5AC9EC"/>
<stop offset="1" stop-color="#51EABD"/>
</linearGradient>
<linearGradient id="paint13_linear" x1="288.188" y1="77.6035" x2="399.3" y2="36.5197" gradientUnits="userSpaceOnUse">
<stop offset="0.0139607" stop-color="#8F67E2"/>
<stop offset="0.1403" stop-color="#7D89E5"/>
<stop offset="0.2948" stop-color="#6AACE9"/>
<stop offset="0.4216" stop-color="#5EC1EB"/>
<stop offset="0.5042" stop-color="#5AC9EC"/>
<stop offset="1" stop-color="#51EABD"/>
</linearGradient>
<linearGradient id="paint14_linear" x1="187.573" y1="366.662" x2="298.685" y2="325.578" gradientUnits="userSpaceOnUse">
<stop offset="0.0139607" stop-color="#8F67E2"/>
<stop offset="0.1403" stop-color="#7D89E5"/>
<stop offset="0.2948" stop-color="#6AACE9"/>
<stop offset="0.4216" stop-color="#5EC1EB"/>
<stop offset="0.5042" stop-color="#5AC9EC"/>
<stop offset="1" stop-color="#51EABD"/>
</linearGradient>
<linearGradient id="paint15_linear" x1="288.188" y1="270.309" x2="399.3" y2="229.225" gradientUnits="userSpaceOnUse">
<stop offset="0.0139607" stop-color="#8F67E2"/>
<stop offset="0.1403" stop-color="#7D89E5"/>
<stop offset="0.2948" stop-color="#6AACE9"/>
<stop offset="0.4216" stop-color="#5EC1EB"/>
<stop offset="0.5042" stop-color="#5AC9EC"/>
<stop offset="1" stop-color="#51EABD"/>
</linearGradient>
</defs>
</svg>
