<svg width="721" height="480" viewBox="0 0 721 480" fill="none" xmlns="http://www.w3.org/2000/svg">
<path d="M317.353 18.147C302.939 21.3652 288.8 25.3315 275.025 30.0209C268.158 32.3859 261.385 34.9348 254.842 37.8159C248.272 40.6353 242.008 43.8935 236.116 47.5562C233.192 49.381 230.45 51.3866 227.914 53.5545C225.378 55.6879 223.171 58.0596 221.341 60.6181C219.544 63.1487 218.389 65.9407 217.944 68.8324C217.556 71.7098 217.983 74.6205 219.195 77.3461C220.426 80.0915 222.176 82.6686 224.381 84.9871C226.614 87.3289 229.112 89.4995 231.844 91.4709C237.381 95.4246 243.38 98.9395 249.757 101.966C252.907 103.545 256.188 104.958 259.441 106.403C262.759 107.76 266.045 109.163 269.431 110.414C276.136 113.023 283.022 115.335 289.919 117.614C303.777 122.066 317.901 125.981 332.143 129.623L374.964 140.523L417.816 151.344C474.978 165.709 532.309 179.626 589.432 194.082C646.517 208.641 703.694 222.957 760.683 237.812L760.529 238.234C702.64 225.796 645.212 212.084 587.819 198.288C530.467 184.379 473.482 169.521 416.488 154.7L373.753 143.562L331.048 132.346C316.796 128.585 302.635 124.544 288.733 119.959C281.809 117.611 274.898 115.23 268.152 112.545C264.749 111.257 261.436 109.812 258.097 108.415C254.814 106.926 251.51 105.471 248.323 103.841C241.847 100.68 235.767 97.0237 230.167 92.9225C227.358 90.8431 224.794 88.5588 222.509 86.0991C220.2 83.6067 218.382 80.8435 217.118 77.9065C215.85 74.9297 215.435 71.761 215.904 68.6372C216.426 65.5411 217.706 62.5588 219.67 59.8628C221.613 57.2161 223.947 54.7679 226.621 52.5713C229.249 50.3784 232.086 48.3535 235.106 46.5151C241.12 42.868 247.505 39.6338 254.194 36.8467C260.828 34.0091 267.672 31.5155 274.602 29.2091C288.483 24.6428 302.718 20.8052 317.217 17.7207L317.353 18.147Z" fill="url(#paint0_linear)"/>
<path d="M313.395 17.9336C306.098 19.6505 298.889 21.5929 291.739 23.6529C284.585 25.7043 277.492 27.8867 270.495 30.2474C256.529 34.9885 242.819 40.3346 230.248 47.04C223.949 50.3123 218.115 54.1294 212.85 58.4231C210.284 60.5553 208.013 62.9047 206.077 65.4301C204.169 67.8989 202.819 70.619 202.088 73.4653C201.396 76.2725 201.493 79.1684 202.372 81.9417C203.293 84.7383 204.803 87.3877 206.835 89.7754C208.893 92.2166 211.268 94.4748 213.921 96.5119C216.591 98.5864 219.427 100.518 222.411 102.295C228.459 105.855 234.828 109.051 241.463 111.856C248.107 114.689 254.897 117.313 261.833 119.729C275.683 124.569 289.928 128.719 304.319 132.507L391.199 154.785L565.101 199.087L739.089 243.229L717.103 238.342L695.162 233.333L651.309 223.226C622.117 216.373 592.958 209.427 563.834 202.387C534.696 195.385 505.649 188.144 476.578 180.963C447.543 173.691 418.531 166.36 389.541 158.97C360.574 151.502 331.635 144.059 302.702 136.426C288.24 132.511 273.907 128.229 259.916 123.229C245.955 118.214 232.226 112.515 219.898 104.95C216.81 103.047 213.88 100.984 211.127 98.7737C208.325 96.5476 205.825 94.0881 203.67 91.4367C201.457 88.7387 199.836 85.7564 198.875 82.6188C197.937 79.4337 197.892 76.1206 198.744 72.9198C199.612 69.7771 201.163 66.7822 203.327 64.0731C205.434 61.4175 207.893 58.9535 210.661 56.7243C216.151 52.3627 222.242 48.518 228.815 45.2647C241.825 38.7197 255.785 33.6483 269.961 29.1852C284.149 24.7471 298.653 20.99 313.395 17.9336Z" fill="url(#paint1_linear)"/>
<path d="M313.395 17.9336C305.785 19.6693 298.25 21.6069 290.764 23.6449C283.274 25.6754 275.829 27.8098 268.462 30.0992C253.703 34.5863 239.331 39.8554 225.441 45.8719C218.541 48.8804 211.883 52.2324 205.503 55.9085C199.153 59.5058 193.451 63.7909 188.559 68.6422C186.205 71.0338 184.291 73.6853 182.876 76.5151C181.495 79.2804 180.886 82.2558 181.092 85.231C181.347 88.2007 182.38 91.0936 184.122 93.7204C185.895 96.4047 188.101 98.8892 190.683 101.109C196.042 105.59 202.093 109.501 208.687 112.747C215.315 116.077 222.18 119.091 229.248 121.775C243.497 127.12 258.131 131.775 273.072 135.715C303.093 143.526 333.292 151.252 363.426 158.943L725.318 251.148L702.461 246.013L679.647 240.759L634.048 230.172L588.529 219.366L543.073 208.39C512.768 201.073 482.551 193.529 452.31 186.043C422.112 178.45 391.932 170.809 361.77 163.121L316.582 151.449L294.001 145.582C286.477 143.626 278.948 141.682 271.426 139.6C256.337 135.513 241.565 130.704 227.19 125.2C219.969 122.419 212.977 119.267 206.259 115.766C199.413 112.275 193.153 108.093 187.632 103.322C184.854 100.855 182.495 98.1042 180.615 95.1402C178.687 92.1102 177.576 88.7877 177.353 85.3893C177.179 81.9899 177.933 78.601 179.563 75.461C181.156 72.4 183.289 69.5393 185.897 66.9671C191.068 61.9836 197.073 57.5996 203.741 53.9399C210.279 50.2681 217.119 46.957 224.215 44.0293C238.371 38.2595 252.989 33.2513 267.971 29.0376C282.889 24.753 298.044 21.0181 313.395 17.9336Z" fill="url(#paint2_linear)"/>
<path d="M313.393 17.9336C297.933 21.2122 282.704 25.1596 267.773 29.7585C252.877 34.3843 238.22 39.639 224.58 46.3098C217.731 49.5905 211.329 53.4388 205.478 57.7916C202.589 59.978 199.981 62.3931 197.695 65.0002C195.399 67.5829 193.665 70.4596 192.565 73.508C191.499 76.5483 191.296 79.7421 191.971 82.8537C192.706 85.9603 194.145 88.9319 196.216 91.6204C200.317 97.0482 206.149 101.526 212.367 105.465C218.676 109.365 225.351 112.866 232.333 115.936C239.29 119.054 246.454 121.878 253.727 124.504C268.282 129.75 283.24 134.268 298.354 138.395C328.692 146.471 359.074 154.477 389.499 162.413C450.318 178.303 511.226 193.969 572.221 209.412C633.218 224.839 694.311 240.011 755.5 254.929L753.806 259.417C692.689 244.189 631.719 228.633 570.896 212.748C510.034 196.937 449.268 180.891 388.599 164.611C358.261 156.469 327.948 148.273 297.658 140.022C282.537 135.792 267.568 131.17 252.989 125.81C245.704 123.127 238.524 120.244 231.545 117.061C224.523 113.918 217.815 110.342 211.481 106.365C205.219 102.335 199.319 97.7515 195.143 92.1343C193.021 89.3317 191.559 86.2395 190.828 83.0119C190.154 79.7646 190.395 76.4371 191.534 73.2747C192.693 70.144 194.504 67.1937 196.89 64.5491C199.237 61.9137 201.908 59.4754 204.865 57.2712C210.797 52.9213 217.281 49.0831 224.209 45.8194C237.969 39.2034 252.694 34.0319 267.647 29.4904C282.626 24.9789 297.897 21.121 313.393 17.9336Z" fill="url(#paint3_linear)"/>
<path d="M314.438 16.3965C298.23 19.8296 282.227 23.8701 266.432 28.3614C250.618 32.8094 235.122 37.9583 220.018 43.7843C212.497 46.7367 205.112 49.917 197.995 53.4445C190.844 56.9186 184.102 60.9074 177.851 65.3618C171.723 69.8517 166.128 75.0345 162.991 81.1906C161.394 84.2393 160.628 87.5271 160.744 90.8333C160.817 92.4771 161.111 94.1099 161.619 95.7033C162.152 97.2954 162.868 98.8446 163.756 100.331C165.586 103.306 167.91 106.068 170.664 108.541C173.417 111.037 176.423 113.345 179.651 115.441C186.155 119.63 193.11 123.348 200.432 126.549C215.032 133.062 230.507 138.263 246.181 142.932C254.027 145.268 261.945 147.413 269.91 149.514L293.784 155.848L341.533 168.515L723.521 269.855L721.65 274.341L340.635 170.672L293.008 157.713L269.194 151.234C261.255 149.085 253.304 146.887 245.454 144.498C229.755 139.722 214.249 134.412 199.582 127.763C192.202 124.483 185.199 120.682 178.656 116.407C175.382 114.25 172.337 111.879 169.551 109.318C166.733 106.75 164.362 103.888 162.502 100.808C161.589 99.2535 160.858 97.6342 160.317 95.9711C158.74 90.9221 159.285 85.5958 161.868 80.8215C165.173 74.4717 170.923 69.2492 177.153 64.7416C183.487 60.29 190.311 56.3101 197.541 52.8508C204.72 49.3475 212.154 46.1998 219.716 43.2828C234.888 37.5334 250.446 32.4642 266.317 28.0986C282.159 23.6923 298.201 19.7399 314.438 16.3965Z" fill="url(#paint4_linear)"/>
<path d="M313.392 17.9336C305.648 19.6062 297.98 21.4919 290.363 23.4876C282.743 25.4761 275.169 27.5744 267.676 29.841C252.666 34.2671 238.076 39.5653 224.022 45.6938C217.051 48.7551 210.369 52.2235 204.029 56.0711C197.805 59.9539 191.985 64.3465 187.813 69.5553C185.74 72.1097 184.232 74.9327 183.355 77.8998C182.555 80.8223 182.581 83.8518 183.43 86.7653C184.335 89.7092 185.884 92.5003 188.006 95.0082C190.154 97.5826 192.639 99.9652 195.417 102.115C201.116 106.464 207.387 110.3 214.119 113.558C220.881 116.888 227.854 119.932 235.01 122.677C249.426 128.147 264.205 132.977 279.28 137.144C286.8 139.278 294.422 141.232 302.039 143.264L324.871 149.334L370.566 161.396C401.031 169.434 431.513 177.429 462.013 185.382L553.53 209.201L645.129 232.829L690.939 244.63L736.791 256.336L713.609 251.164L690.481 245.844L644.271 235.073L598.166 224.015L552.143 212.742C521.47 205.2 490.889 197.421 460.303 189.654C429.76 181.78 399.244 173.838 368.755 165.83L323.087 153.657L300.269 147.531C292.675 145.487 285.05 143.445 277.467 141.248C262.252 136.929 247.343 131.941 232.809 126.306C225.514 123.461 218.425 120.285 211.577 116.794C204.618 113.319 198.15 109.244 192.29 104.643C189.329 102.286 186.69 99.6806 184.418 96.8723C182.075 94.0084 180.383 90.8324 179.423 87.4926C178.487 84.0969 178.522 80.5748 179.527 77.1919C180.577 73.8881 182.331 70.7553 184.711 67.9327C189.384 62.3457 195.573 57.8952 202.069 53.9897C208.611 50.1513 215.515 46.7281 222.718 43.751C237.061 37.8783 251.918 32.853 267.171 28.715C282.336 24.4826 297.763 20.884 313.392 17.9336Z" fill="url(#paint5_linear)"/>
<path d="M387.704 0.347301C373.786 2.34483 359.99 4.81717 346.316 7.76431C339.494 9.24515 332.722 10.8767 326.046 12.7188C319.362 14.522 312.832 16.6734 306.497 19.1593C303.349 20.3979 300.321 21.825 297.439 23.4287C294.556 24.9568 292.039 26.891 290.012 29.1382C289.541 29.6951 289.141 30.2881 288.816 30.9084C288.482 31.5136 288.234 32.1468 288.075 32.7963C287.998 33.1179 288.01 33.4481 287.969 33.7729L287.926 34.2616L288.001 34.7489C288.059 35.0723 288.074 35.4008 288.162 35.7204L288.527 36.6654C288.638 36.9857 288.8 37.2933 289.007 37.581L289.564 38.4775C290.055 39.0282 290.501 39.6023 291.033 40.1319C291.613 40.6357 292.151 41.1662 292.76 41.6498L294.668 43.047C300.225 46.4641 306.319 49.2772 312.791 51.4133C319.228 53.6848 325.878 55.5825 332.577 57.3404C345.977 60.8744 359.669 63.7061 373.414 66.3103C387.167 68.9097 401.016 71.1516 414.895 73.3893L498.132 86.7974C553.644 95.6564 609.235 104.186 664.706 113.2C720.158 122.299 775.651 131.22 831.03 140.656L830.949 141.002C775.1 133.547 719.473 125.123 663.86 116.652C608.269 108.09 552.859 98.789 497.436 89.5563L414.321 75.6296C400.477 73.3078 386.6 70.9717 372.83 68.2784C359.063 65.5795 345.347 62.6527 331.887 59.0103C325.163 57.1838 318.485 55.2162 311.992 52.8605C305.387 50.6151 299.182 47.6767 293.537 44.1221L291.542 42.6304C290.901 42.1111 290.322 41.5334 289.711 40.9868C289.142 40.4077 288.65 39.7689 288.126 39.1582L287.507 38.143C287.279 37.8117 287.1 37.4601 286.975 37.0953L286.572 35.9992C286.474 35.6267 286.452 35.2386 286.392 34.859L286.318 34.2867L286.37 33.7124C286.418 33.3314 286.42 32.9426 286.513 32.5693C286.702 31.8249 286.995 31.1 287.386 30.4081C287.757 29.7212 288.211 29.0652 288.741 28.4497C290.899 26.0962 293.571 24.077 296.626 22.4903C299.584 20.8795 302.689 19.4499 305.914 18.2135C312.329 15.7608 318.937 13.6471 325.694 11.8856C332.425 10.0909 339.235 8.51146 346.091 7.08405C359.807 4.23936 373.655 1.87801 387.633 0L387.704 0.347301Z" fill="url(#paint6_linear)"/>
<path d="M383.777 0.173828C376.729 1.25649 369.716 2.48125 362.73 3.78409C355.738 5.06853 348.779 6.45457 341.853 7.94219C327.993 10.8234 314.386 14.4393 301.12 18.766C294.529 20.8827 288.215 23.5222 282.275 26.6453C279.382 28.1725 276.788 30.038 274.58 32.1802C272.504 34.2964 271.207 36.8515 271.804 39.3362C272.328 41.8276 274.441 44.0662 276.9 45.9341C279.472 47.8137 282.298 49.4564 285.324 50.8316C291.496 53.6293 297.949 56.0062 304.615 57.9374C311.278 59.9501 318.084 61.6833 324.93 63.3136C331.776 64.9463 338.689 66.4182 345.63 67.8068C359.519 70.5895 373.517 72.9451 387.592 75.2078L471.96 89.0148L809.471 144.156C795.325 142.203 781.191 140.198 767.069 138.141L724.701 131.976L640.072 119.185C583.669 110.588 527.342 101.677 471.092 92.4514L386.746 78.5088C372.695 76.1805 358.617 73.7119 344.679 70.8343C330.669 68.0654 316.878 64.6217 303.382 60.5218C296.577 58.4593 289.999 55.9411 283.718 52.9939C280.52 51.4887 277.542 49.7001 274.839 47.6618C273.455 46.6031 272.23 45.4178 271.189 44.1299C270.089 42.7916 269.35 41.2835 269.018 39.7022C268.704 38.0876 268.901 36.4354 269.591 34.8979C270.271 33.429 271.25 32.0612 272.488 30.8505C274.899 28.5663 277.723 26.5856 280.865 24.9745C286.998 21.8458 293.504 19.2175 300.287 17.1287C313.749 13.0236 327.536 9.64475 341.557 7.01455C355.517 4.28236 369.591 2.00212 383.777 0.173828Z" fill="url(#paint7_linear)"/>
<path d="M383.775 0.173828C376.428 1.26714 369.112 2.48802 361.815 3.77317C354.515 5.04255 347.24 6.39457 339.989 7.82923C325.5 10.7192 311.104 13.9393 297.031 17.8673C289.996 19.8218 283.03 21.9454 276.298 24.4398C272.933 25.6858 269.628 27.0283 266.452 28.522C263.279 29.9719 260.287 31.6638 257.518 33.5744C254.858 35.4824 252.433 37.7145 251.482 40.2638C250.997 41.5067 250.928 42.8305 251.281 44.1018C251.686 45.4021 252.41 46.6243 253.411 47.6967C255.6 49.9494 258.257 51.8803 261.266 53.4038C264.321 55.0207 267.517 56.4589 270.829 57.7072C277.534 60.2202 284.428 62.3951 291.47 64.2192C298.506 66.1136 305.646 67.7941 312.835 69.3393C327.221 72.4269 341.774 75.0069 356.409 77.3733L444.278 91.6869L532.123 106.094C561.409 110.88 590.725 115.548 619.994 120.402L707.859 134.747L795.698 149.218L773.619 146.097L751.56 142.89L707.454 136.422L619.348 123.034C589.974 118.59 560.669 113.863 531.343 109.223L443.409 95.1239L355.601 80.5231C340.952 78.1001 326.319 75.4507 311.844 72.2876C297.393 69.0825 282.968 65.5285 269.335 60.1642C265.902 58.8233 262.594 57.2853 259.436 55.5623C256.141 53.8363 253.247 51.6614 250.883 49.1355C249.665 47.7816 248.796 46.245 248.329 44.6167C247.892 42.937 248.01 41.1946 248.67 39.5627C249.312 38.0016 250.302 36.5475 251.592 35.2714C252.815 34.0378 254.184 32.9033 255.682 31.8841C258.618 29.9106 261.783 28.1692 265.135 26.6843C268.435 25.1808 271.831 23.849 275.272 22.6198C282.156 20.2017 289.187 18.0625 296.338 16.2104C310.611 12.5114 325.128 9.54488 339.72 6.91032C354.315 4.28378 369 2.03828 383.775 0.173828Z" fill="url(#paint8_linear)"/>
<path d="M383.779 0.173828C368.904 2.18967 354.133 4.63273 339.467 7.50298C324.787 10.2762 310.334 13.773 296.189 17.9735C289.13 20.0725 282.312 22.6605 275.811 25.7083C272.586 27.2357 269.599 29.0655 266.911 31.1592C265.591 32.202 264.449 33.3814 263.516 34.6664C262.584 35.9293 262.023 37.3468 261.877 38.8105C261.769 40.2704 262.111 41.7292 262.875 43.0567C263.656 44.396 264.685 45.6326 265.927 46.7244C268.472 48.916 271.375 50.8206 274.556 52.3865C280.967 55.5333 287.726 58.1968 294.747 60.3429C308.824 64.6495 323.21 68.2714 337.828 71.1889C352.419 74.2199 367.138 76.8142 381.91 79.2697L470.513 94.1127C529.601 103.934 588.726 113.61 647.886 123.141C707.046 132.669 766.244 142.031 825.483 151.228L824.594 154.908C765.396 145.452 706.259 135.787 647.184 125.911C588.094 116.076 529.041 106.098 470.026 95.9774L381.535 80.6823C366.783 78.1518 352.044 75.4692 337.448 72.3549C322.801 69.3484 308.393 65.6361 294.301 61.238C287.232 59.0334 280.431 56.3075 273.987 53.0953C270.741 51.4724 267.783 49.5033 265.195 47.2418C263.898 46.0849 262.827 44.7766 262.018 43.3617C261.205 41.9199 260.848 40.3389 260.98 38.7594C261.147 37.1903 261.759 35.6726 262.767 34.3223C263.748 32.9907 264.944 31.7698 266.326 30.6921C269.076 28.5756 272.13 26.7295 275.423 25.1927C281.984 22.1622 288.861 19.5959 295.976 17.5228C310.174 13.3919 324.675 9.96735 339.397 7.26863C354.084 4.49066 368.878 2.12573 383.779 0.173828Z" fill="url(#paint9_linear)"/>
<path d="M383.778 0.173828C368.359 2.27031 353.021 4.74253 337.767 7.50068C322.519 10.2766 307.353 13.3642 292.406 17.0378C284.939 18.8848 277.524 20.8756 270.239 23.1343C262.932 25.3343 255.836 27.9608 249.006 30.9928C245.612 32.5116 242.393 34.2704 239.387 36.2485C236.348 38.1437 233.91 40.589 232.269 43.3852C231.555 44.7825 231.273 46.2984 231.449 47.8024C231.686 49.3046 232.323 50.7481 233.316 52.0347C235.452 54.6056 238.188 56.8198 241.372 58.5548C247.815 62.0576 254.736 64.9556 262 67.1921C269.224 69.5414 276.625 71.5419 284.086 73.3764C299.029 77.0077 314.22 79.9729 329.486 82.6352L421.294 98.1835L788.562 160.325L787.585 163.991L420.811 100.001L329.115 83.9891C313.84 81.246 298.635 78.1994 283.664 74.4804C276.187 72.6018 268.767 70.5559 261.51 68.1542C254.173 65.853 247.19 62.8829 240.695 59.3021C237.404 57.482 234.584 55.1652 232.392 52.4806C231.329 51.082 230.654 49.5154 230.413 47.8879C230.232 46.2487 230.549 44.5987 231.338 43.08C233.058 40.1721 235.611 37.6334 238.788 35.6723C241.85 33.681 245.128 31.9132 248.581 30.3899C255.469 27.3756 262.621 24.7703 269.982 22.5948C277.306 20.3656 284.748 18.4082 292.239 16.5957C307.233 12.9911 322.43 9.97704 337.705 7.27514C352.984 4.59129 368.343 2.19442 383.778 0.173828Z" fill="url(#paint10_linear)"/>
<path d="M383.777 0.173828C376.322 1.22629 368.899 2.41328 361.497 3.66832C354.09 4.9083 346.71 6.23553 339.354 7.64999C324.659 10.5043 310.054 13.7062 295.815 17.7033C288.692 19.6463 281.712 21.9118 274.908 24.4892C271.538 25.7755 268.268 27.2239 265.115 28.8265C261.997 30.3661 259.146 32.2298 256.635 34.3695C255.454 35.4039 254.466 36.5699 253.701 37.8314C252.987 39.0282 252.645 40.347 252.707 41.6736C252.858 44.2916 254.851 46.7425 257.344 48.7647C258.62 49.7957 259.995 50.743 261.458 51.5976C262.934 52.4784 264.464 53.2989 266.042 54.0559C269.238 55.5841 272.537 56.968 275.924 58.2012C282.769 60.6674 289.775 62.8336 296.912 64.6902C304.043 66.6078 311.274 68.3149 318.543 69.9174C333.095 73.096 347.816 75.804 362.605 78.2903L451.475 93.2922L629.281 123.055L807.176 152.533L784.806 149.398L762.46 146.155L717.788 139.584C688.036 135.076 658.299 130.505 628.578 125.87C598.842 121.289 569.172 116.447 539.484 111.675C509.812 106.836 480.158 101.931 450.52 96.9597L406.089 89.4065L361.681 81.7683C346.864 79.1866 332.085 76.3773 317.452 73.0887C302.839 69.7618 288.283 66.0676 274.4 60.8212C270.914 59.5035 267.523 58.0307 264.242 56.4094C262.585 55.5883 260.98 54.7006 259.434 53.7499C257.852 52.7962 256.367 51.7426 254.994 50.5992C253.567 49.4277 252.339 48.1094 251.343 46.6788C250.298 45.1759 249.7 43.4993 249.594 41.7798C249.539 40.0528 250.006 38.3408 250.956 36.7912C251.872 35.3226 253.048 33.9688 254.449 32.7724C257.172 30.5068 260.257 28.5418 263.624 26.9286C266.898 25.3155 270.289 23.8626 273.781 22.5778C280.715 20.0403 287.827 17.8292 295.081 15.9556C309.542 12.1968 324.274 9.2629 339.078 6.678C353.887 4.10251 368.786 1.93445 383.777 0.173828Z" fill="url(#paint11_linear)"/>
<path style="mix-blend-mode:overlay" d="M381.699 2.81289C368.024 5.03869 354.398 7.68319 341.017 10.7409C334.323 12.2624 327.681 13.8897 321.169 15.7112C314.72 17.4686 308.41 19.5379 302.273 21.9078C299.356 23.0391 296.544 24.3365 293.858 25.7904C291.576 26.9353 289.59 28.4238 288.009 30.1739C287.802 30.4449 287.636 30.735 287.515 31.038C287.456 31.207 287.431 31.3825 287.442 31.5578C287.479 31.6844 287.529 31.8084 287.591 31.9287C287.713 32.138 287.854 32.3399 288.012 32.5328C289.55 34.0558 291.437 35.3271 293.572 36.2777C296.265 37.5622 299.072 38.6864 301.97 39.6413C304.961 40.6571 308.086 41.5702 311.262 42.4223C317.625 44.1201 324.204 45.5657 330.851 46.8782C344.146 49.5334 357.731 51.6689 371.387 53.573C378.217 54.5233 385.068 55.4158 391.94 56.2504L412.706 58.7271L495.849 68.9555L516.653 71.4245C523.59 72.2375 530.542 72.9799 537.488 73.7508L579.189 78.2462C593.078 79.7908 606.932 81.4939 620.735 83.4231C634.538 85.3555 648.289 87.5232 662.004 89.8586C689.428 94.5612 716.743 99.7744 743.952 105.498C757.548 108.399 771.121 111.421 784.646 114.672C798.167 117.95 811.665 121.34 825.055 125.268L824.478 128.045C817.348 128.141 810.243 128.114 803.164 127.964C796.079 127.84 789.014 127.614 781.955 127.357C767.843 126.82 753.781 126.035 739.749 125.104C711.692 123.205 683.762 120.699 655.958 117.587C628.145 114.528 600.53 110.561 573.114 105.685C545.694 100.841 518.346 95.6877 490.87 91.118L408.507 77.1409L387.91 73.5084C381.002 72.2685 374.101 70.9736 367.209 69.6236C353.426 66.9061 339.679 63.9508 326.015 60.4066C319.192 58.6031 312.392 56.6535 305.636 54.3757C302.258 53.2306 298.891 52.0081 295.543 50.6191C292.074 49.2123 288.74 47.599 285.571 45.7928C283.845 44.799 282.216 43.7012 280.697 42.509C278.928 41.1315 277.425 39.5489 276.238 37.8138C275.555 36.7689 275.039 35.6584 274.704 34.5091C274.355 33.2562 274.255 31.9669 274.406 30.6889C274.581 29.4598 274.98 28.2583 275.593 27.1234C276.145 26.1244 276.834 25.1783 277.648 24.3028C279.051 22.8339 280.689 21.5206 282.52 20.3972C284.13 19.4009 285.826 18.4976 287.594 17.6941C290.894 16.2122 294.322 14.922 297.851 13.8334C304.603 11.7637 311.505 10.0252 318.518 8.62746C325.433 7.2085 332.365 6.0018 339.315 4.93507C353.232 2.85602 367.16 1.23563 381.193 0.0273438L381.699 2.81289Z" fill="url(#paint12_linear)"/>
<path d="M387.719 0.555016C373.602 3.04471 359.658 6.12814 345.944 9.79259C339.097 11.6344 332.321 13.6498 325.69 15.9262C319.044 18.1535 312.616 20.778 306.459 23.7778C303.401 25.2719 300.496 26.9585 297.77 28.8216C295.048 30.6356 292.686 32.7715 290.763 35.156C289.847 36.3361 289.126 37.607 288.617 38.9366C288.411 39.6017 288.249 40.2752 288.131 40.954L288.064 41.9775C288.056 42.148 288.029 42.3186 288.038 42.4889L288.102 42.9989C288.458 45.7639 289.776 48.3923 291.905 50.5828C294.025 52.853 296.519 54.8816 299.318 56.6131C300.658 57.5489 302.173 58.3228 303.603 59.1738C305.078 59.9799 306.608 60.7289 308.111 61.5034C314.301 64.432 320.733 67.0171 327.361 69.2406C333.973 71.5182 340.69 73.6009 347.513 75.4888C354.308 77.4208 361.196 79.1482 368.097 80.835C381.918 84.1847 395.892 87.0565 409.936 89.8483L494.155 106.641C550.331 117.738 606.621 128.455 662.753 139.686C718.859 151.01 775.026 162.128 831.046 173.777L830.936 174.158C774.276 164.689 717.93 154.118 661.604 143.484C605.308 132.749 549.265 121.183 493.209 109.674L409.157 92.311C395.153 89.4266 381.123 86.4424 367.282 82.9855C360.365 81.2436 353.461 79.4607 346.64 77.4695C339.801 75.525 333.051 73.3792 326.388 71.032C319.696 68.7153 313.209 66.0335 306.972 63.0056C305.443 62.1994 303.893 61.4206 302.391 60.5797C300.928 59.6901 299.394 58.885 298.012 57.901C295.101 56.0547 292.515 53.8998 290.325 51.4949C288.021 49.0554 286.62 46.1435 286.281 43.093L286.222 42.5179C286.215 42.3261 286.245 42.1336 286.255 41.9415L286.349 40.7894C286.489 40.0313 286.681 39.28 286.925 38.5392C287.496 37.0929 288.301 35.7127 289.317 34.4339C291.363 31.95 293.868 29.7311 296.746 27.8536C299.557 25.9746 302.55 24.2776 305.695 22.7785C311.953 19.8055 318.479 17.2138 325.218 15.0253C331.92 12.796 338.748 10.835 345.64 9.04983C359.431 5.50208 373.445 2.53868 387.622 0.171875L387.719 0.555016Z" fill="url(#paint13_linear)"/>
<path d="M383.777 0.363281C376.631 1.70389 369.539 3.22145 362.486 4.83373C355.427 6.43114 348.416 8.15006 341.453 9.9905C327.515 13.5669 313.949 18.0205 300.882 23.31C294.4 25.916 288.284 29.0733 282.64 32.7276C279.898 34.5358 277.46 36.6234 275.388 38.9376C273.365 41.1481 272.137 43.7626 271.837 46.4958C271.728 49.207 272.657 51.8797 274.496 54.1538C276.388 56.5242 278.718 58.6488 281.407 60.4541C286.968 64.1296 293.051 67.2633 299.529 69.7899C306.035 72.4007 312.702 74.7425 319.505 76.8061C326.305 78.9112 333.19 80.8517 340.158 82.6277C354.076 86.2063 368.195 89.2838 382.413 92.1235L467.801 109.374L809.471 178.074L787.952 174.332L766.462 170.487L723.503 162.724C694.898 157.429 666.31 152.073 637.74 146.658C609.151 141.302 580.64 135.692 552.106 130.151C523.59 124.555 495.095 118.892 466.619 113.161L423.933 104.482L381.271 95.7256C367.035 92.787 352.84 89.5965 338.836 85.8979C324.845 82.1835 310.964 78.026 297.798 72.4789C291.11 69.7648 284.847 66.4225 279.14 62.5219C276.228 60.5003 273.719 58.1324 271.7 55.5003C269.577 52.7589 268.548 49.5611 268.752 46.3362C269.141 43.1623 270.609 40.1357 272.996 37.5879C275.258 35.1335 277.909 32.927 280.882 31.0245C286.742 27.3376 293.082 24.173 299.792 21.5865C313.115 16.5238 326.914 12.3136 341.06 8.995C355.126 5.56592 369.365 2.68868 383.777 0.363281Z" fill="url(#paint14_linear)"/>
<path d="M383.778 0.363281C376.327 1.71762 368.924 3.23105 361.551 4.82273C354.174 6.40156 346.833 8.08034 339.529 9.85907C324.918 13.3596 310.558 17.5028 296.513 22.27C289.519 24.6389 282.697 27.3246 276.081 30.3142C269.552 33.3456 263.204 36.7534 258.098 41.055C255.557 43.1246 253.552 45.5794 252.2 48.2769C250.966 50.8921 250.908 53.772 252.036 56.4179C253.3 59.1068 255.277 61.5424 257.83 63.5556C260.44 65.6616 263.306 67.5516 266.386 69.1971C272.678 72.514 279.322 75.3798 286.239 77.7613C293.16 80.2104 300.246 82.3945 307.42 84.3937C321.779 88.3747 336.443 91.6991 351.206 94.7017L440.086 112.661L795.701 184.321L773.313 180.384L750.953 176.347L706.252 168.208L617.002 151.403C587.25 145.806 557.578 139.943 527.879 134.167L438.903 116.451C409.278 110.429 379.665 104.371 350.064 98.2775C335.241 95.1676 320.502 91.7325 306.012 87.6179C298.776 85.5439 291.595 83.3102 284.574 80.7356C277.487 78.1955 270.691 75.1585 264.267 71.6598C261.014 69.8644 257.994 67.8102 255.253 65.5284C252.383 63.1864 250.185 60.3682 248.814 57.2714C247.505 54.036 247.634 50.5357 249.178 47.3682C250.728 44.3656 253.008 41.642 255.885 39.3568C261.438 34.8206 268.024 31.4269 274.742 28.4041C281.495 25.4452 288.459 22.8097 295.599 20.5115C309.846 15.992 324.392 12.1055 339.17 8.86954C353.901 5.56689 368.779 2.70644 383.778 0.363281Z" fill="url(#paint15_linear)"/>
<path d="M383.777 0.363281C368.672 2.88521 353.725 5.93731 338.938 9.5196C324.13 12.9834 309.662 17.325 295.653 22.5087C288.666 25.1008 282.011 28.2361 275.784 31.8698C272.703 33.6952 269.887 35.7937 267.391 38.1256C264.877 40.4136 263.104 43.1647 262.229 46.135C261.497 49.1165 262.043 52.2093 263.776 54.9099C265.525 57.6227 267.858 60.0647 270.668 62.1221C276.228 66.3364 282.825 69.6065 289.568 72.5326C303.15 78.3257 317.633 82.6761 332.221 86.6115C346.844 90.5053 361.682 93.8668 376.607 96.9666L466.244 115.539C526.03 127.832 585.872 139.944 645.771 151.876C705.667 163.803 765.624 175.527 825.64 187.048L824.434 191.098C764.47 179.295 704.599 167.232 644.821 154.91C585.019 142.64 525.276 130.191 465.591 117.564L376.108 98.4884C361.187 95.2995 346.337 91.8442 331.701 87.8548C317.096 83.8216 302.595 79.3752 288.948 73.456C282.17 70.4633 275.529 67.127 269.877 62.7845C266.99 60.6386 264.601 58.0975 262.821 55.2797C261.014 52.4071 260.468 49.1285 261.271 45.9752C262.202 42.887 264.068 40.0315 266.703 37.6622C269.263 35.3036 272.145 33.1844 275.295 31.3448C281.594 27.7222 288.319 24.604 295.374 22.0346C309.451 16.9212 323.982 12.654 338.845 9.26817C353.658 5.78733 368.635 2.81904 383.777 0.363281Z" fill="url(#paint16_linear)"/>
<path d="M383.779 0.363281C368.111 2.98824 352.567 6.08005 337.152 9.52718C321.747 12.9975 306.464 16.8495 291.515 21.4203C284.046 23.7111 276.66 26.1838 269.46 28.9669C262.232 31.6888 255.297 34.8873 248.726 38.5297C245.468 40.3585 242.419 42.4176 239.617 44.6824C236.798 46.9006 234.521 49.5247 232.907 52.4183C231.332 55.2979 231.028 58.5236 232.045 61.561C233.178 64.5805 235.177 67.3441 237.881 69.6294C240.561 71.9708 243.548 74.0715 246.791 75.8948C250.032 77.7449 253.407 79.4392 256.897 80.9688C263.914 84.014 271.155 86.7123 278.581 89.0486C293.474 93.6988 308.667 97.7013 324.096 101.039C331.793 102.753 339.549 104.333 347.293 105.961L370.527 110.82L416.995 120.538L788.737 198.279L787.413 202.306L416.348 122.51L369.964 112.535L346.773 107.548C339.047 105.877 331.301 104.255 323.588 102.494C308.127 99.062 292.908 94.9637 277.995 90.2167C270.532 87.8229 263.257 85.0654 256.212 81.9593C252.687 80.3903 249.281 78.655 246.011 76.7625C242.707 74.878 239.667 72.7106 236.944 70.2985C234.133 67.8857 232.066 64.9759 230.91 61.8034C230.377 60.1946 230.193 58.524 230.366 56.865C230.556 55.2136 231.072 53.5971 231.896 52.0766C233.585 49.092 235.958 46.3894 238.89 44.1096C241.752 41.8254 244.862 39.7514 248.184 37.9125C254.825 34.2816 261.828 31.0994 269.123 28.3986C276.371 25.6434 283.793 23.2046 291.294 20.949C306.304 16.4495 321.628 12.6754 337.069 9.28437C352.518 5.91666 368.09 2.9061 383.779 0.363281Z" fill="url(#paint17_linear)"/>
<path d="M383.776 0.363281C376.208 1.66718 368.688 3.13887 361.199 4.69481C353.706 6.23895 346.251 7.88854 338.834 9.64356C323.999 13.0904 309.433 17.246 295.214 22.0882C288.143 24.4974 281.274 27.2727 274.649 30.3966C271.375 31.9558 268.23 33.6852 265.236 35.5737C262.269 37.4085 259.598 39.532 257.282 41.8955C255.012 44.1364 253.523 46.8212 252.967 49.6758C252.609 52.4969 253.402 55.335 255.227 57.7617C257.117 60.2959 259.506 62.5665 262.302 64.485C265.147 66.4715 268.179 68.2778 271.372 69.8877C277.867 73.1165 284.655 75.9491 291.677 78.3613C298.709 80.8183 305.861 83.0688 313.134 85.1129C327.651 89.2269 342.471 92.6993 357.384 95.8814L447.25 114.629L537.172 133.241L627.129 151.751C657.109 157.943 687.113 164.059 717.141 170.1L807.174 188.412L784.482 184.453L761.825 180.368L716.54 172.095C686.395 166.423 656.27 160.683 626.165 154.873C596.044 149.118 566.017 143.054 535.964 137.074C505.94 131.002 475.937 124.862 445.955 118.654C415.991 112.379 386.045 106.048 356.119 99.6632C341.148 96.3681 326.257 92.7796 311.616 88.5275C304.3 86.3954 297.035 84.117 289.927 81.5109C282.758 78.944 275.84 75.9475 269.23 72.5469C265.897 70.808 262.736 68.8636 259.778 66.7312C256.72 64.5611 254.123 62.0049 252.089 59.163C249.951 56.1869 249.071 52.7342 249.58 49.3222C250.268 46.0023 252.041 42.8891 254.72 40.3021C257.241 37.8005 260.14 35.5606 263.349 33.6337C266.481 31.7181 269.765 29.9691 273.181 28.3977C279.962 25.2938 286.999 22.566 294.243 20.2333C308.682 15.6499 323.449 11.7638 338.465 8.59576C353.427 5.34962 368.531 2.60546 383.776 0.363281Z" fill="url(#paint18_linear)"/>
<path d="M309.508 24.3574C306.857 25.5509 304.465 27.0839 302.427 28.8961C301.453 29.7903 300.761 30.8595 300.409 32.0138C300.133 33.1549 300.369 34.3375 301.076 35.3517C301.794 36.3813 302.74 37.2973 303.866 38.055C304.995 38.8389 306.202 39.5468 307.476 40.1714C310.059 41.4178 312.757 42.5046 315.545 43.4223C326.758 47.0748 338.551 49.5843 350.387 51.784C374.122 56.0951 398.169 59.1688 422.264 62.1938L566.8 80.6055L855.938 117.162C807.555 112.118 759.227 106.754 710.954 101.067C662.662 95.4967 614.41 89.712 566.197 83.713L493.895 74.6299L421.645 65.2844C397.567 62.1876 373.452 58.7796 349.745 53.9076C343.82 52.6849 337.92 51.3704 332.078 49.8872C326.204 48.4459 320.456 46.6935 314.871 44.6415C312.063 43.6072 309.357 42.4026 306.776 41.0381C305.48 40.342 304.257 39.5612 303.121 38.7035C301.947 37.8432 300.978 36.8181 300.261 35.6785C299.526 34.5065 299.328 33.1636 299.703 31.886C300.131 30.6591 300.938 29.5392 302.049 28.6302C304.229 26.8885 306.749 25.4452 309.508 24.3574Z" fill="url(#paint19_linear)"/>
<path d="M234.842 53.9238C232.088 55.1986 229.65 56.8719 227.653 58.8592C225.676 60.8183 224.435 63.19 224.076 65.696C223.808 68.187 224.357 70.691 225.668 72.9585C226.968 75.2386 228.675 77.3539 230.735 79.2378C234.953 82.9895 239.749 86.2932 245.008 89.0687C250.259 91.8944 255.73 94.447 261.387 96.7108C272.768 101.197 284.484 105.112 296.466 108.436C308.423 111.872 320.548 114.832 332.811 117.635L369.5 126.187C381.742 129.002 394.032 131.681 406.295 134.435C412.436 135.783 418.55 137.214 424.696 138.547L443.137 142.543C455.433 145.201 467.712 147.912 480.057 150.422L498.551 154.257C504.715 155.537 510.876 156.828 517.064 158.033C529.43 160.471 541.778 162.971 554.16 165.358L591.326 172.453C603.742 174.724 616.133 177.09 628.571 179.284C678.312 188.084 728.193 196.465 778.463 203.181C765.835 201.822 753.241 200.254 740.673 198.57C728.1 196.907 715.552 195.124 703.009 193.313L684.212 190.521C677.951 189.571 671.708 188.545 665.455 187.56C652.943 185.613 640.479 183.48 627.998 181.409C615.518 179.332 603.085 177.083 590.625 174.929C578.181 172.718 565.767 170.401 553.352 168.084C540.948 165.734 528.577 163.27 516.188 160.869C509.988 159.683 503.816 158.411 497.64 157.149L479.11 153.369C466.742 150.895 454.439 148.221 442.119 145.599L423.641 141.658C417.481 140.346 411.354 138.938 405.219 137.555C392.957 134.76 380.67 132.039 368.431 129.183L331.753 120.508C307.285 114.825 282.842 108.283 260.155 98.6175C254.472 96.2085 248.987 93.5095 243.734 90.5369C238.401 87.5959 233.605 84.0718 229.483 80.0663C227.426 78.0328 225.75 75.7688 224.507 73.3459C223.236 70.9031 222.782 68.2355 223.191 65.6081C223.671 63.0041 225.091 60.5704 227.275 58.6086C229.416 56.685 231.982 55.0967 234.842 53.9238Z" fill="url(#paint20_linear)"/>
<path d="M289.337 11.0604C277.581 12.6213 265.892 14.579 254.284 16.7598C242.676 18.9504 231.164 21.4295 219.748 24.1971C208.35 26.9865 197.077 30.1035 186.045 33.6842C175.002 37.2065 164.298 41.379 154.019 46.1677C143.856 51.0158 134.159 56.6611 126.447 63.7433C122.597 67.2387 119.462 71.2029 117.158 75.4882C114.912 79.7384 113.85 84.3325 114.048 88.9476C114.318 93.5723 115.648 98.1172 117.972 102.354C119.108 104.499 120.427 106.58 121.917 108.581C123.4 110.601 125.015 112.556 126.754 114.439C133.924 121.955 142.168 128.766 151.316 134.735C160.443 140.809 170.002 146.451 179.946 151.632C189.886 156.843 200.062 161.765 210.472 166.398C231.245 175.701 252.646 184.117 274.332 192.021L339.641 215.626L405.024 239.107L470.494 262.43L536.058 285.579L601.595 308.776L667.041 332.137L797.753 379.198L863.057 402.836L928.282 426.635L927.936 427.292L911.276 422.003L894.662 416.626L861.458 405.823C839.362 398.547 817.299 391.205 795.271 383.797C784.249 380.108 773.243 376.388 762.255 372.637L729.28 361.398L663.471 338.661L597.866 315.547L532.486 292.025L402.107 244.305L336.984 220.331L271.928 196.231C250.227 188.125 228.798 179.501 207.967 169.967C197.547 165.207 187.33 160.16 177.315 154.826C167.282 149.491 157.644 143.691 148.451 137.454C139.14 131.221 130.775 124.13 123.527 116.325C121.739 114.338 120.082 112.276 118.563 110.149C117.021 108.017 115.661 105.802 114.495 103.521C112.065 98.9289 110.712 94.0155 110.503 89.0282C110.364 84.015 111.591 79.0381 114.097 74.4459C116.601 69.9293 119.983 65.7611 124.115 62.0974C132.281 54.7895 142.287 49.1446 152.679 44.3203C163.137 39.5849 174.016 35.4764 185.227 32.0283C196.388 28.5342 207.761 25.5164 219.242 22.8309C230.727 20.1511 242.308 17.78 253.988 15.7175C265.658 13.6474 277.383 11.8047 289.206 10.3555L289.337 11.0604Z" fill="url(#paint21_linear)"/>
<path d="M283.072 10.1836C271.142 11.9449 259.303 14.0686 247.531 16.3808C235.757 18.6868 224.051 21.2079 212.458 24.0116C189.305 29.6463 166.406 36.1517 144.854 44.8048C134.083 49.0343 123.827 54.0616 114.217 59.8216C109.503 62.6981 105.107 65.8953 101.075 69.3778C97.103 72.7938 93.7347 76.6329 91.0648 80.7869C88.491 84.8676 86.957 89.3202 86.5526 93.8837C86.2358 98.4435 87.0238 103.009 88.8729 107.328C89.8161 109.512 90.9394 111.644 92.2354 113.708C93.5689 115.785 95.0485 117.799 96.6669 119.741C99.9528 123.666 103.64 127.364 107.691 130.796C115.932 137.722 124.931 144.039 134.579 149.671C144.212 155.389 154.263 160.697 164.567 165.688C185.306 175.591 206.673 184.619 228.581 192.733C272.621 208.868 316.796 224.938 361.106 240.943L493.801 288.956L626.56 336.862L892.22 432.485C802.196 403.349 712.832 372.926 623.746 342.002C579.168 326.6 534.782 310.848 490.358 295.165C446.016 279.332 401.72 263.416 357.471 247.416L291.214 223.209L258.113 211.055C247.081 207.003 236.052 202.969 225.043 198.746C202.967 190.389 181.449 181.111 160.577 170.951C150.106 165.835 139.966 160.295 130.196 154.352C120.307 148.407 111.104 141.759 102.697 134.489C98.4606 130.796 94.6149 126.826 91.1998 122.619C89.4795 120.491 87.9114 118.285 86.5034 116.014C85.105 113.71 83.9014 111.333 82.9005 108.899C80.8762 103.948 80.0767 98.7272 80.5469 93.5296C81.1236 88.3462 82.9825 83.3075 86.0145 78.7093C89.0197 74.2315 92.7786 70.1081 97.185 66.4555C101.505 62.8612 106.202 59.5727 111.224 56.6264C121.199 50.8587 131.841 45.8745 143.002 41.7427C154.062 37.6052 165.383 33.9348 176.92 30.7467C188.421 27.5344 200.049 24.6743 211.805 22.1663C235.262 17.0981 259.055 13.0976 283.072 10.1836Z" fill="url(#paint22_linear)"/>
<path d="M274.307 14.582C261.868 16.3328 249.507 18.4109 237.198 20.6458C224.888 22.8775 212.641 25.307 200.458 27.9342C176.129 33.2465 152.023 39.292 128.741 46.9194C117.108 50.684 105.749 54.9741 94.7178 59.7693C83.7864 64.6159 73.2445 70.0873 64.0877 76.7154C59.5191 79.9698 55.4124 83.6203 51.8424 87.6005C48.3451 91.4851 45.7292 95.8359 44.1154 100.452C42.6035 105.017 42.3536 109.792 43.3833 114.443C43.9157 116.78 44.6986 119.076 45.7231 121.305C46.8022 123.549 48.0664 125.732 49.5073 127.841C55.4201 136.308 63.851 143.698 73.034 150.335C77.6329 153.665 82.4686 156.807 87.4446 159.811C92.4179 162.819 97.5012 165.725 102.713 168.493C123.564 179.576 145.787 189.067 168.416 197.828C179.722 202.218 191.229 206.311 202.745 210.507L237.241 223.079L306.284 248.131L444.428 298.134L582.624 348.053L859.077 447.844C812.236 432.632 765.656 416.92 719.094 401.173L649.369 377.331L579.788 353.221C533.407 337.134 487.205 320.719 440.969 304.365C394.826 287.841 348.721 271.25 302.654 254.591L233.68 229.377L199.219 216.724C187.754 212.503 176.223 208.275 164.826 203.773C142.057 194.778 119.655 185.038 98.4698 173.584C87.794 167.884 77.666 161.547 68.1712 154.628C58.74 147.617 49.9379 139.773 43.5998 130.429C42.0376 128.073 40.6752 125.634 39.5217 123.13C38.397 120.585 37.5504 117.966 36.9917 115.303C35.8917 109.911 36.2713 104.391 38.1038 99.1292C39.9776 93.9642 42.9932 89.1126 47.0063 84.8066C50.919 80.5995 55.3994 76.7536 60.3654 73.3393C70.1568 66.5125 81.119 61.0701 92.3845 56.2831C103.672 51.5667 115.299 47.3953 127.204 43.7912C139.062 40.1581 151.094 36.9423 163.221 34.0189C175.349 31.0952 187.567 28.4555 199.875 26.0997C224.469 21.3584 249.301 17.4581 274.307 14.582Z" fill="url(#paint23_linear)"/>
<path d="M283.072 10.1836C270.464 11.7183 257.931 13.6265 245.454 15.7308C232.979 17.8457 220.579 20.2158 208.252 22.8413C183.645 28.144 159.293 34.4433 136.103 42.9089C124.482 47.0677 113.353 52.061 102.849 57.8281C100.247 59.2862 97.7053 60.8133 95.2545 62.4264C92.7938 64.0293 90.4136 65.7108 88.1614 67.4937C83.5984 70.999 79.6317 74.9736 76.3645 79.3143C73.1075 83.6286 70.9622 88.4249 70.0557 93.4184C69.2131 98.4093 69.6758 103.487 71.4144 108.326C71.8023 109.544 72.3398 110.729 72.8399 111.922C73.4273 113.09 73.9697 114.273 74.6537 115.411C75.9574 117.711 77.446 119.941 79.1098 122.086C82.4631 126.387 86.2696 130.449 90.4875 134.227C99.0312 141.763 108.433 148.641 118.569 154.77C123.603 157.878 128.748 160.869 134.004 163.744C139.248 166.627 144.575 169.411 149.986 172.098C171.703 182.77 194.104 192.513 217.098 201.288C228.557 205.731 240.166 209.98 251.73 214.298L286.442 227.217L355.928 252.946C448.63 287.154 541.531 321.008 634.631 354.507C727.741 387.973 821.072 421.032 914.622 453.683L910.858 460.648C817.492 427.51 724.45 393.848 631.732 359.661C538.928 325.593 446.344 291.146 353.981 256.319L284.74 230.147L250.151 217.008C238.63 212.616 227.068 208.296 215.598 203.765C192.587 194.814 170.18 184.893 148.47 174.044C143.058 171.308 137.722 168.473 132.464 165.54C127.197 162.622 122.04 159.576 116.993 156.402C106.794 150.138 97.346 143.12 88.7727 135.441C84.5056 131.561 80.661 127.393 77.2814 122.983C75.5923 120.768 74.084 118.467 72.7661 116.095C72.0736 114.919 71.5216 113.693 70.9279 112.482C70.42 111.244 69.8772 110.016 69.4851 108.748C68.6271 106.226 68.0755 103.643 67.838 101.035C67.6195 98.4219 67.7468 95.7978 68.2178 93.2065C69.2044 88.0309 71.4739 83.0671 74.8918 78.6096C78.2736 74.1885 82.3676 70.1461 87.0674 66.5873C89.3749 64.788 91.8054 63.097 94.3122 61.4887C96.8097 59.87 99.3929 58.3417 102.034 56.8854C112.656 51.145 123.901 46.1871 135.632 42.0722C158.988 33.7153 183.428 27.5573 208.107 22.3971C220.459 19.8325 232.888 17.5354 245.396 15.506C257.896 13.4759 270.45 11.6426 283.072 10.1836Z" fill="url(#paint24_linear)"/>
<path d="M283.072 10.1836C269.969 11.7961 256.929 13.7237 243.932 15.8067C230.937 17.8977 217.995 20.1876 205.106 22.6762C179.316 27.5766 153.861 33.556 128.846 40.59C116.376 44.168 104.054 48.0866 92.0356 52.5337C79.9888 56.913 68.381 62.034 57.3158 67.8507C51.8184 70.7734 46.571 73.9889 41.6087 77.4756C39.1392 79.2225 36.7878 81.0694 34.5269 82.9805C32.2902 84.9049 30.1915 86.93 28.2409 89.0459C24.3235 93.2439 21.3288 97.9497 19.3863 102.96C17.5146 107.963 17.0147 113.234 17.9213 118.408C18.8766 123.587 20.9286 128.597 23.9883 133.219C27.0319 137.88 30.6878 142.265 34.8936 146.299C43.2387 154.451 53.1373 161.538 63.5145 168.058C84.3936 181.042 107.338 191.783 130.738 201.654C142.466 206.568 154.365 211.215 166.367 215.701L202.425 229.178L274.542 256.132L851.474 471.762L847.454 478.633L272.629 259.405L200.776 232.002L164.85 218.3C152.854 213.733 140.941 209 129.204 203.998C105.779 193.95 82.7992 183.027 61.82 169.796C51.3918 163.148 41.424 155.92 32.9773 147.554C28.6993 143.391 24.9887 138.871 21.9088 134.072C18.7727 129.249 16.6874 124.03 15.7434 118.641C14.842 113.221 15.4121 107.708 17.4143 102.481C19.466 97.3064 22.6045 92.4522 26.6938 88.1286C28.7078 85.9745 30.8727 83.9144 33.1782 81.9582C35.5001 80.0219 37.9092 78.1564 40.4309 76.3973C45.4813 72.8972 50.8181 69.6731 56.4053 66.7468C67.5867 60.9561 79.3081 55.8686 91.4649 51.5297C103.568 47.1325 115.956 43.2729 128.481 39.7571C153.584 32.8541 179.118 27.0093 204.98 22.2467C217.892 19.8249 230.858 17.606 243.879 15.59C256.897 13.5787 269.955 11.7233 283.072 10.1836Z" fill="url(#paint25_linear)"/>
<path d="M283.07 10.1836C270.436 11.8163 257.88 13.7956 245.377 15.9455C232.874 18.0945 220.424 20.4296 208.063 23.0249C183.365 28.2445 158.882 34.2313 135.341 42.0205C123.579 45.848 112.138 50.2866 101.093 55.3081C90.1743 60.3826 79.7154 66.1953 71.0791 73.347C66.7788 76.8518 63.0987 80.8152 60.1422 85.126C57.2511 89.3337 55.4662 93.974 54.8983 98.7591C54.6416 101.131 54.6938 103.518 55.0539 105.882C55.4428 108.262 56.1053 110.609 57.033 112.892C58.9782 117.53 61.687 121.938 65.0873 125.999C71.9215 134.241 80.7537 141.493 90.2231 148.111C99.8287 154.699 109.936 160.8 120.486 166.378C141.602 177.641 163.973 187.461 186.773 196.561C198.178 201.122 209.707 205.431 221.347 209.739L256.137 222.757C279.316 231.461 302.532 240.102 325.784 248.678C372.228 265.936 418.706 283.136 465.219 300.276L534.983 325.995L604.816 351.596C697.976 385.648 791.215 419.582 884.532 453.396C837.018 438.085 789.833 422.133 742.693 406.101L672.128 381.776C648.632 373.62 625.199 365.349 601.749 357.108C554.863 340.599 508.156 323.767 461.469 306.898L391.592 281.322C368.331 272.743 345.018 264.252 321.842 255.524C298.636 246.848 275.443 238.149 252.264 229.428L217.508 216.322C205.948 211.953 194.32 207.508 182.86 202.832C159.932 193.489 137.393 183.409 115.97 171.779C105.19 165.983 94.8992 159.62 85.1667 152.73C75.4779 145.763 66.3384 138.099 59.1059 129.121C55.4329 124.596 52.5315 119.695 50.4794 114.55C49.4653 111.93 48.7559 109.241 48.3603 106.516C47.9876 103.768 47.9741 100.996 48.3201 98.2457C48.67 95.4981 49.389 92.789 50.4645 90.1658C51.5516 87.5737 52.9412 85.0699 54.6148 82.688C57.9476 78.026 62.0633 73.7551 66.8459 69.9956C76.25 62.5074 87.2194 56.6934 98.5318 51.6558C109.875 46.7018 121.626 42.3782 133.704 38.7151C145.718 35.0047 157.931 31.7785 170.242 28.8679C182.556 25.9591 194.965 23.3634 207.47 21.0808C232.451 16.4737 257.68 12.7885 283.07 10.1836Z" fill="url(#paint26_linear)"/>
<path d="M155.37 49.3965C151.107 51.3652 147.19 53.7815 143.721 56.5815C140.385 59.3898 137.709 62.8659 137.378 66.6647C137.199 68.5504 137.522 70.445 138.326 72.2225C139.127 74.018 140.229 75.7174 141.603 77.2733C144.438 80.4086 147.778 83.2278 151.535 85.6572C159.176 90.5298 167.361 94.8232 175.987 98.4824C184.589 102.229 193.442 105.625 202.428 108.788C220.36 115.195 238.784 120.737 257.314 126.02C266.581 128.661 275.891 131.21 285.242 133.669C294.587 136.134 303.982 138.496 313.376 140.922L369.7 155.472L426.058 169.936L538.781 198.847L764.346 256.383L990.001 313.743C952.004 305.214 914.152 296.284 876.274 287.421L847.88 280.736L819.521 273.957L762.83 260.325C687.296 242.007 611.895 223.339 536.626 204.323L480.202 189.996C461.404 185.194 442.581 180.455 423.815 175.574L367.488 161L311.196 146.339C273.666 136.554 236.223 126.026 200.322 112.479C191.374 109.049 182.551 105.382 173.967 101.35C165.278 97.3904 157.116 92.7279 149.607 87.4352C145.815 84.7489 142.484 81.6696 139.702 78.2781C138.315 76.5445 137.228 74.6667 136.473 72.6969C135.692 70.7149 135.452 68.621 135.768 66.5577C136.085 64.4944 136.951 62.5101 138.307 60.74C139.613 59.0063 141.227 57.4351 143.097 56.0761C146.801 53.4209 150.928 51.1745 155.37 49.3965Z" fill="url(#paint27_linear)"/>
<path d="M24.8591 99.9902C20.3537 102.116 16.2911 104.796 12.8195 107.934C5.88017 114.167 2.09062 122.26 2.1949 130.624C2.21701 132.681 2.42257 134.734 2.80995 136.768C3.22669 138.798 3.7926 140.808 4.5048 142.785C7.43205 150.703 12.6245 157.972 18.6229 164.69C24.7634 171.38 31.6462 177.608 39.1869 183.299C54.2067 194.781 71.0261 204.72 88.4866 213.788C106.01 222.842 124.093 231.174 142.668 238.754C179.864 254.175 217.225 269.333 254.75 284.229C292.339 299.017 330.036 313.63 367.984 327.815C443.846 356.237 520.483 383.276 597.896 408.93C617.271 415.286 636.641 421.659 656.121 427.808C675.589 433.983 695.105 440.06 714.67 446.039C734.24 452.008 753.881 457.825 773.594 463.49C793.33 469.097 813.077 474.694 833.021 479.829C812.895 475.171 792.925 470.075 773.048 464.765C753.166 459.466 733.355 453.994 713.616 448.349C703.736 445.55 693.89 442.679 684.041 439.809C674.225 436.871 664.384 433.983 654.596 430.985L639.897 426.519L625.232 421.984C615.444 418.981 605.704 415.882 595.958 412.795C557.009 400.373 518.279 387.515 479.769 374.219C441.282 360.896 403.014 347.169 364.968 333.039C326.951 318.868 289.131 304.362 251.507 289.521C213.958 274.568 176.6 259.309 139.435 243.745C120.777 235.901 102.632 227.292 85.0726 217.951C76.3412 213.208 67.7777 208.252 59.5126 202.973C51.2052 197.718 43.2861 192.078 35.7958 186.082C28.2716 180.067 21.4422 173.517 15.3916 166.51C9.23285 159.489 4.6378 151.661 1.8111 143.376C1.16902 141.288 0.682046 139.171 0.35271 137.036C0.0521866 134.897 -0.0565331 132.744 0.0274714 130.592C0.211573 126.286 1.35828 122.042 3.41276 118.062C5.47679 114.115 8.46128 110.522 12.2053 107.476C15.91 104.464 20.1799 101.938 24.8591 99.9902Z" fill="url(#paint28_linear)"/>
<defs>
<linearGradient id="paint0_linear" x1="213.998" y1="127.977" x2="761.374" y2="127.977" gradientUnits="userSpaceOnUse">
<stop stop-color="#FF5788"/>
<stop offset="0.04965" stop-color="#FF5995" stop-opacity="0.8892"/>
<stop offset="0.15231" stop-color="#FF5CAE" stop-opacity="0.68307"/>
<stop offset="0.25925" stop-color="#FF5EC3" stop-opacity="0.50033"/>
<stop offset="0.3683" stop-color="#FF61D6" stop-opacity="0.34625"/>
<stop offset="0.48003" stop-color="#FF63E5" stop-opacity="0.22066"/>
<stop offset="0.59527" stop-color="#FF64F0" stop-opacity="0.12337"/>
<stop offset="0.71545" stop-color="#FF65F9" stop-opacity="0.05428"/>
<stop offset="0.84382" stop-color="#FF66FD" stop-opacity="0.01322"/>
<stop offset="0.9946" stop-color="#FF66FF" stop-opacity="0"/>
</linearGradient>
<linearGradient id="paint1_linear" x1="432726" y1="78656.6" x2="700763" y2="78656.6" gradientUnits="userSpaceOnUse">
<stop stop-color="#FF5788"/>
<stop offset="0.04965" stop-color="#FF5995" stop-opacity="0.8892"/>
<stop offset="0.15231" stop-color="#FF5CAE" stop-opacity="0.68307"/>
<stop offset="0.25925" stop-color="#FF5EC3" stop-opacity="0.50033"/>
<stop offset="0.3683" stop-color="#FF61D6" stop-opacity="0.34625"/>
<stop offset="0.48003" stop-color="#FF63E5" stop-opacity="0.22066"/>
<stop offset="0.59527" stop-color="#FF64F0" stop-opacity="0.12337"/>
<stop offset="0.71545" stop-color="#FF65F9" stop-opacity="0.05428"/>
<stop offset="0.84382" stop-color="#FF66FD" stop-opacity="0.01322"/>
<stop offset="0.9946" stop-color="#FF66FF" stop-opacity="0"/>
</linearGradient>
<linearGradient id="paint2_linear" x1="176.436" y1="134.541" x2="726.098" y2="134.541" gradientUnits="userSpaceOnUse">
<stop stop-color="#FF694E"/>
<stop offset="0.04965" stop-color="#FF6856" stop-opacity="0.8892"/>
<stop offset="0.15231" stop-color="#FF6564" stop-opacity="0.68307"/>
<stop offset="0.25925" stop-color="#FF6370" stop-opacity="0.50033"/>
<stop offset="0.3683" stop-color="#FF617A" stop-opacity="0.34625"/>
<stop offset="0.48003" stop-color="#FF6083" stop-opacity="0.22066"/>
<stop offset="0.59527" stop-color="#FF5E8A" stop-opacity="0.12337"/>
<stop offset="0.71545" stop-color="#FF5E8E" stop-opacity="0.05428"/>
<stop offset="0.84382" stop-color="#FF5D91" stop-opacity="0.01322"/>
<stop offset="0.9946" stop-color="#FF5D92" stop-opacity="0"/>
</linearGradient>
<linearGradient id="paint3_linear" x1="447313" y1="86527.2" x2="740027" y2="86527.2" gradientUnits="userSpaceOnUse">
<stop stop-color="#FF5788"/>
<stop offset="0.04965" stop-color="#FF5995" stop-opacity="0.8892"/>
<stop offset="0.15231" stop-color="#FF5CAE" stop-opacity="0.68307"/>
<stop offset="0.25925" stop-color="#FF5EC3" stop-opacity="0.50033"/>
<stop offset="0.3683" stop-color="#FF61D6" stop-opacity="0.34625"/>
<stop offset="0.48003" stop-color="#FF63E5" stop-opacity="0.22066"/>
<stop offset="0.59527" stop-color="#FF64F0" stop-opacity="0.12337"/>
<stop offset="0.71545" stop-color="#FF65F9" stop-opacity="0.05428"/>
<stop offset="0.84382" stop-color="#FF66FD" stop-opacity="0.01322"/>
<stop offset="0.9946" stop-color="#FF66FF" stop-opacity="0"/>
</linearGradient>
<linearGradient id="paint4_linear" x1="56.2621" y1="273.373" x2="616.68" y2="-155.673" gradientUnits="userSpaceOnUse">
<stop offset="0.0139607" stop-color="#8F67E2"/>
<stop offset="0.1403" stop-color="#7D89E5"/>
<stop offset="0.2948" stop-color="#6AACE9"/>
<stop offset="0.4216" stop-color="#5EC1EB"/>
<stop offset="0.5042" stop-color="#5AC9EC"/>
<stop offset="1" stop-color="#51EABD"/>
</linearGradient>
<linearGradient id="paint5_linear" x1="107.443" y1="108.87" x2="997.197" y2="132.221" gradientUnits="userSpaceOnUse">
<stop stop-color="#8758FE"/>
<stop offset="0.2326" stop-color="#B264FE"/>
<stop offset="0.6051" stop-color="#FF78FF"/>
</linearGradient>
<linearGradient id="paint6_linear" x1="479479" y1="39594.1" x2="751239" y2="39594.1" gradientUnits="userSpaceOnUse">
<stop stop-color="#FF5788"/>
<stop offset="0.04965" stop-color="#FF5995" stop-opacity="0.8892"/>
<stop offset="0.15231" stop-color="#FF5CAE" stop-opacity="0.68307"/>
<stop offset="0.25925" stop-color="#FF5EC3" stop-opacity="0.50033"/>
<stop offset="0.3683" stop-color="#FF61D6" stop-opacity="0.34625"/>
<stop offset="0.48003" stop-color="#FF63E5" stop-opacity="0.22066"/>
<stop offset="0.59527" stop-color="#FF64F0" stop-opacity="0.12337"/>
<stop offset="0.71545" stop-color="#FF65F9" stop-opacity="0.05428"/>
<stop offset="0.84382" stop-color="#FF66FD" stop-opacity="0.01322"/>
<stop offset="0.9946" stop-color="#FF66FF" stop-opacity="0"/>
</linearGradient>
<linearGradient id="paint7_linear" x1="467522" y1="40703.3" x2="734932" y2="40703.3" gradientUnits="userSpaceOnUse">
<stop stop-color="#FF5788"/>
<stop offset="0.04965" stop-color="#FF5995" stop-opacity="0.8892"/>
<stop offset="0.15231" stop-color="#FF5CAE" stop-opacity="0.68307"/>
<stop offset="0.25925" stop-color="#FF5EC3" stop-opacity="0.50033"/>
<stop offset="0.3683" stop-color="#FF61D6" stop-opacity="0.34625"/>
<stop offset="0.48003" stop-color="#FF63E5" stop-opacity="0.22066"/>
<stop offset="0.59527" stop-color="#FF64F0" stop-opacity="0.12337"/>
<stop offset="0.71545" stop-color="#FF65F9" stop-opacity="0.05428"/>
<stop offset="0.84382" stop-color="#FF66FD" stop-opacity="0.01322"/>
<stop offset="0.9946" stop-color="#FF66FF" stop-opacity="0"/>
</linearGradient>
<linearGradient id="paint8_linear" x1="463227" y1="42562.5" x2="737581" y2="42562.5" gradientUnits="userSpaceOnUse">
<stop stop-color="#FF694E"/>
<stop offset="0.04965" stop-color="#FF6856" stop-opacity="0.8892"/>
<stop offset="0.15231" stop-color="#FF6564" stop-opacity="0.68307"/>
<stop offset="0.25925" stop-color="#FF6370" stop-opacity="0.50033"/>
<stop offset="0.3683" stop-color="#FF617A" stop-opacity="0.34625"/>
<stop offset="0.48003" stop-color="#FF6083" stop-opacity="0.22066"/>
<stop offset="0.59527" stop-color="#FF5E8A" stop-opacity="0.12337"/>
<stop offset="0.71545" stop-color="#FF5E8E" stop-opacity="0.05428"/>
<stop offset="0.84382" stop-color="#FF5D91" stop-opacity="0.01322"/>
<stop offset="0.9946" stop-color="#FF5D92" stop-opacity="0"/>
</linearGradient>
<linearGradient id="paint9_linear" x1="483553" y1="44687.7" x2="775489" y2="44687.7" gradientUnits="userSpaceOnUse">
<stop stop-color="#FF5788"/>
<stop offset="0.04965" stop-color="#FF5995" stop-opacity="0.8892"/>
<stop offset="0.15231" stop-color="#FF5CAE" stop-opacity="0.68307"/>
<stop offset="0.25925" stop-color="#FF5EC3" stop-opacity="0.50033"/>
<stop offset="0.3683" stop-color="#FF61D6" stop-opacity="0.34625"/>
<stop offset="0.48003" stop-color="#FF63E5" stop-opacity="0.22066"/>
<stop offset="0.59527" stop-color="#FF64F0" stop-opacity="0.12337"/>
<stop offset="0.71545" stop-color="#FF65F9" stop-opacity="0.05428"/>
<stop offset="0.84382" stop-color="#FF66FD" stop-opacity="0.01322"/>
<stop offset="0.9946" stop-color="#FF66FF" stop-opacity="0"/>
</linearGradient>
<linearGradient id="paint10_linear" x1="128.269" y1="163.376" x2="491.295" y2="-269.674" gradientUnits="userSpaceOnUse">
<stop offset="0.0139607" stop-color="#8F67E2"/>
<stop offset="0.1403" stop-color="#7D89E5"/>
<stop offset="0.2948" stop-color="#6AACE9"/>
<stop offset="0.4216" stop-color="#5EC1EB"/>
<stop offset="0.5042" stop-color="#5AC9EC"/>
<stop offset="1" stop-color="#51EABD"/>
</linearGradient>
<linearGradient id="paint11_linear" x1="147.607" y1="151.961" x2="480.243" y2="-274.21" gradientUnits="userSpaceOnUse">
<stop offset="0.0139607" stop-color="#8F67E2"/>
<stop offset="0.1403" stop-color="#7D89E5"/>
<stop offset="0.2948" stop-color="#6AACE9"/>
<stop offset="0.4216" stop-color="#5EC1EB"/>
<stop offset="0.5042" stop-color="#5AC9EC"/>
<stop offset="1" stop-color="#51EABD"/>
</linearGradient>
<linearGradient id="paint12_linear" x1="473919" y1="35027.4" x2="757628" y2="35027.4" gradientUnits="userSpaceOnUse">
<stop stop-color="#FF5788"/>
<stop offset="0.04965" stop-color="#FF5995" stop-opacity="0.8892"/>
<stop offset="0.15231" stop-color="#FF5CAE" stop-opacity="0.68307"/>
<stop offset="0.25925" stop-color="#FF5EC3" stop-opacity="0.50033"/>
<stop offset="0.3683" stop-color="#FF61D6" stop-opacity="0.34625"/>
<stop offset="0.48003" stop-color="#FF63E5" stop-opacity="0.22066"/>
<stop offset="0.59527" stop-color="#FF64F0" stop-opacity="0.12337"/>
<stop offset="0.71545" stop-color="#FF65F9" stop-opacity="0.05428"/>
<stop offset="0.84382" stop-color="#FF66FD" stop-opacity="0.01322"/>
<stop offset="0.9946" stop-color="#FF66FF" stop-opacity="0"/>
</linearGradient>
<linearGradient id="paint13_linear" x1="479459" y1="52149.6" x2="751470" y2="52149.6" gradientUnits="userSpaceOnUse">
<stop stop-color="#FF5788"/>
<stop offset="0.04965" stop-color="#FF5995" stop-opacity="0.8892"/>
<stop offset="0.15231" stop-color="#FF5CAE" stop-opacity="0.68307"/>
<stop offset="0.25925" stop-color="#FF5EC3" stop-opacity="0.50033"/>
<stop offset="0.3683" stop-color="#FF61D6" stop-opacity="0.34625"/>
<stop offset="0.48003" stop-color="#FF63E5" stop-opacity="0.22066"/>
<stop offset="0.59527" stop-color="#FF64F0" stop-opacity="0.12337"/>
<stop offset="0.71545" stop-color="#FF65F9" stop-opacity="0.05428"/>
<stop offset="0.84382" stop-color="#FF66FD" stop-opacity="0.01322"/>
<stop offset="0.9946" stop-color="#FF66FF" stop-opacity="0"/>
</linearGradient>
<linearGradient id="paint14_linear" x1="467529" y1="53680.7" x2="735202" y2="53680.7" gradientUnits="userSpaceOnUse">
<stop stop-color="#FF5788"/>
<stop offset="0.04965" stop-color="#FF5995" stop-opacity="0.8892"/>
<stop offset="0.15231" stop-color="#FF5CAE" stop-opacity="0.68307"/>
<stop offset="0.25925" stop-color="#FF5EC3" stop-opacity="0.50033"/>
<stop offset="0.3683" stop-color="#FF61D6" stop-opacity="0.34625"/>
<stop offset="0.48003" stop-color="#FF63E5" stop-opacity="0.22066"/>
<stop offset="0.59527" stop-color="#FF64F0" stop-opacity="0.12337"/>
<stop offset="0.71545" stop-color="#FF65F9" stop-opacity="0.05428"/>
<stop offset="0.84382" stop-color="#FF66FD" stop-opacity="0.01322"/>
<stop offset="0.9946" stop-color="#FF66FF" stop-opacity="0"/>
</linearGradient>
<linearGradient id="paint15_linear" x1="463237" y1="56220.3" x2="737863" y2="56220.3" gradientUnits="userSpaceOnUse">
<stop stop-color="#FF694E"/>
<stop offset="0.04965" stop-color="#FF6856" stop-opacity="0.8892"/>
<stop offset="0.15231" stop-color="#FF6564" stop-opacity="0.68307"/>
<stop offset="0.25925" stop-color="#FF6370" stop-opacity="0.50033"/>
<stop offset="0.3683" stop-color="#FF617A" stop-opacity="0.34625"/>
<stop offset="0.48003" stop-color="#FF6083" stop-opacity="0.22066"/>
<stop offset="0.59527" stop-color="#FF5E8A" stop-opacity="0.12337"/>
<stop offset="0.71545" stop-color="#FF5E8E" stop-opacity="0.05428"/>
<stop offset="0.84382" stop-color="#FF5D91" stop-opacity="0.01322"/>
<stop offset="0.9946" stop-color="#FF5D92" stop-opacity="0"/>
</linearGradient>
<linearGradient id="paint16_linear" x1="483591" y1="59025.8" x2="775847" y2="59025.8" gradientUnits="userSpaceOnUse">
<stop stop-color="#FF5788"/>
<stop offset="0.04965" stop-color="#FF5995" stop-opacity="0.8892"/>
<stop offset="0.15231" stop-color="#FF5CAE" stop-opacity="0.68307"/>
<stop offset="0.25925" stop-color="#FF5EC3" stop-opacity="0.50033"/>
<stop offset="0.3683" stop-color="#FF61D6" stop-opacity="0.34625"/>
<stop offset="0.48003" stop-color="#FF63E5" stop-opacity="0.22066"/>
<stop offset="0.59527" stop-color="#FF64F0" stop-opacity="0.12337"/>
<stop offset="0.71545" stop-color="#FF65F9" stop-opacity="0.05428"/>
<stop offset="0.84382" stop-color="#FF66FD" stop-opacity="0.01322"/>
<stop offset="0.9946" stop-color="#FF66FF" stop-opacity="0"/>
</linearGradient>
<linearGradient id="paint17_linear" x1="158.949" y1="77.3924" x2="1049.08" y2="104.99" gradientUnits="userSpaceOnUse">
<stop stop-color="#8758FE"/>
<stop offset="0.2326" stop-color="#B264FE"/>
<stop offset="0.6051" stop-color="#FF78FF"/>
</linearGradient>
<linearGradient id="paint18_linear" x1="178.175" y1="72.0929" x2="1067.07" y2="101.651" gradientUnits="userSpaceOnUse">
<stop stop-color="#8758FE"/>
<stop offset="0.2326" stop-color="#B264FE"/>
<stop offset="0.6051" stop-color="#FF78FF"/>
</linearGradient>
<linearGradient id="paint19_linear" x1="228.422" y1="59.7568" x2="1112.2" y2="119.166" gradientUnits="userSpaceOnUse">
<stop stop-color="#8758FE"/>
<stop offset="0.2326" stop-color="#B264FE"/>
<stop offset="0.6051" stop-color="#FF78FF"/>
</linearGradient>
<linearGradient id="paint20_linear" x1="152.077" y1="110.857" x2="1036.71" y2="147.765" gradientUnits="userSpaceOnUse">
<stop stop-color="#8758FE"/>
<stop offset="0.2326" stop-color="#B264FE"/>
<stop offset="0.6051" stop-color="#FF78FF"/>
</linearGradient>
<linearGradient id="paint21_linear" x1="578551" y1="166748" x2="1.1988e+06" y2="295135" gradientUnits="userSpaceOnUse">
<stop stop-color="#FF5788"/>
<stop offset="0.04965" stop-color="#FF5995" stop-opacity="0.8892"/>
<stop offset="0.15231" stop-color="#FF5CAE" stop-opacity="0.68307"/>
<stop offset="0.25925" stop-color="#FF5EC3" stop-opacity="0.50033"/>
<stop offset="0.3683" stop-color="#FF61D6" stop-opacity="0.34625"/>
<stop offset="0.48003" stop-color="#FF63E5" stop-opacity="0.22066"/>
<stop offset="0.59527" stop-color="#FF64F0" stop-opacity="0.12337"/>
<stop offset="0.71545" stop-color="#FF65F9" stop-opacity="0.05428"/>
<stop offset="0.84382" stop-color="#FF66FD" stop-opacity="0.01322"/>
<stop offset="0.9946" stop-color="#FF66FF" stop-opacity="0"/>
</linearGradient>
<linearGradient id="paint22_linear" x1="553523" y1="169808" x2="1.16497e+06" y2="293850" gradientUnits="userSpaceOnUse">
<stop stop-color="#FF5788"/>
<stop offset="0.04965" stop-color="#FF5995" stop-opacity="0.8892"/>
<stop offset="0.15231" stop-color="#FF5CAE" stop-opacity="0.68307"/>
<stop offset="0.25925" stop-color="#FF5EC3" stop-opacity="0.50033"/>
<stop offset="0.3683" stop-color="#FF61D6" stop-opacity="0.34625"/>
<stop offset="0.48003" stop-color="#FF63E5" stop-opacity="0.22066"/>
<stop offset="0.59527" stop-color="#FF64F0" stop-opacity="0.12337"/>
<stop offset="0.71545" stop-color="#FF65F9" stop-opacity="0.05428"/>
<stop offset="0.84382" stop-color="#FF66FD" stop-opacity="0.01322"/>
<stop offset="0.9946" stop-color="#FF66FF" stop-opacity="0"/>
</linearGradient>
<linearGradient id="paint23_linear" x1="-68.7426" y1="179.846" x2="1243.29" y2="207.778" gradientUnits="userSpaceOnUse">
<stop stop-color="#8758FE"/>
<stop offset="0.2326" stop-color="#B264FE"/>
<stop offset="0.6051" stop-color="#FF78FF"/>
</linearGradient>
<linearGradient id="paint24_linear" x1="564798" y1="187224" x2="1.23253e+06" y2="319703" gradientUnits="userSpaceOnUse">
<stop stop-color="#FF5788"/>
<stop offset="0.04965" stop-color="#FF5995" stop-opacity="0.8892"/>
<stop offset="0.15231" stop-color="#FF5CAE" stop-opacity="0.68307"/>
<stop offset="0.25925" stop-color="#FF5EC3" stop-opacity="0.50033"/>
<stop offset="0.3683" stop-color="#FF61D6" stop-opacity="0.34625"/>
<stop offset="0.48003" stop-color="#FF63E5" stop-opacity="0.22066"/>
<stop offset="0.59527" stop-color="#FF64F0" stop-opacity="0.12337"/>
<stop offset="0.71545" stop-color="#FF65F9" stop-opacity="0.05428"/>
<stop offset="0.84382" stop-color="#FF66FD" stop-opacity="0.01322"/>
<stop offset="0.9946" stop-color="#FF66FF" stop-opacity="0"/>
</linearGradient>
<linearGradient id="paint25_linear" x1="-91.5094" y1="188.869" x2="1242.04" y2="215.556" gradientUnits="userSpaceOnUse">
<stop stop-color="#8758FE"/>
<stop offset="0.2326" stop-color="#B264FE"/>
<stop offset="0.6051" stop-color="#FF78FF"/>
</linearGradient>
<linearGradient id="paint26_linear" x1="-104.918" y1="451.732" x2="812.638" y2="-154.5" gradientUnits="userSpaceOnUse">
<stop offset="0.0139607" stop-color="#8F67E2"/>
<stop offset="0.1403" stop-color="#7D89E5"/>
<stop offset="0.2948" stop-color="#6AACE9"/>
<stop offset="0.4216" stop-color="#5EC1EB"/>
<stop offset="0.5042" stop-color="#5AC9EC"/>
<stop offset="1" stop-color="#51EABD"/>
</linearGradient>
<linearGradient id="paint27_linear" x1="-20.6309" y1="312.751" x2="569.8" y2="-355.302" gradientUnits="userSpaceOnUse">
<stop offset="0.0139607" stop-color="#8F67E2"/>
<stop offset="0.1403" stop-color="#7D89E5"/>
<stop offset="0.2948" stop-color="#6AACE9"/>
<stop offset="0.4216" stop-color="#5EC1EB"/>
<stop offset="0.5042" stop-color="#5AC9EC"/>
<stop offset="1" stop-color="#51EABD"/>
</linearGradient>
<linearGradient id="paint28_linear" x1="-106.438" y1="244.876" x2="1221.85" y2="277.537" gradientUnits="userSpaceOnUse">
<stop stop-color="#8758FE"/>
<stop offset="0.2326" stop-color="#B264FE"/>
<stop offset="0.6051" stop-color="#FF78FF"/>
</linearGradient>
</defs>
</svg>
