<svg width="1440" height="856" viewBox="0 0 1440 856" fill="none" xmlns="http://www.w3.org/2000/svg">
<mask id="mask0_845:14336" style="mask-type:alpha" maskUnits="userSpaceOnUse" x="0" y="0" width="1440" height="856">
<rect width="1440" height="856" transform="matrix(1 0 0 -1 0 856)" fill="url(#paint0_linear_845:14336)"/>
</mask>
<g mask="url(#mask0_845:14336)">
<path d="M-431.299 310.101C-359.499 298.901 -287.099 290.001 -214.299 292.501C-147.399 294.801 -81.0993 305.501 -15.2993 317.101C100.501 337.601 223.601 367.701 341.501 348.201C458.601 328.801 564.601 270.701 679.201 242.201C706.801 235.301 734.901 230.201 763.401 228.101C794.301 225.901 823.701 226.101 854.001 218.101C919.901 200.601 979.301 163.701 1037 128.501C1104 87.6007 1172.6 41.8007 1250 23.7007C1344.9 1.50071 1423 49.4007 1496.4 104.801C1539.2 197.601 1559.6 306.601 1620.4 390.101C1634.6 409.601 1652.7 421.701 1670.4 437.301C1691.7 456.101 1709.2 480.001 1725 503.401C1759.6 554.601 1784.1 613.001 1822.1 661.801C1854.6 703.501 1885.4 745.301 1915.5 788.901C1970.7 869.101 2038.3 940.201 2106 1010.1C2139.2 1044.3 2174.8 1075.9 2210.6 1107.4C2255.4 1146.8 2295 1190.4 2334.6 1235C2047.2 1234.9 1759.7 1235 1472.3 1235C1039.5 1235 606.701 1235 173.901 1235C-307.099 1235 -788.199 1235 -1269.2 1235C-1129.5 1079 -989.799 922.901 -850.099 766.901C-787.299 696.401 -726.999 621.001 -656.599 557.701C-622.999 527.501 -586.699 500.001 -553.999 468.801C-505.199 422.401 -470.799 364.101 -431.299 310.101Z" stroke="#80EDBE" stroke-opacity="0.4" stroke-miterlimit="10"/>
<path d="M-984.898 917.102C-871.998 917.102 -757.598 923.002 -645.398 908.802C-540.998 895.602 -438.398 870.302 -333.798 858.302C-285.598 852.802 -237.298 849.002 -189.198 857.302C-138.898 866.002 -90.4984 883.502 -43.3984 902.702C46.5016 939.302 135.502 986.402 232.602 1000.9C319.802 1014 411.402 990.302 495.802 969.902C584.002 948.602 672.402 923.802 763.402 918.102C854.002 912.402 946.102 917.002 1036.8 917.002C1132.1 917.002 1227.6 915.502 1322.9 917.102C1438.6 919.102 1551.8 945.502 1666 961.202C1795.9 979.202 1920.8 970.602 2049.8 949.502" stroke="#80EDBE" stroke-opacity="0.4" stroke-miterlimit="10"/>
<path d="M-963.398 893.101C-852.698 893.101 -740.898 898.901 -631.298 881.201C-527.198 864.401 -425.298 834.801 -320.498 822.201C-271.798 816.301 -224.398 814.001 -176.398 825.501C-127.698 837.201 -81.4984 857.701 -36.5984 879.501C50.4016 921.701 136.802 975.101 233.402 992.001C320.302 1007.2 412.902 979.001 495.902 955.401C583.502 930.401 671.402 901.201 762.802 894.501C851.202 888.001 941.602 893.201 1030.2 893.201C1123.4 893.201 1216.7 892.901 1309.9 893.201C1425.1 893.501 1538.3 916.801 1652.1 931.901C1779.1 948.801 1901.8 944.501 2028.4 926.201" stroke="#80EDBE" stroke-opacity="0.4" stroke-miterlimit="10"/>
<path d="M-942.5 869.7C-831.1 869.7 -720 874.7 -610.1 853.4C-508.3 833.7 -408.6 802.1 -305.2 790.9C-258.1 785.8 -212.6 785.5 -166.7 798.4C-115.5 812.7 -67.7 837.4 -21.2 862.7C60.7001 907.4 144.3 963.1 238.2 978C325.9 991.9 418.4 961.6 501.1 935.5C586.7 908.5 672.9 877.1 763.2 870.8C848.2 864.9 935.1 869.7 1020.3 869.7C1113.7 869.7 1207 869.7 1300.4 869.7C1413.8 869.7 1525.1 889.8 1637.2 904.4C1761.9 920.7 1882.8 920 2007.5 903.8" stroke="#80EDBE" stroke-opacity="0.4" stroke-miterlimit="10"/>
<path d="M-922.199 847.103C-809.799 847.103 -700.099 849.503 -589.399 826.703C-491.899 806.603 -395.699 777.703 -296.199 768.103C-195.499 758.403 -110.299 792.903 -22.5992 839.103C63.0008 884.103 150.401 940.703 248.301 953.703C331.801 964.803 422.201 934.703 501.101 911.103C583.801 886.303 666.801 858.103 753.201 849.503C841.401 840.703 933.001 847.403 1021.6 846.703C1111.5 846.003 1201.4 845.003 1291.3 845.703C1401 846.503 1508.1 863.003 1616.5 878.003C1741.3 895.203 1862 897.503 1987.3 882.803" stroke="#80EDBE" stroke-opacity="0.4" stroke-miterlimit="10"/>
<path d="M-902.398 825C-791.998 825 -685.398 824.6 -576.598 803.6C-479.298 784.8 -382.898 759.2 -283.798 751.7C-88.7985 736.8 65.9016 890.9 254.102 913.2C292.502 917.7 332.302 911 370.302 904.9C416.102 897.5 461.402 887.1 506.502 876.4C589.602 856.6 672.902 834.9 758.202 827.3C843.102 819.7 930.302 824.7 1015.6 822.1C1105.4 819.3 1195.1 816 1285 816.8C1394.9 817.8 1501.7 834.1 1610.2 850.3C1730.3 868.2 1846.6 871.9 1967.6 859.9" stroke="#80EDBE" stroke-opacity="0.4" stroke-miterlimit="10"/>
<path d="M-883.199 803.503C-774.799 803.503 -670.099 801.103 -563.099 782.803C-465.699 766.103 -368.599 744.503 -269.599 739.603C-87.9992 730.503 74.8007 844.403 253.201 861.703C335.701 869.703 425.001 850.003 506.401 837.503C586.801 825.103 667.101 811.803 748.301 805.903C834.001 799.703 920.401 801.803 1006.3 796.603C1096.3 791.203 1186.2 784.503 1276.4 784.303C1382.8 784.103 1485.7 800.103 1590.3 817.503C1645.9 826.803 1701.8 835.403 1758.1 839.203C1821.5 843.503 1885.1 840.003 1948.4 835.003" stroke="#80EDBE" stroke-opacity="0.4" stroke-miterlimit="10"/>
<path d="M-864.5 782.603C-756.6 782.603 -651.8 778.903 -544.9 763.503C-451.6 750.103 -358.3 733.903 -263.8 731.003C-86.7 725.403 82.5 797.903 258.7 805.403C339.1 808.803 420.9 800.803 501.1 796.103C583.4 791.303 665.6 786.103 748 783.603C832.5 781.003 916.2 778.803 1000.4 770.903C1086.4 762.803 1172.4 753.003 1258.8 750.703C1365.1 747.803 1467.7 764.103 1571.9 783.203C1627.4 793.403 1683.1 803.403 1739.4 808.803C1802.7 814.803 1866.1 812.603 1929.5 809.103" stroke="#80EDBE" stroke-opacity="0.4" stroke-miterlimit="10"/>
<path d="M-846.299 762.302C-741.099 762.302 -637.999 758.602 -533.399 747.002C-439.999 736.602 -346.599 724.702 -252.399 723.702C-79.7989 721.902 91.6011 747.002 264.101 747.302C425.501 747.602 586.601 759.202 747.901 761.802C918.201 764.502 1083.8 725.802 1253.3 717.402C1359.8 712.102 1462.7 730.502 1566.8 751.202C1622.4 762.302 1678.2 773.402 1734.7 779.602C1793.5 786.102 1852.4 785.002 1911.4 782.902" stroke="#80EDBE" stroke-opacity="0.4" stroke-miterlimit="10"/>
<path d="M-828.5 742.4C-726 742.4 -624.4 739.6 -522.2 731.5C-428.5 724.1 -335.2 718 -241.2 716.7C-72.5999 714.3 95.5999 696 264.2 691.2C343 688.9 423.3 701.9 501.2 712.3C581.5 723.1 661.8 735 742.7 740.2C911.4 751 1075.2 698.7 1242.3 685.7C1346.8 677.6 1447.6 695.4 1549.4 717.2C1605 729.1 1660.7 741.5 1717.1 749.3C1775.9 757.5 1834.5 757.8 1893.7 756.7" stroke="#80EDBE" stroke-opacity="0.4" stroke-miterlimit="10"/>
<path d="M-811.199 723.103C-708.899 723.103 -607.199 721.303 -504.999 716.203C-415.399 711.703 -325.799 711.703 -236.199 708.303C-67.6992 702.003 95.7008 648.403 264.101 640.403C344.401 636.603 428.401 658.503 506.401 675.603C582.901 692.403 659.401 710.703 737.401 719.103C903.901 737.003 1067.2 674.003 1231.3 656.703C1333.9 645.903 1432.3 662.403 1532.2 684.903C1587.9 697.403 1643.4 711.003 1699.7 720.303C1758.5 730.003 1816.8 732.003 1876.3 731.703" stroke="#80EDBE" stroke-opacity="0.4" stroke-miterlimit="10"/>
<path d="M-794.398 704.302C-692.298 704.302 -590.398 703.602 -488.298 701.002C-446.798 700.002 -405.198 698.902 -363.698 698.302C-315.998 697.602 -267.298 700.902 -219.798 696.602C-134.498 689.002 -51.6984 665.702 30.8016 643.802C107.902 623.302 188.802 599.302 269.202 597.002C346.902 594.702 427.202 620.002 501.102 641.302C579.002 663.702 656.802 688.702 737.502 699.502C902.002 721.502 1064.9 650.102 1226.5 630.102C1329.4 617.402 1428 634.302 1528 657.902C1638.7 683.902 1745.1 707.702 1859.4 708.102" stroke="#80EDBE" stroke-opacity="0.4" stroke-miterlimit="10"/>
<path d="M-777.898 685.902C-680.098 685.902 -582.298 686.001 -484.398 685.301C-438.598 685.001 -392.898 684.601 -347.098 684.501C-303.298 684.401 -258.798 687.201 -215.098 683.301C-47.1984 668.401 104.802 565.201 274.402 564.101C435.202 563.101 580.502 659.502 737.702 681.402C899.202 703.902 1058.3 630.501 1216.1 608.001C1430.9 577.401 1629.8 685.801 1843 686.601" stroke="#80EDBE" stroke-opacity="0.4" stroke-miterlimit="10"/>
<path d="M-761.898 668.001C-663.998 667.801 -566.198 667.901 -468.298 668.201C-381.298 668.501 -291.698 674.501 -205.098 666.501C-38.1984 651.101 109.502 539.901 279.202 543.401C437.702 546.701 577.602 639.801 732.402 662.801C891.702 686.401 1050.3 615.301 1205.6 591.101C1304.3 575.701 1398.2 586.701 1495.1 608.901C1604.7 633.901 1713.4 667.101 1826.7 667.801" stroke="#80EDBE" stroke-opacity="0.4" stroke-miterlimit="10"/>
<path d="M-746.199 650.303C-648.699 649.203 -551.199 651.403 -453.599 653.203C-369.199 654.703 -281.399 661.203 -197.299 651.803C-34.1992 633.603 113.601 525.203 280.101 530.803C435.801 536.103 579.101 615.303 732.001 638.003C807.401 649.203 882.801 636.603 957.201 623.603C1037.7 609.503 1117.4 591.603 1198.3 580.003C1245.2 573.303 1292.3 567.803 1339.6 571.403C1389.2 575.203 1438.3 583.403 1487 592.803C1594.7 613.703 1701.2 640.703 1811.1 646.703" stroke="#80EDBE" stroke-opacity="0.4" stroke-miterlimit="10"/>
<path d="M-730.898 633.101C-635.298 632.701 -539.898 637.401 -444.398 641.101C-359.998 644.401 -271.698 651.801 -187.598 640.801C-102.898 629.701 -22.7984 597.401 57.4016 569.801C129.602 545.001 207.602 519.301 284.902 523.501C435.202 531.701 578.302 588.501 727.002 608.301C802.402 618.301 877.302 608.401 952.502 599.801C1031.2 590.801 1109.6 579.901 1188.4 571.701C1235.2 566.901 1282.9 560.601 1329.9 563.501C1379.4 566.601 1428.6 572.701 1477.6 579.901C1583.5 595.401 1688.8 615.501 1795.8 622.601" stroke="#80EDBE" stroke-opacity="0.4" stroke-miterlimit="10"/>
<path d="M-716 616.6C-622.7 617.7 -529.8 625.3 -436.7 631.3C-352.5 636.7 -264.3 645.1 -180.4 633.1C-22.6 610.5 123.3 513.1 285.5 519.6C433.7 525.6 579 562.7 726.4 576.6C801.4 583.7 876.3 577.1 951.5 574C1030 570.7 1108.5 567.6 1187.1 564.2C1229.9 562.4 1273.7 557.7 1316.6 559.3C1365.7 561.2 1414.8 565 1463.8 569.4C1569.5 578.9 1675 591.3 1781 597.2" stroke="#80EDBE" stroke-opacity="0.4" stroke-miterlimit="10"/>
<path d="M-701.398 601C-607.798 604.3 -514.898 615.4 -421.598 623.7C-339.098 631 -253.298 639.6 -170.998 626.7C-14.5984 602.3 129.002 513 290.302 517.8C434.302 522.1 577.802 536.1 721.702 542.8C796.902 546.3 872.002 544 947.202 546.9C1022.1 549.8 1096.9 554.7 1171.9 557.1C1264.1 560 1356.4 558.7 1448.7 561.6C1554.6 564.9 1660.5 568.7 1766.4 571.5" stroke="#80EDBE" stroke-opacity="0.4" stroke-miterlimit="10"/>
<path d="M-687.199 586.503C-593.699 592.403 -501.199 607.103 -408.099 617.703C-327.699 626.803 -244.599 635.203 -164.199 622.103C-9.29916 596.803 131.201 516.903 290.801 517.203C434.401 517.403 577.801 510.503 721.301 509.403C793.101 508.803 864.201 510.203 935.601 518.503C1014.3 527.703 1092.3 541.603 1171 550.303C1363.3 571.503 1559.4 550.003 1752.2 547.103" stroke="#80EDBE" stroke-opacity="0.4" stroke-miterlimit="10"/>
<path d="M-673.199 573.001C-501.899 589.101 -324.099 647.401 -151.599 616.601C-74.0992 602.801 0.200821 575.601 75.4008 553.001C147.001 531.601 216.601 518.601 291.301 516.601C435.301 512.701 577.401 485.301 721.001 476.201C793.701 471.601 863.501 476.401 934.901 490.501C1009.9 505.301 1083.6 526.201 1158.6 541.101C1351.1 579.301 1545.1 536.401 1738.2 524.001" stroke="#80EDBE" stroke-opacity="0.4" stroke-miterlimit="10"/>
<path d="M-659.6 560.401C-492.2 581.301 -320.8 642.301 -151 612.901C-71.6996 599.201 4.30039 571.701 81.4004 549.501C153.5 528.801 222.4 520.001 296.9 515.301C438.6 506.301 574.9 462.001 715.4 445.101C789.2 436.201 857.1 443.001 928.9 462.201C1006.2 482.801 1080.9 512.001 1158 533.301C1200.2 544.901 1243.4 554.301 1287.1 557.601C1331.6 561.001 1377.6 554.701 1421.7 549.101C1523.1 536.301 1623.1 514.901 1724.6 503.001" stroke="#80EDBE" stroke-opacity="0.4" stroke-miterlimit="10"/>
<path d="M-646.398 548.602C-478.498 574.702 -310.398 638.102 -138.898 606.102C-61.9984 591.802 12.1016 565.702 87.4016 544.902C119.702 536.002 152.202 528.002 185.302 522.402C224.302 515.802 263.302 516.202 302.502 512.402C442.102 498.902 572.302 440.402 709.902 416.402C744.702 410.302 780.202 405.102 815.602 409.302C852.202 413.602 888.102 422.902 923.102 434.402C999.002 459.202 1071 494.002 1146.1 520.902C1187.9 535.902 1230.8 548.602 1274.9 554.302C1319.5 560.102 1365.1 553.402 1409.2 546.302C1510.9 530.102 1610 501.302 1711.6 484.102" stroke="#80EDBE" stroke-opacity="0.4" stroke-miterlimit="10"/>
<path d="M-633.299 537.299C-466.799 567.999 -303.899 631.399 -132.699 598.899C-57.8988 584.699 14.4012 559.999 87.8012 540.299C123.601 530.699 159.701 522.099 196.401 516.699C231.801 511.499 267.401 512.499 302.801 508.399C444.301 491.899 571.301 419.399 709.701 389.899C744.401 382.499 779.901 376.399 815.301 381.199C852.201 386.099 888.001 396.999 922.701 410.299C997.101 438.699 1066.8 477.999 1140 509.299C1181.4 526.999 1224.1 542.399 1268.7 549.799C1313.6 557.299 1358.5 550.599 1402.9 542.299C1502.9 523.599 1599.2 489.499 1698.5 467.699" stroke="#80EDBE" stroke-opacity="0.4" stroke-miterlimit="10"/>
<path d="M-620.6 526.4C-456.4 560.7 -298.9 622.8 -129 590.3C-52.7996 575.7 20.8004 550.8 95.8004 531.4C127.9 523.1 160.2 515.8 193 510.8C230 505.3 267.2 506.5 304.1 501.8C446.7 484 570.2 399.8 708.6 366.3C740.9 358.5 775 351.8 808.3 355.5C845.1 359.5 880.9 371 915 385C991.7 416.4 1061.9 461.3 1136.5 497.2C1177.3 516.8 1219.9 534.3 1264.5 542.8C1307.2 550.9 1349.6 545.5 1391.9 537.2C1492.1 517.7 1587.1 478.6 1685.6 452.8" stroke="#80EDBE" stroke-opacity="0.4" stroke-miterlimit="10"/>
<path d="M-608.199 515.501C-520.399 535.601 -434.699 564.501 -345.999 580.501C-269.099 594.401 -193.999 593.301 -117.399 577.701C-45.2992 563.001 24.8008 540.001 96.0008 521.801C131.501 512.701 167.501 504.801 203.801 500.001C238.901 495.401 274.401 497.001 309.401 492.301C451.501 473.501 570.901 381.101 708.401 346.101C781.201 327.601 846.001 335.701 914.701 365.501C988.001 397.401 1054.5 442.701 1124.9 480.201C1165.4 501.801 1207.7 521.501 1252.7 531.801C1297.2 542.001 1341.6 538.201 1386 529.601C1484.6 510.401 1577.2 468.601 1673.2 440.101" stroke="#80EDBE" stroke-opacity="0.4" stroke-miterlimit="10"/>
<path d="M-596 504.7C-510.6 525.4 -426.9 553.6 -340.3 568.8C-263.2 582.3 -188.2 579.3 -111.7 563.4C-37.8999 548.1 33.9 524.7 107 506.9C139 499.1 171.3 492.3 204 488C239.1 483.3 274.5 484.9 309.6 480.7C450.9 463.8 567.5 367.7 703.1 331.6C774.7 312.5 841.2 318.9 909.1 348C982.9 379.5 1049.1 425.8 1119.2 464.4C1157.9 485.7 1198.1 505.5 1241 516.9C1285.2 528.7 1329.4 527.3 1374.1 519.5C1473.1 502.3 1565.6 459.8 1660.9 429.7" stroke="#80EDBE" stroke-opacity="0.4" stroke-miterlimit="10"/>
<path d="M-584.1 495.102C-501.1 514.702 -419.2 540.002 -334.9 553.802C-257.2 566.502 -183.1 562.302 -106.2 546.602C-34.4996 532.002 35.7004 510.902 107 494.502C139.1 487.102 171.4 480.602 204 476.302C239.1 471.602 274.5 472.602 309.6 468.402C450.6 451.502 567.6 356.302 703 320.302C773.1 301.702 836.6 308.602 903.7 335.102C976.9 364.102 1043.9 406.502 1113.6 442.502C1154.5 463.702 1196.7 483.402 1241.3 495.302C1282.5 506.402 1320.4 506.302 1362.4 499.702C1460.5 484.402 1554 448.402 1649 420.902" stroke="#80EDBE" stroke-opacity="0.4" stroke-miterlimit="10"/>
<path d="M-572.398 485.405C-489.198 503.805 -406.698 526.605 -322.098 538.305C-246.098 548.905 -173.498 542.805 -98.4984 528.305C-28.4984 514.805 40.4016 496.305 110.102 481.805C142.402 475.105 174.902 469.205 207.602 465.205C242.902 460.905 278.602 461.905 313.702 457.205C451.302 438.805 566.402 348.605 698.602 312.405C768.902 293.205 832.002 299.605 900.302 323.605C973.302 349.205 1041.3 386.805 1111.4 419.105C1189.9 455.205 1268.4 484.805 1355.7 472.905C1451.1 460.005 1543.8 432.705 1637.3 410.405" stroke="#80EDBE" stroke-opacity="0.4" stroke-miterlimit="10"/>
<path d="M-561 475.304C-477.9 491.804 -395.1 511.404 -310.8 521.004C-237.2 529.304 -166 522.504 -93.2 510.004C-21.5 497.604 49.3 480.904 120.9 468.304C151.4 462.904 182.1 458.304 212.9 455.104C246.4 451.604 280.4 452.504 313.8 448.104C451.2 430.004 566.6 341.004 698.8 305.504C766.7 287.204 828.2 292.904 895.2 312.404C965.5 332.904 1032.5 363.104 1100.6 389.904C1181.3 421.604 1263.3 450.304 1350.8 440.904C1443.2 430.904 1534.5 413.204 1626 397.704" stroke="#80EDBE" stroke-opacity="0.4" stroke-miterlimit="10"/>
<path d="M-549.799 464.701C-468.399 478.501 -387.099 494.401 -304.699 501.801C-230.999 508.501 -158.799 501.701 -85.7989 490.901C-15.6989 480.601 53.8012 466.901 123.901 456.701C188.301 447.301 253.701 448.201 317.801 439.101C453.601 420.001 568.401 333.801 699.701 299.301C834.401 263.901 971.101 323.601 1098.6 362.901C1175.9 386.701 1256.7 411.001 1338.2 405.001C1430.5 398.301 1522.6 389.901 1614.7 381.901" stroke="#80EDBE" stroke-opacity="0.4" stroke-miterlimit="10"/>
<path d="M-538.799 453.601C-459.399 464.401 -379.999 476.501 -299.999 482.001C-226.599 487.001 -153.799 481.201 -80.7989 472.601C-12.5989 464.601 55.3012 454.101 123.501 446.301C187.901 438.901 253.701 440.701 317.701 431.901C451.501 413.601 565.501 330.601 694.601 296.101C823.701 261.601 961.201 306.001 1087.8 333.501C1165.6 350.401 1247.2 369.501 1327.3 366.201C1419.4 362.301 1511.7 363.701 1603.8 364.201" stroke="#80EDBE" stroke-opacity="0.4" stroke-miterlimit="10"/>
<path d="M-528.1 441.798C-448.6 449.798 -369.1 458.498 -289.2 461.898C-216 464.998 -143 460.198 -70.0996 453.798C-3.89961 447.998 62.2004 440.798 128.5 435.398C192.8 430.198 259.1 433.498 322.8 424.198C454.3 404.798 567.3 325.398 694.7 291.998C758.9 275.198 821.7 278.698 887.2 284.298C952.6 289.898 1017.7 298.398 1082.9 306.198C1162.3 315.698 1242.6 325.898 1322.7 325.098C1413.2 324.098 1503.2 334.698 1593 343.898" stroke="#80EDBE" stroke-opacity="0.4" stroke-miterlimit="10"/>
<path d="M-517.5 429.499C-367.1 439.099 -218.3 444.399 -67.7 436.499C-1.69995 432.999 64.2 428.599 130.2 425.499C194.1 422.399 260.4 426.899 323.7 417.699C454.3 398.699 567.3 321.299 694 288.599C755.6 272.699 817.2 275.199 880.2 276.199C947 277.199 1013.8 278.599 1080.6 279.999C1160.3 281.599 1240 282.099 1319.7 283.399C1408.5 284.899 1495.8 304.199 1582.5 321.699" stroke="#80EDBE" stroke-opacity="0.4" stroke-miterlimit="10"/>
<path d="M-507.199 416.599C-357.999 420.699 -208.799 422.299 -59.4992 419.499C6.10079 418.299 71.8008 416.599 137.401 415.699C199.201 414.799 263.401 420.099 324.601 411.299C454.401 392.699 567.201 317.299 693.301 285.399C754.201 269.999 816.401 272.299 878.801 268.999C943.501 265.599 1008.1 260.199 1072.8 255.099C1151.5 248.899 1231.6 240.299 1310.7 241.999C1400.1 243.899 1487.4 272.399 1572.3 297.899" stroke="#80EDBE" stroke-opacity="0.4" stroke-miterlimit="10"/>
<path d="M-497.1 403.302C-350.4 402.102 -204 401.202 -57.2997 403.402C9.90031 404.402 77.1004 405.502 144.4 406.502C204.1 407.402 266.2 413.302 325.4 404.902C452.6 386.802 564 315.102 687.4 283.202C749.7 267.102 813.8 269.202 877.3 261.802C940.2 254.502 1002.5 243.102 1064.9 232.202C1142.6 218.602 1222.5 202.702 1301.6 201.702C1390.9 200.602 1480.6 240.502 1562 272.502" stroke="#80EDBE" stroke-opacity="0.4" stroke-miterlimit="10"/>
<path d="M-487.1 389.598C-409.4 386.398 -331.6 383.198 -253.8 381.298C-186.6 379.698 -118.7 384.898 -51.4996 388.098C15.1004 391.298 81.6003 394.798 148.2 397.698C207.3 400.198 268.7 406.598 327.5 398.198C453.2 380.198 563.9 310.798 686 279.698C747.8 263.898 811.4 266.198 874.1 255.398C936.9 244.598 998.4 227.698 1059.9 211.398C1136.7 190.998 1214.7 170.098 1294.3 164.598C1382.4 158.498 1475.5 209.898 1552.2 246.798" stroke="#80EDBE" stroke-opacity="0.4" stroke-miterlimit="10"/>
<path d="M-477.398 375.805C-400.598 370.305 -323.398 363.905 -246.298 362.705C-179.698 361.605 -112.298 368.605 -45.9984 373.705C19.9016 378.805 85.8016 384.605 151.802 389.005C210.402 392.905 271.002 399.605 329.402 391.105C453.602 373.105 563.702 306.005 684.402 275.505C745.802 260.005 808.902 262.605 870.702 249.105C933.502 235.405 994.202 213.605 1054.7 192.505C1130.2 166.105 1206.9 139.305 1286.9 130.505C1375.3 120.805 1468.6 179.305 1542.3 220.505" stroke="#80EDBE" stroke-opacity="0.4" stroke-miterlimit="10"/>
<path d="M-467.799 362.005C-392.099 354.505 -315.099 345.105 -238.899 345.405C-172.799 345.605 -106.099 353.505 -40.4988 360.405C24.8012 367.305 90.0012 375.105 155.401 380.705C213.501 385.705 273.301 392.405 331.301 383.905C454.101 365.905 563.501 300.905 683.001 270.905C744.001 255.605 806.601 258.705 867.501 243.305C930.401 227.405 990.201 201.405 1049.8 176.205C1123.9 144.805 1199.5 111.905 1279.8 100.505C1369.5 87.8054 1460.6 149.605 1532.8 194.805" stroke="#80EDBE" stroke-opacity="0.4" stroke-miterlimit="10"/>
<path d="M-458.398 348.399C-383.798 339.399 -306.998 327.899 -231.698 329.899C-165.898 331.599 -100.298 339.599 -35.0984 348.099C29.6016 356.499 94.1016 365.899 159.002 372.499C216.602 378.399 275.702 384.699 333.302 376.099C454.702 357.999 563.402 294.899 681.702 265.399C742.202 250.299 804.402 253.999 864.502 237.299C927.502 219.799 986.602 190.399 1045.1 161.799C1117.9 126.299 1192.3 88.0988 1272.9 74.2988C1364.2 58.6988 1451.9 120.899 1523.6 169.599" stroke="#80EDBE" stroke-opacity="0.4" stroke-miterlimit="10"/>
<path d="M-449.199 335.003C-375.399 324.803 -299.299 312.903 -224.599 315.803C-159.299 318.303 -94.3993 326.903 -29.7993 336.503C34.2007 346.103 98.1008 356.803 162.501 364.003C219.601 370.403 278.001 376.203 335.101 367.503C455.201 349.303 563.101 287.903 680.201 258.703C740.101 243.803 802.101 248.103 861.301 231.003C924.401 212.803 982.801 180.703 1040.2 149.603C1111.8 110.903 1185.1 68.2031 1265.9 52.4031C1358.7 34.2031 1442.6 94.1031 1514.2 145.703" stroke="#80EDBE" stroke-opacity="0.4" stroke-miterlimit="10"/>
<path d="M-440.199 322.205C-368.499 311.505 -295.099 300.705 -222.399 303.205C-155.299 305.505 -88.6992 315.405 -22.4992 326.305C95.1008 345.805 221.401 377.205 340.801 357.805C460.101 338.405 567.701 277.905 684.701 249.805C741.001 236.305 799.501 241.005 855.101 225.505C920.601 207.305 980.301 172.005 1038.6 138.005C1107.8 97.7048 1178.7 52.9048 1257.9 35.6048C1352.2 15.0048 1432.8 69.9048 1505.2 123.905" stroke="#80EDBE" stroke-opacity="0.4" stroke-miterlimit="10"/>
<path d="M1429.1 58.1016C1477.7 168.302 1492.7 290.902 1544.5 400.002C1567.4 448.402 1608.7 474.402 1641.8 514.602C1677.2 557.702 1701.8 607.802 1732.1 654.302C1761.7 699.702 1791.1 744.502 1819 791.002C1870.3 876.602 1933.2 955.102 1996.2 1032.5C2025.3 1068.3 2056.2 1100.7 2093.5 1128C2136.8 1159.7 2174.9 1193.1 2208.9 1234.9" stroke="#80EDBE" stroke-opacity="0.4" stroke-miterlimit="10"/>
<path d="M1406.7 45.5C1457.4 160 1470.7 287.8 1519.2 403.3C1530.3 429.6 1543 453.8 1564.5 472.9C1581.5 487.9 1598.8 502.1 1614 519C1649.3 558.3 1674 605.2 1702.1 649.6C1731.5 696 1759.7 742.4 1786.8 790.3C1836.5 878.1 1898.6 958.9 1959.6 1039.1C1987.4 1075.7 2016.4 1109.5 2054.5 1135.7C2097 1165 2134.3 1194.4 2167 1235" stroke="#80EDBE" stroke-opacity="0.4" stroke-miterlimit="10"/>
<path d="M1384.3 34.8984C1437.3 152.698 1448.5 285.798 1493.9 406.598C1504.3 434.198 1515.7 462.398 1538.1 482.298C1553.9 496.398 1571.3 508.498 1586.4 523.598C1621.6 558.798 1646.1 602.198 1672.2 644.098C1701.6 691.298 1728.5 739.098 1754.7 788.098C1802.9 878.198 1863.9 961.398 1923 1044.6C1949.5 1081.9 1976.7 1117.7 2015.4 1143C2057 1170.2 2093.5 1195.6 2125 1234.9" stroke="#80EDBE" stroke-opacity="0.4" stroke-miterlimit="10"/>
<path d="M1361.8 26.3984C1389.5 86.0984 1402 152.798 1417.2 216.498C1431.3 275.498 1444.8 334.798 1463 392.698C1473.7 426.798 1484.8 467.998 1512.7 492.398C1525.8 503.898 1540.9 513.098 1554.2 524.398C1589.5 554.298 1614.6 593.198 1638.7 632.198C1669.3 681.798 1696.1 732.698 1722.4 784.598C1769.6 877.598 1830.1 964.098 1887.7 1050.9C1913.1 1089.2 1938.9 1126.8 1978.6 1151.2C2018.5 1175.7 2053.2 1197.5 2083 1234.8" stroke="#80EDBE" stroke-opacity="0.4" stroke-miterlimit="10"/>
<path d="M1339.4 20.5C1368 79.2 1379 146.8 1393.3 210.1C1407.2 271.9 1420.5 333.8 1437.8 394.8C1447.7 429.6 1457.7 476.4 1486.1 501.4C1498.4 512.2 1513.3 520.1 1526.5 529.8C1606.4 588.5 1648.6 694.2 1690.2 780.5C1736.1 875.6 1795.4 964.2 1851.1 1053.9C1875.2 1092.8 1899.5 1133.2 1939.5 1157.3C1977.9 1180.5 2013 1198.1 2041 1235" stroke="#80EDBE" stroke-opacity="0.4" stroke-miterlimit="10"/>
<path d="M1317 17.3047C1347 74.7047 1356.4 144.005 1369.8 206.605C1383.6 271.005 1396.4 335.805 1413.4 399.505C1422.8 434.705 1431.6 485.405 1460.7 510.505C1472.5 520.605 1487.2 527.405 1500.2 535.605C1582.1 587.005 1619.5 691.505 1658 775.205C1702.9 873.105 1761.7 963.905 1815.8 1057C1838.8 1096.5 1862 1139.7 1902.7 1163.4C1939.2 1184.7 1972.8 1199.8 1999.2 1234.9" stroke="#80EDBE" stroke-opacity="0.4" stroke-miterlimit="10"/>
<path d="M1294.6 17.1016C1325.6 71.9016 1333.5 141.602 1345.9 202.402C1359.5 268.802 1371.9 335.602 1388.3 401.502C1397.2 437.202 1404.8 492.302 1434.3 518.102C1445.4 527.902 1459.7 533.602 1472.7 540.302C1557.2 583.802 1590.4 688.102 1625.9 769.502C1669.3 868.802 1727 960.602 1779.1 1055.5C1801.1 1095.6 1822.9 1142.4 1863.5 1166.8C1898.6 1187.9 1931.8 1200.3 1957.2 1234.8" stroke="#80EDBE" stroke-opacity="0.4" stroke-miterlimit="10"/>
<path d="M1272.2 19.3047C1302.2 74.0047 1310.5 141.305 1322.4 201.705C1335.8 270.005 1347.9 338.705 1363.9 406.605C1372.3 442.505 1379 499.805 1408.8 525.705C1419.6 535.105 1433.3 539.905 1446.4 545.305C1532.1 580.405 1561.2 685.505 1593.8 763.605C1635.3 863.105 1691.2 954.605 1741.2 1050C1762.5 1090.7 1784 1142.1 1823.7 1168.3C1857.2 1190.4 1890.6 1200.5 1915.4 1235.1" stroke="#80EDBE" stroke-opacity="0.4" stroke-miterlimit="10"/>
<path d="M1249.8 23.6016C1279.1 78.2016 1287.7 144.902 1299.3 205.002C1312.8 275.002 1324.4 345.402 1340.1 414.902C1347.8 448.802 1353.5 501.102 1378.9 528.002C1389.1 538.802 1402.4 543.602 1416.1 548.102C1449.2 559.002 1471.5 573.102 1491.6 602.502C1523.2 648.702 1541 705.502 1561.6 757.102C1601.6 857.102 1655.9 949.002 1704.5 1044.9C1725.6 1086.4 1745.4 1136.1 1783.1 1165.7C1814.6 1190.4 1849.4 1199.8 1873.4 1234.8" stroke="#80EDBE" stroke-opacity="0.4" stroke-miterlimit="10"/>
<path d="M1227.4 29.8047C1255.9 83.7047 1264.5 149.305 1275.8 208.505C1289.2 279.105 1300.4 350.105 1315.7 420.305C1326.4 469.705 1332.4 538.305 1389.9 552.105C1422.5 559.905 1443.9 569.805 1463.6 598.905C1494 643.905 1510.4 700.505 1529.7 750.905C1568.3 852.005 1621.6 944.705 1669.4 1041.6C1689.8 1083 1708.5 1130.4 1743.6 1161.9C1773.1 1188.5 1809.2 1200 1831.8 1234.9" stroke="#80EDBE" stroke-opacity="0.4" stroke-miterlimit="10"/>
<path d="M1204.9 37.6016C1230.5 86.2016 1238.9 144.202 1249.2 197.602C1263.8 272.702 1275.5 348.302 1290.9 423.202C1300.6 469.902 1305.4 545.302 1363.2 555.102C1391.7 559.902 1411.9 564.502 1430.4 589.102C1463.4 632.902 1478.6 694.302 1497.2 744.902C1516.6 797.802 1536.7 849.202 1564 898.602C1588.2 942.202 1609.5 987.302 1631.2 1032.2C1651.7 1074.7 1670.3 1122.1 1703.5 1156.5C1731.1 1185.1 1767.6 1200.4 1789.6 1235" stroke="#80EDBE" stroke-opacity="0.4" stroke-miterlimit="10"/>
<path d="M1182.5 46.8984C1205.5 90.5984 1213.6 141.598 1223.3 189.598C1237.4 259.398 1248.5 329.698 1261.8 399.598C1269.8 441.598 1273.9 497.098 1298.3 533.698C1307.1 546.898 1317.7 554.498 1333.2 556.898C1361 561.198 1379.5 558.098 1399.4 582.698C1433.3 624.698 1447.6 689.398 1465.2 739.198C1483.6 791.398 1502.1 842.898 1528.7 891.498C1552.4 934.998 1573.5 979.898 1594.7 1024.7C1615.2 1068 1633.9 1115.4 1665.9 1151.9C1691.9 1181.5 1726.5 1200.9 1747.8 1235" stroke="#80EDBE" stroke-opacity="0.4" stroke-miterlimit="10"/>
<path d="M1160.1 57.5C1182.4 99.6 1190.4 148.7 1199.8 195C1213.6 262.7 1224.4 331 1237.3 399C1245.3 441.4 1249.3 495 1272.8 532.6C1280.7 545.2 1291.7 556 1306.7 558.4C1333.6 562.7 1351.7 555.8 1371.1 581C1403.4 623 1416.2 684.8 1432.9 734.2C1450.7 786.7 1468.6 838.8 1494.7 887.9C1517.7 931.1 1538.4 975.3 1559.1 1019.6C1579.5 1063.3 1598.2 1109.8 1628.6 1147.8C1653 1178.3 1685.2 1201.3 1705.8 1235.1" stroke="#80EDBE" stroke-opacity="0.4" stroke-miterlimit="10"/>
<path d="M1137.7 69C1159.5 109.7 1167.5 157.4 1176.7 202.3C1190.1 268.2 1200.8 334.6 1213.4 400.6C1221 440.7 1225.5 495 1248.2 530.1C1256.2 542.4 1266.7 553.7 1281.4 557.1C1305.7 562.8 1321.6 553.6 1340.1 576.6C1354.6 594.7 1362.6 619.5 1370.6 641C1381.5 670.3 1391.1 700.2 1400.8 729.9C1417.7 781.4 1434.1 833.2 1459.3 881.4C1480.9 922.6 1500.6 964.6 1520.1 1006.8C1540.8 1051.5 1559.6 1098.5 1588.2 1138.9C1611.8 1172.3 1643.1 1199.5 1663.9 1235" stroke="#80EDBE" stroke-opacity="0.4" stroke-miterlimit="10"/>
<path d="M1115.3 81.5C1136.2 120 1144.3 165.7 1153.2 208.2C1166.3 271.2 1176.7 334.7 1188.9 397.9C1196.7 438.8 1201 487.9 1222.7 524C1229.5 535.3 1238.4 546.6 1250.4 552.5C1273 563.6 1294.8 554 1311.9 577.1C1342 618.1 1353.7 679 1368.8 726.5C1385.1 778.2 1401 830 1425.7 878.4C1446.4 919.1 1465.9 960.3 1484.9 1001.8C1504.8 1045.1 1523.2 1089.9 1548.7 1130.3C1571.5 1166.4 1601.4 1197.4 1622.2 1234.8" stroke="#80EDBE" stroke-opacity="0.4" stroke-miterlimit="10"/>
<path d="M1092.9 94.5C1113.2 131.2 1121.3 174.9 1130 215.6C1142.8 275.9 1153 336.8 1164.9 397.3C1174.2 444.6 1179.2 518.9 1225 548.8C1243.4 560.8 1265.9 558.5 1280.9 576.7C1295.2 594.1 1302.7 619.9 1309.9 640.7C1319.6 668.4 1328 696.5 1336.6 724.5C1352.5 776.6 1367.9 828.7 1392.3 877.5C1411.7 916.4 1430.1 955.7 1448.2 995.3C1467.4 1037.5 1485.4 1080.6 1508.3 1121C1530.5 1160.2 1558.7 1195.4 1580.2 1235" stroke="#80EDBE" stroke-opacity="0.4" stroke-miterlimit="10"/>
<path d="M1070.4 108C1091.2 141.2 1098.4 185.5 1106.6 223C1117.4 272.3 1126.3 322 1135.9 371.5C1146.6 426.5 1152.4 498.6 1195 540.8C1211.1 556.8 1234.9 560.8 1249.7 578.1C1264.1 594.8 1271 619.8 1278.1 640.2C1287.7 667.8 1295.9 695.8 1304.2 723.8C1319.2 774.5 1333.4 825.6 1356.7 873.2C1375.6 911.7 1393.6 950.5 1411.3 989.5C1430.5 1031.9 1448.5 1074.9 1470.2 1116.1C1491.5 1156.5 1517.4 1194.3 1538.1 1234.9" stroke="#80EDBE" stroke-opacity="0.4" stroke-miterlimit="10"/>
<path d="M1048 121.602C1067.7 152.502 1075 193.602 1083 228.602C1093.5 274.502 1102.1 320.902 1111.3 367.002C1122.7 423.902 1131.3 487.202 1168.4 534.402C1183.5 553.602 1206.6 564.002 1221.3 583.402C1249.8 621.102 1259.2 679.702 1272.1 724.202C1286.7 774.702 1300.3 825.402 1322.9 873.002C1340.9 910.902 1358.6 949.002 1375.8 987.302C1394.7 1029.4 1412.5 1072 1432.9 1113.4C1453.1 1154.4 1476.6 1193.7 1496.3 1234.9" stroke="#80EDBE" stroke-opacity="0.4" stroke-miterlimit="10"/>
<path d="M1025.6 135.305C1044.4 164.405 1051.9 202.505 1059.8 235.505C1070 278.305 1078.4 321.605 1087.4 364.705C1099.1 420.705 1110.8 476.705 1140.9 526.205C1154.8 549.005 1175.2 565.205 1190.5 586.605C1218 625.005 1227.4 681.005 1240 725.605C1253.9 774.605 1266.4 824.305 1287.6 870.805C1304.2 907.105 1320.9 943.305 1337.1 979.805C1375.2 1065.4 1416 1149.6 1454.4 1234.9" stroke="#80EDBE" stroke-opacity="0.4" stroke-miterlimit="10"/>
<path d="M1003.2 148.805C1019.4 173.805 1026.7 204.705 1034.1 233.105C1045.2 275.505 1053.8 318.605 1063.2 361.405C1075 415.305 1089 467.705 1113.1 517.505C1126.4 545.005 1145.7 567.505 1161.4 593.305C1185.5 633.005 1195.4 683.405 1207.8 727.805C1221 775.205 1232.9 823.305 1252.3 868.605C1268.7 907.005 1285.8 945.105 1302.5 983.305C1339.1 1067.2 1376.7 1150.7 1412.5 1234.9" stroke="#80EDBE" stroke-opacity="0.4" stroke-miterlimit="10"/>
<path d="M980.801 161.898C1014.5 214.098 1022.8 286.298 1036.4 345.598C1049.4 401.898 1064.9 456.898 1086.5 510.598C1098.9 541.498 1115.2 569.298 1131.1 598.398C1153.3 638.798 1163.6 686.498 1175.7 730.598C1189 778.898 1201.1 827.598 1220.3 873.998C1235.1 909.698 1250 945.398 1264.9 980.998C1300.1 1065.6 1336.2 1150 1370.6 1234.9" stroke="#80EDBE" stroke-opacity="0.4" stroke-miterlimit="10"/>
<path d="M958.4 174.305C987.7 220.705 997.401 280.905 1010.3 333.305C1023.7 388.105 1039.5 442.105 1057 495.705C1069 532.505 1083.5 567.905 1100.3 602.705C1120.3 644.205 1131.6 689.405 1143.6 733.705C1190.1 905.805 1263.9 1069 1328.8 1234.8" stroke="#80EDBE" stroke-opacity="0.4" stroke-miterlimit="10"/>
<path d="M936 185.898C962.2 229.198 973.4 281.098 986.1 329.498C1000.4 383.898 1016.1 437.998 1031.2 492.198C1054.4 575.398 1089.2 653.898 1111.4 737.498C1156.5 907.398 1225.2 1070.5 1286.8 1235" stroke="#80EDBE" stroke-opacity="0.4" stroke-miterlimit="10"/>
<path d="M913.5 196.5C935.9 236.2 948.9 279.8 961.3 323.4C976.1 375.3 990.1 426.9 1002.6 479.3C1023.7 568.2 1056.2 653 1079.2 741.3C1123 909.1 1187 1071.5 1244.9 1234.9" stroke="#80EDBE" stroke-opacity="0.4" stroke-miterlimit="10"/>
<path d="M891.102 205.898C933.102 287.898 955.702 376.298 974.102 466.198C985.102 519.998 995.302 574.398 1012.1 626.698C1024.7 666.098 1036.8 705.198 1047 745.398C1089.5 911.198 1148.8 1072.6 1202.9 1235" stroke="#80EDBE" stroke-opacity="0.4" stroke-miterlimit="10"/>
<path d="M868.699 213.805C882.599 245.005 898.699 274.205 909.999 306.605C927.699 357.305 937.799 408.705 947.199 461.505C957.299 518.405 966.099 576.105 981.699 631.905C992.599 671.105 1004.9 709.805 1014.8 749.405C1055.8 913.305 1110.6 1073.7 1161 1235" stroke="#80EDBE" stroke-opacity="0.4" stroke-miterlimit="10"/>
<path d="M846.301 220C856.901 248.3 874.401 273.4 885.301 301.7C904.801 352.2 912.101 404.9 920.401 458.2C929.601 517.8 937.501 578 951.501 636.7C960.901 675.8 973.201 714.2 982.801 753.2C1022.3 915.2 1072.6 1074.8 1119.2 1234.9" stroke="#80EDBE" stroke-opacity="0.4" stroke-miterlimit="10"/>
<path d="M823.9 224.398C832 250.698 849.8 272.198 860.5 297.298C880.6 344.398 885.1 396.098 892 446.398C901.2 513.198 908 580.798 922.5 646.698C930.6 683.598 941.901 719.998 950.601 756.798C988.501 917.198 1034.2 1075.8 1077.3 1234.8" stroke="#80EDBE" stroke-opacity="0.4" stroke-miterlimit="10"/>
<path d="M801.5 226.805C807.6 251.505 823.3 268.505 834.2 290.605C855.9 334.605 857.9 387.505 863.7 435.205C872.2 504.805 878.4 574.905 891 643.905C898.1 682.905 909.6 721.405 918.4 760.105C954.4 919.005 995.8 1076.8 1035.3 1234.9" stroke="#80EDBE" stroke-opacity="0.4" stroke-miterlimit="10"/>
<path d="M779.102 227.203C785.402 251.903 797.602 266.103 809.102 287.403C831.502 329.003 831.202 384.703 836.102 430.303C844.002 502.803 849.402 575.903 861.102 647.903C867.402 686.503 878.001 724.603 886.201 762.803C920.101 920.503 957.401 1077.6 993.401 1234.8" stroke="#80EDBE" stroke-opacity="0.4" stroke-miterlimit="10"/>
<path d="M756.602 228.602C762.302 252.602 772.902 266.002 784.202 286.502C806.902 327.902 804.702 387.402 809.002 432.702C816.102 507.102 820.502 582.302 832.002 656.202C837.702 692.702 846.802 728.802 854.102 765.002C885.602 921.802 918.902 1078.3 951.602 1234.9" stroke="#80EDBE" stroke-opacity="0.4" stroke-miterlimit="10"/>
<path d="M734.199 231.203C739.199 254.303 748.799 268.103 758.999 288.203C779.999 329.503 777.499 387.203 781.299 431.903C787.799 507.303 791.299 583.303 801.999 658.303C807.199 694.503 815.199 730.403 821.899 766.403C850.799 922.603 880.299 1078.8 909.599 1235" stroke="#80EDBE" stroke-opacity="0.4" stroke-miterlimit="10"/>
<path d="M711.801 235C716.201 257.5 725.101 272.3 734.101 292.4C753.501 335.7 750.601 393.3 754.201 439.5C762.801 549.6 771.701 658 789.801 766.9C815.701 922.9 841.801 1079 867.801 1235" stroke="#80EDBE" stroke-opacity="0.4" stroke-miterlimit="10"/>
<path d="M689.4 239.703C692.6 261.803 701.1 277.703 708.9 297.703C725.9 341.503 723.2 396.203 726.4 442.103C734.2 551.003 742.6 658.603 757.6 766.803C779.2 923.003 803.1 1078.9 825.8 1235" stroke="#80EDBE" stroke-opacity="0.4" stroke-miterlimit="10"/>
<path d="M667 245.305C670.2 267.105 677.4 284.605 683.9 305.105C697.4 347.505 695.6 396.805 698.4 440.605C705.5 549.705 713.5 658.005 725.4 766.605C742.6 922.905 764.4 1078.9 783.9 1235" stroke="#80EDBE" stroke-opacity="0.4" stroke-miterlimit="10"/>
<path d="M644.602 251.703C647.302 273.703 653.502 292.803 658.802 313.903C669.002 354.403 668.102 398.703 670.502 440.103C676.802 549.103 684.102 657.603 693.302 766.303C706.502 922.703 725.802 1078.8 742.002 1235" stroke="#80EDBE" stroke-opacity="0.4" stroke-miterlimit="10"/>
<path d="M622.199 258.703C624.299 280.303 628.999 300.203 633.199 321.303C641.599 363.203 641.099 407.503 643.099 450.003C648.299 555.403 654.699 660.603 661.099 765.903C670.699 922.403 687.099 1078.7 700.099 1235" stroke="#80EDBE" stroke-opacity="0.4" stroke-miterlimit="10"/>
<path d="M599.699 266.203C601.299 288.303 604.799 309.503 607.999 331.403C613.899 372.303 613.799 414.303 615.399 455.503C619.499 558.803 624.599 662.103 628.899 765.303C635.499 922.003 648.399 1078.4 658.099 1234.8" stroke="#80EDBE" stroke-opacity="0.4" stroke-miterlimit="10"/>
<path d="M577.301 274.102C580.301 338.002 586.001 401.302 587.901 465.402C590.801 565.202 594.301 665.002 596.801 764.902C600.801 921.702 609.801 1078.3 616.301 1235" stroke="#80EDBE" stroke-opacity="0.4" stroke-miterlimit="10"/>
<path d="M554.9 282.305C562.2 599.805 567.8 917.405 574.4 1235" stroke="#80EDBE" stroke-opacity="0.4" stroke-miterlimit="10"/>
<path d="M532.5 290.5C532.5 605.3 532.5 920.1 532.5 1234.9" stroke="#80EDBE" stroke-opacity="0.4" stroke-miterlimit="10"/>
<path d="M510.102 298.805C503.102 610.805 497.102 922.905 490.602 1234.9" stroke="#80EDBE" stroke-opacity="0.4" stroke-miterlimit="10"/>
<path d="M487.699 306.898C480.999 458.898 470.999 610.198 468.199 762.498C465.299 920.198 455.299 1077.3 448.699 1234.9" stroke="#80EDBE" stroke-opacity="0.4" stroke-miterlimit="10"/>
<path d="M465.301 314.805C461.301 375.205 454.601 435.705 449.201 496.005C441.201 584.605 438.301 673.005 436.001 762.005C433.901 844.205 435.801 927.405 422.501 1008.7C410.401 1082.5 411.401 1160.3 406.801 1234.9" stroke="#80EDBE" stroke-opacity="0.4" stroke-miterlimit="10"/>
<path d="M442.801 322.305C437.701 381.105 430.201 440.905 421.601 499.205C408.801 586.405 406.701 673.405 403.801 761.505C401.101 843.205 407.101 930.705 386.001 1010.3C378.301 1039.4 378.401 1071.1 376.001 1100.9C372.301 1145.6 368.601 1190.2 364.801 1234.9" stroke="#80EDBE" stroke-opacity="0.4" stroke-miterlimit="10"/>
<path d="M420.402 329.305C417.202 359.205 411.302 388.205 406.502 417.805C401.802 446.405 400.602 475.605 394.002 503.905C374.102 588.205 375.102 674.705 371.802 761.105C369.002 832.105 370.602 905.505 360.602 975.905C358.602 989.805 354.502 999.805 349.502 1012.3C338.902 1039.3 339.902 1072.5 337.002 1100.9C332.402 1145.6 327.702 1190.2 323.102 1234.9" stroke="#80EDBE" stroke-opacity="0.4" stroke-miterlimit="10"/>
<path d="M398.002 335.703C394.002 366.603 386.902 396.403 381.102 427.003C376.002 454.003 375.902 483.203 365.902 509.003C360.702 522.403 355.002 533.803 352.502 548.303C340.402 617.403 342.802 690.903 339.602 760.803C336.302 833.703 338.802 910.303 326.002 982.403C323.602 995.903 318.402 1003 312.502 1014.2C299.902 1038.5 301.302 1072.8 298.002 1099.3C292.402 1144.5 286.702 1189.7 281.102 1234.9" stroke="#80EDBE" stroke-opacity="0.4" stroke-miterlimit="10"/>
<path d="M375.6 341.398C370.9 372.898 362.6 402.898 355.8 433.898C350.4 458.398 352 490.598 338 512.198C330.8 523.298 325.3 529.498 322.4 543.498C316.5 571.798 316.2 602.098 314.4 630.798C311.7 673.998 309.5 717.298 307.3 760.598C303.5 834.198 306.6 912.998 291.4 985.398C288.4 999.598 282.9 1003.8 275.7 1014.2C260.8 1035.8 262.4 1074.3 258.8 1099.3C252.2 1144.5 245.6 1189.7 239 1234.9" stroke="#80EDBE" stroke-opacity="0.4" stroke-miterlimit="10"/>
<path d="M353.201 346.102C347.801 377.902 338.401 408.002 330.601 439.202C325.101 461.302 326.801 497.402 310.301 514.602C301.001 524.202 296.301 524.302 292.401 540.502C285.701 568.702 285.301 599.602 283.301 628.302C280.201 672.302 277.701 716.402 275.201 760.402C272.401 808.702 269.801 857.002 266.201 905.302C264.201 931.602 263.501 959.102 257.101 984.802C253.501 999.002 247.001 1003.6 239.201 1014.2C223.301 1035.6 224.101 1074.1 219.901 1099.3C212.401 1144.5 204.801 1189.7 197.301 1234.9" stroke="#80EDBE" stroke-opacity="0.4" stroke-miterlimit="10"/>
<path d="M330.8 349.898C324.6 381.798 314.2 411.698 305.4 442.898C299.7 463.298 300.6 502.798 282.6 516.298C280 518.298 275.7 516.098 272.9 517.998C266 522.798 264.3 532.298 262.5 540.098C255.6 568.998 254.6 600.198 252.3 629.598C248.9 673.098 246.1 716.598 243.2 760.198C240.1 807.198 237.1 854.198 233.1 901.098C230.9 926.998 230.1 954.398 222.8 979.498C218.7 993.798 210.4 1000.8 202.6 1012.5C186.8 1036.2 186 1072.1 180.9 1099.3C172.4 1144.5 164 1189.7 155.5 1234.9" stroke="#80EDBE" stroke-opacity="0.4" stroke-miterlimit="10"/>
<path d="M308.4 352.5C301.5 384.3 290 413.7 280.2 444.5C274 464.1 273.9 505.6 254.8 517C251.7 518.9 247.2 517.1 244.1 519.3C236.7 524.4 234.6 534.1 232.5 542.3C225 571.3 223.8 602.9 221.1 632.6C217.4 674.7 214.2 716.9 211 759.1C207.5 804.1 204.1 849.2 199.7 894.2C197.2 919.4 196.1 946.1 188.3 970.4C183.4 985.6 173.5 995.9 165.9 1009.4C150.8 1036.1 147.9 1069.9 141.7 1099.4C132.3 1144.6 122.9 1189.8 113.5 1235" stroke="#80EDBE" stroke-opacity="0.4" stroke-miterlimit="10"/>
<path d="M285.9 353.805C278.2 385.605 265.4 414.605 254.8 445.305C247.8 465.705 246.9 506.905 226.9 519.005C223.4 521.105 218.6 520.105 215.1 522.505C207.3 527.605 204.7 538.205 202.3 546.705C194.3 575.405 192.8 607.005 189.8 636.505C185.7 676.805 182.2 717.105 178.7 757.405C174.9 799.905 171.2 842.505 166.3 884.905C163.5 909.205 161.8 934.705 153.8 957.905C147.9 975.005 137 988.905 129.1 1005C114.7 1034.3 109.8 1067.8 102.5 1099.4C92.1004 1144.6 81.8004 1189.8 71.4004 1235" stroke="#80EDBE" stroke-opacity="0.4" stroke-miterlimit="10"/>
<path d="M263.502 353.898C254.802 385.698 241.102 414.998 230.002 445.898C222.502 466.898 220.202 509.298 199.902 522.298C195.602 524.998 190.002 524.698 185.702 527.698C177.802 533.298 174.502 545.098 172.002 553.798C153.502 617.298 153.302 689.698 146.502 755.098C140.302 815.098 140.402 884.598 119.702 941.998C112.602 961.498 101.502 979.098 93.2015 998.098C78.9015 1030.9 71.7016 1066.5 63.1016 1101.1C51.9016 1145.8 40.8016 1190.4 29.6016 1235.1" stroke="#80EDBE" stroke-opacity="0.4" stroke-miterlimit="10"/>
<path d="M241.099 353.203C231.199 385.703 216.599 416.103 204.799 448.003C196.499 470.703 193.499 512.303 172.199 527.003C167.499 530.203 161.399 530.403 156.899 533.903C148.699 540.203 144.899 551.903 141.999 561.303C123.499 621.503 121.999 690.003 114.399 752.203C107.499 808.303 105.399 871.403 85.2993 924.903C76.7993 947.603 65.2992 969.003 56.5992 991.603C26.2992 1069.6 9.49922 1154.1 -12.3008 1234.8" stroke="#80EDBE" stroke-opacity="0.4" stroke-miterlimit="10"/>
<path d="M218.7 351.898C207 386.798 190.9 419.898 178.3 454.398C169.6 478.198 166.3 517.998 143.7 533.298C128.4 543.698 120.1 547.198 113.2 566.698C93.0003 623.598 90.9004 690.098 82.3004 749.398C74.8004 801.298 70.0004 856.498 51.4004 905.798C41.1004 933.198 28.8003 959.798 19.2003 987.598C-8.99968 1068.6 -30.0996 1152.6 -54.0996 1234.9" stroke="#80EDBE" stroke-opacity="0.4" stroke-miterlimit="10"/>
<path d="M196.3 350.102C183 386.502 166.3 421.502 153 457.902C143.8 483.302 139.5 523.502 115.9 540.302C100 551.602 90.6003 556.502 83.2003 576.502C63.5003 629.502 59.7003 690.802 50.1003 746.302C41.9003 793.702 34.3004 842.002 17.0004 887.002C5.00037 918.302 -7.19963 949.502 -17.4996 981.502C-44.4996 1065.7 -69.6996 1150.6 -96.0996 1235" stroke="#80EDBE" stroke-opacity="0.4" stroke-miterlimit="10"/>
<path d="M173.9 347.703C159.2 385.403 142.2 422.103 128.3 460.203C118.3 487.603 113.2 528.103 89.2 547.103C72.1 560.603 61.3 565.703 52.9 588.203C34.7 637.103 28.7 691.903 18 742.803C0.799999 824.303 -31.2 899.103 -55.1 978.603C-80.9 1064.6 -109.6 1149.7 -138 1234.9" stroke="#80EDBE" stroke-opacity="0.4" stroke-miterlimit="10"/>
<path d="M151.501 345C135.301 384.2 118.101 422.9 103.601 462.8C92.9007 492.3 87.0007 535.7 60.5007 556C42.5007 569.8 31.2007 577.2 22.5007 600C5.50073 644.6 -2.19924 693.4 -14.0992 739.6C-34.3992 818.1 -68.2992 892.1 -90.6992 970.2C-116.399 1059.8 -148.599 1147 -179.699 1234.9" stroke="#80EDBE" stroke-opacity="0.4" stroke-miterlimit="10"/>
<path d="M128.999 341.898C110.399 384.798 92.1992 427.598 76.5992 471.698C66.0992 501.298 59.3992 542.898 33.6992 563.698C14.4992 579.298 1.49929 587.598 -8.10071 612.398C-23.7007 652.698 -33.1008 695.398 -46.4008 736.398C-57.4008 770.398 -73.3007 801.298 -86.6007 834.198C-103.401 875.498 -114.601 919.198 -126.501 961.998C-152.301 1055.1 -187.901 1144.5 -221.801 1234.9" stroke="#80EDBE" stroke-opacity="0.4" stroke-miterlimit="10"/>
<path d="M106.601 338.398C86.4011 383.098 68.2012 428.298 51.9012 474.598C40.5012 506.998 33.1012 550.198 4.90118 572.798C-14.9988 588.798 -28.4988 598.798 -38.6988 623.898C-53.1988 659.898 -63.7988 697.498 -78.5988 733.398C-90.6988 762.698 -108.799 788.898 -120.599 818.098C-139.299 864.698 -151.199 914.098 -164.299 962.398C-189.699 1056 -228.199 1144.8 -263.799 1234.9" stroke="#80EDBE" stroke-opacity="0.4" stroke-miterlimit="10"/>
<path d="M84.2 334.805C62.4 381.305 44.1 429.005 27.2 477.605C15.4 511.505 7.20005 556.405 -21.7 580.505C-41 596.605 -56.3 605.905 -67.1 630.305C-81.9 663.705 -93.5 698.405 -110.7 730.805C-124.1 756.005 -143.5 778.105 -154.3 804.405C-175.5 855.805 -187.4 911.305 -201.9 964.805C-227.2 1058.1 -268.5 1146 -305.5 1235" stroke="#80EDBE" stroke-opacity="0.4" stroke-miterlimit="10"/>
<path d="M61.8004 330.898C38.4004 379.298 20.1003 429.498 2.70032 480.198C-9.79968 516.498 -18.6996 564.298 -50.4996 589.398C-70.8996 605.598 -85.9996 615.998 -97.5996 640.698C-111.6 670.598 -123.9 701.098 -142.9 728.398C-159.5 752.298 -179.7 771.698 -190.4 799.398C-210.6 851.498 -222.8 906.598 -237.6 960.398C-263.7 1055.6 -308.1 1144.7 -347.6 1234.9" stroke="#80EDBE" stroke-opacity="0.4" stroke-miterlimit="10"/>
<path d="M39.4012 326.898C14.5012 377.098 -3.79886 429.798 -21.8989 482.698C-34.7989 520.498 -44.2988 569.798 -76.9988 596.098C-98.2988 613.198 -115.599 623.798 -128.099 649.798C-141.199 677.198 -154.299 703.998 -174.999 726.598C-194.899 748.298 -212.799 764.798 -224.099 792.998C-245.199 845.598 -257.299 901.798 -272.899 956.198C-300.699 1053.3 -347.399 1143.3 -389.299 1234.8" stroke="#80EDBE" stroke-opacity="0.4" stroke-miterlimit="10"/>
<path d="M17.0016 322.898C-10.5984 377.398 -29.3984 435.298 -49.0984 492.998C-61.5984 529.798 -71.6984 576.598 -103.498 602.198C-124.398 618.998 -142.798 628.398 -156.398 653.098C-171.098 679.898 -183.398 705.598 -207.198 725.598C-230.398 745.098 -246.198 761.998 -257.998 791.098C-280.198 846.098 -293.598 904.598 -310.898 961.198C-340.098 1056.7 -388.398 1145.1 -431.398 1235" stroke="#80EDBE" stroke-opacity="0.4" stroke-miterlimit="10"/>
</g>
<defs>
<linearGradient id="paint0_linear_845:14336" x1="626.325" y1="383.948" x2="626.325" y2="-49.7324" gradientUnits="userSpaceOnUse">
<stop/>
<stop offset="1" stop-opacity="0"/>
</linearGradient>
</defs>
</svg>
