<svg width="100%" height="100%" viewBox="0 0 1440 840" fill="none" xmlns="http://www.w3.org/2000/svg">
<path d="M-431.299 294.101C-359.499 282.901 -287.099 274.001 -214.299 276.501C-147.399 278.801 -81.0993 289.501 -15.2993 301.101C100.501 321.601 223.601 351.701 341.501 332.201C458.601 312.801 564.601 254.701 679.201 226.201C706.801 219.301 734.901 214.201 763.401 212.101C794.301 209.901 823.701 210.101 854.001 202.101C919.901 184.601 979.301 147.701 1037 112.501C1104 71.6007 1172.6 25.8007 1250 7.70071C1344.9 -14.4993 1423 33.4007 1496.4 88.8007C1539.2 181.601 1559.6 290.601 1620.4 374.101C1634.6 393.601 1652.7 405.701 1670.4 421.301C1691.7 440.101 1709.2 464.001 1725 487.401C1759.6 538.601 1784.1 597.001 1822.1 645.801C1854.6 687.501 1885.4 729.301 1915.5 772.901C1970.7 853.101 2038.3 924.201 2106 994.101C2139.2 1028.3 2174.8 1059.9 2210.6 1091.4C2255.4 1130.8 2295 1174.4 2334.6 1219C2047.2 1218.9 1759.7 1219 1472.3 1219C1039.5 1219 606.701 1219 173.901 1219C-307.099 1219 -788.199 1219 -1269.2 1219C-1129.5 1063 -989.799 906.901 -850.099 750.901C-787.299 680.401 -726.999 605.001 -656.599 541.701C-622.999 511.501 -586.699 484.001 -553.999 452.801C-505.199 406.401 -470.799 348.101 -431.299 294.101Z" stroke="#80EDBE" stroke-opacity="0.4" stroke-miterlimit="10"/>
<path d="M-984.898 901.102C-871.998 901.102 -757.598 907.002 -645.398 892.802C-540.998 879.602 -438.398 854.302 -333.798 842.302C-285.598 836.802 -237.298 833.002 -189.198 841.302C-138.898 850.002 -90.4984 867.502 -43.3984 886.702C46.5016 923.302 135.502 970.402 232.602 984.902C319.802 998.002 411.402 974.302 495.802 953.902C584.002 932.602 672.402 907.802 763.402 902.102C854.002 896.402 946.102 901.002 1036.8 901.002C1132.1 901.002 1227.6 899.502 1322.9 901.102C1438.6 903.102 1551.8 929.502 1666 945.202C1795.9 963.202 1920.8 954.602 2049.8 933.502" stroke="#80EDBE" stroke-opacity="0.4" stroke-miterlimit="10"/>
<path d="M-963.398 877.101C-852.698 877.101 -740.898 882.901 -631.298 865.201C-527.198 848.401 -425.298 818.801 -320.498 806.201C-271.798 800.301 -224.398 798.001 -176.398 809.501C-127.698 821.201 -81.4984 841.701 -36.5984 863.501C50.4016 905.701 136.802 959.101 233.402 976.001C320.302 991.201 412.902 963.001 495.902 939.401C583.502 914.401 671.402 885.201 762.802 878.501C851.202 872.001 941.602 877.201 1030.2 877.201C1123.4 877.201 1216.7 876.901 1309.9 877.201C1425.1 877.501 1538.3 900.801 1652.1 915.901C1779.1 932.801 1901.8 928.501 2028.4 910.201" stroke="#80EDBE" stroke-opacity="0.4" stroke-miterlimit="10"/>
<path d="M-942.5 853.7C-831.1 853.7 -720 858.7 -610.1 837.4C-508.3 817.7 -408.6 786.1 -305.2 774.9C-258.1 769.8 -212.6 769.5 -166.7 782.4C-115.5 796.7 -67.7 821.4 -21.2 846.7C60.7001 891.4 144.3 947.1 238.2 962C325.9 975.9 418.4 945.6 501.1 919.5C586.7 892.5 672.9 861.1 763.2 854.8C848.2 848.9 935.1 853.7 1020.3 853.7C1113.7 853.7 1207 853.7 1300.4 853.7C1413.8 853.7 1525.1 873.8 1637.2 888.4C1761.9 904.7 1882.8 904 2007.5 887.8" stroke="#80EDBE" stroke-opacity="0.4" stroke-miterlimit="10"/>
<path d="M-922.199 831.103C-809.799 831.103 -700.099 833.503 -589.399 810.703C-491.899 790.603 -395.699 761.703 -296.199 752.103C-195.499 742.403 -110.299 776.903 -22.5992 823.103C63.0008 868.103 150.401 924.703 248.301 937.703C331.801 948.803 422.201 918.703 501.101 895.103C583.801 870.303 666.801 842.103 753.201 833.503C841.401 824.703 933.001 831.403 1021.6 830.703C1111.5 830.003 1201.4 829.003 1291.3 829.703C1401 830.503 1508.1 847.003 1616.5 862.003C1741.3 879.203 1862 881.503 1987.3 866.803" stroke="#80EDBE" stroke-opacity="0.4" stroke-miterlimit="10"/>
<path d="M-902.398 809C-791.998 809 -685.398 808.6 -576.598 787.6C-479.298 768.8 -382.898 743.2 -283.798 735.7C-88.7985 720.8 65.9016 874.9 254.102 897.2C292.502 901.7 332.302 895 370.302 888.9C416.102 881.5 461.402 871.1 506.502 860.4C589.602 840.6 672.902 818.9 758.202 811.3C843.102 803.7 930.302 808.7 1015.6 806.1C1105.4 803.3 1195.1 800 1285 800.8C1394.9 801.8 1501.7 818.1 1610.2 834.3C1730.3 852.2 1846.6 855.9 1967.6 843.9" stroke="#80EDBE" stroke-opacity="0.4" stroke-miterlimit="10"/>
<path d="M-883.199 787.503C-774.799 787.503 -670.099 785.103 -563.099 766.803C-465.699 750.103 -368.599 728.503 -269.599 723.603C-87.9992 714.503 74.8007 828.403 253.201 845.703C335.701 853.703 425.001 834.003 506.401 821.503C586.801 809.103 667.101 795.803 748.301 789.903C834.001 783.703 920.401 785.803 1006.3 780.603C1096.3 775.203 1186.2 768.503 1276.4 768.303C1382.8 768.103 1485.7 784.103 1590.3 801.503C1645.9 810.803 1701.8 819.403 1758.1 823.203C1821.5 827.503 1885.1 824.003 1948.4 819.003" stroke="#80EDBE" stroke-opacity="0.4" stroke-miterlimit="10"/>
<path d="M-864.5 766.603C-756.6 766.603 -651.8 762.903 -544.9 747.503C-451.6 734.103 -358.3 717.903 -263.8 715.003C-86.7 709.403 82.5 781.903 258.7 789.403C339.1 792.803 420.9 784.803 501.1 780.103C583.4 775.303 665.6 770.103 748 767.603C832.5 765.003 916.2 762.803 1000.4 754.903C1086.4 746.803 1172.4 737.003 1258.8 734.703C1365.1 731.803 1467.7 748.103 1571.9 767.203C1627.4 777.403 1683.1 787.403 1739.4 792.803C1802.7 798.803 1866.1 796.603 1929.5 793.103" stroke="#80EDBE" stroke-opacity="0.4" stroke-miterlimit="10"/>
<path d="M-846.299 746.302C-741.099 746.302 -637.999 742.602 -533.399 731.002C-439.999 720.602 -346.599 708.702 -252.399 707.702C-79.7989 705.902 91.6011 731.002 264.101 731.302C425.501 731.602 586.601 743.202 747.901 745.802C918.201 748.502 1083.8 709.802 1253.3 701.402C1359.8 696.102 1462.7 714.502 1566.8 735.202C1622.4 746.302 1678.2 757.402 1734.7 763.602C1793.5 770.102 1852.4 769.002 1911.4 766.902" stroke="#80EDBE" stroke-opacity="0.4" stroke-miterlimit="10"/>
<path d="M-828.5 726.4C-726 726.4 -624.4 723.6 -522.2 715.5C-428.5 708.1 -335.2 702 -241.2 700.7C-72.5999 698.3 95.5999 680 264.2 675.2C343 672.9 423.3 685.9 501.2 696.3C581.5 707.1 661.8 719 742.7 724.2C911.4 735 1075.2 682.7 1242.3 669.7C1346.8 661.6 1447.6 679.4 1549.4 701.2C1605 713.1 1660.7 725.5 1717.1 733.3C1775.9 741.5 1834.5 741.8 1893.7 740.7" stroke="#80EDBE" stroke-opacity="0.4" stroke-miterlimit="10"/>
<path d="M-811.199 707.103C-708.899 707.103 -607.199 705.303 -504.999 700.203C-415.399 695.703 -325.799 695.703 -236.199 692.303C-67.6992 686.003 95.7008 632.403 264.101 624.403C344.401 620.603 428.401 642.503 506.401 659.603C582.901 676.403 659.401 694.703 737.401 703.103C903.901 721.003 1067.2 658.003 1231.3 640.703C1333.9 629.903 1432.3 646.403 1532.2 668.903C1587.9 681.403 1643.4 695.003 1699.7 704.303C1758.5 714.003 1816.8 716.003 1876.3 715.703" stroke="#80EDBE" stroke-opacity="0.4" stroke-miterlimit="10"/>
<path d="M-794.398 688.302C-692.298 688.302 -590.398 687.602 -488.298 685.002C-446.798 684.002 -405.198 682.902 -363.698 682.302C-315.998 681.602 -267.298 684.902 -219.798 680.602C-134.498 673.002 -51.6984 649.702 30.8016 627.802C107.902 607.302 188.802 583.302 269.202 581.002C346.902 578.702 427.202 604.002 501.102 625.302C579.002 647.702 656.802 672.702 737.502 683.502C902.002 705.502 1064.9 634.102 1226.5 614.102C1329.4 601.402 1428 618.302 1528 641.902C1638.7 667.902 1745.1 691.702 1859.4 692.102" stroke="#80EDBE" stroke-opacity="0.4" stroke-miterlimit="10"/>
<path d="M-777.898 669.902C-680.098 669.902 -582.298 670.001 -484.398 669.301C-438.598 669.001 -392.898 668.601 -347.098 668.501C-303.298 668.401 -258.798 671.201 -215.098 667.301C-47.1984 652.401 104.802 549.201 274.402 548.101C435.202 547.101 580.502 643.502 737.702 665.402C899.202 687.902 1058.3 614.501 1216.1 592.001C1430.9 561.401 1629.8 669.801 1843 670.601" stroke="#80EDBE" stroke-opacity="0.4" stroke-miterlimit="10"/>
<path d="M-761.898 652.001C-663.998 651.801 -566.198 651.901 -468.298 652.201C-381.298 652.501 -291.698 658.501 -205.098 650.501C-38.1984 635.101 109.502 523.901 279.202 527.401C437.702 530.701 577.602 623.801 732.402 646.801C891.702 670.401 1050.3 599.301 1205.6 575.101C1304.3 559.701 1398.2 570.701 1495.1 592.901C1604.7 617.901 1713.4 651.101 1826.7 651.801" stroke="#80EDBE" stroke-opacity="0.4" stroke-miterlimit="10"/>
<path d="M-746.199 634.303C-648.699 633.203 -551.199 635.403 -453.599 637.203C-369.199 638.703 -281.399 645.203 -197.299 635.803C-34.1992 617.603 113.601 509.203 280.101 514.803C435.801 520.103 579.101 599.303 732.001 622.003C807.401 633.203 882.801 620.603 957.201 607.603C1037.7 593.503 1117.4 575.603 1198.3 564.003C1245.2 557.303 1292.3 551.803 1339.6 555.403C1389.2 559.203 1438.3 567.403 1487 576.803C1594.7 597.703 1701.2 624.703 1811.1 630.703" stroke="#80EDBE" stroke-opacity="0.4" stroke-miterlimit="10"/>
<path d="M-730.898 617.101C-635.298 616.701 -539.898 621.401 -444.398 625.101C-359.998 628.401 -271.698 635.801 -187.598 624.801C-102.898 613.701 -22.7984 581.401 57.4016 553.801C129.602 529.001 207.602 503.301 284.902 507.501C435.202 515.701 578.302 572.501 727.002 592.301C802.402 602.301 877.302 592.401 952.502 583.801C1031.2 574.801 1109.6 563.901 1188.4 555.701C1235.2 550.901 1282.9 544.601 1329.9 547.501C1379.4 550.601 1428.6 556.701 1477.6 563.901C1583.5 579.401 1688.8 599.501 1795.8 606.601" stroke="#80EDBE" stroke-opacity="0.4" stroke-miterlimit="10"/>
<path d="M-716 600.6C-622.7 601.7 -529.8 609.3 -436.7 615.3C-352.5 620.7 -264.3 629.1 -180.4 617.1C-22.6 594.5 123.3 497.1 285.5 503.6C433.7 509.6 579 546.7 726.4 560.6C801.4 567.7 876.3 561.1 951.5 558C1030 554.7 1108.5 551.6 1187.1 548.2C1229.9 546.4 1273.7 541.7 1316.6 543.3C1365.7 545.2 1414.8 549 1463.8 553.4C1569.5 562.9 1675 575.3 1781 581.2" stroke="#80EDBE" stroke-opacity="0.4" stroke-miterlimit="10"/>
<path d="M-701.398 585C-607.798 588.3 -514.898 599.4 -421.598 607.7C-339.098 615 -253.298 623.6 -170.998 610.7C-14.5984 586.3 129.002 497 290.302 501.8C434.302 506.1 577.802 520.1 721.702 526.8C796.902 530.3 872.002 528 947.202 530.9C1022.1 533.8 1096.9 538.7 1171.9 541.1C1264.1 544 1356.4 542.7 1448.7 545.6C1554.6 548.9 1660.5 552.7 1766.4 555.5" stroke="#80EDBE" stroke-opacity="0.4" stroke-miterlimit="10"/>
<path d="M-687.199 570.503C-593.699 576.403 -501.199 591.103 -408.099 601.703C-327.699 610.803 -244.599 619.203 -164.199 606.103C-9.29916 580.803 131.201 500.903 290.801 501.203C434.401 501.403 577.801 494.503 721.301 493.403C793.101 492.803 864.201 494.203 935.601 502.503C1014.3 511.703 1092.3 525.603 1171 534.303C1363.3 555.503 1559.4 534.003 1752.2 531.103" stroke="#80EDBE" stroke-opacity="0.4" stroke-miterlimit="10"/>
<path d="M-673.199 557.001C-501.899 573.101 -324.099 631.401 -151.599 600.601C-74.0992 586.801 0.200821 559.601 75.4008 537.001C147.001 515.601 216.601 502.601 291.301 500.601C435.301 496.701 577.401 469.301 721.001 460.201C793.701 455.601 863.501 460.401 934.901 474.501C1009.9 489.301 1083.6 510.201 1158.6 525.101C1351.1 563.301 1545.1 520.401 1738.2 508.001" stroke="#80EDBE" stroke-opacity="0.4" stroke-miterlimit="10"/>
<path d="M-659.6 544.401C-492.2 565.301 -320.8 626.301 -151 596.901C-71.6996 583.201 4.30039 555.701 81.4004 533.501C153.5 512.801 222.4 504.001 296.9 499.301C438.6 490.301 574.9 446.001 715.4 429.101C789.2 420.201 857.1 427.001 928.9 446.201C1006.2 466.801 1080.9 496.001 1158 517.301C1200.2 528.901 1243.4 538.301 1287.1 541.601C1331.6 545.001 1377.6 538.701 1421.7 533.101C1523.1 520.301 1623.1 498.901 1724.6 487.001" stroke="#80EDBE" stroke-opacity="0.4" stroke-miterlimit="10"/>
<path d="M-646.398 532.602C-478.498 558.702 -310.398 622.102 -138.898 590.102C-61.9984 575.802 12.1016 549.702 87.4016 528.902C119.702 520.002 152.202 512.002 185.302 506.402C224.302 499.802 263.302 500.202 302.502 496.402C442.102 482.902 572.302 424.402 709.902 400.402C744.702 394.302 780.202 389.102 815.602 393.302C852.202 397.602 888.102 406.902 923.102 418.402C999.002 443.202 1071 478.002 1146.1 504.902C1187.9 519.902 1230.8 532.602 1274.9 538.302C1319.5 544.102 1365.1 537.402 1409.2 530.302C1510.9 514.102 1610 485.302 1711.6 468.102" stroke="#80EDBE" stroke-opacity="0.4" stroke-miterlimit="10"/>
<path d="M-633.299 521.299C-466.799 551.999 -303.899 615.399 -132.699 582.899C-57.8988 568.699 14.4012 543.999 87.8012 524.299C123.601 514.699 159.701 506.099 196.401 500.699C231.801 495.499 267.401 496.499 302.801 492.399C444.301 475.899 571.301 403.399 709.701 373.899C744.401 366.499 779.901 360.399 815.301 365.199C852.201 370.099 888.001 380.999 922.701 394.299C997.101 422.699 1066.8 461.999 1140 493.299C1181.4 510.999 1224.1 526.399 1268.7 533.799C1313.6 541.299 1358.5 534.599 1402.9 526.299C1502.9 507.599 1599.2 473.499 1698.5 451.699" stroke="#80EDBE" stroke-opacity="0.4" stroke-miterlimit="10"/>
<path d="M-620.6 510.4C-456.4 544.7 -298.9 606.8 -129 574.3C-52.7996 559.7 20.8004 534.8 95.8004 515.4C127.9 507.1 160.2 499.8 193 494.8C230 489.3 267.2 490.5 304.1 485.8C446.7 468 570.2 383.8 708.6 350.3C740.9 342.5 775 335.8 808.3 339.5C845.1 343.5 880.9 355 915 369C991.7 400.4 1061.9 445.3 1136.5 481.2C1177.3 500.8 1219.9 518.3 1264.5 526.8C1307.2 534.9 1349.6 529.5 1391.9 521.2C1492.1 501.7 1587.1 462.6 1685.6 436.8" stroke="#80EDBE" stroke-opacity="0.4" stroke-miterlimit="10"/>
<path d="M-608.199 499.501C-520.399 519.601 -434.699 548.501 -345.999 564.501C-269.099 578.401 -193.999 577.301 -117.399 561.701C-45.2992 547.001 24.8008 524.001 96.0008 505.801C131.501 496.701 167.501 488.801 203.801 484.001C238.901 479.401 274.401 481.001 309.401 476.301C451.501 457.501 570.901 365.101 708.401 330.101C781.201 311.601 846.001 319.701 914.701 349.501C988.001 381.401 1054.5 426.701 1124.9 464.201C1165.4 485.801 1207.7 505.501 1252.7 515.801C1297.2 526.001 1341.6 522.201 1386 513.601C1484.6 494.401 1577.2 452.601 1673.2 424.101" stroke="#80EDBE" stroke-opacity="0.4" stroke-miterlimit="10"/>
<path d="M-596 488.7C-510.6 509.4 -426.9 537.6 -340.3 552.8C-263.2 566.3 -188.2 563.3 -111.7 547.4C-37.8999 532.1 33.9 508.7 107 490.9C139 483.1 171.3 476.3 204 472C239.1 467.3 274.5 468.9 309.6 464.7C450.9 447.8 567.5 351.7 703.1 315.6C774.7 296.5 841.2 302.9 909.1 332C982.9 363.5 1049.1 409.8 1119.2 448.4C1157.9 469.7 1198.1 489.5 1241 500.9C1285.2 512.7 1329.4 511.3 1374.1 503.5C1473.1 486.3 1565.6 443.8 1660.9 413.7" stroke="#80EDBE" stroke-opacity="0.4" stroke-miterlimit="10"/>
<path d="M-584.1 479.102C-501.1 498.702 -419.2 524.002 -334.9 537.802C-257.2 550.502 -183.1 546.302 -106.2 530.602C-34.4996 516.002 35.7004 494.902 107 478.502C139.1 471.102 171.4 464.602 204 460.302C239.1 455.602 274.5 456.602 309.6 452.402C450.6 435.502 567.6 340.302 703 304.302C773.1 285.702 836.6 292.602 903.7 319.102C976.9 348.102 1043.9 390.502 1113.6 426.502C1154.5 447.702 1196.7 467.402 1241.3 479.302C1282.5 490.402 1320.4 490.302 1362.4 483.702C1460.5 468.402 1554 432.402 1649 404.902" stroke="#80EDBE" stroke-opacity="0.4" stroke-miterlimit="10"/>
<path d="M-572.398 469.405C-489.198 487.805 -406.698 510.605 -322.098 522.305C-246.098 532.905 -173.498 526.805 -98.4984 512.305C-28.4984 498.805 40.4016 480.305 110.102 465.805C142.402 459.105 174.902 453.205 207.602 449.205C242.902 444.905 278.602 445.905 313.702 441.205C451.302 422.805 566.402 332.605 698.602 296.405C768.902 277.205 832.002 283.605 900.302 307.605C973.302 333.205 1041.3 370.805 1111.4 403.105C1189.9 439.205 1268.4 468.805 1355.7 456.905C1451.1 444.005 1543.8 416.705 1637.3 394.405" stroke="#80EDBE" stroke-opacity="0.4" stroke-miterlimit="10"/>
<path d="M-561 459.304C-477.9 475.804 -395.1 495.404 -310.8 505.004C-237.2 513.304 -166 506.504 -93.2 494.004C-21.5 481.604 49.3 464.904 120.9 452.304C151.4 446.904 182.1 442.304 212.9 439.104C246.4 435.604 280.4 436.504 313.8 432.104C451.2 414.004 566.6 325.004 698.8 289.504C766.7 271.204 828.2 276.904 895.2 296.404C965.5 316.904 1032.5 347.104 1100.6 373.904C1181.3 405.604 1263.3 434.304 1350.8 424.904C1443.2 414.904 1534.5 397.204 1626 381.704" stroke="#80EDBE" stroke-opacity="0.4" stroke-miterlimit="10"/>
<path d="M-549.799 448.701C-468.399 462.501 -387.099 478.401 -304.699 485.801C-230.999 492.501 -158.799 485.701 -85.7989 474.901C-15.6989 464.601 53.8012 450.901 123.901 440.701C188.301 431.301 253.701 432.201 317.801 423.101C453.601 404.001 568.401 317.801 699.701 283.301C834.401 247.901 971.101 307.601 1098.6 346.901C1175.9 370.701 1256.7 395.001 1338.2 389.001C1430.5 382.301 1522.6 373.901 1614.7 365.901" stroke="#80EDBE" stroke-opacity="0.4" stroke-miterlimit="10"/>
<path d="M-538.799 437.601C-459.399 448.401 -379.999 460.501 -299.999 466.001C-226.599 471.001 -153.799 465.201 -80.7989 456.601C-12.5989 448.601 55.3012 438.101 123.501 430.301C187.901 422.901 253.701 424.701 317.701 415.901C451.501 397.601 565.501 314.601 694.601 280.101C823.701 245.601 961.201 290.001 1087.8 317.501C1165.6 334.401 1247.2 353.501 1327.3 350.201C1419.4 346.301 1511.7 347.701 1603.8 348.201" stroke="#80EDBE" stroke-opacity="0.4" stroke-miterlimit="10"/>
<path d="M-528.1 425.798C-448.6 433.798 -369.1 442.498 -289.2 445.898C-216 448.998 -143 444.198 -70.0996 437.798C-3.89961 431.998 62.2004 424.798 128.5 419.398C192.8 414.198 259.1 417.498 322.8 408.198C454.3 388.798 567.3 309.398 694.7 275.998C758.9 259.198 821.7 262.698 887.2 268.298C952.6 273.898 1017.7 282.398 1082.9 290.198C1162.3 299.698 1242.6 309.898 1322.7 309.098C1413.2 308.098 1503.2 318.698 1593 327.898" stroke="#80EDBE" stroke-opacity="0.4" stroke-miterlimit="10"/>
<path d="M-517.5 413.499C-367.1 423.099 -218.3 428.399 -67.7 420.499C-1.69995 416.999 64.2 412.599 130.2 409.499C194.1 406.399 260.4 410.899 323.7 401.699C454.3 382.699 567.3 305.299 694 272.599C755.6 256.699 817.2 259.199 880.2 260.199C947 261.199 1013.8 262.599 1080.6 263.999C1160.3 265.599 1240 266.099 1319.7 267.399C1408.5 268.899 1495.8 288.199 1582.5 305.699" stroke="#80EDBE" stroke-opacity="0.4" stroke-miterlimit="10"/>
<path d="M-507.199 400.599C-357.999 404.699 -208.799 406.299 -59.4992 403.499C6.10079 402.299 71.8008 400.599 137.401 399.699C199.201 398.799 263.401 404.099 324.601 395.299C454.401 376.699 567.201 301.299 693.301 269.399C754.201 253.999 816.401 256.299 878.801 252.999C943.501 249.599 1008.1 244.199 1072.8 239.099C1151.5 232.899 1231.6 224.299 1310.7 225.999C1400.1 227.899 1487.4 256.399 1572.3 281.899" stroke="#80EDBE" stroke-opacity="0.4" stroke-miterlimit="10"/>
<path d="M-497.1 387.302C-350.4 386.102 -204 385.202 -57.2997 387.402C9.90031 388.402 77.1004 389.502 144.4 390.502C204.1 391.402 266.2 397.302 325.4 388.902C452.6 370.802 564 299.102 687.4 267.202C749.7 251.102 813.8 253.202 877.3 245.802C940.2 238.502 1002.5 227.102 1064.9 216.202C1142.6 202.602 1222.5 186.702 1301.6 185.702C1390.9 184.602 1480.6 224.502 1562 256.502" stroke="#80EDBE" stroke-opacity="0.4" stroke-miterlimit="10"/>
<path d="M-487.1 373.598C-409.4 370.398 -331.6 367.198 -253.8 365.298C-186.6 363.698 -118.7 368.898 -51.4996 372.098C15.1004 375.298 81.6003 378.798 148.2 381.698C207.3 384.198 268.7 390.598 327.5 382.198C453.2 364.198 563.9 294.798 686 263.698C747.8 247.898 811.4 250.198 874.1 239.398C936.9 228.598 998.4 211.698 1059.9 195.398C1136.7 174.998 1214.7 154.098 1294.3 148.598C1382.4 142.498 1475.5 193.898 1552.2 230.798" stroke="#80EDBE" stroke-opacity="0.4" stroke-miterlimit="10"/>
<path d="M-477.398 359.805C-400.598 354.305 -323.398 347.905 -246.298 346.705C-179.698 345.605 -112.298 352.605 -45.9984 357.705C19.9016 362.805 85.8016 368.605 151.802 373.005C210.402 376.905 271.002 383.605 329.402 375.105C453.602 357.105 563.702 290.005 684.402 259.505C745.802 244.005 808.902 246.605 870.702 233.105C933.502 219.405 994.202 197.605 1054.7 176.505C1130.2 150.105 1206.9 123.305 1286.9 114.505C1375.3 104.805 1468.6 163.305 1542.3 204.505" stroke="#80EDBE" stroke-opacity="0.4" stroke-miterlimit="10"/>
<path d="M-467.799 346.005C-392.099 338.505 -315.099 329.105 -238.899 329.405C-172.799 329.605 -106.099 337.505 -40.4988 344.405C24.8012 351.305 90.0012 359.105 155.401 364.705C213.501 369.705 273.301 376.405 331.301 367.905C454.101 349.905 563.501 284.905 683.001 254.905C744.001 239.605 806.601 242.705 867.501 227.305C930.401 211.405 990.201 185.405 1049.8 160.205C1123.9 128.805 1199.5 95.9054 1279.8 84.5054C1369.5 71.8054 1460.6 133.605 1532.8 178.805" stroke="#80EDBE" stroke-opacity="0.4" stroke-miterlimit="10"/>
<path d="M-458.398 332.399C-383.798 323.399 -306.998 311.899 -231.698 313.899C-165.898 315.599 -100.298 323.599 -35.0984 332.099C29.6016 340.499 94.1016 349.899 159.002 356.499C216.602 362.399 275.702 368.699 333.302 360.099C454.702 341.999 563.402 278.899 681.702 249.399C742.202 234.299 804.402 237.999 864.502 221.299C927.502 203.799 986.602 174.399 1045.1 145.799C1117.9 110.299 1192.3 72.0988 1272.9 58.2988C1364.2 42.6988 1451.9 104.899 1523.6 153.599" stroke="#80EDBE" stroke-opacity="0.4" stroke-miterlimit="10"/>
<path d="M-449.199 319.003C-375.399 308.803 -299.299 296.903 -224.599 299.803C-159.299 302.303 -94.3993 310.903 -29.7993 320.503C34.2007 330.103 98.1008 340.803 162.501 348.003C219.601 354.403 278.001 360.203 335.101 351.503C455.201 333.303 563.101 271.903 680.201 242.703C740.101 227.803 802.101 232.103 861.301 215.003C924.401 196.803 982.801 164.703 1040.2 133.603C1111.8 94.9031 1185.1 52.2031 1265.9 36.4031C1358.7 18.2031 1442.6 78.1031 1514.2 129.703" stroke="#80EDBE" stroke-opacity="0.4" stroke-miterlimit="10"/>
<path d="M-440.199 306.205C-368.499 295.505 -295.099 284.705 -222.399 287.205C-155.299 289.505 -88.6992 299.405 -22.4992 310.305C95.1008 329.805 221.401 361.205 340.801 341.805C460.101 322.405 567.701 261.905 684.701 233.805C741.001 220.305 799.501 225.005 855.101 209.505C920.601 191.305 980.301 156.005 1038.6 122.005C1107.8 81.7048 1178.7 36.9048 1257.9 19.6048C1352.2 -0.995244 1432.8 53.9048 1505.2 107.905" stroke="#80EDBE" stroke-opacity="0.4" stroke-miterlimit="10"/>
<path d="M1429.1 42.1016C1477.7 152.302 1492.7 274.902 1544.5 384.002C1567.4 432.402 1608.7 458.402 1641.8 498.602C1677.2 541.702 1701.8 591.802 1732.1 638.302C1761.7 683.702 1791.1 728.502 1819 775.002C1870.3 860.602 1933.2 939.102 1996.2 1016.5C2025.3 1052.3 2056.2 1084.7 2093.5 1112C2136.8 1143.7 2174.9 1177.1 2208.9 1218.9" stroke="#80EDBE" stroke-opacity="0.4" stroke-miterlimit="10"/>
<path d="M1406.7 29.5C1457.4 144 1470.7 271.8 1519.2 387.3C1530.3 413.6 1543 437.8 1564.5 456.9C1581.5 471.9 1598.8 486.1 1614 503C1649.3 542.3 1674 589.2 1702.1 633.6C1731.5 680 1759.7 726.4 1786.8 774.3C1836.5 862.1 1898.6 942.9 1959.6 1023.1C1987.4 1059.7 2016.4 1093.5 2054.5 1119.7C2097 1149 2134.3 1178.4 2167 1219" stroke="#80EDBE" stroke-opacity="0.4" stroke-miterlimit="10"/>
<path d="M1384.3 18.8984C1437.3 136.698 1448.5 269.798 1493.9 390.598C1504.3 418.198 1515.7 446.398 1538.1 466.298C1553.9 480.398 1571.3 492.498 1586.4 507.598C1621.6 542.798 1646.1 586.198 1672.2 628.098C1701.6 675.298 1728.5 723.098 1754.7 772.098C1802.9 862.198 1863.9 945.398 1923 1028.6C1949.5 1065.9 1976.7 1101.7 2015.4 1127C2057 1154.2 2093.5 1179.6 2125 1218.9" stroke="#80EDBE" stroke-opacity="0.4" stroke-miterlimit="10"/>
<path d="M1361.8 10.3984C1389.5 70.0984 1402 136.798 1417.2 200.498C1431.3 259.498 1444.8 318.798 1463 376.698C1473.7 410.798 1484.8 451.998 1512.7 476.398C1525.8 487.898 1540.9 497.098 1554.2 508.398C1589.5 538.298 1614.6 577.198 1638.7 616.198C1669.3 665.798 1696.1 716.698 1722.4 768.598C1769.6 861.598 1830.1 948.098 1887.7 1034.9C1913.1 1073.2 1938.9 1110.8 1978.6 1135.2C2018.5 1159.7 2053.2 1181.5 2083 1218.8" stroke="#80EDBE" stroke-opacity="0.4" stroke-miterlimit="10"/>
<path d="M1339.4 4.5C1368 63.2 1379 130.8 1393.3 194.1C1407.2 255.9 1420.5 317.8 1437.8 378.8C1447.7 413.6 1457.7 460.4 1486.1 485.4C1498.4 496.2 1513.3 504.1 1526.5 513.8C1606.4 572.5 1648.6 678.2 1690.2 764.5C1736.1 859.6 1795.4 948.2 1851.1 1037.9C1875.2 1076.8 1899.5 1117.2 1939.5 1141.3C1977.9 1164.5 2013 1182.1 2041 1219" stroke="#80EDBE" stroke-opacity="0.4" stroke-miterlimit="10"/>
<path d="M1317 1.30469C1347 58.7047 1356.4 128.005 1369.8 190.605C1383.6 255.005 1396.4 319.805 1413.4 383.505C1422.8 418.705 1431.6 469.405 1460.7 494.505C1472.5 504.605 1487.2 511.405 1500.2 519.605C1582.1 571.005 1619.5 675.505 1658 759.205C1702.9 857.105 1761.7 947.905 1815.8 1041C1838.8 1080.5 1862 1123.7 1902.7 1147.4C1939.2 1168.7 1972.8 1183.8 1999.2 1218.9" stroke="#80EDBE" stroke-opacity="0.4" stroke-miterlimit="10"/>
<path d="M1294.6 1.10156C1325.6 55.9016 1333.5 125.602 1345.9 186.402C1359.5 252.802 1371.9 319.602 1388.3 385.502C1397.2 421.202 1404.8 476.302 1434.3 502.102C1445.4 511.902 1459.7 517.602 1472.7 524.302C1557.2 567.802 1590.4 672.102 1625.9 753.502C1669.3 852.802 1727 944.602 1779.1 1039.5C1801.1 1079.6 1822.9 1126.4 1863.5 1150.8C1898.6 1171.9 1931.8 1184.3 1957.2 1218.8" stroke="#80EDBE" stroke-opacity="0.4" stroke-miterlimit="10"/>
<path d="M1272.2 3.30469C1302.2 58.0047 1310.5 125.305 1322.4 185.705C1335.8 254.005 1347.9 322.705 1363.9 390.605C1372.3 426.505 1379 483.805 1408.8 509.705C1419.6 519.105 1433.3 523.905 1446.4 529.305C1532.1 564.405 1561.2 669.505 1593.8 747.605C1635.3 847.105 1691.2 938.605 1741.2 1034C1762.5 1074.7 1784 1126.1 1823.7 1152.3C1857.2 1174.4 1890.6 1184.5 1915.4 1219.1" stroke="#80EDBE" stroke-opacity="0.4" stroke-miterlimit="10"/>
<path d="M1249.8 7.60156C1279.1 62.2016 1287.7 128.902 1299.3 189.002C1312.8 259.002 1324.4 329.402 1340.1 398.902C1347.8 432.802 1353.5 485.102 1378.9 512.002C1389.1 522.802 1402.4 527.602 1416.1 532.102C1449.2 543.002 1471.5 557.102 1491.6 586.502C1523.2 632.702 1541 689.502 1561.6 741.102C1601.6 841.102 1655.9 933.002 1704.5 1028.9C1725.6 1070.4 1745.4 1120.1 1783.1 1149.7C1814.6 1174.4 1849.4 1183.8 1873.4 1218.8" stroke="#80EDBE" stroke-opacity="0.4" stroke-miterlimit="10"/>
<path d="M1227.4 13.8047C1255.9 67.7047 1264.5 133.305 1275.8 192.505C1289.2 263.105 1300.4 334.105 1315.7 404.305C1326.4 453.705 1332.4 522.305 1389.9 536.105C1422.5 543.905 1443.9 553.805 1463.6 582.905C1494 627.905 1510.4 684.505 1529.7 734.905C1568.3 836.005 1621.6 928.705 1669.4 1025.6C1689.8 1067 1708.5 1114.4 1743.6 1145.9C1773.1 1172.5 1809.2 1184 1831.8 1218.9" stroke="#80EDBE" stroke-opacity="0.4" stroke-miterlimit="10"/>
<path d="M1204.9 21.6016C1230.5 70.2016 1238.9 128.202 1249.2 181.602C1263.8 256.702 1275.5 332.302 1290.9 407.202C1300.6 453.902 1305.4 529.302 1363.2 539.102C1391.7 543.902 1411.9 548.502 1430.4 573.102C1463.4 616.902 1478.6 678.302 1497.2 728.902C1516.6 781.802 1536.7 833.202 1564 882.602C1588.2 926.202 1609.5 971.302 1631.2 1016.2C1651.7 1058.7 1670.3 1106.1 1703.5 1140.5C1731.1 1169.1 1767.6 1184.4 1789.6 1219" stroke="#80EDBE" stroke-opacity="0.4" stroke-miterlimit="10"/>
<path d="M1182.5 30.8984C1205.5 74.5984 1213.6 125.598 1223.3 173.598C1237.4 243.398 1248.5 313.698 1261.8 383.598C1269.8 425.598 1273.9 481.098 1298.3 517.698C1307.1 530.898 1317.7 538.498 1333.2 540.898C1361 545.198 1379.5 542.098 1399.4 566.698C1433.3 608.698 1447.6 673.398 1465.2 723.198C1483.6 775.398 1502.1 826.898 1528.7 875.498C1552.4 918.998 1573.5 963.898 1594.7 1008.7C1615.2 1052 1633.9 1099.4 1665.9 1135.9C1691.9 1165.5 1726.5 1184.9 1747.8 1219" stroke="#80EDBE" stroke-opacity="0.4" stroke-miterlimit="10"/>
<path d="M1160.1 41.5C1182.4 83.6 1190.4 132.7 1199.8 179C1213.6 246.7 1224.4 315 1237.3 383C1245.3 425.4 1249.3 479 1272.8 516.6C1280.7 529.2 1291.7 540 1306.7 542.4C1333.6 546.7 1351.7 539.8 1371.1 565C1403.4 607 1416.2 668.8 1432.9 718.2C1450.7 770.7 1468.6 822.8 1494.7 871.9C1517.7 915.1 1538.4 959.3 1559.1 1003.6C1579.5 1047.3 1598.2 1093.8 1628.6 1131.8C1653 1162.3 1685.2 1185.3 1705.8 1219.1" stroke="#80EDBE" stroke-opacity="0.4" stroke-miterlimit="10"/>
<path d="M1137.7 53C1159.5 93.7 1167.5 141.4 1176.7 186.3C1190.1 252.2 1200.8 318.6 1213.4 384.6C1221 424.7 1225.5 479 1248.2 514.1C1256.2 526.4 1266.7 537.7 1281.4 541.1C1305.7 546.8 1321.6 537.6 1340.1 560.6C1354.6 578.7 1362.6 603.5 1370.6 625C1381.5 654.3 1391.1 684.2 1400.8 713.9C1417.7 765.4 1434.1 817.2 1459.3 865.4C1480.9 906.6 1500.6 948.6 1520.1 990.8C1540.8 1035.5 1559.6 1082.5 1588.2 1122.9C1611.8 1156.3 1643.1 1183.5 1663.9 1219" stroke="#80EDBE" stroke-opacity="0.4" stroke-miterlimit="10"/>
<path d="M1115.3 65.5C1136.2 104 1144.3 149.7 1153.2 192.2C1166.3 255.2 1176.7 318.7 1188.9 381.9C1196.7 422.8 1201 471.9 1222.7 508C1229.5 519.3 1238.4 530.6 1250.4 536.5C1273 547.6 1294.8 538 1311.9 561.1C1342 602.1 1353.7 663 1368.8 710.5C1385.1 762.2 1401 814 1425.7 862.4C1446.4 903.1 1465.9 944.3 1484.9 985.8C1504.8 1029.1 1523.2 1073.9 1548.7 1114.3C1571.5 1150.4 1601.4 1181.4 1622.2 1218.8" stroke="#80EDBE" stroke-opacity="0.4" stroke-miterlimit="10"/>
<path d="M1092.9 78.5C1113.2 115.2 1121.3 158.9 1130 199.6C1142.8 259.9 1153 320.8 1164.9 381.3C1174.2 428.6 1179.2 502.9 1225 532.8C1243.4 544.8 1265.9 542.5 1280.9 560.7C1295.2 578.1 1302.7 603.9 1309.9 624.7C1319.6 652.4 1328 680.5 1336.6 708.5C1352.5 760.6 1367.9 812.7 1392.3 861.5C1411.7 900.4 1430.1 939.7 1448.2 979.3C1467.4 1021.5 1485.4 1064.6 1508.3 1105C1530.5 1144.2 1558.7 1179.4 1580.2 1219" stroke="#80EDBE" stroke-opacity="0.4" stroke-miterlimit="10"/>
<path d="M1070.4 92C1091.2 125.2 1098.4 169.5 1106.6 207C1117.4 256.3 1126.3 306 1135.9 355.5C1146.6 410.5 1152.4 482.6 1195 524.8C1211.1 540.8 1234.9 544.8 1249.7 562.1C1264.1 578.8 1271 603.8 1278.1 624.2C1287.7 651.8 1295.9 679.8 1304.2 707.8C1319.2 758.5 1333.4 809.6 1356.7 857.2C1375.6 895.7 1393.6 934.5 1411.3 973.5C1430.5 1015.9 1448.5 1058.9 1470.2 1100.1C1491.5 1140.5 1517.4 1178.3 1538.1 1218.9" stroke="#80EDBE" stroke-opacity="0.4" stroke-miterlimit="10"/>
<path d="M1048 105.602C1067.7 136.502 1075 177.602 1083 212.602C1093.5 258.502 1102.1 304.902 1111.3 351.002C1122.7 407.902 1131.3 471.202 1168.4 518.402C1183.5 537.602 1206.6 548.002 1221.3 567.402C1249.8 605.102 1259.2 663.702 1272.1 708.202C1286.7 758.702 1300.3 809.402 1322.9 857.002C1340.9 894.902 1358.6 933.002 1375.8 971.302C1394.7 1013.4 1412.5 1056 1432.9 1097.4C1453.1 1138.4 1476.6 1177.7 1496.3 1218.9" stroke="#80EDBE" stroke-opacity="0.4" stroke-miterlimit="10"/>
<path d="M1025.6 119.305C1044.4 148.405 1051.9 186.505 1059.8 219.505C1070 262.305 1078.4 305.605 1087.4 348.705C1099.1 404.705 1110.8 460.705 1140.9 510.205C1154.8 533.005 1175.2 549.205 1190.5 570.605C1218 609.005 1227.4 665.005 1240 709.605C1253.9 758.605 1266.4 808.305 1287.6 854.805C1304.2 891.105 1320.9 927.305 1337.1 963.805C1375.2 1049.4 1416 1133.6 1454.4 1218.9" stroke="#80EDBE" stroke-opacity="0.4" stroke-miterlimit="10"/>
<path d="M1003.2 132.805C1019.4 157.805 1026.7 188.705 1034.1 217.105C1045.2 259.505 1053.8 302.605 1063.2 345.405C1075 399.305 1089 451.705 1113.1 501.505C1126.4 529.005 1145.7 551.505 1161.4 577.305C1185.5 617.005 1195.4 667.405 1207.8 711.805C1221 759.205 1232.9 807.305 1252.3 852.605C1268.7 891.005 1285.8 929.105 1302.5 967.305C1339.1 1051.2 1376.7 1134.7 1412.5 1218.9" stroke="#80EDBE" stroke-opacity="0.4" stroke-miterlimit="10"/>
<path d="M980.801 145.898C1014.5 198.098 1022.8 270.298 1036.4 329.598C1049.4 385.898 1064.9 440.898 1086.5 494.598C1098.9 525.498 1115.2 553.298 1131.1 582.398C1153.3 622.798 1163.6 670.498 1175.7 714.598C1189 762.898 1201.1 811.598 1220.3 857.998C1235.1 893.698 1250 929.398 1264.9 964.998C1300.1 1049.6 1336.2 1134 1370.6 1218.9" stroke="#80EDBE" stroke-opacity="0.4" stroke-miterlimit="10"/>
<path d="M958.4 158.305C987.7 204.705 997.401 264.905 1010.3 317.305C1023.7 372.105 1039.5 426.105 1057 479.705C1069 516.505 1083.5 551.905 1100.3 586.705C1120.3 628.205 1131.6 673.405 1143.6 717.705C1190.1 889.805 1263.9 1053 1328.8 1218.8" stroke="#80EDBE" stroke-opacity="0.4" stroke-miterlimit="10"/>
<path d="M936 169.898C962.2 213.198 973.4 265.098 986.1 313.498C1000.4 367.898 1016.1 421.998 1031.2 476.198C1054.4 559.398 1089.2 637.898 1111.4 721.498C1156.5 891.398 1225.2 1054.5 1286.8 1219" stroke="#80EDBE" stroke-opacity="0.4" stroke-miterlimit="10"/>
<path d="M913.5 180.5C935.9 220.2 948.9 263.8 961.3 307.4C976.1 359.3 990.1 410.9 1002.6 463.3C1023.7 552.2 1056.2 637 1079.2 725.3C1123 893.1 1187 1055.5 1244.9 1218.9" stroke="#80EDBE" stroke-opacity="0.4" stroke-miterlimit="10"/>
<path d="M891.102 189.898C933.102 271.898 955.702 360.298 974.102 450.198C985.102 503.998 995.302 558.398 1012.1 610.698C1024.7 650.098 1036.8 689.198 1047 729.398C1089.5 895.198 1148.8 1056.6 1202.9 1219" stroke="#80EDBE" stroke-opacity="0.4" stroke-miterlimit="10"/>
<path d="M868.699 197.805C882.599 229.005 898.699 258.205 909.999 290.605C927.699 341.305 937.799 392.705 947.199 445.505C957.299 502.405 966.099 560.105 981.699 615.905C992.599 655.105 1004.9 693.805 1014.8 733.405C1055.8 897.305 1110.6 1057.7 1161 1219" stroke="#80EDBE" stroke-opacity="0.4" stroke-miterlimit="10"/>
<path d="M846.301 204C856.901 232.3 874.401 257.4 885.301 285.7C904.801 336.2 912.101 388.9 920.401 442.2C929.601 501.8 937.501 562 951.501 620.7C960.901 659.8 973.201 698.2 982.801 737.2C1022.3 899.2 1072.6 1058.8 1119.2 1218.9" stroke="#80EDBE" stroke-opacity="0.4" stroke-miterlimit="10"/>
<path d="M823.9 208.398C832 234.698 849.8 256.198 860.5 281.298C880.6 328.398 885.1 380.098 892 430.398C901.2 497.198 908 564.798 922.5 630.698C930.6 667.598 941.901 703.998 950.601 740.798C988.501 901.198 1034.2 1059.8 1077.3 1218.8" stroke="#80EDBE" stroke-opacity="0.4" stroke-miterlimit="10"/>
<path d="M801.5 210.805C807.6 235.505 823.3 252.505 834.2 274.605C855.9 318.605 857.9 371.505 863.7 419.205C872.2 488.805 878.4 558.905 891 627.905C898.1 666.905 909.6 705.405 918.4 744.105C954.4 903.005 995.8 1060.8 1035.3 1218.9" stroke="#80EDBE" stroke-opacity="0.4" stroke-miterlimit="10"/>
<path d="M779.102 211.203C785.402 235.903 797.602 250.103 809.102 271.403C831.502 313.003 831.202 368.703 836.102 414.303C844.002 486.803 849.402 559.903 861.102 631.903C867.402 670.503 878.001 708.603 886.201 746.803C920.101 904.503 957.401 1061.6 993.401 1218.8" stroke="#80EDBE" stroke-opacity="0.4" stroke-miterlimit="10"/>
<path d="M756.602 212.602C762.302 236.602 772.902 250.002 784.202 270.502C806.902 311.902 804.702 371.402 809.002 416.702C816.102 491.102 820.502 566.302 832.002 640.202C837.702 676.702 846.802 712.802 854.102 749.002C885.602 905.802 918.902 1062.3 951.602 1218.9" stroke="#80EDBE" stroke-opacity="0.4" stroke-miterlimit="10"/>
<path d="M734.199 215.203C739.199 238.303 748.799 252.103 758.999 272.203C779.999 313.503 777.499 371.203 781.299 415.903C787.799 491.303 791.299 567.303 801.999 642.303C807.199 678.503 815.199 714.403 821.899 750.403C850.799 906.603 880.299 1062.8 909.599 1219" stroke="#80EDBE" stroke-opacity="0.4" stroke-miterlimit="10"/>
<path d="M711.801 219C716.201 241.5 725.101 256.3 734.101 276.4C753.501 319.7 750.601 377.3 754.201 423.5C762.801 533.6 771.701 642 789.801 750.9C815.701 906.9 841.801 1063 867.801 1219" stroke="#80EDBE" stroke-opacity="0.4" stroke-miterlimit="10"/>
<path d="M689.4 223.703C692.6 245.803 701.1 261.703 708.9 281.703C725.9 325.503 723.2 380.203 726.4 426.103C734.2 535.003 742.6 642.603 757.6 750.803C779.2 907.003 803.1 1062.9 825.8 1219" stroke="#80EDBE" stroke-opacity="0.4" stroke-miterlimit="10"/>
<path d="M667 229.305C670.2 251.105 677.4 268.605 683.9 289.105C697.4 331.505 695.6 380.805 698.4 424.605C705.5 533.705 713.5 642.005 725.4 750.605C742.6 906.905 764.4 1062.9 783.9 1219" stroke="#80EDBE" stroke-opacity="0.4" stroke-miterlimit="10"/>
<path d="M644.602 235.703C647.302 257.703 653.502 276.803 658.802 297.903C669.002 338.403 668.102 382.703 670.502 424.103C676.802 533.103 684.102 641.603 693.302 750.303C706.502 906.703 725.802 1062.8 742.002 1219" stroke="#80EDBE" stroke-opacity="0.4" stroke-miterlimit="10"/>
<path d="M622.199 242.703C624.299 264.303 628.999 284.203 633.199 305.303C641.599 347.203 641.099 391.503 643.099 434.003C648.299 539.403 654.699 644.603 661.099 749.903C670.699 906.403 687.099 1062.7 700.099 1219" stroke="#80EDBE" stroke-opacity="0.4" stroke-miterlimit="10"/>
<path d="M599.699 250.203C601.299 272.303 604.799 293.503 607.999 315.403C613.899 356.303 613.799 398.303 615.399 439.503C619.499 542.803 624.599 646.103 628.899 749.303C635.499 906.003 648.399 1062.4 658.099 1218.8" stroke="#80EDBE" stroke-opacity="0.4" stroke-miterlimit="10"/>
<path d="M577.301 258.102C580.301 322.002 586.001 385.302 587.901 449.402C590.801 549.202 594.301 649.002 596.801 748.902C600.801 905.702 609.801 1062.3 616.301 1219" stroke="#80EDBE" stroke-opacity="0.4" stroke-miterlimit="10"/>
<path d="M554.9 266.305C562.2 583.805 567.8 901.405 574.4 1219" stroke="#80EDBE" stroke-opacity="0.4" stroke-miterlimit="10"/>
<path d="M532.5 274.5C532.5 589.3 532.5 904.1 532.5 1218.9" stroke="#80EDBE" stroke-opacity="0.4" stroke-miterlimit="10"/>
<path d="M510.102 282.805C503.102 594.805 497.102 906.905 490.602 1218.9" stroke="#80EDBE" stroke-opacity="0.4" stroke-miterlimit="10"/>
<path d="M487.699 290.898C480.999 442.898 470.999 594.198 468.199 746.498C465.299 904.198 455.299 1061.3 448.699 1218.9" stroke="#80EDBE" stroke-opacity="0.4" stroke-miterlimit="10"/>
<path d="M465.301 298.805C461.301 359.205 454.601 419.705 449.201 480.005C441.201 568.605 438.301 657.005 436.001 746.005C433.901 828.205 435.801 911.405 422.501 992.705C410.401 1066.5 411.401 1144.3 406.801 1218.9" stroke="#80EDBE" stroke-opacity="0.4" stroke-miterlimit="10"/>
<path d="M442.801 306.305C437.701 365.105 430.201 424.905 421.601 483.205C408.801 570.405 406.701 657.405 403.801 745.505C401.101 827.205 407.101 914.705 386.001 994.305C378.301 1023.4 378.401 1055.1 376.001 1084.9C372.301 1129.6 368.601 1174.2 364.801 1218.9" stroke="#80EDBE" stroke-opacity="0.4" stroke-miterlimit="10"/>
<path d="M420.402 313.305C417.202 343.205 411.302 372.205 406.502 401.805C401.802 430.405 400.602 459.605 394.002 487.905C374.102 572.205 375.102 658.705 371.802 745.105C369.002 816.105 370.602 889.505 360.602 959.905C358.602 973.805 354.502 983.805 349.502 996.305C338.902 1023.3 339.902 1056.5 337.002 1084.9C332.402 1129.6 327.702 1174.2 323.102 1218.9" stroke="#80EDBE" stroke-opacity="0.4" stroke-miterlimit="10"/>
<path d="M398.002 319.703C394.002 350.603 386.902 380.403 381.102 411.003C376.002 438.003 375.902 467.203 365.902 493.003C360.702 506.403 355.002 517.803 352.502 532.303C340.402 601.403 342.802 674.903 339.602 744.803C336.302 817.703 338.802 894.303 326.002 966.403C323.602 979.903 318.402 987.003 312.502 998.203C299.902 1022.5 301.302 1056.8 298.002 1083.3C292.402 1128.5 286.702 1173.7 281.102 1218.9" stroke="#80EDBE" stroke-opacity="0.4" stroke-miterlimit="10"/>
<path d="M375.6 325.398C370.9 356.898 362.6 386.898 355.8 417.898C350.4 442.398 352 474.598 338 496.198C330.8 507.298 325.3 513.498 322.4 527.498C316.5 555.798 316.2 586.098 314.4 614.798C311.7 657.998 309.5 701.298 307.3 744.598C303.5 818.198 306.6 896.998 291.4 969.398C288.4 983.598 282.9 987.798 275.7 998.198C260.8 1019.8 262.4 1058.3 258.8 1083.3C252.2 1128.5 245.6 1173.7 239 1218.9" stroke="#80EDBE" stroke-opacity="0.4" stroke-miterlimit="10"/>
<path d="M353.201 330.102C347.801 361.902 338.401 392.002 330.601 423.202C325.101 445.302 326.801 481.402 310.301 498.602C301.001 508.202 296.301 508.302 292.401 524.502C285.701 552.702 285.301 583.602 283.301 612.302C280.201 656.302 277.701 700.402 275.201 744.402C272.401 792.702 269.801 841.002 266.201 889.302C264.201 915.602 263.501 943.102 257.101 968.802C253.501 983.002 247.001 987.602 239.201 998.202C223.301 1019.6 224.101 1058.1 219.901 1083.3C212.401 1128.5 204.801 1173.7 197.301 1218.9" stroke="#80EDBE" stroke-opacity="0.4" stroke-miterlimit="10"/>
<path d="M330.8 333.898C324.6 365.798 314.2 395.698 305.4 426.898C299.7 447.298 300.6 486.798 282.6 500.298C280 502.298 275.7 500.098 272.9 501.998C266 506.798 264.3 516.298 262.5 524.098C255.6 552.998 254.6 584.198 252.3 613.598C248.9 657.098 246.1 700.598 243.2 744.198C240.1 791.198 237.1 838.198 233.1 885.098C230.9 910.998 230.1 938.398 222.8 963.498C218.7 977.798 210.4 984.798 202.6 996.498C186.8 1020.2 186 1056.1 180.9 1083.3C172.4 1128.5 164 1173.7 155.5 1218.9" stroke="#80EDBE" stroke-opacity="0.4" stroke-miterlimit="10"/>
<path d="M308.4 336.5C301.5 368.3 290 397.7 280.2 428.5C274 448.1 273.9 489.6 254.8 501C251.7 502.9 247.2 501.1 244.1 503.3C236.7 508.4 234.6 518.1 232.5 526.3C225 555.3 223.8 586.9 221.1 616.6C217.4 658.7 214.2 700.9 211 743.1C207.5 788.1 204.1 833.2 199.7 878.2C197.2 903.4 196.1 930.1 188.3 954.4C183.4 969.6 173.5 979.9 165.9 993.4C150.8 1020.1 147.9 1053.9 141.7 1083.4C132.3 1128.6 122.9 1173.8 113.5 1219" stroke="#80EDBE" stroke-opacity="0.4" stroke-miterlimit="10"/>
<path d="M285.9 337.805C278.2 369.605 265.4 398.605 254.8 429.305C247.8 449.705 246.9 490.905 226.9 503.005C223.4 505.105 218.6 504.105 215.1 506.505C207.3 511.605 204.7 522.205 202.3 530.705C194.3 559.405 192.8 591.005 189.8 620.505C185.7 660.805 182.2 701.105 178.7 741.405C174.9 783.905 171.2 826.505 166.3 868.905C163.5 893.205 161.8 918.705 153.8 941.905C147.9 959.005 137 972.905 129.1 989.005C114.7 1018.3 109.8 1051.8 102.5 1083.4C92.1004 1128.6 81.8004 1173.8 71.4004 1219" stroke="#80EDBE" stroke-opacity="0.4" stroke-miterlimit="10"/>
<path d="M263.502 337.898C254.802 369.698 241.102 398.998 230.002 429.898C222.502 450.898 220.202 493.298 199.902 506.298C195.602 508.998 190.002 508.698 185.702 511.698C177.802 517.298 174.502 529.098 172.002 537.798C153.502 601.298 153.302 673.698 146.502 739.098C140.302 799.098 140.402 868.598 119.702 925.998C112.602 945.498 101.502 963.098 93.2015 982.098C78.9015 1014.9 71.7016 1050.5 63.1016 1085.1C51.9016 1129.8 40.8016 1174.4 29.6016 1219.1" stroke="#80EDBE" stroke-opacity="0.4" stroke-miterlimit="10"/>
<path d="M241.099 337.203C231.199 369.703 216.599 400.103 204.799 432.003C196.499 454.703 193.499 496.303 172.199 511.003C167.499 514.203 161.399 514.403 156.899 517.903C148.699 524.203 144.899 535.903 141.999 545.303C123.499 605.503 121.999 674.003 114.399 736.203C107.499 792.303 105.399 855.403 85.2993 908.903C76.7993 931.603 65.2992 953.003 56.5992 975.603C26.2992 1053.6 9.49922 1138.1 -12.3008 1218.8" stroke="#80EDBE" stroke-opacity="0.4" stroke-miterlimit="10"/>
<path d="M218.7 335.898C207 370.798 190.9 403.898 178.3 438.398C169.6 462.198 166.3 501.998 143.7 517.298C128.4 527.698 120.1 531.198 113.2 550.698C93.0003 607.598 90.9004 674.098 82.3004 733.398C74.8004 785.298 70.0004 840.498 51.4004 889.798C41.1004 917.198 28.8003 943.798 19.2003 971.598C-8.99968 1052.6 -30.0996 1136.6 -54.0996 1218.9" stroke="#80EDBE" stroke-opacity="0.4" stroke-miterlimit="10"/>
<path d="M196.3 334.102C183 370.502 166.3 405.502 153 441.902C143.8 467.302 139.5 507.502 115.9 524.302C100 535.602 90.6003 540.502 83.2003 560.502C63.5003 613.502 59.7003 674.802 50.1003 730.302C41.9003 777.702 34.3004 826.002 17.0004 871.002C5.00037 902.302 -7.19963 933.502 -17.4996 965.502C-44.4996 1049.7 -69.6996 1134.6 -96.0996 1219" stroke="#80EDBE" stroke-opacity="0.4" stroke-miterlimit="10"/>
<path d="M173.9 331.703C159.2 369.403 142.2 406.103 128.3 444.203C118.3 471.603 113.2 512.103 89.2 531.103C72.1 544.603 61.3 549.703 52.9 572.203C34.7 621.103 28.7 675.903 18 726.803C0.799999 808.303 -31.2 883.103 -55.1 962.603C-80.9 1048.6 -109.6 1133.7 -138 1218.9" stroke="#80EDBE" stroke-opacity="0.4" stroke-miterlimit="10"/>
<path d="M151.501 329C135.301 368.2 118.101 406.9 103.601 446.8C92.9007 476.3 87.0007 519.7 60.5007 540C42.5007 553.8 31.2007 561.2 22.5007 584C5.50073 628.6 -2.19924 677.4 -14.0992 723.6C-34.3992 802.1 -68.2992 876.1 -90.6992 954.2C-116.399 1043.8 -148.599 1131 -179.699 1218.9" stroke="#80EDBE" stroke-opacity="0.4" stroke-miterlimit="10"/>
<path d="M128.999 325.898C110.399 368.798 92.1992 411.598 76.5992 455.698C66.0992 485.298 59.3992 526.898 33.6992 547.698C14.4992 563.298 1.49929 571.598 -8.10071 596.398C-23.7007 636.698 -33.1008 679.398 -46.4008 720.398C-57.4008 754.398 -73.3007 785.298 -86.6007 818.198C-103.401 859.498 -114.601 903.198 -126.501 945.998C-152.301 1039.1 -187.901 1128.5 -221.801 1218.9" stroke="#80EDBE" stroke-opacity="0.4" stroke-miterlimit="10"/>
<path d="M106.601 322.398C86.4011 367.098 68.2012 412.298 51.9012 458.598C40.5012 490.998 33.1012 534.198 4.90118 556.798C-14.9988 572.798 -28.4988 582.798 -38.6988 607.898C-53.1988 643.898 -63.7988 681.498 -78.5988 717.398C-90.6988 746.698 -108.799 772.898 -120.599 802.098C-139.299 848.698 -151.199 898.098 -164.299 946.398C-189.699 1040 -228.199 1128.8 -263.799 1218.9" stroke="#80EDBE" stroke-opacity="0.4" stroke-miterlimit="10"/>
<path d="M84.2 318.805C62.4 365.305 44.1 413.005 27.2 461.605C15.4 495.505 7.20005 540.405 -21.7 564.505C-41 580.605 -56.3 589.905 -67.1 614.305C-81.9 647.705 -93.5 682.405 -110.7 714.805C-124.1 740.005 -143.5 762.105 -154.3 788.405C-175.5 839.805 -187.4 895.305 -201.9 948.805C-227.2 1042.1 -268.5 1130 -305.5 1219" stroke="#80EDBE" stroke-opacity="0.4" stroke-miterlimit="10"/>
<path d="M61.8004 314.898C38.4004 363.298 20.1003 413.498 2.70032 464.198C-9.79968 500.498 -18.6996 548.298 -50.4996 573.398C-70.8996 589.598 -85.9996 599.998 -97.5996 624.698C-111.6 654.598 -123.9 685.098 -142.9 712.398C-159.5 736.298 -179.7 755.698 -190.4 783.398C-210.6 835.498 -222.8 890.598 -237.6 944.398C-263.7 1039.6 -308.1 1128.7 -347.6 1218.9" stroke="#80EDBE" stroke-opacity="0.4" stroke-miterlimit="10"/>
<path d="M39.4012 310.898C14.5012 361.098 -3.79886 413.798 -21.8989 466.698C-34.7989 504.498 -44.2988 553.798 -76.9988 580.098C-98.2988 597.198 -115.599 607.798 -128.099 633.798C-141.199 661.198 -154.299 687.998 -174.999 710.598C-194.899 732.298 -212.799 748.798 -224.099 776.998C-245.199 829.598 -257.299 885.798 -272.899 940.198C-300.699 1037.3 -347.399 1127.3 -389.299 1218.8" stroke="#80EDBE" stroke-opacity="0.4" stroke-miterlimit="10"/>
<path d="M17.0016 306.898C-10.5984 361.398 -29.3984 419.298 -49.0984 476.998C-61.5984 513.798 -71.6984 560.598 -103.498 586.198C-124.398 602.998 -142.798 612.398 -156.398 637.098C-171.098 663.898 -183.398 689.598 -207.198 709.598C-230.398 729.098 -246.198 745.998 -257.998 775.098C-280.198 830.098 -293.598 888.598 -310.898 945.198C-340.098 1040.7 -388.398 1129.1 -431.398 1219" stroke="#80EDBE" stroke-opacity="0.4" stroke-miterlimit="10"/>
</svg>
