<svg width="100%" height="100%" viewBox="0 0 360 764" fill="none" xmlns="http://www.w3.org/2000/svg">
<mask id="mask0_612_26857" style="mask-type:alpha" maskUnits="userSpaceOnUse" x="-540" y="-92" width="1440" height="856">
<rect width="1440" height="856" transform="matrix(1 0 0 -1 -540 764)" fill="url(#paint0_linear_612_26857)" fill-opacity="0.7"/>
</mask>
<g mask="url(#mask0_612_26857)">
<path d="M-436.844 112.586C-390.901 105.419 -344.574 99.7243 -297.991 101.324C-255.183 102.796 -212.758 109.642 -170.654 117.065C-96.5563 130.183 -17.787 149.443 57.6549 136.965C132.585 124.552 200.412 87.3746 273.742 69.1381C291.403 64.7229 309.384 61.4595 327.62 60.1158C347.393 58.708 366.205 58.836 385.593 53.717C427.762 42.5191 465.77 18.9075 502.692 -3.6163C545.563 -29.7874 589.459 -59.0939 638.986 -70.6757C699.711 -84.8811 749.685 -54.2308 796.652 -18.7815C824.039 40.5994 837.093 110.346 875.998 163.776C885.084 176.254 896.666 183.997 907.992 193.979C921.621 206.008 932.819 221.302 942.929 236.275C965.069 269.037 980.746 306.406 1005.06 337.632C1025.86 364.315 1045.57 391.062 1064.83 418.961C1100.15 470.279 1143.4 515.774 1186.72 560.502C1207.97 582.386 1230.75 602.606 1253.65 622.762C1282.32 647.974 1307.66 675.872 1333 704.411C1149.1 704.347 965.133 704.411 781.231 704.411C504.291 704.411 227.351 704.411 -49.589 704.411C-357.371 704.411 -665.218 704.411 -973 704.411C-883.609 604.59 -794.217 504.704 -704.826 404.883C-664.642 359.772 -626.057 311.525 -581.009 271.02C-559.509 251.696 -536.282 234.099 -515.358 214.135C-484.132 184.444 -462.12 147.139 -436.844 112.586Z" stroke="#80EDBE" stroke-opacity="0.56" stroke-miterlimit="10"/>
<path d="M-953.803 682.785C-651.267 682.785 -348.732 682.785 -46.1968 682.785C87.5381 682.785 221.273 682.785 355.008 682.785C493.35 682.785 632.012 680.417 770.29 683.297C856.61 685.088 942.738 687.392 1029.06 687.648C1123.95 687.904 1218.72 682.273 1313.61 682.593" stroke="#80EDBE" stroke-opacity="0.56" stroke-miterlimit="10"/>
<path d="M-935.119 661.922C-637.703 661.922 -340.287 661.922 -42.8062 661.922C88.6891 661.922 220.12 661.922 351.616 661.922C418.099 661.922 484.647 661.922 551.131 661.922C620.685 661.922 690.369 660.323 759.796 664.162C844.836 668.897 929.364 677.407 1014.66 677.407C1108.27 677.407 1201.38 664.866 1294.93 662.242" stroke="#80EDBE" stroke-opacity="0.56" stroke-miterlimit="10"/>
<path d="M-917.075 641.703C-624.33 641.703 -331.585 641.703 -38.8398 641.703C90.032 641.703 218.84 641.703 347.712 641.703C414.003 641.703 480.359 641.703 546.65 641.703C614.798 641.703 683.265 639.4 751.22 645.735C834.66 653.477 917.525 670.05 1001.54 670.306C1093.88 670.562 1184.93 651.237 1276.75 644.007" stroke="#80EDBE" stroke-opacity="0.56" stroke-miterlimit="10"/>
<path d="M-899.541 622.124C-611.595 622.124 -323.649 622.124 -35.7029 622.124C91.0573 622.124 217.754 622.124 344.514 622.124C409.718 622.124 474.985 622.124 540.189 622.124C607.121 622.124 674.82 618.86 741.303 626.923C823.784 636.905 904.729 658.981 987.977 662.564C1079.16 666.467 1169.51 639.784 1259.22 627.755" stroke="#80EDBE" stroke-opacity="0.56" stroke-miterlimit="10"/>
<path d="M-882.585 603.182C-599.054 603.182 -315.459 603.182 -31.9283 603.182C93.4242 603.182 218.841 603.182 344.193 603.182C407.029 603.182 469.802 603.182 532.638 603.182C599.185 603.182 667.269 598.959 733.368 607.917C814.761 618.923 893.658 645.414 975.755 651.749C1065.98 658.66 1154.47 629.033 1242.26 612.908" stroke="#80EDBE" stroke-opacity="0.56" stroke-miterlimit="10"/>
<path d="M-866.14 584.819C-586.832 584.819 -307.524 584.819 -28.2166 584.819C94.7043 584.819 217.689 584.819 340.61 584.819C403.318 584.819 466.091 584.819 528.799 584.819C593.875 584.819 661.062 580.083 725.69 588.338C804.843 598.448 880.541 626.603 959.95 635.561C1051.07 645.799 1137.9 617.26 1225.88 598.128" stroke="#80EDBE" stroke-opacity="0.56" stroke-miterlimit="10"/>
<path d="M-850.206 567.029C-703.61 567.029 -557.141 566.389 -410.608 564.149C-344.125 563.126 -277.385 562.166 -210.902 564.725C-148.833 567.093 -86.765 571.7 -24.6326 571.828C95.9848 572.02 216.538 565.365 337.092 566.901C398.584 567.669 460.141 567.029 521.633 567.029C586.709 567.029 653.576 562.55 718.332 569.716C796.27 578.419 870.88 604.59 948.561 614.956C1038.21 626.858 1123.25 602.798 1210.02 583.538" stroke="#80EDBE" stroke-opacity="0.56" stroke-miterlimit="10"/>
<path d="M-834.786 549.752C-758.512 549.752 -682.111 550.839 -605.901 549.688C-537.114 548.664 -468.455 542.969 -399.732 540.217C-335.552 537.658 -271.308 537.21 -207.448 544.377C-145.443 551.351 -83.7589 562.485 -21.2426 564.469C98.5429 568.244 217.305 548.728 336.962 549.688C397.303 550.136 457.644 549.816 517.984 549.816C580.757 549.816 644.745 546.232 707.325 551.351C785.198 557.75 860.128 582.257 937.298 593.199C1025.47 605.741 1108.53 586.993 1194.4 568.5" stroke="#80EDBE" stroke-opacity="0.56" stroke-miterlimit="10"/>
<path d="M-819.749 533.051C-746.099 533.051 -671.937 535.355 -598.351 532.092C-529.115 529.02 -460.392 519.422 -391.285 514.623C-327.041 510.208 -265.101 511.871 -201.945 524.989C-141.028 537.658 -80.8155 555.639 -18.5551 560.438C99.7587 569.525 216.153 534.203 334.147 533.051C393.528 532.475 452.972 533.051 512.417 533.051C575.51 533.051 639.562 529.98 702.526 534.011C778.032 538.874 851.106 560.246 925.716 571.124C1012.48 583.794 1094.32 570.164 1179.49 553.016" stroke="#80EDBE" stroke-opacity="0.56" stroke-miterlimit="10"/>
<path d="M-805.224 516.735C-731.701 516.735 -657.219 520.191 -583.889 513.792C-517.15 507.969 -451.306 495.235 -384.63 488.709C-352.828 485.637 -320.322 483.014 -288.456 486.405C-256.654 489.796 -225.62 497.987 -195.226 507.457C-135.845 525.886 -77.36 550.329 -15.2277 557.752C41.8497 564.598 100.463 553.337 156.452 542.779C214.169 531.901 272.015 519.231 330.884 517.055C390.2 514.88 449.837 516.735 509.218 516.735C570.135 516.735 631.307 514.88 692.16 517.055C767.538 519.743 840.932 539.003 915.286 549.625C1000.33 561.783 1080.95 552.633 1164.9 537.34" stroke="#80EDBE" stroke-opacity="0.56" stroke-miterlimit="10"/>
<path d="M-791.082 500.993C-718.84 500.993 -645.637 504.768 -573.843 495.682C-507.039 487.236 -441.388 471.047 -374.456 463.368C-343.614 459.849 -312.708 457.417 -281.929 462.728C-249.743 468.295 -218.773 479.493 -188.635 491.779C-131.11 515.198 -74.1603 545.337 -12.028 554.615C43.7696 562.997 102.383 547.832 156.389 534.779C212.826 521.149 269.391 505.28 327.62 501.633C385.594 497.986 444.527 500.929 502.564 500.929C563.544 500.929 624.653 499.969 685.633 500.993C759.667 502.273 832.102 519.166 905.176 529.212C988.297 540.73 1068.22 535.227 1150.76 521.725" stroke="#80EDBE" stroke-opacity="0.56" stroke-miterlimit="10"/>
<path d="M-777.325 485.637C-706.49 485.637 -634.952 489.348 -564.821 478.022C-498.209 467.272 -433.006 448.332 -365.946 440.269C-334.784 436.494 -304.454 435.022 -273.74 442.381C-242.577 449.868 -213.015 462.985 -184.284 476.934C-128.615 503.937 -73.3291 538.107 -11.5166 548.921C44.0889 558.647 103.342 540.603 156.452 525.501C212.505 509.504 268.751 490.82 327.236 486.533C383.801 482.373 441.646 485.701 498.34 485.701C557.977 485.701 617.677 485.509 677.314 485.701C751.028 485.893 823.463 500.802 896.281 510.464C977.546 521.278 1056.06 518.527 1137.07 506.817" stroke="#80EDBE" stroke-opacity="0.56" stroke-miterlimit="10"/>
<path d="M-763.951 470.661C-692.669 470.661 -621.578 473.861 -551.255 460.231C-486.115 447.626 -422.319 427.405 -356.156 420.239C-326.017 416.975 -296.903 416.783 -267.532 425.038C-234.77 434.188 -204.184 449.993 -174.43 466.182C-122.023 494.785 -68.5296 530.426 -8.44481 539.96C47.6727 548.855 106.862 529.466 159.78 512.765C214.553 495.489 269.711 475.396 327.492 471.365C381.882 467.59 437.488 470.661 492.005 470.661C551.77 470.661 611.471 470.661 671.236 470.661C743.798 470.661 815.017 483.523 886.747 492.865C966.54 503.295 1043.9 502.847 1123.7 492.481" stroke="#80EDBE" stroke-opacity="0.56" stroke-miterlimit="10"/>
<path d="M-750.962 456.203C-679.039 456.203 -608.845 457.739 -538.01 443.149C-475.622 430.288 -414.065 411.795 -350.397 405.652C-285.961 399.446 -231.443 421.521 -175.326 451.084C-120.552 479.879 -64.6265 516.096 -1.98223 524.414C51.4478 531.517 109.293 512.256 159.779 497.155C212.698 481.286 265.808 463.242 321.093 457.739C377.531 452.108 436.144 456.395 492.837 455.947C550.362 455.499 607.888 454.859 665.413 455.307C735.608 455.819 804.139 466.377 873.502 475.975C953.359 486.981 1030.59 488.453 1110.77 479.047" stroke="#80EDBE" stroke-opacity="0.56" stroke-miterlimit="10"/>
<path d="M-738.292 442.061C-667.649 442.061 -599.438 441.805 -529.819 428.368C-467.559 416.338 -405.874 399.957 -342.462 395.158C-217.685 385.624 -118.696 484.229 1.72944 498.498C26.3008 501.378 51.7681 497.091 76.0836 493.187C105.39 488.452 134.377 481.798 163.235 474.951C216.409 462.281 269.711 448.396 324.293 443.533C378.619 438.67 434.416 441.869 488.998 440.205C546.46 438.414 603.857 436.302 661.382 436.814C731.705 437.454 800.044 447.884 869.471 458.25C946.32 469.704 1020.74 472.071 1098.16 464.393" stroke="#80EDBE" stroke-opacity="0.56" stroke-miterlimit="10"/>
<path d="M-726.006 428.305C-656.643 428.305 -589.647 426.769 -521.18 415.059C-458.856 404.373 -396.724 390.552 -333.375 387.417C-217.173 381.594 -113.001 454.476 1.15385 465.546C53.944 470.665 111.085 458.059 163.172 450.061C214.618 442.126 266 433.616 317.959 429.841C372.796 425.873 428.082 427.217 483.048 423.89C540.637 420.434 598.162 416.147 655.879 416.019C723.962 415.891 789.806 426.129 856.738 437.263C892.315 443.214 928.084 448.717 964.11 451.149C1004.68 453.9 1045.37 451.661 1085.88 448.461" stroke="#80EDBE" stroke-opacity="0.56" stroke-miterlimit="10"/>
<path d="M-714.04 414.93C-644.997 414.93 -577.938 412.562 -509.534 402.708C-449.834 394.134 -390.133 383.768 -329.664 381.912C-216.341 378.329 -108.074 424.72 4.67321 429.519C56.1196 431.695 108.462 426.576 159.78 423.568C212.442 420.497 265.04 417.169 317.767 415.57C371.836 413.906 425.394 412.498 479.272 407.443C534.302 402.26 589.332 395.989 644.617 394.518C712.637 392.662 778.288 403.092 844.964 415.314C880.477 421.841 916.118 428.239 952.144 431.695C992.648 435.534 1033.22 434.126 1073.78 431.887" stroke="#80EDBE" stroke-opacity="0.56" stroke-miterlimit="10"/>
<path d="M-702.395 401.941C-635.079 401.941 -569.108 399.574 -502.176 392.151C-442.411 385.496 -382.646 377.882 -322.37 377.242C-211.926 376.09 -102.251 392.151 8.12829 392.343C111.405 392.535 214.49 399.958 317.702 401.621C426.674 403.349 532.638 378.586 641.098 373.211C709.245 369.819 775.089 381.593 841.7 394.839C877.278 401.941 912.983 409.044 949.136 413.011C986.761 417.17 1024.45 416.467 1062.2 415.123" stroke="#80EDBE" stroke-opacity="0.56" stroke-miterlimit="10"/>
<path d="M-691.005 389.205C-625.417 389.205 -560.405 387.413 -495.01 382.23C-435.053 377.495 -375.352 373.592 -315.203 372.76C-207.319 371.224 -99.6917 359.515 8.19209 356.443C58.6146 354.971 109.997 363.29 159.844 369.945C211.226 376.855 262.608 384.47 314.375 387.797C422.323 394.708 527.135 361.242 634.059 352.924C700.926 347.741 765.426 359.131 830.566 373.08C866.143 380.695 901.785 388.629 937.874 393.62C975.499 398.867 1013 399.059 1050.88 398.355" stroke="#80EDBE" stroke-opacity="0.56" stroke-miterlimit="10"/>
<path d="M-679.935 376.858C-614.475 376.858 -549.399 375.707 -484.003 372.443C-426.67 369.564 -369.337 369.564 -312.003 367.388C-204.184 363.357 -99.6273 329.059 8.12855 323.94C59.5109 321.509 113.261 335.522 163.172 346.464C212.122 357.214 261.073 368.924 310.984 374.299C417.524 385.753 522.016 345.44 627.021 334.37C692.672 327.46 755.636 338.018 819.56 352.415C855.202 360.413 890.715 369.116 926.74 375.067C964.365 381.273 1001.67 382.553 1039.74 382.361" stroke="#80EDBE" stroke-opacity="0.56" stroke-miterlimit="10"/>
<path d="M-669.186 364.827C-603.854 364.827 -538.65 364.379 -473.318 362.715C-446.763 362.075 -420.144 361.371 -393.589 360.988C-363.067 360.54 -331.905 362.651 -301.51 359.9C-246.929 355.037 -193.947 340.127 -141.156 326.114C-91.8217 312.997 -40.0554 297.639 11.3909 296.168C61.1096 294.696 112.492 310.885 159.779 324.514C209.626 338.848 259.409 354.845 311.047 361.755C416.307 375.833 520.544 330.145 623.948 317.348C689.792 309.221 752.884 320.035 816.872 335.136C887.707 351.773 955.79 367.002 1028.93 367.258" stroke="#80EDBE" stroke-opacity="0.56" stroke-miterlimit="10"/>
<path d="M-658.627 353.052C-596.047 353.052 -533.466 353.116 -470.822 352.668C-441.516 352.476 -412.273 352.22 -382.967 352.156C-354.94 352.092 -326.465 353.884 -298.502 351.388C-191.067 341.854 -93.8047 275.818 14.7189 275.114C117.612 274.474 210.586 336.159 311.175 350.172C414.516 364.57 516.321 317.602 617.294 303.205C754.74 283.625 882.012 352.988 1018.43 353.5" stroke="#80EDBE" stroke-opacity="0.56" stroke-miterlimit="10"/>
<path d="M-648.389 341.601C-585.744 341.473 -523.164 341.537 -460.52 341.729C-404.85 341.921 -347.517 345.76 -292.103 340.641C-185.307 330.787 -90.7971 259.632 17.7906 261.872C119.212 263.984 208.731 323.556 307.784 338.274C409.717 353.375 511.202 307.879 610.576 292.394C673.732 282.54 733.817 289.579 795.821 303.784C865.952 319.781 935.507 341.025 1008.01 341.473" stroke="#80EDBE" stroke-opacity="0.56" stroke-miterlimit="10"/>
<path d="M-638.343 330.275C-575.954 329.572 -513.566 330.979 -451.114 332.131C-397.108 333.091 -340.926 337.25 -287.113 331.235C-182.748 319.589 -88.1738 250.226 18.3663 253.81C117.996 257.201 209.69 307.88 307.528 322.405C355.775 329.572 404.022 321.509 451.629 313.191C503.139 304.168 554.138 292.715 605.904 285.292C635.915 281.005 666.053 277.485 696.319 279.789C728.057 282.221 759.475 287.467 790.638 293.482C859.553 306.856 927.7 324.133 998.023 327.972" stroke="#80EDBE" stroke-opacity="0.56" stroke-miterlimit="10"/>
<path d="M-628.553 319.267C-567.38 319.011 -506.336 322.018 -445.227 324.386C-391.221 326.498 -334.72 331.233 -280.906 324.194C-226.708 317.091 -175.454 296.423 -124.135 278.763C-77.9359 262.893 -28.0252 246.449 21.4375 249.136C117.612 254.383 209.178 290.728 304.329 303.398C352.575 309.797 400.502 303.462 448.621 297.959C498.98 292.2 549.147 285.225 599.569 279.978C629.516 276.907 660.038 272.876 690.112 274.731C721.786 276.715 753.268 280.618 784.623 285.225C852.386 295.143 919.765 308.005 988.232 312.548" stroke="#80EDBE" stroke-opacity="0.56" stroke-miterlimit="10"/>
<path d="M-619.018 308.709C-559.317 309.412 -499.872 314.276 -440.299 318.115C-386.421 321.57 -329.984 326.945 -276.298 319.267C-175.325 304.805 -81.9662 242.481 21.8224 246.64C116.653 250.479 209.627 274.219 303.946 283.113C351.937 287.657 399.864 283.433 447.983 281.45C498.213 279.338 548.444 277.354 598.738 275.179C626.125 274.027 654.152 271.02 681.603 272.043C713.021 273.259 744.439 275.691 775.793 278.506C843.428 284.585 910.936 292.52 978.763 296.295" stroke="#80EDBE" stroke-opacity="0.56" stroke-miterlimit="10"/>
<path d="M-609.676 298.726C-549.783 300.838 -490.338 307.941 -430.637 313.252C-377.847 317.923 -322.945 323.426 -270.283 315.171C-170.206 299.558 -78.3193 242.417 24.8934 245.488C117.036 248.24 208.859 257.198 300.938 261.485C349.057 263.725 397.112 262.253 445.231 264.109C493.158 265.965 541.021 269.1 589.012 270.636C648.009 272.491 707.07 271.659 766.131 273.515C833.894 275.627 901.657 278.058 969.42 279.85" stroke="#80EDBE" stroke-opacity="0.56" stroke-miterlimit="10"/>
<path d="M-600.59 289.452C-540.761 293.227 -481.572 302.633 -421.999 309.416C-370.553 315.239 -317.379 320.614 -265.933 312.231C-166.815 296.043 -76.9119 244.916 25.213 245.108C117.1 245.236 208.859 240.821 300.681 240.117C346.625 239.733 392.12 240.629 437.808 245.94C488.166 251.827 538.077 260.721 588.435 266.288C711.484 279.854 836.965 266.096 960.334 264.24" stroke="#80EDBE" stroke-opacity="0.56" stroke-miterlimit="10"/>
<path d="M-591.632 280.811C-482.02 291.113 -368.25 328.418 -257.87 308.709C-208.28 299.879 -160.737 282.474 -112.618 268.013C-66.8021 254.32 -22.2665 246.001 25.5326 244.721C117.675 242.226 208.602 224.693 300.489 218.87C347.008 215.927 391.672 218.998 437.359 228.021C485.35 237.491 532.51 250.864 580.501 260.399C703.678 284.842 827.814 257.391 951.375 249.457" stroke="#80EDBE" stroke-opacity="0.56" stroke-miterlimit="10"/>
<path d="M-582.929 272.746C-475.813 286.119 -366.137 325.152 -257.486 306.34C-206.743 297.573 -158.112 279.977 -108.778 265.771C-62.6422 252.526 -18.5544 246.895 29.1166 243.887C119.788 238.128 207.003 209.782 296.906 198.968C344.13 193.273 387.577 197.624 433.521 209.91C482.984 223.091 530.783 241.776 580.117 255.405C607.12 262.828 634.763 268.843 662.726 270.954C691.201 273.13 720.635 269.099 748.854 265.515C813.738 257.325 877.726 243.631 942.674 236.017" stroke="#80EDBE" stroke-opacity="0.56" stroke-miterlimit="10"/>
<path d="M-574.482 265.198C-467.047 281.899 -359.483 322.467 -249.743 301.991C-200.536 292.841 -153.121 276.14 -104.938 262.83C-84.2702 257.136 -63.4741 252.016 -42.2941 248.433C-17.3388 244.21 7.61654 244.466 32.6998 242.034C122.027 233.396 205.34 195.963 293.387 180.606C315.655 176.703 338.371 173.375 361.022 176.063C384.442 178.814 407.414 184.765 429.81 192.124C478.376 207.993 524.448 230.261 572.503 247.473C599.25 257.072 626.7 265.198 654.919 268.845C683.458 272.557 712.637 268.269 740.855 263.726C805.931 253.36 869.343 234.932 934.355 223.926" stroke="#80EDBE" stroke-opacity="0.56" stroke-miterlimit="10"/>
<path d="M-566.1 257.965C-459.56 277.61 -355.323 318.178 -245.776 297.382C-197.913 288.296 -151.649 272.491 -104.682 259.885C-81.7743 253.742 -58.6747 248.239 -35.1911 244.784C-12.5393 241.457 10.2404 242.096 32.8922 239.473C123.435 228.915 204.7 182.524 293.259 163.647C315.463 158.912 338.179 155.009 360.831 158.08C384.442 161.216 407.35 168.19 429.554 176.701C477.161 194.873 521.761 220.021 568.6 240.049C595.091 251.375 622.414 261.229 650.952 265.964C679.683 270.763 708.414 266.476 736.824 261.165C800.812 249.199 862.433 227.379 925.973 213.43" stroke="#80EDBE" stroke-opacity="0.56" stroke-miterlimit="10"/>
<path d="M-557.975 250.992C-452.906 272.94 -352.125 312.677 -243.41 291.881C-194.651 282.538 -147.555 266.605 -99.5645 254.192C-79.0243 248.881 -58.3562 244.21 -37.3682 241.01C-13.6926 237.491 10.1109 238.259 33.7225 235.251C124.969 223.861 203.995 169.983 292.554 148.548C313.222 143.556 335.042 139.269 356.35 141.637C379.898 144.196 402.805 151.555 424.625 160.513C473.704 180.606 518.624 209.336 566.359 232.308C592.466 244.849 619.725 256.047 648.263 261.486C675.586 266.669 702.717 263.214 729.784 257.903C793.9 245.425 854.689 220.406 917.717 203.897" stroke="#80EDBE" stroke-opacity="0.56" stroke-miterlimit="10"/>
<path d="M-550.039 244.018C-493.858 256.879 -439.02 275.372 -382.262 285.61C-333.056 294.504 -285.001 293.8 -235.986 283.818C-189.851 274.412 -144.995 259.695 -99.4355 248.049C-76.7197 242.226 -53.684 237.171 -30.4564 234.1C-7.99657 231.156 14.7192 232.18 37.115 229.172C128.042 217.143 204.444 158.018 292.427 135.622C339.01 123.784 380.475 128.967 424.434 148.036C471.338 168.448 513.89 197.434 558.937 221.43C584.852 235.251 611.919 247.857 640.714 254.448C669.188 260.975 697.599 258.543 726.01 253.04C789.102 240.754 848.355 214.007 909.783 195.771" stroke="#80EDBE" stroke-opacity="0.56" stroke-miterlimit="10"/>
<path d="M-542.232 237.105C-487.587 250.351 -434.029 268.395 -378.615 278.121C-329.28 286.76 -281.289 284.84 -232.338 274.666C-185.115 264.876 -139.172 249.903 -92.3967 238.513C-71.9205 233.522 -51.2524 229.171 -30.3283 226.419C-7.86853 223.412 14.7832 224.435 37.243 221.748C127.658 210.934 202.268 149.441 289.036 126.342C334.851 114.12 377.403 118.215 420.851 136.836C468.074 156.992 510.434 186.618 555.29 211.318C580.053 224.947 605.777 237.617 633.227 244.912C661.51 252.462 689.793 251.566 718.395 246.575C781.744 235.569 840.932 208.374 901.913 189.114" stroke="#80EDBE" stroke-opacity="0.56" stroke-miterlimit="10"/>
<path d="M-534.618 230.964C-481.508 243.506 -429.102 259.695 -375.16 268.525C-325.441 276.652 -278.026 273.964 -228.819 263.918C-182.94 254.576 -138.02 241.074 -92.397 230.58C-71.8569 225.845 -51.1887 221.686 -30.3287 218.934C-7.86887 215.927 14.7829 216.567 37.2427 213.879C127.466 203.065 202.332 142.149 288.972 119.113C333.827 107.211 374.459 111.626 417.395 128.583C464.235 147.14 507.107 174.271 551.706 197.306C577.877 210.872 604.88 223.477 633.419 231.092C659.782 238.195 684.033 238.131 710.908 233.908C773.681 224.117 833.51 201.082 894.298 183.485" stroke="#80EDBE" stroke-opacity="0.56" stroke-miterlimit="10"/>
<path d="M-527.132 224.758C-473.894 236.532 -421.104 251.121 -366.97 258.608C-318.339 265.391 -271.884 261.488 -223.893 252.209C-179.101 243.571 -135.013 231.733 -90.4137 222.455C-69.7455 218.168 -48.9494 214.392 -28.0253 211.833C-5.43757 209.081 17.4061 209.721 39.8659 206.714C127.913 194.94 201.564 137.223 286.156 114.059C331.139 101.773 371.516 105.869 415.22 121.226C461.931 137.607 505.443 161.666 550.298 182.334C600.529 205.434 650.759 224.374 706.621 216.76C767.666 208.505 826.983 191.037 886.811 176.767" stroke="#80EDBE" stroke-opacity="0.56" stroke-miterlimit="10"/>
<path d="M-519.837 218.296C-466.663 228.854 -413.681 241.396 -359.739 247.538C-312.644 252.849 -267.084 248.498 -220.501 240.5C-174.622 232.565 -129.318 221.879 -83.5026 213.817C-63.9863 210.361 -44.342 207.418 -24.6337 205.37C-3.19769 203.131 18.5582 203.707 39.9302 200.891C127.85 189.309 201.692 132.36 286.284 109.644C329.732 97.9344 369.085 101.582 411.956 114.059C456.94 127.177 499.812 146.501 543.388 163.65C595.026 183.934 647.496 202.299 703.486 196.284C762.611 189.885 821.032 178.559 879.581 168.641" stroke="#80EDBE" stroke-opacity="0.56" stroke-miterlimit="10"/>
<path d="M-512.67 211.51C-460.584 220.34 -408.561 230.515 -355.835 235.25C-308.676 239.537 -262.477 235.186 -215.766 228.275C-170.91 221.684 -126.438 212.918 -81.5827 206.391C-40.3744 200.376 1.47378 200.952 42.4901 195.129C129.386 182.907 202.844 127.75 286.86 105.674C373.052 83.0221 460.524 121.223 542.109 146.37C591.571 161.599 643.274 177.149 695.424 173.309C754.485 169.022 813.418 163.647 872.351 158.528" stroke="#80EDBE" stroke-opacity="0.56" stroke-miterlimit="10"/>
<path d="M-505.631 204.409C-454.824 211.32 -404.018 219.063 -352.827 222.582C-305.86 225.781 -259.277 222.07 -212.566 216.567C-168.926 211.448 -125.478 204.729 -81.8383 199.738C-40.63 195.003 1.4741 196.155 42.4264 190.524C128.042 178.814 200.989 125.704 283.597 103.628C366.206 81.5524 454.189 109.963 535.198 127.56C584.981 138.374 637.195 150.595 688.449 148.484C747.382 145.988 806.443 146.884 865.376 147.204" stroke="#80EDBE" stroke-opacity="0.56" stroke-miterlimit="10"/>
<path d="M-498.785 196.856C-447.915 201.975 -397.044 207.542 -345.918 209.718C-299.079 211.702 -252.367 208.63 -205.72 204.535C-163.36 200.824 -121.064 196.216 -78.6399 192.761C-37.4956 189.434 4.92849 191.545 45.6889 185.594C129.833 173.181 202.139 122.374 283.66 101.002C324.741 90.2523 364.925 92.4919 406.837 96.0752C448.685 99.6585 490.341 105.098 532.062 110.089C582.868 116.167 634.251 122.694 685.505 122.182C743.414 121.542 801.003 128.325 858.465 134.212" stroke="#80EDBE" stroke-opacity="0.56" stroke-miterlimit="10"/>
<path d="M-492.002 188.987C-395.764 195.129 -300.55 198.521 -204.184 193.466C-161.952 191.226 -119.784 188.411 -77.5516 186.427C-36.6633 184.443 5.76076 187.323 46.2652 181.436C129.834 169.278 202.14 119.751 283.213 98.8274C322.629 88.6533 362.046 90.253 402.358 90.8929C445.102 91.5328 487.847 92.4286 530.591 93.3244C581.589 94.3482 632.587 94.6682 683.586 95.5C740.407 96.4598 796.269 108.81 851.746 120.007" stroke="#80EDBE" stroke-opacity="0.56" stroke-miterlimit="10"/>
<path d="M-485.411 180.734C-389.941 183.357 -294.471 184.381 -198.937 182.589C-156.961 181.822 -114.921 180.734 -72.9444 180.158C-33.3998 179.582 7.68048 182.973 46.8411 177.342C129.898 165.441 202.076 117.194 282.765 96.7815C321.734 86.9273 361.534 88.3991 401.463 86.2875C442.863 84.1119 484.199 80.6565 525.599 77.3931C575.958 73.4259 627.212 67.9229 677.827 69.0107C735.032 70.2265 790.894 88.4631 845.22 104.78" stroke="#80EDBE" stroke-opacity="0.56" stroke-miterlimit="10"/>
<path d="M-478.949 172.223C-385.079 171.455 -291.4 170.879 -197.53 172.287C-154.53 172.927 -111.53 173.631 -68.4662 174.271C-30.2653 174.847 9.47123 178.622 47.3521 173.247C128.745 161.665 200.028 115.786 278.989 95.3735C318.853 85.0714 359.87 86.4151 400.502 81.68C440.75 77.0089 480.615 69.7143 520.543 62.7396C570.262 54.0372 621.389 43.8631 672.003 43.2232C729.144 42.5194 786.542 68.0506 838.628 88.5267" stroke="#80EDBE" stroke-opacity="0.56" stroke-miterlimit="10"/>
<path d="M-472.55 163.455C-422.831 161.407 -373.048 159.36 -323.266 158.144C-280.266 157.12 -236.818 160.447 -193.818 162.495C-151.202 164.543 -108.65 166.782 -66.034 168.638C-28.2171 170.238 11.0716 174.333 48.6965 168.958C129.129 157.44 199.964 113.032 278.094 93.1321C317.638 83.022 358.335 84.4937 398.455 77.583C438.64 70.6723 477.992 59.8583 517.345 49.4283C566.487 36.3747 616.398 23.0012 667.333 19.4819C723.706 15.5786 783.279 48.4684 832.358 72.08" stroke="#80EDBE" stroke-opacity="0.56" stroke-miterlimit="10"/>
<path d="M-466.343 154.63C-417.2 151.111 -367.801 147.016 -318.466 146.248C-275.85 145.544 -232.723 150.023 -190.298 153.286C-148.13 156.55 -105.962 160.261 -63.7302 163.077C-26.2332 165.572 12.5435 169.859 49.9125 164.42C129.386 152.903 199.836 109.967 277.07 90.4502C316.359 80.5321 356.735 82.1958 396.28 73.5574C436.464 64.791 475.305 50.8416 514.018 37.3402C562.328 20.4473 611.407 3.29854 662.598 -2.33241C719.163 -8.53925 778.864 28.8937 826.023 55.2568" stroke="#80EDBE" stroke-opacity="0.56" stroke-miterlimit="10"/>
<path d="M-460.199 145.799C-411.76 141 -362.49 134.985 -313.731 135.177C-271.435 135.305 -228.755 140.36 -186.778 144.776C-144.994 149.191 -103.274 154.182 -61.4259 157.765C-24.2489 160.965 14.016 165.252 51.129 159.813C129.706 148.295 199.709 106.703 276.175 87.5064C315.208 77.7162 355.264 79.6999 394.233 69.8457C434.481 59.6716 472.746 43.0347 510.883 26.9097C558.298 6.81751 606.673 -14.2345 658.055 -21.5292C715.453 -29.6557 773.746 9.88894 819.945 38.8115" stroke="#80EDBE" stroke-opacity="0.56" stroke-miterlimit="10"/>
<path d="M-454.186 137.092C-406.45 131.333 -357.308 123.974 -309.125 125.254C-267.021 126.342 -225.044 131.461 -183.324 136.9C-141.924 142.275 -100.652 148.29 -59.1235 152.513C-22.2665 156.288 15.5505 160.32 52.4076 154.817C130.089 143.235 199.644 102.858 275.342 83.9818C314.055 74.3196 353.855 76.6872 392.312 66.0012C432.624 54.8033 470.441 35.9908 507.874 17.6902C554.458 -5.02552 602.065 -29.4689 653.639 -38.2993C712.06 -48.2814 768.178 -8.48087 814.057 22.6813" stroke="#80EDBE" stroke-opacity="0.56" stroke-miterlimit="10"/>
<path d="M-448.299 128.521C-401.076 121.995 -352.381 114.38 -304.582 116.236C-262.798 117.835 -221.269 123.338 -179.933 129.481C-138.981 135.624 -98.0924 142.471 -56.8842 147.078C-20.347 151.173 17.022 154.884 53.5591 149.317C130.409 137.672 199.452 98.383 274.382 79.6985C312.711 70.1642 352.383 72.9157 390.264 61.9738C430.641 50.328 468.009 29.7878 504.739 9.88755C550.554 -14.8758 597.457 -42.1987 649.159 -52.3088C708.54 -63.9546 762.226 -25.6258 808.042 7.39201" stroke="#80EDBE" stroke-opacity="0.56" stroke-miterlimit="10"/>
<path d="M-442.54 120.33C-396.661 113.483 -349.693 106.572 -303.174 108.172C-260.238 109.644 -217.622 115.978 -175.262 122.953C-100.012 135.431 -19.1953 155.523 57.2064 143.109C133.544 130.696 202.395 91.983 277.261 74.0024C313.286 65.364 350.719 68.3714 386.297 58.4533C428.209 46.8074 466.41 24.2197 503.715 2.46375C547.994 -23.3234 593.362 -51.99 644.04 -63.06C704.381 -76.2415 755.955 -41.1121 802.283 -6.55856" stroke="#80EDBE" stroke-opacity="0.56" stroke-miterlimit="10"/>
<path d="M352 59.2852C355.903 75.0902 365.949 85.9682 372.924 100.11C386.809 128.264 388.089 162.114 391.801 192.636C397.239 237.172 401.207 282.027 409.269 326.179C413.812 351.135 421.171 375.77 426.802 400.533C449.838 502.21 476.329 603.183 501.604 704.348" stroke="#80EDBE" stroke-opacity="0.56" stroke-miterlimit="10"/>
<path d="M337.666 59.541C341.697 75.3461 349.504 84.4324 356.862 98.0618C371.196 124.681 371.004 160.322 374.139 189.501C379.194 235.892 382.65 282.667 390.136 328.739C394.167 353.438 400.95 377.817 406.197 402.261C427.889 503.17 451.757 603.695 474.792 704.284" stroke="#80EDBE" stroke-opacity="0.56" stroke-miterlimit="10"/>
<path d="M323.27 60.4355C326.917 75.7927 333.7 84.3671 340.93 97.4846C355.455 123.976 354.048 162.049 356.799 191.035C361.342 238.642 364.158 286.761 371.517 334.048C375.164 357.404 380.987 380.504 385.658 403.667C405.814 504.001 427.122 604.142 448.046 704.347" stroke="#80EDBE" stroke-opacity="0.56" stroke-miterlimit="10"/>
<path d="M308.935 62.1016C312.134 76.8828 318.277 85.7131 324.804 98.5747C338.241 125.002 336.641 161.923 339.073 190.526C343.232 238.772 345.472 287.403 352.318 335.394C355.646 358.558 360.765 381.53 365.052 404.565C383.545 504.515 402.421 604.464 421.17 704.413" stroke="#80EDBE" stroke-opacity="0.56" stroke-miterlimit="10"/>
<path d="M294.603 64.5312C297.418 78.9286 303.113 88.3988 308.872 101.26C321.285 128.967 319.43 165.824 321.733 195.387C327.236 265.838 332.931 335.201 344.513 404.883C361.086 504.705 377.787 604.59 394.424 704.411" stroke="#80EDBE" stroke-opacity="0.56" stroke-miterlimit="10"/>
<path d="M280.269 67.5391C282.316 81.6804 287.755 91.8545 292.746 104.652C303.624 132.679 301.897 167.68 303.944 197.051C308.935 266.734 314.31 335.585 323.908 404.82C337.73 504.769 353.023 604.526 367.548 704.412" stroke="#80EDBE" stroke-opacity="0.56" stroke-miterlimit="10"/>
<path d="M265.937 71.125C267.984 85.0744 272.591 96.2723 276.751 109.39C285.389 136.521 284.237 168.067 286.029 196.094C290.572 265.905 295.691 335.204 303.306 404.694C314.311 504.708 328.261 604.529 340.738 704.414" stroke="#80EDBE" stroke-opacity="0.56" stroke-miterlimit="10"/>
<path d="M251.604 75.2188C253.331 89.2961 257.298 101.518 260.69 115.019C267.217 140.934 266.641 169.281 268.176 195.772C272.208 265.519 276.879 334.946 282.766 404.501C291.212 504.578 303.562 604.464 313.928 704.413" stroke="#80EDBE" stroke-opacity="0.56" stroke-miterlimit="10"/>
<path d="M237.269 79.6973C238.612 93.5187 241.62 106.252 244.307 119.754C249.682 146.565 249.362 174.911 250.642 202.106C253.969 269.55 258.065 336.865 262.16 404.244C268.303 504.386 278.797 604.399 287.115 704.412" stroke="#80EDBE" stroke-opacity="0.56" stroke-miterlimit="10"/>
<path d="M222.871 84.498C223.895 98.6394 226.135 112.205 228.182 126.218C231.957 152.389 231.893 179.264 232.917 205.627C235.541 271.727 238.804 337.827 241.556 403.862C245.779 504.131 254.033 604.209 260.24 704.286" stroke="#80EDBE" stroke-opacity="0.56" stroke-miterlimit="10"/>
<path d="M208.539 89.5527C210.459 130.441 214.106 170.945 215.322 211.962C217.177 275.822 219.417 339.682 221.017 403.606C223.576 503.939 229.335 604.144 233.494 704.414" stroke="#80EDBE" stroke-opacity="0.56" stroke-miterlimit="10"/>
<path d="M194.205 94.7988C198.876 297.961 202.46 501.187 206.683 704.413" stroke="#80EDBE" stroke-opacity="0.56" stroke-miterlimit="10"/>
<path d="M179.872 100.043C179.872 301.477 179.872 502.912 179.872 704.346" stroke="#80EDBE" stroke-opacity="0.56" stroke-miterlimit="10"/>
<path d="M165.538 105.357C161.059 305 157.22 504.707 153.061 704.349" stroke="#80EDBE" stroke-opacity="0.56" stroke-miterlimit="10"/>
<path d="M151.205 110.537C146.918 207.799 140.519 304.613 138.728 402.066C136.872 502.976 130.473 603.501 126.25 704.346" stroke="#80EDBE" stroke-opacity="0.56" stroke-miterlimit="10"/>
<path d="M136.872 115.596C134.313 154.244 130.026 192.957 126.57 231.542C121.451 288.235 119.596 344.801 118.124 401.75C116.78 454.348 117.996 507.586 109.486 559.609C101.743 606.832 102.383 656.614 99.4395 704.349" stroke="#80EDBE" stroke-opacity="0.56" stroke-miterlimit="10"/>
<path d="M122.475 120.395C119.212 158.019 114.413 196.284 108.91 233.589C100.719 289.387 99.3754 345.056 97.5198 401.43C95.7921 453.708 99.6314 509.698 86.1299 560.632C81.2028 579.253 81.2668 599.537 79.7311 618.605C77.3635 647.208 74.996 675.746 72.5645 704.349" stroke="#80EDBE" stroke-opacity="0.56" stroke-miterlimit="10"/>
<path d="M108.141 124.875C106.094 144.007 102.318 162.564 99.2469 181.504C96.2394 199.805 95.4716 218.489 91.2484 236.598C78.5148 290.54 79.1547 345.89 77.0431 401.175C75.2514 446.607 76.2752 493.574 69.8764 538.622C68.5966 547.516 65.9731 553.915 62.7737 561.913C55.991 579.19 56.6309 600.434 54.7752 618.607C51.8318 647.209 48.8243 675.748 45.8809 704.35" stroke="#80EDBE" stroke-opacity="0.56" stroke-miterlimit="10"/>
<path d="M93.8088 128.969C91.2493 148.741 86.7062 167.809 82.9948 187.39C79.7315 204.667 79.6675 223.351 73.2687 239.86C69.9413 248.434 66.294 255.729 64.6943 265.007C56.9517 309.223 58.4874 356.254 56.4398 400.982C54.3282 447.629 55.9279 496.644 47.7375 542.779C46.2018 551.418 42.8744 555.961 39.0991 563.127C31.0366 578.676 31.9324 600.624 29.8208 617.581C26.2375 646.504 22.5902 675.426 19.0068 704.349" stroke="#80EDBE" stroke-opacity="0.56" stroke-miterlimit="10"/>
<path d="M79.475 132.613C76.4676 152.77 71.1566 171.966 66.8054 191.802C63.3501 207.479 64.3738 228.083 55.4155 241.905C50.8084 249.007 47.2891 252.975 45.4334 261.933C41.6581 280.042 41.4661 299.43 40.3144 317.795C38.5867 345.437 37.179 373.144 35.7712 400.851C33.3397 447.946 35.3233 498.369 25.5971 544.696C23.6775 553.782 20.1581 556.47 15.551 563.125C6.01674 576.946 7.04061 601.581 4.73704 617.578C0.513832 646.501 -3.70941 675.424 -7.93262 704.346" stroke="#80EDBE" stroke-opacity="0.56" stroke-miterlimit="10"/>
<path d="M65.141 135.623C61.6857 155.971 55.6708 175.232 50.6798 195.196C47.1604 209.337 48.2483 232.437 37.6902 243.443C31.7394 249.586 28.7319 249.65 26.2364 260.016C21.9492 278.06 21.6932 297.833 20.4135 316.197C18.4299 344.352 16.8301 372.571 15.2304 400.725C13.4387 431.632 11.775 462.538 9.47147 493.444C8.19171 510.273 7.74381 527.87 3.64857 544.314C1.34501 553.401 -2.81423 556.344 -7.8053 563.127C-17.9794 576.82 -17.4674 601.456 -20.1549 617.581C-24.954 646.503 -29.8171 675.426 -34.6162 704.349" stroke="#80EDBE" stroke-opacity="0.56" stroke-miterlimit="10"/>
<path d="M50.8087 138.051C46.8415 158.463 40.1867 177.595 34.5557 197.56C30.9084 210.613 31.4843 235.888 19.9664 244.527C18.3028 245.807 15.5513 244.399 13.7596 245.615C9.34446 248.686 8.25665 254.765 7.10487 259.756C2.6897 278.249 2.04985 298.213 0.578122 317.025C-1.59747 344.86 -3.3892 372.695 -5.24485 400.594C-7.22848 430.668 -9.1481 460.742 -11.7076 490.753C-13.1154 507.326 -13.6272 524.858 -18.2983 540.919C-20.9218 550.07 -26.2329 554.549 -31.224 562.035C-41.3341 577.201 -41.8459 600.172 -45.1093 617.577C-50.5483 646.5 -55.9233 675.422 -61.3623 704.345" stroke="#80EDBE" stroke-opacity="0.56" stroke-miterlimit="10"/>
<path d="M36.4754 139.717C32.0602 160.065 24.7015 178.877 18.4307 198.586C14.4634 211.127 14.3995 237.682 2.1778 244.977C0.194168 246.193 -2.68534 245.041 -4.66897 246.449C-9.40408 249.712 -10.7478 255.919 -12.0916 261.166C-16.8907 279.723 -17.6585 299.943 -19.3862 318.947C-21.7538 345.886 -23.8014 372.889 -25.849 399.892C-28.0886 428.687 -30.2642 457.545 -33.0797 486.34C-34.6794 502.465 -35.3832 519.55 -40.3742 535.099C-43.5096 544.825 -49.8445 551.416 -54.7076 560.054C-64.3698 577.139 -66.2255 598.767 -70.1927 617.643C-76.2076 646.566 -82.2224 675.488 -88.2373 704.411" stroke="#80EDBE" stroke-opacity="0.56" stroke-miterlimit="10"/>
<path d="M22.0775 140.553C17.1505 160.901 8.96 179.457 2.17727 199.102C-2.30189 212.155 -2.8778 238.518 -15.6754 246.261C-17.915 247.605 -20.9864 246.965 -23.226 248.501C-28.2171 251.764 -29.8807 258.547 -31.4164 263.986C-36.5355 282.35 -37.4953 302.57 -39.4149 321.447C-42.0384 347.234 -44.2781 373.021 -46.5177 398.808C-48.9492 426.003 -51.3167 453.262 -54.4521 480.393C-56.2438 495.942 -57.3316 512.259 -62.4506 527.104C-66.2259 538.046 -73.2007 546.941 -78.2557 557.243C-87.47 575.991 -90.6054 597.427 -95.2765 617.647C-101.931 646.57 -108.522 675.493 -115.177 704.415" stroke="#80EDBE" stroke-opacity="0.56" stroke-miterlimit="10"/>
<path d="M7.74416 140.609C2.1772 160.958 -6.58915 179.706 -13.6918 199.478C-18.4909 212.916 -19.9626 240.047 -32.9522 248.365C-35.7037 250.093 -39.2871 249.901 -42.0385 251.821C-47.0936 255.404 -49.2052 262.954 -50.8049 268.521C-62.6427 309.154 -62.7706 355.481 -67.1218 397.329C-71.0891 435.722 -71.0251 480.194 -84.2706 516.923C-88.8138 529.4 -95.9165 540.662 -101.227 552.82C-110.378 573.808 -114.985 596.588 -120.488 618.728C-127.654 647.33 -134.757 675.869 -141.924 704.472" stroke="#80EDBE" stroke-opacity="0.56" stroke-miterlimit="10"/>
</g>
<defs>
<linearGradient id="paint0_linear_612_26857" x1="626.325" y1="383.948" x2="626.325" y2="0" gradientUnits="userSpaceOnUse">
<stop/>
<stop offset="1" stop-opacity="0"/>
</linearGradient>
</defs>
</svg>
