<svg width="276" height="56" viewBox="0 0 276 56" fill="none" xmlns="http://www.w3.org/2000/svg">
<g clip-path="url(#clip0_941:12870)">
<path d="M224.111 12.9343C219.695 12.9343 215.752 14.7484 212.913 17.7456L192.41 37.0696C190.518 38.8048 188.152 39.7512 185.707 39.6724C185.55 39.6724 185.392 39.6724 185.234 39.6724C179.793 39.278 175.377 34.7822 174.983 29.34C174.746 26.185 175.85 23.1879 177.979 20.9005C180.108 18.6132 183.026 17.3512 186.18 17.3512C188.783 17.3512 191.385 18.2977 193.356 19.9541C194.303 20.7428 195.722 20.6639 196.511 19.7174C197.299 18.771 197.22 17.3512 196.274 16.5625C193.435 14.1963 189.887 12.8555 186.18 12.8555C181.843 12.8555 177.743 14.6696 174.746 17.8245C171.75 21.0583 170.251 25.1597 170.567 29.5766C171.119 37.2273 177.27 43.4583 184.919 44.0104C185.155 44.0104 185.392 44.0104 185.55 44.0104C185.707 44.0104 185.865 44.0104 186.023 44.0104C189.414 44.0104 192.883 42.5907 195.486 40.1456L208.655 27.7625C208.655 27.9991 208.655 28.1569 208.655 28.3935C208.655 36.9907 215.673 44.0104 224.268 44.0104C227.028 44.0104 229.788 43.3005 232.154 41.8808C233.179 41.2498 233.574 39.909 232.943 38.8048C232.312 37.7794 230.971 37.385 229.867 38.016C228.132 39.0414 226.24 39.5146 224.19 39.5146C218.039 39.5146 212.992 34.5456 212.992 28.3146C212.992 25.3963 214.175 22.7146 215.988 20.6639L216.304 20.3484C216.383 20.2696 216.383 20.2696 216.462 20.1907C218.433 18.2977 221.193 17.1146 224.111 17.1146C230.262 17.1146 235.308 22.0836 235.308 28.3146V41.7231C235.308 42.985 236.334 43.9315 237.516 43.9315C238.778 43.9315 239.724 42.9062 239.724 41.7231V28.3146C239.724 19.9541 232.706 12.9343 224.111 12.9343Z" fill="white"/>
<path d="M260.384 12.9336C256.678 12.9336 253.287 14.1956 250.527 16.4829V15.3787C250.527 14.1167 249.502 13.1702 248.319 13.1702C247.058 13.1702 246.111 14.1956 246.111 15.3787V53.2378C246.111 54.4998 247.136 55.4463 248.319 55.4463C249.581 55.4463 250.527 54.4209 250.527 53.2378V40.6181C253.287 42.9054 256.757 44.1674 260.384 44.1674C268.98 44.1674 275.998 37.1477 275.998 28.5505C275.919 19.9533 268.98 12.9336 260.384 12.9336ZM260.384 39.6716C257.467 39.6716 254.707 38.5674 252.656 36.5956C251.789 35.728 251.079 34.7815 250.527 33.7561V23.1871C250.685 22.8716 251.079 22.3195 251.474 21.7674C253.603 18.928 256.836 17.2716 260.384 17.2716C266.535 17.2716 271.582 22.2406 271.582 28.4716C271.503 34.7026 266.535 39.6716 260.384 39.6716Z" fill="white"/>
<path d="M23.4982 44.0105H14.6662C6.54392 44.0105 -0.0800781 37.3852 -0.0800781 29.2612V2.28658C-0.0800781 1.0246 0.945065 0.078125 2.12792 0.078125C3.31078 0.078125 4.33592 1.10348 4.33592 2.28658V29.2612C4.33592 34.9401 8.98849 39.5936 14.6662 39.5936H23.4193C24.6811 39.5936 25.6273 40.619 25.6273 41.8021C25.7062 42.9852 24.6811 44.0105 23.4982 44.0105Z" fill="white"/>
<path d="M41.4777 44.0107C32.8823 44.0107 25.7852 36.991 25.7852 28.3149C25.7852 19.6389 32.8034 12.6191 41.4777 12.6191C45.6572 12.6191 49.6 14.2755 52.5177 17.1938C53.3852 18.0614 53.3852 19.4811 52.5177 20.3487L35.6423 37.2276C35.4846 37.3853 35.3269 37.4642 35.1692 37.622C36.9829 38.8051 39.112 39.5149 41.4777 39.5149C43.9223 39.5149 46.2092 38.7262 48.1017 37.3065C49.1269 36.5966 50.4674 36.7544 51.1772 37.7797C51.8869 38.8051 51.7292 40.1459 50.704 40.8558C48.0229 42.9065 44.7897 44.0107 41.4777 44.0107ZM41.4777 17.1149C35.3269 17.1149 30.28 22.1628 30.28 28.3149C30.28 30.6022 30.9897 32.8107 32.1726 34.6248C32.2514 34.467 32.4092 34.3093 32.5669 34.1515L47.7074 19.0079C45.8149 17.7459 43.6857 17.1149 41.4777 17.1149Z" fill="white"/>
<path d="M83.9811 13.0925C80.8268 13.0925 77.9091 14.5911 76.0954 16.8785C74.2028 14.5123 71.364 13.0137 68.1308 13.0137C65.6863 13.0137 63.3994 13.8813 61.6645 15.3799C61.2703 15.0644 60.7971 14.8278 60.2451 14.8278C58.9834 14.8278 58.0371 15.8531 58.0371 17.0362V41.8024C58.0371 43.0644 59.0623 44.0109 60.2451 44.0109C61.428 44.0109 62.4531 42.9855 62.4531 41.8024V23.1883C62.4531 20.0334 65.0554 17.5094 68.1308 17.5094C71.2851 17.5094 73.8085 20.1123 73.8085 23.1883V41.7235C73.8085 42.9855 74.8337 43.932 76.0165 43.932C77.2783 43.932 78.2245 42.9066 78.2245 41.7235V23.2672C78.2245 20.1123 80.8268 17.5883 83.9023 17.5883C87.0565 17.5883 89.58 20.1911 89.58 23.2672V41.8024C89.58 43.0644 90.6051 44.0109 91.788 44.0109C93.0497 44.0109 93.996 42.9855 93.996 41.8024V23.2672C94.1537 17.6672 89.58 13.0925 83.9811 13.0925Z" fill="white"/>
<path d="M113.001 13.0918C109.847 13.0918 106.929 14.2749 104.721 16.2467C104.406 15.458 103.617 14.827 102.671 14.827C101.409 14.827 100.463 15.8524 100.463 17.0355V41.8017C100.463 43.0636 101.488 44.0101 102.671 44.0101C103.933 44.0101 104.879 42.9848 104.879 41.8017V25.6326C104.879 25.6326 104.879 25.6326 104.879 25.5538C104.879 21.058 108.506 17.4298 113.001 17.4298C117.496 17.4298 121.123 21.058 121.123 25.5538V41.8017C121.123 43.0636 122.149 44.0101 123.331 44.0101C124.593 44.0101 125.539 42.9848 125.539 41.8017V25.6326C125.539 18.6918 119.941 13.0918 113.001 13.0918Z" fill="white"/>
<path d="M157.713 44.0109C157.634 44.0109 157.634 44.0109 157.634 44.0109H146.437C145.175 44.0109 144.229 42.9855 144.229 41.8024C144.229 40.5404 145.254 39.594 146.437 39.594H157.713C157.792 39.594 159.842 39.594 161.104 38.332C161.814 37.6221 162.208 36.5179 162.208 35.0982C162.208 33.6785 161.814 32.5742 161.104 31.8644C159.842 30.6024 157.792 30.6024 157.792 30.6024H151.562C151.089 30.6024 147.541 30.5235 145.017 27.9996C143.519 26.501 142.73 24.4503 142.73 22.0052C142.73 15.4587 148.487 13.2503 151.484 13.0137C151.562 13.0137 151.562 13.0137 151.641 13.0137H162.524C163.785 13.0137 164.732 14.039 164.732 15.2221C164.732 16.4052 163.706 17.4306 162.524 17.4306H151.799C150.932 17.5094 147.225 18.1404 147.225 22.0052C147.225 23.2672 147.541 24.2137 148.25 24.8447C149.512 26.1066 151.641 26.1855 151.72 26.1855H157.95C158.265 26.1855 161.814 26.1855 164.416 28.7094C166.072 30.2869 166.861 32.4165 166.861 35.0982C166.861 37.7799 166.072 39.9094 164.416 41.4869C161.735 43.8531 158.423 44.0109 157.713 44.0109Z" fill="white"/>
<path d="M134.056 44.0115C132.794 44.0115 131.848 42.9861 131.848 41.803V15.7749C131.848 14.5129 132.873 13.5664 134.056 13.5664C135.239 13.5664 136.265 14.5918 136.265 15.7749V41.803C136.265 42.9861 135.318 44.0115 134.056 44.0115Z" fill="white"/>
<path d="M131.138 8.04429C130.822 8.04429 130.428 7.88655 130.191 7.64993C129.639 7.09782 129.639 6.30908 130.191 5.75697L133.188 2.75979C133.74 2.20767 134.528 2.20767 135.08 2.75979L137.998 5.6781C138.55 6.23021 138.55 7.01894 137.998 7.57106C137.446 8.12317 136.658 8.12317 136.106 7.57106L134.134 5.59922L132.084 7.64993C131.847 7.96542 131.453 8.04429 131.138 8.04429Z" fill="white"/>
</g>
<defs>
<clipPath id="clip0_941:12870">
<rect width="276" height="56" fill="white"/>
</clipPath>
</defs>
</svg>
