<svg width="246" height="48" viewBox="0 0 246 48" fill="none" xmlns="http://www.w3.org/2000/svg">
<g clip-path="url(#clip0_578:667)">
<path d="M4.50977 19.748L15.0458 28.5958L36.9301 19.748H4.50977Z" fill="white"/>
<path d="M3.63281 20.7305L8.44136 48.0003L14.1475 29.5568L3.63281 20.7305Z" fill="white"/>
<path d="M20.9866 0L3.09884 17.9305L0 0H20.9866Z" fill="white"/>
<path d="M22.7394 0L31.352 8.65539L4.48828 18.4221L22.7394 0Z" fill="white"/>
<path d="M55.073 0.0213726L32.7186 8.16385L24.5762 0L55.073 0.0213726Z" fill="white"/>
<path d="M60.9944 21.9483V26.9491H69.7353V30.454H60.9944V37.3356H56.6133V18.4434H70.8893V21.9483H60.9944Z" fill="white"/>
<path d="M87.7293 37.3356L84.0962 32.0783H83.8825H80.0784V37.3356H75.6973V18.4434H83.8825C85.5494 18.4434 87.0027 18.7212 88.2422 19.2768C89.4818 19.8325 90.4221 20.6232 91.0846 21.6491C91.7471 22.6749 92.0891 23.893 92.0891 25.2822C92.0891 26.6927 91.7471 27.8895 91.0846 28.9153C90.4221 29.9411 89.4604 30.7105 88.2209 31.2448L92.4524 37.3142H87.7293V37.3356ZM86.6394 22.8672C85.9555 22.2902 84.951 22.0124 83.6474 22.0124H80.0784V28.5947H83.6474C84.951 28.5947 85.9555 28.3169 86.6394 27.7399C87.3233 27.1629 87.6652 26.3508 87.6652 25.3036C87.6652 24.235 87.3233 23.4229 86.6394 22.8672Z" fill="white"/>
<path d="M111.323 33.2964H102.561L100.894 37.3356H96.4062L104.827 18.4434H109.144L117.585 37.3356H112.99L111.323 33.2964ZM109.956 29.9625L106.964 22.739L103.972 29.9625H109.956Z" fill="white"/>
<path d="M133.893 27.5903H137.889V35.2626C136.863 36.032 135.667 36.6304 134.32 37.0364C132.974 37.4425 131.606 37.6562 130.238 37.6562C128.272 37.6562 126.52 37.2288 124.938 36.3953C123.378 35.5618 122.139 34.4078 121.262 32.9118C120.365 31.4372 119.916 29.7488 119.916 27.8681C119.916 25.9875 120.365 24.3205 121.262 22.8245C122.16 21.3499 123.4 20.1745 124.981 19.341C126.563 18.5075 128.336 18.0801 130.324 18.0801C131.969 18.0801 133.487 18.3579 134.833 18.9136C136.18 19.4692 137.312 20.2813 138.231 21.3499L135.432 23.9358C134.085 22.5253 132.461 21.7987 130.538 21.7987C129.341 21.7987 128.251 22.0551 127.332 22.5467C126.392 23.0596 125.665 23.7649 125.152 24.6838C124.639 25.6028 124.361 26.65 124.361 27.8468C124.361 29.0222 124.618 30.0694 125.152 30.9884C125.665 31.9073 126.392 32.6126 127.332 33.1255C128.251 33.6384 129.319 33.8949 130.495 33.8949C131.756 33.8949 132.888 33.617 133.893 33.0828V27.5903Z" fill="white"/>
<path d="M147.612 36.3953C146.052 35.5618 144.834 34.4078 143.936 32.9118C143.039 31.4372 142.59 29.7488 142.59 27.8681C142.59 25.9875 143.039 24.3205 143.936 22.8245C144.834 21.3499 146.052 20.1745 147.612 19.341C149.172 18.5075 150.925 18.0801 152.869 18.0801C154.515 18.0801 155.99 18.3579 157.315 18.9349C158.64 19.512 159.751 20.3454 160.649 21.414L157.849 23.9999C156.567 22.5253 154.985 21.7773 153.105 21.7773C151.929 21.7773 150.882 22.0338 149.984 22.5467C149.065 23.0596 148.36 23.7649 147.847 24.6838C147.334 25.6028 147.078 26.65 147.078 27.804C147.078 28.9795 147.334 30.0267 147.847 30.9456C148.36 31.8646 149.065 32.5698 149.984 33.0828C150.903 33.5957 151.95 33.8521 153.105 33.8521C154.985 33.8521 156.567 33.1041 157.849 31.6081L160.649 34.1941C159.751 35.284 158.64 36.1389 157.293 36.6945C155.968 37.2715 154.472 37.5494 152.848 37.5494C150.925 37.6562 149.172 37.2502 147.612 36.3953Z" fill="white"/>
<path d="M168.835 36.3955C167.253 35.5407 166.035 34.3866 165.137 32.8906C164.24 31.416 163.791 29.7277 163.791 27.8897C163.791 26.0304 164.24 24.3635 165.137 22.8889C166.035 21.4142 167.253 20.2388 168.835 19.384C170.416 18.5291 172.169 18.123 174.135 18.123C176.101 18.123 177.853 18.5505 179.435 19.384C180.995 20.2388 182.235 21.3929 183.132 22.8889C184.03 24.3635 184.479 26.0518 184.479 27.8897C184.479 29.7491 184.03 31.416 183.132 32.8906C182.235 34.3653 180.995 35.5407 179.435 36.3955C177.875 37.2504 176.101 37.6564 174.135 37.6564C172.169 37.6564 170.416 37.229 168.835 36.3955ZM177.17 33.1685C178.067 32.6556 178.772 31.9503 179.285 31.0313C179.798 30.1124 180.055 29.0652 180.055 27.8897C180.055 26.7143 179.798 25.6671 179.285 24.7695C178.772 23.8506 178.067 23.1453 177.17 22.6324C176.272 22.1195 175.267 21.863 174.156 21.863C173.045 21.863 172.04 22.1195 171.143 22.6324C170.245 23.1453 169.54 23.8506 169.027 24.7695C168.514 25.6885 168.258 26.7357 168.258 27.8897C168.258 29.0652 168.514 30.1124 169.027 31.0313C169.54 31.9503 170.245 32.6556 171.143 33.1685C172.04 33.6814 173.045 33.9378 174.156 33.9378C175.246 33.9378 176.251 33.6814 177.17 33.1685Z" fill="white"/>
<path d="M188.859 18.4434H193.24V33.7666H202.708V37.3356H188.859V18.4434Z" fill="white"/>
<path d="M209.674 36.3955C208.093 35.5407 206.875 34.3866 205.977 32.8906C205.08 31.416 204.631 29.7277 204.631 27.8897C204.631 26.0304 205.08 24.3635 205.977 22.8889C206.875 21.4142 208.093 20.2388 209.674 19.384C211.256 18.5291 213.008 18.123 214.975 18.123C216.941 18.123 218.693 18.5505 220.275 19.384C221.835 20.2388 223.074 21.3929 223.972 22.8889C224.87 24.3635 225.318 26.0518 225.318 27.8897C225.318 29.7491 224.87 31.416 223.972 32.8906C223.074 34.3653 221.835 35.5407 220.275 36.3955C218.715 37.2504 216.941 37.6564 214.975 37.6564C213.008 37.6564 211.235 37.229 209.674 36.3955ZM217.988 33.1685C218.886 32.6556 219.591 31.9503 220.104 31.0313C220.617 30.1124 220.873 29.0652 220.873 27.8897C220.873 26.7143 220.617 25.6671 220.104 24.7695C219.591 23.8506 218.886 23.1453 217.988 22.6324C217.09 22.1195 216.086 21.863 214.975 21.863C213.863 21.863 212.859 22.1195 211.961 22.6324C211.064 23.1453 210.358 23.8506 209.845 24.7695C209.333 25.6885 209.076 26.7357 209.076 27.8897C209.076 29.0652 209.333 30.1124 209.845 31.0313C210.358 31.9503 211.064 32.6556 211.961 33.1685C212.859 33.6814 213.863 33.9378 214.975 33.9378C216.086 33.9378 217.09 33.6814 217.988 33.1685Z" fill="white"/>
<path d="M240.919 37.3356L237.286 32.0783H237.072H233.268V37.3356H228.887V18.4434H237.072C238.739 18.4434 240.192 18.7212 241.432 19.2768C242.671 19.8325 243.611 20.6232 244.274 21.6491C244.936 22.6749 245.278 23.893 245.278 25.2822C245.278 26.6927 244.936 27.8895 244.274 28.9153C243.59 29.9411 242.65 30.7105 241.41 31.2448L245.642 37.3142H240.919V37.3356ZM239.807 22.8672C239.124 22.2902 238.119 22.0124 236.815 22.0124H233.246V28.5947H236.815C238.119 28.5947 239.124 28.3169 239.807 27.7399C240.491 27.1629 240.833 26.3508 240.833 25.3036C240.833 24.235 240.491 23.4229 239.807 22.8672Z" fill="white"/>
</g>
<defs>
<clipPath id="clip0_578:667">
<rect width="246" height="48" fill="white"/>
</clipPath>
</defs>
</svg>
