<svg width="76" height="75" viewBox="0 0 76 75" fill="none" xmlns="http://www.w3.org/2000/svg">
<path d="M26 13L48.5 2M26 13L2.5 9M26 13L50.5 27M48.5 2L74 16M48.5 2L41.5 28.5M74 16L67 42M74 16L50.5 27M67 42L74 66.5M67 42L41.5 28.5M74 66.5L50.5 62M74 66.5L48.5 52M50.5 62L27.5 73M50.5 62L25.5 48M27.5 73L2 59M27.5 73L34.5 46.5M2 59L9 33M2 59L25.5 48M9 33L2.5 9M9 33L34.5 46.5M2.5 9L27.5 22.5M50.5 27L27.5 22.5M27.5 22.5L34.5 46.5M41.5 28.5L48.5 52M48.5 52L25.5 48" stroke="#DF59CC" stroke-width="2"/>
</svg>
