<svg width="1120" height="424" viewBox="0 0 1120 424" fill="none" xmlns="http://www.w3.org/2000/svg">
<path d="M-27.205 -13C367.936 -12.8786 762.956 -12.8786 1158.1 -13C1214.08 81.4745 1241.64 187.606 1307.22 276.981C1361.74 351.055 1410.92 426.1 1456.34 506.124C862.41 505.517 268.483 505.517 -325.443 506.124C-280.028 426.1 -230.726 351.055 -176.324 276.981C-110.751 187.606 -83.3069 81.4745 -27.205 -13Z" stroke="#8080FF" stroke-opacity="0.6" stroke-miterlimit="10"/>
<path d="M-272.723 414.2C10.8223 423.186 280.767 527.861 565.405 527.861C850.164 527.861 1119.99 423.065 1403.53 414.2" stroke="#8080FF" stroke-opacity="0.6" stroke-miterlimit="10"/>
<path d="M-248.707 377.043C29.4948 411.165 281.832 578.378 565.377 578.378C848.921 578.378 1101.26 411.165 1379.46 377.043" stroke="#8080FF" stroke-opacity="0.6" stroke-miterlimit="10"/>
<path d="M-225.986 345.47C-76.8672 378.621 58.2872 451.359 195.992 514.868C310.017 567.448 437.278 624.643 565.389 624.643C691.072 624.643 815.905 569.391 927.987 518.025C1068 453.787 1205.22 379.228 1356.76 345.47" stroke="#8080FF" stroke-opacity="0.6" stroke-miterlimit="10"/>
<path d="M-204.508 316.81C-54.7814 363.197 76.6087 451.357 212.613 526.888C318.26 585.418 441.271 651.599 565.375 651.599C689.601 651.599 812.49 585.418 918.015 526.888C1054.02 451.357 1185.41 363.197 1335.14 316.81" stroke="#8080FF" stroke-opacity="0.6" stroke-miterlimit="10"/>
<path d="M-184.09 288.153C-39.4637 341.826 85.126 435.573 215.423 515.961C319.369 580.077 439.345 649.658 565.392 649.658C688.888 649.658 806.556 582.627 908.681 520.089C1041.53 438.73 1167.7 342.798 1314.87 288.275" stroke="#8080FF" stroke-opacity="0.6" stroke-miterlimit="10"/>
<path d="M-164.787 262.045C-22.9539 319.118 100.543 410.921 230.961 488.881C330.415 548.383 445.897 612.135 565.387 612.135C684.755 612.135 800.237 548.383 899.812 488.881C1030.35 410.921 1153.73 319.118 1295.56 262.045" stroke="#8080FF" stroke-opacity="0.6" stroke-miterlimit="10"/>
<path d="M-146.438 235.33C-12.0117 288.275 109.178 367.691 236.196 435.572C334.678 488.153 450.646 546.804 565.4 546.197C680.761 545.59 795.393 488.517 894.604 435.572C1021.62 367.691 1142.81 288.396 1277.24 235.33" stroke="#8080FF" stroke-opacity="0.6" stroke-miterlimit="10"/>
<path d="M-128.98 204.608C-1.23342 250.024 117.649 315.597 240.903 371.334C341.206 416.75 453.289 463.016 565.371 463.016C675.024 463.016 784.799 418.45 883.16 374.249C1008.84 317.904 1129.55 250.631 1259.72 204.486" stroke="#8080FF" stroke-opacity="0.6" stroke-miterlimit="10"/>
<path d="M-112.324 171.092C11.9013 208.129 130.177 261.074 251.973 304.911C351.67 340.733 458.409 373.763 565.391 373.399C670.187 373.156 774.255 342.19 872.129 307.218C996.355 263.017 1116.69 208.736 1243.11 170.971" stroke="#8080FF" stroke-opacity="0.6" stroke-miterlimit="10"/>
<path d="M-96.5312 135.998C122.897 187.243 336.74 283.66 565.397 283.66C794.055 283.66 1007.9 187.121 1227.33 135.998" stroke="#8080FF" stroke-opacity="0.6" stroke-miterlimit="10"/>
<path d="M-81.3516 101.026C134.677 137.335 344.634 200.237 565.398 199.872C786.284 199.508 995.877 137.456 1212.15 101.026" stroke="#8080FF" stroke-opacity="0.6" stroke-miterlimit="10"/>
<path d="M-66.8965 67.2686C46.6429 79.6547 159.454 97.6266 272.993 110.741C370.746 122.035 467.164 125.799 565.403 125.556C661.334 125.313 755.444 122.399 851.012 111.591C966.737 98.3553 1081.85 79.8975 1197.7 67.2686" stroke="#8080FF" stroke-opacity="0.6" stroke-miterlimit="10"/>
<path d="M-53.1953 36.3008C57.6726 42.8581 168.419 52.6942 279.287 59.2515C374.855 64.9588 469.693 64.4731 565.382 64.1088C661.071 63.7445 755.788 64.9588 851.477 59.2515C962.345 52.6942 1073.09 42.7367 1183.96 36.3008" stroke="#8080FF" stroke-opacity="0.6" stroke-miterlimit="10"/>
<path d="M-39.9688 9.09961C161.974 13.5926 363.309 17.9642 565.372 17.4785C767.315 16.9927 968.771 13.5926 1170.71 9.09961" stroke="#8080FF" stroke-opacity="0.6" stroke-miterlimit="10"/>
<path d="M1083.91 -13C1135.27 93.6177 1146.81 219.3 1214.45 318.146C1231.93 343.647 1251.12 364.898 1271.76 387.849C1303.46 422.943 1325.31 463.38 1344.86 506.124" stroke="#8080FF" stroke-opacity="0.6" stroke-miterlimit="10"/>
<path d="M1009.84 -13C1037.77 60.3452 1051.49 138.791 1069.95 214.807C1082.7 267.388 1094.11 324.218 1121.68 371.577C1134.55 393.677 1149.61 404.849 1170.74 418.085C1203.77 438.729 1219.31 470.665 1233.52 506.002" stroke="#8080FF" stroke-opacity="0.6" stroke-miterlimit="10"/>
<path d="M935.754 -12.8779C961.133 73.3392 971.698 163.806 986.998 252.088C996.956 309.647 1002.3 378.135 1028.89 431.201C1039.7 452.694 1048.81 455.852 1070.79 454.394C1102.85 452.209 1112.07 479.045 1122.03 506.125" stroke="#8080FF" stroke-opacity="0.6" stroke-miterlimit="10"/>
<path d="M861.676 -12.8779C883.169 84.1467 890.698 184.45 902.72 282.932C907.699 323.854 912.799 364.899 918.992 405.7C923.121 432.779 925.428 465.688 936.357 491.431C959.307 545.59 983.958 426.222 1010.92 506.125" stroke="#8080FF" stroke-opacity="0.6" stroke-miterlimit="10"/>
<path d="M787.611 -12.8779C804.126 91.1898 809.226 197.2 817.727 302.118C821.613 350.327 825.498 398.536 830.234 446.623C833.391 478.438 832.663 517.904 843.592 548.505C853.914 577.285 863.142 544.862 868 530.412C872.857 516.204 892.408 457.431 899.451 506.004" stroke="#8080FF" stroke-opacity="0.6" stroke-miterlimit="10"/>
<path d="M713.541 -12.8779C727.141 118.026 729.692 250.266 736.37 381.656C739.042 433.872 741.592 486.088 745.478 538.183C746.571 553.483 743.292 596.592 756.164 607.763C766.243 593.313 766.364 566.719 769.036 549.962C771.343 535.754 771.222 499.203 783.486 491.552C786.279 495.924 787.858 500.781 788.101 506.124" stroke="#8080FF" stroke-opacity="0.6" stroke-miterlimit="10"/>
<path d="M639.449 -12.8779C646.492 121.912 647.464 257.066 650.742 391.978C652.078 449.78 653.414 507.582 655.478 565.262C656.328 587.97 652.807 618.692 660.457 640.793C677.579 595.377 660.214 539.518 674.422 493.01C676.365 497.138 677.093 501.51 676.729 506.246" stroke="#8080FF" stroke-opacity="0.6" stroke-miterlimit="10"/>
<path d="M565.377 -13C565.377 209.707 565.377 432.293 565.377 655C565.377 600.355 565.377 545.711 565.377 491.066C565.377 496.045 565.377 501.145 565.377 506.124" stroke="#8080FF" stroke-opacity="0.6" stroke-miterlimit="10"/>
<path d="M491.339 -12.8779C484.296 121.912 483.324 257.066 480.045 391.978C478.588 454.273 477.252 516.446 474.945 578.741C474.217 598.534 476.281 621.849 470.452 640.793C453.33 595.377 470.695 539.518 456.488 493.01C454.545 497.138 453.816 501.51 454.18 506.246" stroke="#8080FF" stroke-opacity="0.6" stroke-miterlimit="10"/>
<path d="M417.247 -12.8779C403.646 118.026 400.975 250.266 394.417 381.656C391.624 437.636 388.953 493.738 384.46 549.597C383.488 561.376 386.281 599.385 374.745 607.763C364.424 592.949 364.666 567.448 361.874 549.962C359.931 537.575 359.081 498.717 347.423 491.552C344.63 495.924 343.051 500.781 342.809 506.124" stroke="#8080FF" stroke-opacity="0.6" stroke-miterlimit="10"/>
<path d="M343.15 -12.8779C325.663 97.0185 320.685 209.101 311.699 319.969C307.934 366.599 304.048 413.229 299.312 459.737C296.398 488.274 296.641 521.304 287.291 548.505C276.605 579.713 265.797 539.154 261.425 526.04C255.84 509.16 240.782 461.437 231.432 506.003" stroke="#8080FF" stroke-opacity="0.6" stroke-miterlimit="10"/>
<path d="M269.108 -12.8779C247.614 84.1468 239.964 184.45 228.063 282.932C222.599 327.741 217.134 372.671 210.091 417.358C206.205 441.523 203.898 468.603 194.548 491.432C184.469 515.84 174.876 508.19 161.032 492.16C139.66 467.388 130.431 475.403 119.988 506.125" stroke="#8080FF" stroke-opacity="0.6" stroke-miterlimit="10"/>
<path d="M195.02 -12.8779C169.64 73.3392 159.076 163.806 143.775 252.088C133.818 309.525 128.232 378.135 101.881 431.201C91.1949 452.694 81.966 455.852 59.9867 454.394C28.05 452.33 18.5782 479.288 8.74219 506.125" stroke="#8080FF" stroke-opacity="0.6" stroke-miterlimit="10"/>
<path d="M120.935 -13C91.6694 63.8668 77.8261 146.198 58.154 225.736C46.0107 274.795 34.8389 327.376 9.09524 371.456C-4.50521 394.771 -20.7772 405.335 -42.635 419.543C-74.0861 439.944 -89.1437 472.002 -102.744 505.881" stroke="#8080FF" stroke-opacity="0.6" stroke-miterlimit="10"/>
<path d="M46.8904 -13C-4.59697 93.8606 -16.8616 218.572 -83.6495 318.146C-101.743 345.104 -122.629 367.084 -144.001 391.249C-174.238 425.371 -195.246 464.958 -214.189 506.124" stroke="#8080FF" stroke-opacity="0.6" stroke-miterlimit="10"/>
</svg>
