<svg width="24" height="24" viewBox="0 0 24 24" fill="none" xmlns="http://www.w3.org/2000/svg">
<path fill-rule="evenodd" clip-rule="evenodd" d="M12 24C18.627 24 24 18.627 24 12C24 5.37295 18.6284 0 12 0C5.37295 0 0 5.37295 0 12C0 18.627 5.37295 24 12 24ZM19.8347 13.3103V14.0833C19.8347 14.1277 19.8075 14.1672 19.7681 14.1844C19.5265 14.288 18.6992 14.6677 18.3552 15.1461C18.1638 15.4124 17.9823 15.7037 17.7999 15.9964C17.1456 17.0465 16.4799 18.1149 15.3075 18.1149H9.05305C6.83633 18.1149 5.04001 16.3124 5.04001 14.0883V14.0168C5.04001 13.9576 5.08808 13.9095 5.14726 13.9095H8.63388C8.70291 13.9095 8.75345 13.9736 8.74731 14.0414C8.72264 14.2683 8.76456 14.5 8.87182 14.7109C9.07894 15.1313 9.50799 15.3939 9.97155 15.3939H11.6976V14.0463H9.99128C9.90375 14.0463 9.85198 13.9452 9.90252 13.8737C9.91278 13.858 9.92379 13.8419 9.93535 13.825C9.94211 13.8151 9.94906 13.805 9.95615 13.7945C9.9588 13.7905 9.96147 13.7865 9.96416 13.7825C10.1257 13.5532 10.3562 13.1969 10.5855 12.7913C10.7421 12.5176 10.8937 12.2254 11.0158 11.9319C11.0385 11.8833 11.0569 11.8336 11.075 11.7848L11.0799 11.7717C11.0886 11.7472 11.0974 11.7231 11.1061 11.6993L11.1061 11.6993C11.1306 11.6322 11.1542 11.5675 11.1724 11.5029C11.1925 11.4425 11.2093 11.3797 11.2256 11.3192L11.2256 11.3191L11.2365 11.2785C11.2945 11.0295 11.3191 10.7656 11.3191 10.4919C11.3191 10.3847 11.3142 10.2725 11.3043 10.1652C11.2994 10.0481 11.2846 9.93095 11.2698 9.81383C11.2599 9.71027 11.2414 9.60793 11.2217 9.50068C11.1971 9.3441 11.1625 9.18877 11.1231 9.03217L11.1095 8.97301C11.1007 8.94108 11.0923 8.90958 11.084 8.87827L11.084 8.87823C11.0644 8.80436 11.045 8.73148 11.0208 8.65616C10.9233 8.31956 10.8112 7.99163 10.6928 7.68464C10.6496 7.56258 10.6003 7.44546 10.551 7.32834C10.4938 7.18977 10.4359 7.0611 10.3808 6.93874L10.3365 6.84011C10.302 6.77106 10.2724 6.70818 10.2428 6.64407C10.2095 6.57133 10.175 6.49859 10.1405 6.42956C10.1308 6.40873 10.1205 6.38847 10.1104 6.36856L10.1104 6.36852C10.0948 6.33777 10.0797 6.30784 10.0677 6.27791L9.8569 5.88831C9.82731 5.8353 9.87663 5.77242 9.93456 5.78845L11.2538 6.14598H11.2575C11.2579 6.14598 11.2582 6.14601 11.2586 6.14607C11.2595 6.14621 11.2602 6.1465 11.2608 6.14676C11.2614 6.14701 11.2619 6.14723 11.2624 6.14723L11.4362 6.1953L11.6273 6.24956L11.6976 6.26927V5.48516C11.6976 5.10666 12.0009 4.79967 12.3757 4.79967C12.5631 4.79967 12.7332 4.87611 12.8553 5.00063C12.9773 5.12516 13.0538 5.2953 13.0538 5.48516V6.64902L13.1943 6.68845C13.2054 6.69217 13.2165 6.69709 13.2264 6.70448L13.2732 6.73998L13.2733 6.74009C13.3013 6.76143 13.3347 6.78683 13.3731 6.81546C13.3931 6.83142 13.4136 6.8488 13.4353 6.8671L13.4353 6.86712C13.4672 6.89403 13.5014 6.92295 13.5395 6.95231C13.6665 7.05462 13.8182 7.18655 13.9846 7.3382C14.029 7.37641 14.0721 7.41587 14.1116 7.45532C14.3261 7.65505 14.5665 7.88929 14.7959 8.1482C14.86 8.22095 14.9228 8.29491 14.9869 8.37258C15.0096 8.40052 15.0328 8.42831 15.0559 8.456C15.098 8.5065 15.1398 8.55667 15.178 8.60684L15.2215 8.66449C15.2863 8.75011 15.353 8.83834 15.4123 8.92986C15.4273 8.95293 15.4433 8.97623 15.4592 8.99957L15.4593 8.99962C15.48 9.02988 15.5008 9.0602 15.5196 9.09013C15.6133 9.2319 15.6959 9.37863 15.7748 9.52535C15.8081 9.59315 15.8426 9.66711 15.8722 9.73986C15.9597 9.93589 16.0287 10.1356 16.0731 10.3353C16.0867 10.3785 16.0965 10.4253 16.1015 10.4673V10.4771C16.1163 10.5363 16.1212 10.5992 16.1261 10.6633C16.1459 10.868 16.136 11.0726 16.0916 11.2785C16.0731 11.3661 16.0485 11.4486 16.0189 11.5362L16.009 11.5644L16.0089 11.5644C15.9826 11.6395 15.9554 11.7168 15.9215 11.7902C15.8475 11.9615 15.76 12.1329 15.6564 12.2932C15.6231 12.3524 15.5837 12.4152 15.5442 12.4744C15.5232 12.505 15.5019 12.5347 15.4811 12.5638L15.4809 12.5641C15.4589 12.5947 15.4374 12.6247 15.4172 12.6544C15.363 12.7284 15.305 12.8061 15.2459 12.8751C15.1928 12.9478 15.1386 13.0206 15.0794 13.0847C14.9968 13.1821 14.9179 13.2746 14.8353 13.3633C14.786 13.4213 14.733 13.4805 14.6787 13.5335C14.6333 13.5842 14.5869 13.6304 14.5435 13.6736L14.5435 13.6737L14.5221 13.695C14.4396 13.7776 14.3705 13.8417 14.3125 13.8947L14.1769 14.0192C14.1572 14.0365 14.1313 14.0463 14.1042 14.0463H13.0538V15.3939H14.3754C14.6713 15.3939 14.9524 15.2891 15.1793 15.0968L15.1854 15.0914L15.1854 15.0914C15.2734 15.0146 15.6057 14.7248 15.9967 14.2929C16.0102 14.2781 16.0275 14.267 16.0472 14.2621L19.6978 13.2068C19.7656 13.187 19.8347 13.2388 19.8347 13.3103ZM5.92037 12.4042L5.97213 12.3228L9.09381 7.43932C9.13944 7.36783 9.24669 7.37522 9.28121 7.45288C9.80273 8.62166 10.2527 10.0752 10.0419 10.9802C9.95191 11.3525 9.70533 11.8568 9.42792 12.3228C9.39218 12.3906 9.35273 12.4572 9.3108 12.5213C9.29107 12.5509 9.25778 12.5681 9.22202 12.5681H6.01159C5.92529 12.5681 5.87474 12.4744 5.92037 12.4042Z" fill="white"/>
</svg>
