<svg width="100%" height="100%" viewBox="0 0 800 448" fill="none" xmlns="http://www.w3.org/2000/svg">
<path d="M0.290825 490.677L211.893 349.505V98.6217L0.287109 -42.1895" stroke="white" stroke-opacity="0.3" stroke-linecap="round" stroke-linejoin="round"/>
<path d="M0.458025 623.743L274.605 349.48V98.5918L0.287109 -175.139" stroke="white" stroke-opacity="0.3" stroke-linecap="round" stroke-linejoin="round"/>
<path d="M200.127 623.744L337.32 349.477V98.5924L199.604 -176" stroke="white" stroke-opacity="0.3" stroke-linecap="round" stroke-linejoin="round"/>
<path d="M399.794 623.744L400.03 349.477V98.5924L399.783 -176" stroke="white" stroke-opacity="0.3" stroke-linecap="round" stroke-linejoin="round"/>
<path d="M599.459 623.744L462.74 349.481V98.5926L599.96 -175.996" stroke="white" stroke-opacity="0.3" stroke-linecap="round" stroke-linejoin="round"/>
<path d="M799.13 623.743L525.453 349.48V98.592L800 -175.855" stroke="white" stroke-opacity="0.3" stroke-linecap="round" stroke-linejoin="round"/>
<path d="M799.983 490.982L588.164 349.505V98.6214L799.999 -42.5117" stroke="white" stroke-opacity="0.3" stroke-linecap="round" stroke-linejoin="round"/>
<path d="M0.175781 424.055L149.176 349.505V98.6217L0.175781 24.2461" stroke="white" stroke-opacity="0.3" stroke-linecap="round" stroke-linejoin="round"/>
<path d="M799.887 424.104L650.879 349.476V98.5923L799.887 24.2129" stroke="white" stroke-opacity="0.3" stroke-linecap="round" stroke-linejoin="round"/>
<path d="M149.176 349.504L650.879 349.477" stroke="white" stroke-opacity="0.3" stroke-linecap="round" stroke-linejoin="round"/>
<path d="M0.175781 324.065L149.063 286.758H650.779L799.887 324.145" stroke="white" stroke-opacity="0.3" stroke-linecap="round" stroke-linejoin="round"/>
<path d="M0.175781 224.143L799.887 224.135" stroke="white" stroke-opacity="0.3" stroke-linecap="round" stroke-linejoin="round"/>
<path d="M0.175781 124.224L149.063 161.332H650.88L799.887 124.127" stroke="white" stroke-opacity="0.3" stroke-linecap="round" stroke-linejoin="round"/>
<path d="M149.176 98.6222L650.879 98.5938" stroke="white" stroke-opacity="0.3" stroke-linecap="round" stroke-linejoin="round"/>
<path d="M799.717 425.291H0" stroke="white" stroke-opacity="0.3" stroke-linecap="round" stroke-linejoin="round"/>
<path d="M799.887 23.0118H0.175781" stroke="white" stroke-opacity="0.3" stroke-linecap="round" stroke-linejoin="round"/>
<path fill-rule="evenodd" clip-rule="evenodd" d="M41.0469 403.603H758.954V44.6504H41.0469V403.603Z" stroke="white" stroke-opacity="0.3" stroke-linecap="round" stroke-linejoin="round"/>
<path fill-rule="evenodd" clip-rule="evenodd" d="M75.8691 386.191H724.18V62.0293H75.8691V386.191Z" stroke="white" stroke-opacity="0.3" stroke-linecap="round" stroke-linejoin="round"/>
<path fill-rule="evenodd" clip-rule="evenodd" d="M104.604 371.759H695.367V76.3691H104.604V371.759Z" stroke="white" stroke-opacity="0.3" stroke-linecap="round" stroke-linejoin="round"/>
<path fill-rule="evenodd" clip-rule="evenodd" d="M128.721 359.742H671.37V88.4082H128.721V359.742Z" stroke="white" stroke-opacity="0.3" stroke-linecap="round" stroke-linejoin="round"/>
</svg>
