<svg width="224" height="56" viewBox="0 0 224 56" fill="none" xmlns="http://www.w3.org/2000/svg">
<path d="M0 8C0 3.58172 3.58172 0 8 0H216C220.418 0 224 3.58172 224 8V48C224 52.4183 220.418 56 216 56H8C3.58172 56 0 52.4183 0 48V8Z" fill="black"/>
<path d="M71.376 33.304C70.32 33.304 69.424 33.1387 68.688 32.808C67.9627 32.4773 67.4133 32.0187 67.04 31.432C66.6773 30.8453 66.496 30.1733 66.496 29.416H69.04C69.04 29.864 69.2213 30.2587 69.584 30.6C69.9573 30.9307 70.5547 31.096 71.376 31.096C72.1013 31.096 72.656 30.9573 73.04 30.68C73.424 30.392 73.616 30.024 73.616 29.576C73.616 29.2027 73.456 28.9093 73.136 28.696C72.816 28.472 72.2987 28.328 71.584 28.264L70.704 28.184C69.5413 28.088 68.6133 27.7307 67.92 27.112C67.2267 26.4827 66.88 25.6453 66.88 24.6C66.88 23.8533 67.056 23.208 67.408 22.664C67.7707 22.12 68.272 21.704 68.912 21.416C69.552 21.1173 70.3093 20.968 71.184 20.968C72.1013 20.968 72.8853 21.128 73.536 21.448C74.1973 21.768 74.704 22.216 75.056 22.792C75.408 23.3573 75.584 24.0187 75.584 24.776H73.024C73.024 24.3493 72.8693 23.976 72.56 23.656C72.2507 23.336 71.792 23.176 71.184 23.176C70.5973 23.176 70.16 23.32 69.872 23.608C69.584 23.8853 69.44 24.216 69.44 24.6C69.44 24.9307 69.552 25.2187 69.776 25.464C70.0107 25.7093 70.4 25.8533 70.944 25.896L71.84 25.976C72.6933 26.0507 73.4453 26.2373 74.096 26.536C74.7467 26.824 75.2533 27.224 75.616 27.736C75.9893 28.2373 76.176 28.8507 76.176 29.576C76.176 30.3227 75.9787 30.9787 75.584 31.544C75.2 32.0987 74.6507 32.5307 73.936 32.84C73.2213 33.1493 72.368 33.304 71.376 33.304ZM81.8559 33.304C81.1092 33.304 80.4479 33.176 79.8719 32.92C79.3065 32.664 78.8319 32.3227 78.4479 31.896C78.0639 31.4587 77.7759 30.9733 77.5839 30.44C77.3919 29.896 77.2959 29.3413 77.2959 28.776V28.456C77.2959 27.88 77.3919 27.32 77.5839 26.776C77.7759 26.232 78.0639 25.7467 78.4479 25.32C78.8319 24.8933 79.2959 24.5573 79.8399 24.312C80.3945 24.056 81.0345 23.928 81.7599 23.928C82.6985 23.928 83.4879 24.1413 84.1279 24.568C84.7785 24.984 85.2745 25.5333 85.6159 26.216C85.9572 26.8987 86.1279 27.6347 86.1279 28.424V29.288H79.7119C79.7972 29.8853 80.0105 30.36 80.3519 30.712C80.7039 31.0533 81.2052 31.224 81.8559 31.224C82.3145 31.224 82.6932 31.1387 82.9919 30.968C83.3012 30.7867 83.5092 30.5573 83.6159 30.28H85.9679C85.7759 31.176 85.3119 31.9067 84.5759 32.472C83.8505 33.0267 82.9439 33.304 81.8559 33.304ZM81.7599 26.008C81.2052 26.008 80.7519 26.168 80.3999 26.488C80.0585 26.7973 79.8399 27.2453 79.7439 27.832H83.6799C83.5945 27.2453 83.3865 26.7973 83.0559 26.488C82.7359 26.168 82.3039 26.008 81.7599 26.008ZM87.8243 33V24.232H89.8563V26.472C90.2083 24.7973 91.1949 23.96 92.8163 23.96H92.9283C93.9416 23.96 94.7203 24.296 95.2643 24.968C95.8083 25.6293 96.0803 26.6373 96.0803 27.992V33H93.5203V27.848C93.5203 27.3787 93.3816 26.9947 93.1043 26.696C92.8269 26.3973 92.4536 26.248 91.9843 26.248C91.5043 26.248 91.1149 26.4027 90.8163 26.712C90.5283 27.0107 90.3843 27.4053 90.3843 27.896V33H87.8243ZM101.878 33.288C101.056 33.288 100.331 33.096 99.7018 32.712C99.0831 32.3173 98.5978 31.784 98.2458 31.112C97.8938 30.44 97.7178 29.6827 97.7178 28.84V28.472C97.7178 27.6293 97.8831 26.8667 98.2138 26.184C98.5444 25.5013 99.0138 24.9627 99.6218 24.568C100.24 24.1733 100.96 23.976 101.782 23.976C103.062 23.976 104.006 24.4613 104.614 25.432V21.32H107.19V33H105.158V31.16C104.87 31.8533 104.443 32.3813 103.878 32.744C103.312 33.1067 102.646 33.288 101.878 33.288ZM102.518 31.144C103.104 31.144 103.611 30.9467 104.038 30.552C104.464 30.1573 104.678 29.5973 104.678 28.872V28.28C104.678 27.8213 104.576 27.432 104.374 27.112C104.171 26.7813 103.904 26.5307 103.574 26.36C103.243 26.1893 102.886 26.104 102.502 26.104C101.851 26.104 101.318 26.3387 100.902 26.808C100.486 27.2773 100.278 27.8907 100.278 28.648C100.278 29.416 100.486 30.024 100.902 30.472C101.328 30.92 101.867 31.144 102.518 31.144ZM116.887 33.304C116.14 33.304 115.479 33.176 114.903 32.92C114.338 32.664 113.863 32.3227 113.479 31.896C113.095 31.4587 112.807 30.9733 112.615 30.44C112.423 29.896 112.327 29.3413 112.327 28.776V28.456C112.327 27.88 112.423 27.32 112.615 26.776C112.807 26.232 113.095 25.7467 113.479 25.32C113.863 24.8933 114.327 24.5573 114.871 24.312C115.426 24.056 116.066 23.928 116.791 23.928C117.73 23.928 118.519 24.1413 119.159 24.568C119.81 24.984 120.306 25.5333 120.647 26.216C120.988 26.8987 121.159 27.6347 121.159 28.424V29.288H114.743C114.828 29.8853 115.042 30.36 115.383 30.712C115.735 31.0533 116.236 31.224 116.887 31.224C117.346 31.224 117.724 31.1387 118.023 30.968C118.332 30.7867 118.54 30.5573 118.647 30.28H120.999C120.807 31.176 120.343 31.9067 119.607 32.472C118.882 33.0267 117.975 33.304 116.887 33.304ZM116.791 26.008C116.236 26.008 115.783 26.168 115.431 26.488C115.09 26.7973 114.871 27.2453 114.775 27.832H118.711C118.626 27.2453 118.418 26.7973 118.087 26.488C117.767 26.168 117.335 26.008 116.791 26.008ZM122.856 33V24.232H124.888V26.456C125.229 24.792 126.178 23.96 127.736 23.96H127.848C129.202 23.96 130.098 24.5947 130.536 25.864C130.984 24.5947 131.885 23.96 133.24 23.96H133.352C134.344 23.96 135.101 24.3013 135.624 24.984C136.146 25.6667 136.408 26.6747 136.408 28.008V33H133.848V27.864C133.848 27.384 133.72 26.9947 133.464 26.696C133.218 26.3973 132.866 26.248 132.408 26.248C131.949 26.248 131.586 26.4027 131.32 26.712C131.053 27.0213 130.92 27.4213 130.92 27.912V33H128.344V27.864C128.344 27.384 128.216 26.9947 127.96 26.696C127.714 26.3973 127.368 26.248 126.92 26.248C126.45 26.248 126.082 26.4027 125.816 26.712C125.549 27.0213 125.416 27.4213 125.416 27.912V33H122.856ZM141.086 33.224C140.137 33.224 139.369 32.9787 138.782 32.488C138.206 31.9973 137.918 31.304 137.918 30.408C137.918 29.768 138.083 29.2453 138.414 28.84C138.745 28.424 139.209 28.12 139.806 27.928C140.403 27.7253 141.091 27.624 141.87 27.624H143.454V27.592C143.454 26.696 143.006 26.248 142.11 26.248C141.875 26.248 141.566 26.2587 141.182 26.28C140.798 26.2907 140.398 26.3067 139.982 26.328C139.577 26.3387 139.214 26.3547 138.894 26.376V24.216C139.267 24.184 139.726 24.1573 140.27 24.136C140.814 24.104 141.315 24.088 141.774 24.088C143.118 24.088 144.142 24.376 144.846 24.952C145.561 25.5173 145.918 26.408 145.918 27.624V33H143.886V31.352C143.694 31.96 143.363 32.424 142.894 32.744C142.425 33.064 141.822 33.224 141.086 33.224ZM141.854 31.448C142.27 31.448 142.633 31.3307 142.942 31.096C143.251 30.8613 143.422 30.4133 143.454 29.752V29.048H141.854C141.406 29.048 141.059 29.16 140.814 29.384C140.579 29.608 140.462 29.9013 140.462 30.264C140.462 30.616 140.579 30.904 140.814 31.128C141.059 31.3413 141.406 31.448 141.854 31.448ZM149.498 23.368C149.018 23.368 148.661 23.2453 148.426 23C148.202 22.744 148.09 22.424 148.09 22.04C148.09 21.6453 148.202 21.3253 148.426 21.08C148.661 20.824 149.018 20.696 149.498 20.696C149.978 20.696 150.33 20.824 150.554 21.08C150.789 21.3253 150.906 21.6453 150.906 22.04C150.906 22.424 150.789 22.744 150.554 23C150.33 23.2453 149.978 23.368 149.498 23.368ZM148.506 33V26.12H147.338V24.232H151.066V33H148.506ZM153.546 33V23.208H152.506V21.32H156.122V33H153.546Z" fill="url(#paint0_linear_667:39303)"/>
<path d="M8 1H216V-1H8V1ZM223 8V48H225V8H223ZM216 55H8V57H216V55ZM1 48V8H-1V48H1ZM8 55C4.134 55 1 51.866 1 48H-1C-1 52.9706 3.02943 57 8 57V55ZM223 48C223 51.866 219.866 55 216 55V57C220.971 57 225 52.9706 225 48H223ZM216 1C219.866 1 223 4.13401 223 8H225C225 3.02944 220.971 -1 216 -1V1ZM8 -1C3.02944 -1 -1 3.02944 -1 8H1C1 4.13401 4.13401 1 8 1V-1Z" fill="url(#paint1_linear_667:39303)"/>
<defs>
<linearGradient id="paint0_linear_667:39303" x1="54.2448" y1="24.2061" x2="200.88" y2="28.9327" gradientUnits="userSpaceOnUse">
<stop stop-color="#8758FE"/>
<stop offset="0.2326" stop-color="#B264FE"/>
<stop offset="0.6051" stop-color="#FF78FF"/>
</linearGradient>
<linearGradient id="paint1_linear_667:39303" x1="-28.6214" y1="21.3607" x2="328.056" y2="37.3566" gradientUnits="userSpaceOnUse">
<stop stop-color="#8758FE"/>
<stop offset="0.2326" stop-color="#B264FE"/>
<stop offset="0.6051" stop-color="#FF78FF"/>
</linearGradient>
</defs>
</svg>
