<svg width="104" height="105" viewBox="0 0 104 105" fill="none" xmlns="http://www.w3.org/2000/svg">
<path d="M49.8699 80.7521L102.214 76.8049L29.4226 103.013L49.8699 80.7521Z" stroke="#FF7D93" stroke-width="2" stroke-miterlimit="1"/>
<path d="M49.8699 80.7521L102.214 76.8049L29.4226 103.013L49.8699 80.7521Z" stroke="#FF7D93" stroke-width="2" stroke-miterlimit="1"/>
<path d="M27.2097 18.9689L79.5534 15.0217L6.76248 41.2293L27.2097 18.9689Z" stroke="#FF7D93" stroke-width="2" stroke-miterlimit="1"/>
<path d="M27.2097 18.9689L79.5534 15.0217L6.76248 41.2293L27.2097 18.9689Z" stroke="#FF7D93" stroke-width="2" stroke-miterlimit="1"/>
<path d="M27.2129 18.9688L79.5566 15.0215L102.215 76.8034L49.8713 80.7507L27.2129 18.9688Z" stroke="#FF7D93" stroke-width="2" stroke-miterlimit="1"/>
<path d="M27.2129 18.9688L79.5566 15.0215L102.215 76.8034L49.8713 80.7507L27.2129 18.9688Z" stroke="#FF7D93" stroke-width="2" stroke-miterlimit="1"/>
<path d="M79.5526 15.0209L102.211 76.8028L29.4201 103.01L6.76172 41.2285L79.5526 15.0209Z" stroke="#FF7D93" stroke-width="2" stroke-miterlimit="1"/>
<path d="M79.5526 15.0209L102.211 76.8028L29.4201 103.01L6.76172 41.2285L79.5526 15.0209Z" stroke="#FF7D93" stroke-width="2" stroke-miterlimit="1"/>
<path d="M6.76248 41.2293L27.2097 18.9689L49.8681 80.7509L29.4209 103.011L6.76248 41.2293Z" stroke="#FF7D93" stroke-width="2" stroke-miterlimit="1"/>
<path d="M6.76248 41.2293L27.2097 18.9689L49.8681 80.7509L29.4209 103.011L6.76248 41.2293Z" stroke="#FF7D93" stroke-width="2" stroke-miterlimit="1"/>
</svg>
