<svg width="125" height="104" viewBox="0 0 125 104" fill="none" xmlns="http://www.w3.org/2000/svg">
<path d="M109.985 77.6891C117.211 64.2628 113.812 48.3974 102.394 42.2528C90.9764 36.1082 75.863 42.0112 68.6375 55.4375C61.4121 68.8639 64.8107 84.7292 76.2286 90.8738C87.6465 97.0184 102.76 91.1154 109.985 77.6891Z" stroke="#FFF399" stroke-width="2" stroke-miterlimit="10"/>
<path d="M56.4306 48.5621C63.6561 35.1358 60.2575 19.2705 48.8396 13.1259C37.4217 6.98126 22.3083 12.8843 15.0828 26.3106C7.85739 39.7369 11.256 55.6023 22.6739 61.7469C34.0918 67.8915 49.2052 61.9885 56.4306 48.5621Z" stroke="#FFF399" stroke-width="2" stroke-miterlimit="10"/>
<path d="M76.2312 90.8822L22.6582 61.6914" stroke="#FFF399" stroke-width="2" stroke-miterlimit="10"/>
<path d="M48.8496 13.0977L102.366 42.2318" stroke="#FFF399" stroke-width="2" stroke-miterlimit="10"/>
<path d="M68.6491 55.4135L15.0762 26.2793" stroke="#FFF399" stroke-width="2" stroke-miterlimit="10"/>
</svg>
