<svg width="148" height="122" viewBox="0 0 148 122" fill="none" xmlns="http://www.w3.org/2000/svg">
<path d="M127.905 38.1424L109.455 88.8317L6.18439 63.1643L24.6338 12.4749L127.905 38.1424Z" stroke="#AFEDAD" stroke-width="2" stroke-miterlimit="1"/>
<path d="M127.905 38.1424L109.455 88.8317L6.18439 63.1643L24.6338 12.4749L127.905 38.1424Z" stroke="#AFEDAD" stroke-width="2" stroke-miterlimit="1"/>
<path d="M109.455 88.8318L122.877 109.527L19.6065 83.8593L6.1846 63.1643L109.455 88.8318Z" stroke="#AFEDAD" stroke-width="2" stroke-miterlimit="1"/>
<path d="M109.455 88.8318L122.877 109.527L19.6065 83.8593L6.1846 63.1643L109.455 88.8318Z" stroke="#AFEDAD" stroke-width="2" stroke-miterlimit="1"/>
<path d="M122.877 109.527L19.6063 83.8596L38.0759 33.1148L141.327 58.8377L122.877 109.527Z" stroke="#AFEDAD" stroke-width="2" stroke-miterlimit="1"/>
<path d="M122.877 109.527L19.6063 83.8596L38.0759 33.1148L141.327 58.8377L122.877 109.527Z" stroke="#AFEDAD" stroke-width="2" stroke-miterlimit="1"/>
<path d="M141.327 58.8373L38.0759 33.1144L24.6338 12.4749L127.905 38.1424L141.327 58.8373Z" stroke="#AFEDAD" stroke-width="2" stroke-miterlimit="1"/>
<path d="M141.327 58.8373L38.0759 33.1144L24.6338 12.4749L127.905 38.1424L141.327 58.8373Z" stroke="#AFEDAD" stroke-width="2" stroke-miterlimit="1"/>
</svg>
