<svg width="160" height="56" viewBox="0 0 160 56" fill="none" xmlns="http://www.w3.org/2000/svg">
<path d="M0 8C0 3.58172 3.58172 0 8 0H152C156.418 0 160 3.58172 160 8V48C160 52.4183 156.418 56 152 56H8C3.58172 56 0 52.4183 0 48V8Z" fill="url(#paint0_linear_1281_3770)"/>
<path d="M36.812 33V21.224H41.404C42.8653 21.224 44.0227 21.5547 44.876 22.216C45.7293 22.8667 46.156 23.8427 46.156 25.144V25.4C46.156 26.2533 45.9587 26.968 45.564 27.544C45.18 28.1093 44.6413 28.536 43.948 28.824L46.94 33H43.9L41.34 29.256H39.436V33H36.812ZM41.612 23.448H39.436V27.192H41.612C42.1773 27.192 42.6307 27.0213 42.972 26.68C43.324 26.3387 43.5 25.8853 43.5 25.32C43.5 24.7653 43.324 24.3173 42.972 23.976C42.6307 23.624 42.1773 23.448 41.612 23.448ZM52.2153 33.304C51.4686 33.304 50.8073 33.176 50.2313 32.92C49.6659 32.664 49.1913 32.3227 48.8073 31.896C48.4233 31.4587 48.1353 30.9733 47.9433 30.44C47.7513 29.896 47.6553 29.3413 47.6553 28.776V28.456C47.6553 27.88 47.7513 27.32 47.9433 26.776C48.1353 26.232 48.4233 25.7467 48.8073 25.32C49.1913 24.8933 49.6553 24.5573 50.1993 24.312C50.7539 24.056 51.3939 23.928 52.1193 23.928C53.0579 23.928 53.8473 24.1413 54.4873 24.568C55.1379 24.984 55.6339 25.5333 55.9753 26.216C56.3166 26.8987 56.4873 27.6347 56.4873 28.424V29.288H50.0713C50.1566 29.8853 50.3699 30.36 50.7113 30.712C51.0633 31.0533 51.5646 31.224 52.2153 31.224C52.6739 31.224 53.0526 31.1387 53.3513 30.968C53.6606 30.7867 53.8686 30.5573 53.9753 30.28H56.3273C56.1353 31.176 55.6713 31.9067 54.9353 32.472C54.2099 33.0267 53.3033 33.304 52.2153 33.304ZM52.1193 26.008C51.5646 26.008 51.1113 26.168 50.7593 26.488C50.4179 26.7973 50.1993 27.2453 50.1033 27.832H54.0393C53.9539 27.2453 53.7459 26.7973 53.4153 26.488C53.0953 26.168 52.6633 26.008 52.1193 26.008ZM60.6796 33.224C59.7303 33.224 58.9623 32.9787 58.3756 32.488C57.7996 31.9973 57.5116 31.304 57.5116 30.408C57.5116 29.768 57.677 29.2453 58.0076 28.84C58.3383 28.424 58.8023 28.12 59.3996 27.928C59.997 27.7253 60.685 27.624 61.4636 27.624H63.0476V27.592C63.0476 26.696 62.5996 26.248 61.7036 26.248C61.469 26.248 61.1596 26.2587 60.7756 26.28C60.3916 26.2907 59.9916 26.3067 59.5756 26.328C59.1703 26.3387 58.8076 26.3547 58.4876 26.376V24.216C58.861 24.184 59.3196 24.1573 59.8636 24.136C60.4076 24.104 60.909 24.088 61.3676 24.088C62.7116 24.088 63.7356 24.376 64.4396 24.952C65.1543 25.5173 65.5116 26.408 65.5116 27.624V33H63.4796V31.352C63.2876 31.96 62.957 32.424 62.4876 32.744C62.0183 33.064 61.4156 33.224 60.6796 33.224ZM61.4476 31.448C61.8636 31.448 62.2263 31.3307 62.5356 31.096C62.845 30.8613 63.0156 30.4133 63.0476 29.752V29.048H61.4476C60.9996 29.048 60.653 29.16 60.4076 29.384C60.173 29.608 60.0556 29.9013 60.0556 30.264C60.0556 30.616 60.173 30.904 60.4076 31.128C60.653 31.3413 60.9996 31.448 61.4476 31.448ZM71.2996 33.288C70.4783 33.288 69.753 33.096 69.1236 32.712C68.505 32.3173 68.0196 31.784 67.6676 31.112C67.3156 30.44 67.1396 29.6827 67.1396 28.84V28.472C67.1396 27.6293 67.305 26.8667 67.6356 26.184C67.9663 25.5013 68.4356 24.9627 69.0436 24.568C69.6623 24.1733 70.3823 23.976 71.2036 23.976C72.4836 23.976 73.4276 24.4613 74.0356 25.432V21.32H76.6116V33H74.5796V31.16C74.2916 31.8533 73.865 32.3813 73.2996 32.744C72.7343 33.1067 72.0676 33.288 71.2996 33.288ZM71.9396 31.144C72.5263 31.144 73.033 30.9467 73.4596 30.552C73.8863 30.1573 74.0996 29.5973 74.0996 28.872V28.28C74.0996 27.8213 73.9983 27.432 73.7956 27.112C73.593 26.7813 73.3263 26.5307 72.9956 26.36C72.665 26.1893 72.3076 26.104 71.9236 26.104C71.273 26.104 70.7396 26.3387 70.3236 26.808C69.9076 27.2773 69.6996 27.8907 69.6996 28.648C69.6996 29.416 69.9076 30.024 70.3236 30.472C70.7503 30.92 71.289 31.144 71.9396 31.144ZM82.293 33V24.232H84.325V26.456C84.6663 24.792 85.6157 23.96 87.173 23.96H87.285C88.6397 23.96 89.5357 24.5947 89.973 25.864C90.421 24.5947 91.3223 23.96 92.677 23.96H92.789C93.781 23.96 94.5383 24.3013 95.061 24.984C95.5837 25.6667 95.845 26.6747 95.845 28.008V33H93.285V27.864C93.285 27.384 93.157 26.9947 92.901 26.696C92.6557 26.3973 92.3037 26.248 91.845 26.248C91.3863 26.248 91.0237 26.4027 90.757 26.712C90.4903 27.0213 90.357 27.4213 90.357 27.912V33H87.781V27.864C87.781 27.384 87.653 26.9947 87.397 26.696C87.1517 26.3973 86.805 26.248 86.357 26.248C85.8877 26.248 85.5197 26.4027 85.253 26.712C84.9863 27.0213 84.853 27.4213 84.853 27.912V33H82.293ZM102.299 33.304C101.275 33.304 100.401 33.096 99.6754 32.68C98.9607 32.264 98.4167 31.72 98.0434 31.048C97.67 30.3653 97.4834 29.624 97.4834 28.824V28.456C97.4834 27.6347 97.6754 26.8827 98.0594 26.2C98.454 25.5067 99.0087 24.9573 99.7234 24.552C100.449 24.136 101.307 23.928 102.299 23.928C103.291 23.928 104.15 24.136 104.875 24.552C105.601 24.9573 106.155 25.5067 106.539 26.2C106.934 26.8827 107.131 27.6347 107.131 28.456V28.824C107.131 29.624 106.939 30.3653 106.555 31.048C106.182 31.72 105.638 32.264 104.923 32.68C104.209 33.096 103.334 33.304 102.299 33.304ZM102.299 31.144C103.035 31.144 103.595 30.9093 103.979 30.44C104.374 29.96 104.571 29.3627 104.571 28.648C104.571 27.912 104.369 27.304 103.963 26.824C103.569 26.3333 103.014 26.088 102.299 26.088C101.585 26.088 101.03 26.3333 100.635 26.824C100.241 27.304 100.043 27.912 100.043 28.648C100.043 29.3627 100.235 29.96 100.619 30.44C101.003 30.9093 101.563 31.144 102.299 31.144ZM108.918 33V24.232H110.95V27.208C111.046 26.216 111.35 25.4533 111.862 24.92C112.385 24.3867 113.094 24.12 113.99 24.12H114.326V26.328H113.686C112.971 26.328 112.422 26.52 112.038 26.904C111.665 27.288 111.478 27.832 111.478 28.536V33H108.918ZM119.622 33.304C118.875 33.304 118.214 33.176 117.638 32.92C117.072 32.664 116.598 32.3227 116.214 31.896C115.83 31.4587 115.542 30.9733 115.35 30.44C115.158 29.896 115.062 29.3413 115.062 28.776V28.456C115.062 27.88 115.158 27.32 115.35 26.776C115.542 26.232 115.83 25.7467 116.214 25.32C116.598 24.8933 117.062 24.5573 117.606 24.312C118.16 24.056 118.8 23.928 119.526 23.928C120.464 23.928 121.254 24.1413 121.894 24.568C122.544 24.984 123.04 25.5333 123.382 26.216C123.723 26.8987 123.894 27.6347 123.894 28.424V29.288H117.478C117.563 29.8853 117.776 30.36 118.118 30.712C118.47 31.0533 118.971 31.224 119.622 31.224C120.08 31.224 120.459 31.1387 120.758 30.968C121.067 30.7867 121.275 30.5573 121.382 30.28H123.734C123.542 31.176 123.078 31.9067 122.342 32.472C121.616 33.0267 120.71 33.304 119.622 33.304ZM119.526 26.008C118.971 26.008 118.518 26.168 118.166 26.488C117.824 26.7973 117.606 27.2453 117.51 27.832H121.446C121.36 27.2453 121.152 26.7973 120.822 26.488C120.502 26.168 120.07 26.008 119.526 26.008Z" fill="white"/>
<defs>
<linearGradient id="paint0_linear_1281_3770" x1="-20.4438" y1="21.3607" x2="234.577" y2="29.5299" gradientUnits="userSpaceOnUse">
<stop stop-color="#8758FE"/>
<stop offset="0.2326" stop-color="#B264FE"/>
<stop offset="0.6051" stop-color="#FF78FF"/>
</linearGradient>
</defs>
</svg>
