<svg width="153" height="56" viewBox="0 0 153 56" fill="none" xmlns="http://www.w3.org/2000/svg">
<path d="M33.312 33V21.224H37.904C39.3653 21.224 40.5227 21.5547 41.376 22.216C42.2293 22.8667 42.656 23.8427 42.656 25.144V25.4C42.656 26.2533 42.4587 26.968 42.064 27.544C41.68 28.1093 41.1413 28.536 40.448 28.824L43.44 33H40.4L37.84 29.256H35.936V33H33.312ZM38.112 23.448H35.936V27.192H38.112C38.6773 27.192 39.1307 27.0213 39.472 26.68C39.824 26.3387 40 25.8853 40 25.32C40 24.7653 39.824 24.3173 39.472 23.976C39.1307 23.624 38.6773 23.448 38.112 23.448ZM48.7153 33.304C47.9686 33.304 47.3073 33.176 46.7313 32.92C46.1659 32.664 45.6913 32.3227 45.3073 31.896C44.9233 31.4587 44.6353 30.9733 44.4433 30.44C44.2513 29.896 44.1553 29.3413 44.1553 28.776V28.456C44.1553 27.88 44.2513 27.32 44.4433 26.776C44.6353 26.232 44.9233 25.7467 45.3073 25.32C45.6913 24.8933 46.1553 24.5573 46.6993 24.312C47.2539 24.056 47.8939 23.928 48.6193 23.928C49.5579 23.928 50.3473 24.1413 50.9873 24.568C51.6379 24.984 52.1339 25.5333 52.4753 26.216C52.8166 26.8987 52.9873 27.6347 52.9873 28.424V29.288H46.5713C46.6566 29.8853 46.8699 30.36 47.2113 30.712C47.5633 31.0533 48.0646 31.224 48.7153 31.224C49.1739 31.224 49.5526 31.1387 49.8513 30.968C50.1606 30.7867 50.3686 30.5573 50.4753 30.28H52.8273C52.6353 31.176 52.1713 31.9067 51.4353 32.472C50.7099 33.0267 49.8033 33.304 48.7153 33.304ZM48.6193 26.008C48.0646 26.008 47.6113 26.168 47.2593 26.488C46.9179 26.7973 46.6993 27.2453 46.6033 27.832H50.5393C50.4539 27.2453 50.2459 26.7973 49.9153 26.488C49.5953 26.168 49.1633 26.008 48.6193 26.008ZM57.1796 33.224C56.2303 33.224 55.4623 32.9787 54.8756 32.488C54.2996 31.9973 54.0116 31.304 54.0116 30.408C54.0116 29.768 54.177 29.2453 54.5076 28.84C54.8383 28.424 55.3023 28.12 55.8996 27.928C56.497 27.7253 57.185 27.624 57.9636 27.624H59.5476V27.592C59.5476 26.696 59.0996 26.248 58.2036 26.248C57.969 26.248 57.6596 26.2587 57.2756 26.28C56.8916 26.2907 56.4916 26.3067 56.0756 26.328C55.6703 26.3387 55.3076 26.3547 54.9876 26.376V24.216C55.361 24.184 55.8196 24.1573 56.3636 24.136C56.9076 24.104 57.409 24.088 57.8676 24.088C59.2116 24.088 60.2356 24.376 60.9396 24.952C61.6543 25.5173 62.0116 26.408 62.0116 27.624V33H59.9796V31.352C59.7876 31.96 59.457 32.424 58.9876 32.744C58.5183 33.064 57.9156 33.224 57.1796 33.224ZM57.9476 31.448C58.3636 31.448 58.7263 31.3307 59.0356 31.096C59.345 30.8613 59.5156 30.4133 59.5476 29.752V29.048H57.9476C57.4996 29.048 57.153 29.16 56.9076 29.384C56.673 29.608 56.5556 29.9013 56.5556 30.264C56.5556 30.616 56.673 30.904 56.9076 31.128C57.153 31.3413 57.4996 31.448 57.9476 31.448ZM67.7996 33.288C66.9783 33.288 66.253 33.096 65.6236 32.712C65.005 32.3173 64.5196 31.784 64.1676 31.112C63.8156 30.44 63.6396 29.6827 63.6396 28.84V28.472C63.6396 27.6293 63.805 26.8667 64.1356 26.184C64.4663 25.5013 64.9356 24.9627 65.5436 24.568C66.1623 24.1733 66.8823 23.976 67.7036 23.976C68.9836 23.976 69.9276 24.4613 70.5356 25.432V21.32H73.1116V33H71.0796V31.16C70.7916 31.8533 70.365 32.3813 69.7996 32.744C69.2343 33.1067 68.5676 33.288 67.7996 33.288ZM68.4396 31.144C69.0263 31.144 69.533 30.9467 69.9596 30.552C70.3863 30.1573 70.5996 29.5973 70.5996 28.872V28.28C70.5996 27.8213 70.4983 27.432 70.2956 27.112C70.093 26.7813 69.8263 26.5307 69.4956 26.36C69.165 26.1893 68.8076 26.104 68.4236 26.104C67.773 26.104 67.2396 26.3387 66.8236 26.808C66.4076 27.2773 66.1996 27.8907 66.1996 28.648C66.1996 29.416 66.4076 30.024 66.8236 30.472C67.2503 30.92 67.789 31.144 68.4396 31.144ZM78.793 33V24.232H80.825V26.456C81.1663 24.792 82.1157 23.96 83.673 23.96H83.785C85.1397 23.96 86.0357 24.5947 86.473 25.864C86.921 24.5947 87.8223 23.96 89.177 23.96H89.289C90.281 23.96 91.0383 24.3013 91.561 24.984C92.0837 25.6667 92.345 26.6747 92.345 28.008V33H89.785V27.864C89.785 27.384 89.657 26.9947 89.401 26.696C89.1557 26.3973 88.8037 26.248 88.345 26.248C87.8863 26.248 87.5237 26.4027 87.257 26.712C86.9903 27.0213 86.857 27.4213 86.857 27.912V33H84.281V27.864C84.281 27.384 84.153 26.9947 83.897 26.696C83.6517 26.3973 83.305 26.248 82.857 26.248C82.3877 26.248 82.0197 26.4027 81.753 26.712C81.4863 27.0213 81.353 27.4213 81.353 27.912V33H78.793ZM98.7994 33.304C97.7754 33.304 96.9007 33.096 96.1754 32.68C95.4607 32.264 94.9167 31.72 94.5434 31.048C94.17 30.3653 93.9834 29.624 93.9834 28.824V28.456C93.9834 27.6347 94.1754 26.8827 94.5594 26.2C94.954 25.5067 95.5087 24.9573 96.2234 24.552C96.9487 24.136 97.8074 23.928 98.7994 23.928C99.7914 23.928 100.65 24.136 101.375 24.552C102.101 24.9573 102.655 25.5067 103.039 26.2C103.434 26.8827 103.631 27.6347 103.631 28.456V28.824C103.631 29.624 103.439 30.3653 103.055 31.048C102.682 31.72 102.138 32.264 101.423 32.68C100.709 33.096 99.834 33.304 98.7994 33.304ZM98.7994 31.144C99.5354 31.144 100.095 30.9093 100.479 30.44C100.874 29.96 101.071 29.3627 101.071 28.648C101.071 27.912 100.869 27.304 100.463 26.824C100.069 26.3333 99.514 26.088 98.7994 26.088C98.0847 26.088 97.53 26.3333 97.1354 26.824C96.7407 27.304 96.5434 27.912 96.5434 28.648C96.5434 29.3627 96.7354 29.96 97.1194 30.44C97.5034 30.9093 98.0634 31.144 98.7994 31.144ZM105.418 33V24.232H107.45V27.208C107.546 26.216 107.85 25.4533 108.362 24.92C108.885 24.3867 109.594 24.12 110.49 24.12H110.826V26.328H110.186C109.471 26.328 108.922 26.52 108.538 26.904C108.165 27.288 107.978 27.832 107.978 28.536V33H105.418ZM116.122 33.304C115.375 33.304 114.714 33.176 114.138 32.92C113.572 32.664 113.098 32.3227 112.714 31.896C112.33 31.4587 112.042 30.9733 111.85 30.44C111.658 29.896 111.562 29.3413 111.562 28.776V28.456C111.562 27.88 111.658 27.32 111.85 26.776C112.042 26.232 112.33 25.7467 112.714 25.32C113.098 24.8933 113.562 24.5573 114.106 24.312C114.66 24.056 115.3 23.928 116.026 23.928C116.964 23.928 117.754 24.1413 118.394 24.568C119.044 24.984 119.54 25.5333 119.882 26.216C120.223 26.8987 120.394 27.6347 120.394 28.424V29.288H113.978C114.063 29.8853 114.276 30.36 114.618 30.712C114.97 31.0533 115.471 31.224 116.122 31.224C116.58 31.224 116.959 31.1387 117.258 30.968C117.567 30.7867 117.775 30.5573 117.882 30.28H120.234C120.042 31.176 119.578 31.9067 118.842 32.472C118.116 33.0267 117.21 33.304 116.122 33.304ZM116.026 26.008C115.471 26.008 115.018 26.168 114.666 26.488C114.324 26.7973 114.106 27.2453 114.01 27.832H117.946C117.86 27.2453 117.652 26.7973 117.322 26.488C117.002 26.168 116.57 26.008 116.026 26.008Z" fill="url(#paint0_linear_845:14478)"/>
<path d="M8 2H145V-2H8V2ZM151 8V48H155V8H151ZM145 54H8V58H145V54ZM2 48V8H-2V48H2ZM8 54C4.68629 54 2 51.3137 2 48H-2C-2 53.5228 2.47715 58 8 58V54ZM151 48C151 51.3137 148.314 54 145 54V58C150.523 58 155 53.5228 155 48H151ZM145 2C148.314 2 151 4.68629 151 8H155C155 2.47715 150.523 -2 145 -2V2ZM8 -2C2.47715 -2 -2 2.47715 -2 8H2C2 4.68629 4.68629 2 8 2V-2Z" fill="url(#paint1_linear_845:14478)"/>
<defs>
<linearGradient id="paint0_linear_845:14478" x1="20.6281" y1="24.2061" x2="162.491" y2="28.6298" gradientUnits="userSpaceOnUse">
<stop stop-color="#8758FE"/>
<stop offset="0.2326" stop-color="#B264FE"/>
<stop offset="0.6051" stop-color="#FF78FF"/>
</linearGradient>
<linearGradient id="paint1_linear_845:14478" x1="-19.5494" y1="21.3607" x2="224.335" y2="28.8314" gradientUnits="userSpaceOnUse">
<stop stop-color="#8758FE"/>
<stop offset="0.2326" stop-color="#B264FE"/>
<stop offset="0.6051" stop-color="#FF78FF"/>
</linearGradient>
</defs>
</svg>
