<svg width="160" height="56" viewBox="0 0 160 56" fill="none" xmlns="http://www.w3.org/2000/svg">
<path d="M0 8C0 3.58172 3.58172 0 8 0H152C156.418 0 160 3.58172 160 8V48C160 52.4183 156.418 56 152 56H8C3.58172 56 0 52.4183 0 48V8Z" fill="url(#paint0_linear_1281_3770)"/>
<path d="M38.376 33.304C37.32 33.304 36.424 33.1387 35.688 32.808C34.9627 32.4773 34.4133 32.0187 34.04 31.432C33.6773 30.8453 33.496 30.1733 33.496 29.416H36.04C36.04 29.864 36.2213 30.2587 36.584 30.6C36.9573 30.9307 37.5547 31.096 38.376 31.096C39.1013 31.096 39.656 30.9573 40.04 30.68C40.424 30.392 40.616 30.024 40.616 29.576C40.616 29.2027 40.456 28.9093 40.136 28.696C39.816 28.472 39.2987 28.328 38.584 28.264L37.704 28.184C36.5413 28.088 35.6133 27.7307 34.92 27.112C34.2267 26.4827 33.88 25.6453 33.88 24.6C33.88 23.8533 34.056 23.208 34.408 22.664C34.7707 22.12 35.272 21.704 35.912 21.416C36.552 21.1173 37.3093 20.968 38.184 20.968C39.1013 20.968 39.8853 21.128 40.536 21.448C41.1973 21.768 41.704 22.216 42.056 22.792C42.408 23.3573 42.584 24.0187 42.584 24.776H40.024C40.024 24.3493 39.8693 23.976 39.56 23.656C39.2507 23.336 38.792 23.176 38.184 23.176C37.5973 23.176 37.16 23.32 36.872 23.608C36.584 23.8853 36.44 24.216 36.44 24.6C36.44 24.9307 36.552 25.2187 36.776 25.464C37.0107 25.7093 37.4 25.8533 37.944 25.896L38.84 25.976C39.6933 26.0507 40.4453 26.2373 41.096 26.536C41.7467 26.824 42.2533 27.224 42.616 27.736C42.9893 28.2373 43.176 28.8507 43.176 29.576C43.176 30.3227 42.9787 30.9787 42.584 31.544C42.2 32.0987 41.6507 32.5307 40.936 32.84C40.2213 33.1493 39.368 33.304 38.376 33.304ZM44.8399 33V21.32H47.3999V25.672C47.8692 24.5307 48.7332 23.96 49.9919 23.96H50.1039C51.0745 23.96 51.8159 24.3067 52.3279 25C52.8399 25.6827 53.0959 26.6853 53.0959 28.008V33H50.5359V27.848C50.5359 27.368 50.3919 26.984 50.1039 26.696C49.8265 26.3973 49.4585 26.248 48.9999 26.248C48.5199 26.248 48.1305 26.408 47.8319 26.728C47.5439 27.0373 47.3999 27.4427 47.3999 27.944V33H44.8399ZM59.5494 33.304C58.5254 33.304 57.6507 33.096 56.9254 32.68C56.2107 32.264 55.6667 31.72 55.2934 31.048C54.92 30.3653 54.7334 29.624 54.7334 28.824V28.456C54.7334 27.6347 54.9254 26.8827 55.3094 26.2C55.704 25.5067 56.2587 24.9573 56.9734 24.552C57.6987 24.136 58.5574 23.928 59.5494 23.928C60.5414 23.928 61.4 24.136 62.1254 24.552C62.8507 24.9573 63.4054 25.5067 63.7894 26.2C64.184 26.8827 64.3814 27.6347 64.3814 28.456V28.824C64.3814 29.624 64.1894 30.3653 63.8054 31.048C63.432 31.72 62.888 32.264 62.1734 32.68C61.4587 33.096 60.584 33.304 59.5494 33.304ZM59.5494 31.144C60.2854 31.144 60.8454 30.9093 61.2294 30.44C61.624 29.96 61.8214 29.3627 61.8214 28.648C61.8214 27.912 61.6187 27.304 61.2134 26.824C60.8187 26.3333 60.264 26.088 59.5494 26.088C58.8347 26.088 58.28 26.3333 57.8854 26.824C57.4907 27.304 57.2934 27.912 57.2934 28.648C57.2934 29.3627 57.4854 29.96 57.8694 30.44C58.2534 30.9093 58.8134 31.144 59.5494 31.144ZM67.4209 33L65.0689 24.232H67.5809L69.2289 30.872H69.5809L70.7809 24.52H73.5809L74.9569 30.872H75.2929L76.7809 24.232H79.1329L77.0209 33H73.4529L72.1409 27.24L70.9729 33H67.4209ZM84.0743 33V24.232H86.1063V26.456C86.4476 24.792 87.3969 23.96 88.9543 23.96H89.0663C90.4209 23.96 91.3169 24.5947 91.7543 25.864C92.2023 24.5947 93.1036 23.96 94.4583 23.96H94.5703C95.5623 23.96 96.3196 24.3013 96.8423 24.984C97.3649 25.6667 97.6263 26.6747 97.6263 28.008V33H95.0663V27.864C95.0663 27.384 94.9383 26.9947 94.6823 26.696C94.4369 26.3973 94.0849 26.248 93.6263 26.248C93.1676 26.248 92.8049 26.4027 92.5383 26.712C92.2716 27.0213 92.1383 27.4213 92.1383 27.912V33H89.5623V27.864C89.5623 27.384 89.4343 26.9947 89.1783 26.696C88.9329 26.3973 88.5863 26.248 88.1383 26.248C87.6689 26.248 87.3009 26.4027 87.0343 26.712C86.7676 27.0213 86.6343 27.4213 86.6343 27.912V33H84.0743ZM104.081 33.304C103.057 33.304 102.182 33.096 101.457 32.68C100.742 32.264 100.198 31.72 99.8246 31.048C99.4513 30.3653 99.2646 29.624 99.2646 28.824V28.456C99.2646 27.6347 99.4566 26.8827 99.8406 26.2C100.235 25.5067 100.79 24.9573 101.505 24.552C102.23 24.136 103.089 23.928 104.081 23.928C105.073 23.928 105.931 24.136 106.657 24.552C107.382 24.9573 107.937 25.5067 108.321 26.2C108.715 26.8827 108.913 27.6347 108.913 28.456V28.824C108.913 29.624 108.721 30.3653 108.337 31.048C107.963 31.72 107.419 32.264 106.705 32.68C105.99 33.096 105.115 33.304 104.081 33.304ZM104.081 31.144C104.817 31.144 105.377 30.9093 105.761 30.44C106.155 29.96 106.353 29.3627 106.353 28.648C106.353 27.912 106.15 27.304 105.745 26.824C105.35 26.3333 104.795 26.088 104.081 26.088C103.366 26.088 102.811 26.3333 102.417 26.824C102.022 27.304 101.825 27.912 101.825 28.648C101.825 29.3627 102.017 29.96 102.401 30.44C102.785 30.9093 103.345 31.144 104.081 31.144ZM110.699 33V24.232H112.731V27.208C112.827 26.216 113.131 25.4533 113.643 24.92C114.166 24.3867 114.875 24.12 115.771 24.12H116.107V26.328H115.467C114.753 26.328 114.203 26.52 113.819 26.904C113.446 27.288 113.259 27.832 113.259 28.536V33H110.699ZM121.403 33.304C120.656 33.304 119.995 33.176 119.419 32.92C118.853 32.664 118.379 32.3227 117.995 31.896C117.611 31.4587 117.323 30.9733 117.131 30.44C116.939 29.896 116.843 29.3413 116.843 28.776V28.456C116.843 27.88 116.939 27.32 117.131 26.776C117.323 26.232 117.611 25.7467 117.995 25.32C118.379 24.8933 118.843 24.5573 119.387 24.312C119.941 24.056 120.581 23.928 121.307 23.928C122.245 23.928 123.035 24.1413 123.675 24.568C124.325 24.984 124.821 25.5333 125.163 26.216C125.504 26.8987 125.675 27.6347 125.675 28.424V29.288H119.259C119.344 29.8853 119.557 30.36 119.899 30.712C120.251 31.0533 120.752 31.224 121.403 31.224C121.861 31.224 122.24 31.1387 122.539 30.968C122.848 30.7867 123.056 30.5573 123.163 30.28H125.515C125.323 31.176 124.859 31.9067 124.123 32.472C123.397 33.0267 122.491 33.304 121.403 33.304ZM121.307 26.008C120.752 26.008 120.299 26.168 119.947 26.488C119.605 26.7973 119.387 27.2453 119.291 27.832H123.227C123.141 27.2453 122.933 26.7973 122.603 26.488C122.283 26.168 121.851 26.008 121.307 26.008Z" fill="white"/>
<defs>
<linearGradient id="paint0_linear_1281_3770" x1="-20.4438" y1="21.3607" x2="234.577" y2="29.5299" gradientUnits="userSpaceOnUse">
<stop stop-color="#8758FE"/>
<stop offset="0.2326" stop-color="#B264FE"/>
<stop offset="0.6051" stop-color="#FF78FF"/>
</linearGradient>
</defs>
</svg>
