<svg width="561" height="324" viewBox="0 0 561 324" fill="none" xmlns="http://www.w3.org/2000/svg">
<path d="M179.832 127.367C171.664 128.734 163.652 130.42 155.846 132.413C151.955 133.418 148.117 134.501 144.409 135.725C140.686 136.923 137.137 138.308 133.798 139.864C132.141 140.64 130.587 141.492 129.15 142.413C127.713 143.32 126.462 144.328 125.425 145.415C124.407 146.49 123.753 147.677 123.5 148.906C123.28 150.128 123.523 151.365 124.209 152.523C124.907 153.69 125.898 154.785 127.148 155.771C128.413 156.766 129.829 157.688 131.377 158.526C134.514 160.206 137.914 161.7 141.528 162.986C143.313 163.657 145.172 164.257 147.015 164.871C148.896 165.448 150.757 166.044 152.676 166.576C156.476 167.684 160.378 168.667 164.286 169.636C172.139 171.527 180.143 173.191 188.213 174.739L212.478 179.37L236.761 183.969C269.153 190.073 301.641 195.988 334.01 202.131C366.358 208.318 398.758 214.401 431.052 220.714L430.965 220.893C398.161 215.608 365.618 209.78 333.096 203.918C300.596 198.007 268.305 191.693 236.009 185.395L211.792 180.662L187.593 175.896C179.517 174.297 171.492 172.58 163.614 170.632C159.69 169.634 155.774 168.622 151.951 167.481C150.023 166.934 148.146 166.32 146.254 165.726C144.394 165.093 142.521 164.475 140.715 163.783C137.046 162.439 133.6 160.886 130.427 159.143C128.835 158.259 127.382 157.288 126.087 156.243C124.779 155.184 123.748 154.01 123.032 152.762C122.314 151.497 122.078 150.15 122.345 148.823C122.64 147.507 123.365 146.24 124.479 145.094C125.58 143.969 126.902 142.929 128.417 141.995C129.907 141.063 131.514 140.203 133.225 139.422C136.633 137.872 140.252 136.498 144.042 135.313C147.801 134.107 151.68 133.048 155.606 132.068C163.472 130.127 171.539 128.496 179.755 127.186L179.832 127.367Z" fill="url(#paint0_linear_850:15188)"/>
<path d="M177.59 127.279C173.456 128.009 169.37 128.834 165.319 129.71C161.265 130.581 157.245 131.509 153.28 132.512C145.367 134.527 137.597 136.799 130.474 139.648C126.904 141.039 123.598 142.661 120.615 144.485C119.161 145.391 117.874 146.39 116.777 147.463C115.696 148.512 114.93 149.668 114.516 150.878C114.125 152.071 114.179 153.301 114.677 154.48C115.199 155.668 116.055 156.794 117.206 157.809C118.373 158.846 119.719 159.806 121.222 160.671C122.735 161.553 124.342 162.374 126.033 163.129C129.46 164.642 133.069 166 136.829 167.192C140.594 168.396 144.441 169.511 148.372 170.538C156.22 172.594 164.292 174.358 172.447 175.968L221.679 185.435L320.223 204.261L418.816 223.019L406.358 220.942L393.925 218.814L369.075 214.519C352.532 211.607 336.009 208.655 319.506 205.663C302.994 202.687 286.534 199.611 270.061 196.559C253.607 193.469 237.167 190.353 220.74 187.213C204.325 184.04 187.926 180.877 171.531 177.633C163.336 175.969 155.214 174.15 147.285 172.025C139.375 169.894 131.594 167.472 124.609 164.257C122.859 163.448 121.199 162.572 119.639 161.632C118.05 160.686 116.634 159.641 115.413 158.515C114.159 157.368 113.24 156.101 112.696 154.767C112.164 153.414 112.139 152.006 112.621 150.646C113.113 149.31 113.992 148.038 115.218 146.886C116.412 145.758 117.806 144.711 119.374 143.763C122.485 141.91 125.937 140.276 129.662 138.894C137.034 136.112 144.944 133.957 152.978 132.061C161.018 130.175 169.236 128.578 177.59 127.279Z" fill="url(#paint1_linear_850:15188)"/>
<path d="M177.591 127.279C173.278 128.017 169.009 128.84 164.766 129.706C160.522 130.569 156.304 131.476 152.129 132.449C143.765 134.356 135.621 136.595 127.75 139.152C123.84 140.43 120.067 141.855 116.452 143.417C112.854 144.946 109.623 146.766 106.851 148.828C105.517 149.844 104.432 150.971 103.63 152.174C102.847 153.349 102.502 154.613 102.619 155.877C102.764 157.139 103.349 158.369 104.336 159.485C105.341 160.626 106.591 161.682 108.054 162.625C111.091 164.529 114.52 166.191 118.256 167.57C122.012 168.985 125.903 170.267 129.907 171.407C137.982 173.678 146.275 175.656 154.741 177.331C171.753 180.65 188.866 183.933 205.942 187.202L411.013 226.384L398.061 224.202L385.134 221.969L359.294 217.471L333.5 212.878L307.741 208.214C290.569 205.105 273.446 201.899 256.309 198.718C239.197 195.491 222.095 192.244 205.003 188.977L179.397 184.017L166.601 181.524C162.337 180.692 158.071 179.867 153.808 178.981C145.258 177.245 136.887 175.201 128.741 172.862C124.649 171.68 120.687 170.341 116.88 168.853C113.001 167.37 109.454 165.593 106.325 163.565C104.751 162.517 103.414 161.348 102.349 160.088C101.256 158.801 100.627 157.389 100.5 155.945C100.402 154.5 100.829 153.06 101.753 151.726C102.656 150.425 103.864 149.209 105.342 148.116C108.272 145.998 111.675 144.135 115.454 142.58C119.158 141.02 123.035 139.613 127.055 138.369C135.077 135.917 143.361 133.789 151.851 131.998C160.304 130.177 168.892 128.59 177.591 127.279Z" fill="url(#paint2_linear_850:15188)"/>
<path d="M177.589 127.279C168.828 128.673 160.198 130.35 151.738 132.304C143.296 134.27 134.991 136.503 127.261 139.338C123.38 140.732 119.753 142.367 116.437 144.217C114.8 145.146 113.322 146.172 112.026 147.28C110.726 148.378 109.743 149.6 109.119 150.896C108.516 152.188 108.401 153.545 108.783 154.867C109.199 156.187 110.015 157.45 111.188 158.593C113.512 160.899 116.817 162.802 120.34 164.476C123.915 166.133 127.698 167.621 131.655 168.926C135.597 170.251 139.656 171.451 143.778 172.567C152.026 174.796 160.502 176.716 169.066 178.469C186.258 181.901 203.474 185.304 220.715 188.676C255.18 195.428 289.694 202.086 324.258 208.648C358.823 215.204 393.442 221.652 428.116 227.991L427.155 229.898C392.523 223.427 357.973 216.816 323.507 210.066C289.018 203.347 254.584 196.528 220.205 189.61C203.014 186.15 185.836 182.667 168.672 179.161C160.103 177.364 151.621 175.399 143.36 173.122C139.232 171.981 135.163 170.756 131.208 169.404C127.229 168.068 123.428 166.548 119.839 164.858C116.29 163.146 112.947 161.198 110.58 158.811C109.378 157.62 108.549 156.306 108.135 154.934C107.753 153.555 107.89 152.14 108.535 150.797C109.192 149.466 110.218 148.212 111.57 147.089C112.9 145.969 114.414 144.933 116.089 143.996C119.451 142.147 123.125 140.516 127.051 139.129C134.848 136.318 143.192 134.12 151.666 132.19C160.154 130.273 168.807 128.634 177.589 127.279Z" fill="url(#paint3_linear_850:15188)"/>
<path d="M178.181 126.621C168.997 128.08 159.929 129.797 150.978 131.706C142.017 133.596 133.236 135.784 124.677 138.26C120.415 139.514 116.23 140.866 112.197 142.365C108.145 143.841 104.324 145.536 100.782 147.429C97.31 149.337 94.1391 151.539 92.3618 154.155C91.4569 155.451 91.0227 156.848 91.0885 158.253C91.1299 158.952 91.2961 159.646 91.5842 160.323C91.8863 160.999 92.2916 161.658 92.7949 162.289C93.8321 163.553 95.149 164.727 96.7095 165.778C98.2696 166.839 99.973 167.819 101.802 168.71C105.488 170.491 109.429 172.07 113.578 173.431C121.852 176.198 130.62 178.408 139.503 180.392C143.949 181.385 148.435 182.297 152.949 183.19L166.478 185.881L193.535 191.264L487.168 251.521L486.108 253.428L193.026 192.181L166.038 186.674L152.543 183.921C148.045 183.007 143.539 182.073 139.09 181.058C130.194 179.028 121.408 176.772 113.096 173.947C108.914 172.552 104.946 170.938 101.238 169.121C99.3832 168.204 97.6575 167.197 96.0789 166.108C94.4822 165.017 93.1385 163.801 92.0845 162.492C91.5674 161.831 91.1529 161.143 90.8465 160.436C89.9525 158.291 90.2614 156.027 91.7251 153.999C93.598 151.3 96.8564 149.081 100.387 147.165C103.976 145.274 107.843 143.582 111.94 142.112C116.008 140.624 120.22 139.286 124.506 138.046C133.103 135.603 141.919 133.449 150.913 131.594C159.89 129.721 168.98 128.042 178.181 126.621Z" fill="url(#paint4_linear_850:15188)"/>
<path d="M177.588 127.279C173.2 127.99 168.855 128.791 164.538 129.639C160.22 130.485 155.928 131.376 151.683 132.339C143.177 134.22 134.909 136.472 126.945 139.076C122.995 140.377 119.209 141.851 115.616 143.486C112.089 145.136 108.791 147.003 106.427 149.216C105.252 150.302 104.398 151.501 103.901 152.762C103.448 154.004 103.462 155.291 103.943 156.529C104.456 157.78 105.334 158.967 106.536 160.032C107.754 161.126 109.162 162.139 110.736 163.053C113.966 164.9 117.519 166.531 121.334 167.915C125.165 169.33 129.117 170.624 133.172 171.79C141.341 174.115 149.716 176.167 158.258 177.938C162.52 178.845 166.839 179.675 171.155 180.539L184.093 183.118L209.987 188.244C227.25 191.66 244.524 195.057 261.807 198.437L313.666 208.559L365.572 218.599L391.531 223.615L417.514 228.589L404.378 226.391L391.272 224.13L365.086 219.553L338.96 214.854L312.88 210.063C295.499 206.858 278.17 203.553 260.838 200.252C243.53 196.906 226.238 193.531 208.961 190.128L183.082 184.955L170.152 182.352C165.849 181.483 161.528 180.616 157.231 179.682C148.609 177.846 140.161 175.727 131.925 173.332C127.791 172.123 123.774 170.774 119.893 169.29C115.95 167.813 112.285 166.082 108.964 164.127C107.286 163.125 105.791 162.018 104.503 160.824C103.175 159.607 102.217 158.258 101.672 156.839C101.142 155.396 101.162 153.899 101.732 152.461C102.326 151.057 103.32 149.726 104.669 148.527C107.317 146.152 110.824 144.261 114.505 142.601C118.213 140.97 122.125 139.516 126.206 138.25C134.334 135.755 142.753 133.619 151.396 131.861C159.99 130.062 168.732 128.533 177.588 127.279Z" fill="url(#paint5_linear_850:15188)"/>
<path d="M219.7 119.802C211.813 120.651 203.996 121.701 196.247 122.954C192.381 123.583 188.544 124.276 184.76 125.059C180.973 125.825 177.273 126.74 173.683 127.796C171.899 128.322 170.183 128.929 168.55 129.61C166.916 130.26 165.49 131.082 164.341 132.037C164.074 132.273 163.847 132.525 163.663 132.789C163.474 133.046 163.333 133.315 163.243 133.591C163.2 133.728 163.206 133.868 163.184 134.006L163.159 134.214L163.201 134.421C163.235 134.558 163.243 134.698 163.293 134.834L163.499 135.235C163.563 135.371 163.654 135.502 163.772 135.624L164.087 136.005C164.366 136.239 164.618 136.483 164.92 136.708C165.248 136.922 165.553 137.148 165.898 137.353L166.979 137.947C170.128 139.399 173.582 140.595 177.249 141.502C180.897 142.468 184.665 143.274 188.461 144.021C196.054 145.523 203.813 146.726 211.602 147.833C219.396 148.938 227.243 149.89 235.108 150.841L282.276 156.539C313.732 160.304 345.234 163.928 376.668 167.759C408.09 171.625 439.536 175.417 470.917 179.426L470.872 179.573C439.224 176.405 407.702 172.826 376.188 169.226C344.686 165.587 313.288 161.635 281.881 157.711L234.783 151.793C226.938 150.807 219.074 149.814 211.271 148.669C203.47 147.522 195.698 146.279 188.071 144.731C184.26 143.955 180.476 143.119 176.796 142.117C173.054 141.163 169.538 139.915 166.339 138.404L165.208 137.77C164.845 137.55 164.517 137.304 164.171 137.072C163.848 136.826 163.569 136.554 163.272 136.295L162.922 135.863C162.792 135.722 162.691 135.573 162.62 135.418L162.392 134.952C162.336 134.794 162.324 134.629 162.29 134.468L162.248 134.224L162.277 133.98C162.305 133.819 162.305 133.653 162.358 133.495C162.466 133.178 162.632 132.87 162.853 132.576C163.063 132.284 163.32 132.006 163.621 131.744C164.844 130.744 166.358 129.886 168.089 129.212C169.765 128.527 171.525 127.92 173.352 127.394C176.987 126.352 180.732 125.454 184.561 124.705C188.375 123.942 192.234 123.271 196.119 122.665C203.892 121.456 211.739 120.452 219.66 119.654L219.7 119.802Z" fill="url(#paint6_linear_850:15188)"/>
<path d="M217.474 119.727C213.479 120.187 209.506 120.707 205.547 121.261C201.585 121.807 197.641 122.396 193.716 123.028C185.862 124.252 178.152 125.789 170.635 127.627C166.899 128.527 163.322 129.648 159.956 130.976C158.316 131.625 156.847 132.417 155.595 133.328C154.419 134.227 153.684 135.313 154.022 136.369C154.319 137.427 155.516 138.379 156.91 139.172C158.368 139.971 159.969 140.669 161.683 141.254C165.181 142.443 168.838 143.453 172.615 144.273C176.391 145.129 180.248 145.865 184.127 146.558C188.007 147.252 191.924 147.877 195.857 148.467C203.727 149.65 211.66 150.651 219.635 151.612L267.444 157.48L458.7 180.912C450.684 180.082 442.675 179.23 434.672 178.356L410.663 175.736L362.707 170.301C330.745 166.647 298.827 162.861 266.952 158.94L219.156 153.015C211.194 152.026 203.216 150.977 195.318 149.754C187.379 148.577 179.564 147.114 171.916 145.372C168.06 144.495 164.333 143.425 160.774 142.173C158.961 141.533 157.274 140.773 155.742 139.907C154.958 139.457 154.263 138.953 153.674 138.406C153.051 137.837 152.632 137.196 152.444 136.524C152.266 135.838 152.377 135.136 152.768 134.483C153.153 133.858 153.708 133.277 154.41 132.763C155.776 131.792 157.376 130.95 159.157 130.266C162.632 128.936 166.319 127.819 170.163 126.932C177.791 125.187 185.604 123.751 193.549 122.634C201.46 121.472 209.435 120.503 217.474 119.727Z" fill="url(#paint7_linear_850:15188)"/>
<path d="M217.472 119.727C213.308 120.191 209.162 120.71 205.028 121.256C200.891 121.796 196.768 122.37 192.66 122.98C184.449 124.208 176.291 125.576 168.317 127.245C164.33 128.076 160.383 128.978 156.568 130.038C154.661 130.568 152.788 131.138 150.989 131.773C149.191 132.389 147.495 133.108 145.926 133.92C144.419 134.731 143.044 135.68 142.506 136.763C142.231 137.291 142.192 137.854 142.392 138.394C142.621 138.946 143.032 139.466 143.599 139.921C144.839 140.879 146.345 141.699 148.05 142.347C149.781 143.034 151.592 143.645 153.469 144.175C157.269 145.243 161.175 146.168 165.165 146.943C169.153 147.748 173.199 148.462 177.272 149.119C185.424 150.431 193.671 151.527 201.964 152.533L251.756 158.615L301.535 164.737C318.131 166.771 334.743 168.755 351.329 170.818L401.119 176.914L450.894 183.063L438.383 181.737L425.883 180.374L400.889 177.625L350.962 171.936C334.317 170.048 317.711 168.039 301.093 166.067L251.264 160.076L201.506 153.871C193.205 152.841 184.913 151.716 176.711 150.371C168.522 149.009 160.348 147.499 152.622 145.22C150.677 144.65 148.802 143.996 147.013 143.264C145.146 142.531 143.506 141.606 142.166 140.533C141.476 139.958 140.984 139.305 140.719 138.613C140.471 137.899 140.538 137.158 140.912 136.465C141.276 135.802 141.837 135.184 142.568 134.641C143.261 134.117 144.037 133.635 144.885 133.202C146.549 132.363 148.343 131.623 150.242 130.992C152.112 130.353 154.036 129.787 155.987 129.265C159.888 128.237 163.872 127.328 167.924 126.541C176.012 124.969 184.238 123.709 192.507 122.589C200.778 121.473 209.099 120.519 217.472 119.727Z" fill="url(#paint8_linear_850:15188)"/>
<path d="M217.474 119.727C209.045 120.583 200.675 121.621 192.364 122.841C184.046 124.02 175.856 125.506 167.84 127.291C163.84 128.183 159.976 129.282 156.292 130.577C154.465 131.227 152.772 132.004 151.249 132.894C150.501 133.337 149.854 133.838 149.325 134.384C148.797 134.921 148.479 135.523 148.397 136.145C148.335 136.766 148.529 137.386 148.962 137.95C149.405 138.519 149.988 139.044 150.691 139.508C152.134 140.44 153.779 141.249 155.581 141.914C159.214 143.252 163.044 144.384 167.023 145.296C175 147.126 183.152 148.665 191.435 149.905C199.704 151.193 208.044 152.295 216.415 153.339L266.624 159.646C300.107 163.82 333.611 167.932 367.135 171.982C400.658 176.031 434.204 180.009 467.773 183.917L467.269 185.481C433.724 181.463 400.213 177.356 366.737 173.159C333.252 168.98 299.789 164.739 266.348 160.438L216.203 153.939C207.843 152.863 199.491 151.723 191.22 150.4C182.92 149.122 174.756 147.545 166.77 145.676C162.764 144.739 158.911 143.581 155.259 142.216C153.419 141.526 151.743 140.689 150.277 139.728C149.542 139.237 148.935 138.681 148.477 138.079C148.016 137.467 147.814 136.795 147.888 136.124C147.983 135.457 148.329 134.812 148.901 134.238C149.457 133.672 150.135 133.153 150.918 132.695C152.476 131.796 154.207 131.011 156.072 130.358C159.791 129.071 163.688 127.98 167.719 127.099C175.765 125.344 183.982 123.888 192.324 122.742C200.647 121.561 209.031 120.556 217.474 119.727Z" fill="url(#paint9_linear_850:15188)"/>
<path d="M217.474 119.727C208.736 120.617 200.045 121.668 191.401 122.84C182.761 124.02 174.166 125.332 165.697 126.893C161.465 127.678 157.263 128.524 153.135 129.484C148.995 130.419 144.974 131.535 141.103 132.823C139.18 133.469 137.356 134.216 135.652 135.057C133.931 135.862 132.549 136.901 131.619 138.089C131.214 138.683 131.055 139.327 131.155 139.966C131.289 140.605 131.649 141.218 132.212 141.765C133.423 142.857 134.973 143.798 136.777 144.536C140.428 146.024 144.35 147.256 148.466 148.206C152.56 149.204 156.754 150.055 160.982 150.834C169.449 152.377 178.058 153.637 186.708 154.769L238.733 161.376L446.851 187.783L446.298 189.341L238.459 162.148L186.498 155.344C177.842 154.178 169.226 152.884 160.743 151.303C156.506 150.505 152.301 149.636 148.189 148.615C144.031 147.637 140.074 146.375 136.394 144.853C134.529 144.08 132.931 143.095 131.689 141.954C131.086 141.36 130.704 140.694 130.567 140.003C130.464 139.306 130.644 138.605 131.091 137.96C132.066 136.724 133.513 135.645 135.313 134.812C137.048 133.965 138.906 133.214 140.862 132.567C144.765 131.286 148.819 130.179 152.99 129.254C157.14 128.307 161.357 127.475 165.602 126.705C174.098 125.173 182.71 123.892 191.366 122.744C200.024 121.604 208.727 120.585 217.474 119.727Z" fill="url(#paint10_linear_850:15188)"/>
<path d="M217.473 119.727C213.249 120.174 209.042 120.678 204.847 121.212C200.651 121.738 196.468 122.302 192.3 122.904C183.973 124.117 175.696 125.477 167.628 127.176C163.592 128.001 159.636 128.964 155.781 130.059C153.871 130.606 152.018 131.222 150.231 131.903C148.464 132.557 146.848 133.349 145.426 134.258C144.757 134.698 144.197 135.193 143.763 135.729C143.358 136.238 143.165 136.798 143.2 137.362C143.285 138.474 144.415 139.516 145.828 140.375C146.55 140.813 147.33 141.216 148.159 141.579C148.995 141.953 149.862 142.302 150.757 142.624C152.567 143.273 154.437 143.861 156.356 144.385C160.235 145.433 164.205 146.354 168.249 147.143C172.29 147.958 176.388 148.683 180.507 149.364C188.753 150.715 197.095 151.866 205.475 152.922L255.835 159.297L356.592 171.945L457.399 184.472L444.722 183.14L432.06 181.762L406.745 178.969C389.886 177.054 373.035 175.111 356.193 173.141C339.343 171.195 322.53 169.137 305.707 167.109C288.893 165.053 272.089 162.968 255.294 160.856L230.117 157.646L204.952 154.4C196.555 153.303 188.181 152.109 179.889 150.712C171.608 149.298 163.36 147.728 155.492 145.499C153.517 144.939 151.596 144.313 149.736 143.624C148.797 143.275 147.888 142.898 147.012 142.494C146.116 142.089 145.274 141.641 144.496 141.155C143.687 140.657 142.991 140.097 142.427 139.489C141.835 138.85 141.496 138.138 141.436 137.407C141.405 136.673 141.669 135.946 142.208 135.287C142.727 134.663 143.393 134.088 144.187 133.579C145.73 132.617 147.478 131.782 149.386 131.096C151.241 130.411 153.163 129.793 155.142 129.247C159.071 128.169 163.101 127.229 167.212 126.433C175.407 124.836 183.755 123.589 192.144 122.491C200.535 121.396 208.978 120.475 217.473 119.727Z" fill="url(#paint11_linear_850:15188)"/>
<path d="M219.707 119.887C211.708 120.945 203.806 122.256 196.035 123.813C192.155 124.596 188.315 125.452 184.557 126.419C180.792 127.366 177.149 128.481 173.66 129.756C171.927 130.391 170.281 131.108 168.736 131.899C167.194 132.67 165.855 133.578 164.765 134.591C164.246 135.093 163.837 135.633 163.549 136.198C163.433 136.48 163.341 136.767 163.274 137.055L163.236 137.49C163.232 137.562 163.216 137.635 163.221 137.707L163.257 137.924C163.459 139.099 164.206 140.216 165.412 141.147C166.614 142.112 168.027 142.974 169.613 143.709C170.372 144.107 171.231 144.436 172.041 144.798C172.877 145.14 173.744 145.458 174.596 145.788C178.104 147.032 181.748 148.131 185.504 149.075C189.251 150.043 193.058 150.928 196.924 151.731C200.774 152.552 204.677 153.286 208.588 154.003C216.42 155.426 224.338 156.646 232.297 157.833L280.021 164.969C311.854 169.685 343.751 174.239 375.56 179.011C407.353 183.824 439.181 188.548 470.925 193.498L470.863 193.66C438.756 189.637 406.826 185.144 374.909 180.626C343.008 176.063 311.25 171.149 279.485 166.258L231.855 158.879C223.92 157.654 215.969 156.385 208.126 154.916C204.206 154.176 200.294 153.419 196.429 152.572C192.554 151.746 188.728 150.834 184.953 149.837C181.161 148.852 177.485 147.713 173.951 146.426C173.084 146.083 172.206 145.752 171.355 145.395C170.525 145.017 169.656 144.675 168.873 144.257C167.224 143.472 165.758 142.556 164.517 141.534C163.212 140.498 162.418 139.26 162.226 137.964L162.192 137.72C162.188 137.638 162.205 137.556 162.211 137.475L162.264 136.985C162.343 136.663 162.452 136.344 162.59 136.029C162.914 135.414 163.37 134.828 163.946 134.284C165.105 133.229 166.525 132.286 168.156 131.488C169.749 130.69 171.445 129.968 173.227 129.331C176.773 128.068 180.471 126.967 184.29 126.037C188.087 125.089 191.957 124.256 195.862 123.497C203.677 121.99 211.618 120.73 219.652 119.725L219.707 119.887Z" fill="url(#paint12_linear_850:15188)"/>
<path d="M217.475 119.807C213.425 120.376 209.407 121.021 205.409 121.706C201.41 122.385 197.437 123.116 193.491 123.898C185.593 125.418 177.906 127.31 170.501 129.558C166.828 130.665 163.362 132.007 160.164 133.56C158.61 134.328 157.228 135.215 156.054 136.199C154.908 137.138 154.212 138.249 154.042 139.411C153.98 140.563 154.506 141.699 155.549 142.665C156.621 143.672 157.941 144.575 159.465 145.342C162.616 146.904 166.063 148.236 169.734 149.31C173.42 150.419 177.199 151.414 181.054 152.291C184.907 153.186 188.808 154.01 192.757 154.765C200.644 156.286 208.645 157.594 216.701 158.8L265.088 166.131L458.701 195.325L446.507 193.735L434.329 192.101L409.986 188.802C393.776 186.552 377.576 184.276 361.386 181.975C345.187 179.699 329.03 177.315 312.861 174.96C296.702 172.582 280.554 170.176 264.419 167.74L240.23 164.052L216.055 160.331C207.987 159.082 199.943 157.726 192.008 156.155C184.08 154.576 176.214 152.81 168.753 150.452C164.963 149.299 161.414 147.879 158.18 146.221C156.53 145.362 155.108 144.356 153.964 143.237C152.761 142.072 152.178 140.713 152.294 139.343C152.514 137.994 153.346 136.708 154.699 135.625C155.98 134.582 157.483 133.645 159.167 132.836C162.488 131.269 166.081 129.925 169.883 128.825C177.433 126.674 185.252 124.885 193.268 123.475C201.239 122.018 209.307 120.795 217.475 119.807Z" fill="url(#paint13_linear_850:15188)"/>
<path d="M217.474 119.807C213.252 120.382 209.057 121.025 204.878 121.702C200.698 122.373 196.538 123.086 192.399 123.842C184.12 125.329 175.982 127.09 168.024 129.116C164.06 130.123 160.195 131.264 156.445 132.534C152.746 133.823 149.148 135.271 146.255 137.099C144.815 137.978 143.679 139.021 142.913 140.168C142.213 141.279 142.181 142.503 142.82 143.627C143.536 144.77 144.657 145.805 146.103 146.66C147.582 147.555 149.206 148.358 150.951 149.058C154.517 150.467 158.282 151.685 162.202 152.697C166.124 153.738 170.139 154.666 174.204 155.516C182.341 157.207 190.65 158.62 199.016 159.896L249.382 167.528L450.897 197.98L438.21 196.307L425.539 194.591L400.209 191.132L349.634 183.991C332.774 181.613 315.96 179.121 299.131 176.667L248.711 169.138C231.924 166.579 215.143 164.005 198.369 161.415C189.969 160.094 181.617 158.634 173.406 156.886C169.306 156.004 165.237 155.055 161.258 153.961C157.242 152.882 153.391 151.591 149.751 150.104C147.907 149.341 146.196 148.468 144.643 147.499C143.017 146.503 141.771 145.306 140.994 143.99C140.252 142.615 140.325 141.127 141.201 139.781C142.079 138.506 143.371 137.348 145.001 136.377C148.148 134.449 151.88 133.007 155.687 131.723C159.513 130.465 163.46 129.345 167.506 128.369C175.579 126.448 183.821 124.797 192.196 123.421C200.543 122.018 208.974 120.802 217.474 119.807Z" fill="url(#paint14_linear_850:15188)"/>
<path d="M217.474 119.807C208.914 120.878 200.445 122.175 192.065 123.698C183.674 125.17 175.476 127.015 167.537 129.217C163.578 130.319 159.807 131.651 156.278 133.195C154.532 133.971 152.937 134.863 151.522 135.854C150.097 136.826 149.093 137.995 148.597 139.257C148.182 140.524 148.491 141.839 149.474 142.986C150.464 144.139 151.787 145.177 153.379 146.051C156.53 147.842 160.268 149.232 164.089 150.475C171.786 152.937 179.992 154.786 188.259 156.458C196.546 158.113 204.953 159.541 213.411 160.858L264.206 168.751C298.084 173.975 331.995 179.122 365.937 184.192C399.878 189.261 433.854 194.243 467.863 199.138L467.179 200.86C433.2 195.844 399.273 190.718 365.399 185.482C331.511 180.267 297.657 174.977 263.835 169.611L213.128 161.505C204.673 160.15 196.258 158.682 187.964 156.986C179.688 155.272 171.471 153.383 163.738 150.868C159.897 149.596 156.133 148.178 152.931 146.333C151.295 145.421 149.941 144.341 148.932 143.143C147.909 141.923 147.599 140.529 148.054 139.189C148.582 137.877 149.639 136.664 151.132 135.657C152.583 134.655 154.216 133.754 156.001 132.972C159.57 131.433 163.381 130.108 167.379 129.016C175.356 126.843 183.59 125.03 192.012 123.591C200.406 122.112 208.894 120.85 217.474 119.807Z" fill="url(#paint15_linear_850:15188)"/>
<path d="M217.474 119.807C208.595 120.922 199.787 122.236 191.052 123.701C182.322 125.176 173.662 126.813 165.191 128.755C160.958 129.728 156.773 130.779 152.693 131.962C148.597 133.118 144.667 134.478 140.944 136.026C139.097 136.803 137.37 137.678 135.782 138.64C134.184 139.583 132.894 140.698 131.98 141.928C131.087 143.151 130.915 144.522 131.491 145.813C132.133 147.096 133.266 148.27 134.798 149.241C136.317 150.236 138.009 151.129 139.847 151.904C141.684 152.69 143.596 153.41 145.574 154.06C149.55 155.354 153.654 156.501 157.861 157.494C166.301 159.47 174.91 161.171 183.653 162.589C188.015 163.318 192.41 163.989 196.798 164.681L209.964 166.745L236.296 170.875L446.95 203.911L446.2 205.622L235.929 171.713L209.645 167.474L196.503 165.355C192.126 164.645 187.736 163.955 183.366 163.207C174.605 161.749 165.98 160.007 157.529 157.99C153.3 156.973 149.178 155.801 145.186 154.481C143.188 153.814 141.258 153.077 139.405 152.273C137.533 151.472 135.81 150.551 134.267 149.526C132.674 148.5 131.503 147.264 130.848 145.916C130.546 145.232 130.442 144.522 130.54 143.817C130.647 143.115 130.94 142.428 131.407 141.782C132.364 140.514 133.708 139.366 135.37 138.397C136.992 137.426 138.754 136.545 140.637 135.763C144.4 134.22 148.368 132.868 152.502 131.72C156.609 130.549 160.815 129.513 165.065 128.555C173.571 126.643 182.255 125.039 191.005 123.598C199.759 122.167 208.583 120.887 217.474 119.807Z" fill="url(#paint16_linear_850:15188)"/>
<path d="M217.473 119.807C213.185 120.361 208.924 120.986 204.68 121.647C200.434 122.304 196.21 123.005 192.007 123.75C183.6 125.215 175.346 126.981 167.288 129.039C163.281 130.062 159.389 131.242 155.635 132.569C153.78 133.232 151.998 133.967 150.301 134.769C148.62 135.549 147.106 136.451 145.794 137.456C144.508 138.408 143.664 139.549 143.348 140.762C143.145 141.961 143.595 143.167 144.629 144.198C145.7 145.275 147.054 146.24 148.638 147.055C150.25 147.899 151.969 148.667 153.778 149.351C157.458 150.723 161.305 151.927 165.284 152.952C169.269 153.996 173.322 154.952 177.443 155.821C185.669 157.569 194.067 159.045 202.518 160.397L253.442 168.364L304.398 176.273L355.373 184.139C372.362 186.77 389.364 189.37 406.38 191.936L457.399 199.718L444.54 198.036L431.701 196.3L406.039 192.784C388.957 190.374 371.887 187.935 354.827 185.466C337.758 183.02 320.743 180.443 303.713 177.902C286.7 175.322 269.698 172.713 252.708 170.075C235.729 167.408 218.76 164.718 201.801 162.004C193.318 160.604 184.88 159.079 176.583 157.272C172.437 156.366 168.32 155.398 164.292 154.29C160.23 153.2 156.31 151.926 152.564 150.481C150.675 149.742 148.884 148.916 147.208 148.01C145.475 147.088 144.004 146.001 142.851 144.794C141.639 143.529 141.141 142.062 141.429 140.612C141.819 139.201 142.824 137.878 144.342 136.779C145.771 135.716 147.413 134.764 149.231 133.945C151.006 133.131 152.867 132.388 154.803 131.72C158.646 130.401 162.633 129.242 166.738 128.25C174.921 126.303 183.289 124.651 191.798 123.305C200.276 121.926 208.834 120.759 217.473 119.807Z" fill="url(#paint17_linear_850:15188)"/>
<path d="M175.388 130.004C173.885 130.511 172.53 131.163 171.375 131.933C170.823 132.313 170.431 132.767 170.232 133.257C170.075 133.742 170.209 134.245 170.61 134.676C171.017 135.113 171.552 135.503 172.191 135.825C172.83 136.158 173.515 136.459 174.236 136.724C175.7 137.254 177.229 137.716 178.809 138.106C185.163 139.658 191.846 140.724 198.552 141.659C212.002 143.491 225.629 144.797 239.283 146.083L321.186 153.907L485.031 169.441C457.614 167.298 430.228 165.018 402.874 162.602C375.508 160.235 348.165 157.776 320.845 155.227L279.873 151.367L238.932 147.396C225.288 146.08 211.622 144.632 198.189 142.561C194.831 142.042 191.488 141.483 188.177 140.853C184.849 140.24 181.592 139.496 178.427 138.624C176.835 138.184 175.302 137.672 173.84 137.092C173.105 136.797 172.412 136.465 171.768 136.1C171.103 135.735 170.554 135.299 170.148 134.815C169.731 134.317 169.619 133.746 169.832 133.203C170.074 132.682 170.531 132.206 171.161 131.82C172.396 131.079 173.824 130.466 175.388 130.004Z" fill="url(#paint18_linear_850:15188)"/>
<path d="M133.078 142.574C131.517 143.116 130.136 143.827 129.004 144.672C127.884 145.504 127.18 146.512 126.977 147.577C126.825 148.635 127.136 149.699 127.879 150.663C128.616 151.632 129.583 152.531 130.751 153.331C133.14 154.926 135.858 156.33 138.838 157.509C141.814 158.71 144.914 159.795 148.12 160.757C154.569 162.663 161.208 164.327 167.998 165.739C174.774 167.199 181.644 168.457 188.594 169.648L209.384 173.283C216.321 174.479 223.285 175.617 230.234 176.788C233.714 177.36 237.178 177.969 240.662 178.535L251.111 180.233C258.079 181.363 265.037 182.514 272.032 183.581L282.512 185.211C286.005 185.755 289.497 186.303 293.003 186.815C300.011 187.851 307.008 188.914 314.024 189.928L335.085 192.943C342.121 193.909 349.142 194.914 356.19 195.846C384.377 199.586 412.643 203.147 441.129 206.001C433.973 205.424 426.837 204.757 419.715 204.042C412.59 203.335 405.479 202.578 398.372 201.808L387.72 200.622C384.172 200.218 380.635 199.782 377.092 199.363C370.001 198.536 362.939 197.629 355.866 196.749C348.794 195.867 341.748 194.911 334.688 193.996C327.636 193.056 320.601 192.071 313.567 191.087C306.537 190.088 299.527 189.041 292.507 188.021C288.994 187.517 285.496 186.976 281.996 186.44L271.496 184.834C264.488 183.782 257.516 182.646 250.534 181.532L240.064 179.857C236.573 179.299 233.101 178.701 229.624 178.113C222.676 176.926 215.713 175.769 208.778 174.556L187.994 170.869C174.129 168.454 160.277 165.674 147.421 161.567C144.201 160.543 141.093 159.396 138.116 158.133C135.095 156.883 132.376 155.386 130.041 153.684C128.875 152.819 127.925 151.857 127.221 150.828C126.501 149.79 126.244 148.656 126.475 147.539C126.747 146.433 127.552 145.399 128.79 144.565C130.003 143.748 131.457 143.073 133.078 142.574Z" fill="url(#paint19_linear_850:15188)"/>
<path d="M163.959 124.354C157.297 125.018 150.673 125.849 144.095 126.776C137.517 127.707 130.994 128.761 124.525 129.937C118.066 131.122 111.678 132.447 105.427 133.968C99.169 135.465 93.1031 137.238 87.2784 139.273C81.5196 141.333 76.0243 143.732 71.6541 146.742C69.4726 148.227 67.6961 149.912 66.3908 151.733C65.1178 153.539 64.5162 155.491 64.6284 157.453C64.7812 159.418 65.535 161.349 66.8518 163.149C67.4958 164.061 68.2427 164.946 69.0873 165.796C69.9278 166.654 70.8427 167.485 71.8283 168.285C75.8911 171.479 80.5628 174.374 85.747 176.91C90.9187 179.491 96.3356 181.889 101.97 184.09C107.603 186.305 113.369 188.396 119.269 190.365C131.04 194.319 143.167 197.895 155.456 201.254L192.464 211.285L229.514 221.263L266.614 231.174L303.767 241.012L340.904 250.869L377.991 260.796L452.061 280.795L489.066 290.84L526.027 300.953L525.831 301.232L516.39 298.985L506.976 296.7L488.16 292.109C475.639 289.017 463.137 285.897 450.654 282.749C444.408 281.182 438.172 279.601 431.945 278.007L413.259 273.231L375.967 263.569L338.791 253.747L301.743 243.751L227.862 223.472L190.958 213.284L154.093 203.043C141.796 199.598 129.653 195.934 117.849 191.882C111.944 189.859 106.155 187.714 100.48 185.448C94.794 183.181 89.3326 180.716 84.1232 178.065C78.8473 175.417 74.1068 172.403 69.9996 169.087C68.9863 168.242 68.0474 167.366 67.1869 166.462C66.3129 165.556 65.5425 164.615 64.8814 163.646C63.5047 161.694 62.7378 159.606 62.6192 157.487C62.5409 155.356 63.236 153.242 64.6558 151.29C66.0751 149.371 67.9912 147.599 70.3326 146.042C74.9602 142.937 80.6304 140.538 86.5194 138.488C92.4456 136.476 98.6102 134.73 104.963 133.265C111.288 131.78 117.732 130.497 124.238 129.356C130.746 128.217 137.309 127.21 143.927 126.333C150.541 125.454 157.185 124.671 163.884 124.055L163.959 124.354Z" fill="url(#paint20_linear_850:15188)"/>
<path d="M160.407 123.979C153.646 124.727 146.938 125.629 140.267 126.612C133.595 127.592 126.962 128.663 120.392 129.855C107.272 132.249 94.2959 135.014 82.0832 138.691C75.9798 140.488 70.1676 142.625 64.7223 145.072C62.0512 146.295 59.5596 147.653 57.2751 149.133C55.0243 150.585 53.1156 152.216 51.6027 153.982C50.1442 155.716 49.2749 157.608 49.0458 159.547C48.8662 161.485 49.3128 163.425 50.3606 165.26C50.8951 166.188 51.5316 167.094 52.266 167.971C53.0217 168.854 53.8601 169.71 54.7772 170.535C56.6392 172.203 58.7287 173.774 61.0241 175.233C65.6943 178.176 70.7936 180.861 76.2607 183.254C81.7195 185.684 87.4147 187.939 93.254 190.06C105.006 194.269 117.114 198.105 129.529 201.553C154.484 208.41 179.517 215.239 204.626 222.04L279.82 242.443L355.05 262.801L505.59 303.436C454.577 291.055 403.937 278.127 353.455 264.985C328.194 258.44 303.042 251.746 277.868 245.082C252.741 238.354 227.641 231.59 202.566 224.791L165.02 214.504L146.263 209.339C140.012 207.617 133.762 205.903 127.524 204.108C115.014 200.557 102.82 196.615 90.9926 192.297C85.0595 190.123 79.3135 187.769 73.7769 185.243C68.1734 182.717 62.9581 179.892 58.194 176.802C55.7936 175.233 53.6144 173.546 51.6792 171.758C50.7043 170.854 49.8158 169.917 49.0179 168.951C48.2255 167.972 47.5434 166.962 46.9763 165.928C45.8291 163.824 45.3761 161.605 45.6425 159.397C45.9693 157.194 47.0227 155.053 48.7409 153.099C50.4438 151.196 52.5738 149.444 55.0708 147.891C57.5187 146.364 60.1804 144.967 63.0264 143.714C68.6789 141.263 74.709 139.145 81.0336 137.39C87.301 135.631 93.7164 134.072 100.254 132.717C106.771 131.352 113.361 130.136 120.022 129.071C133.314 126.917 146.797 125.217 160.407 123.979Z" fill="url(#paint21_linear_850:15188)"/>
<path d="M155.44 125.848C148.391 126.592 141.387 127.475 134.412 128.424C127.436 129.373 120.496 130.405 113.592 131.522C99.8058 133.779 86.1462 136.348 72.9529 139.589C66.3607 141.189 59.9238 143.012 53.673 145.05C47.4786 147.11 41.5049 149.435 36.316 152.251C33.7271 153.634 31.4 155.186 29.377 156.877C27.3952 158.528 25.9129 160.377 24.9984 162.338C24.1417 164.278 24.0001 166.307 24.5835 168.284C24.8853 169.277 25.3289 170.252 25.9094 171.2C26.5209 172.153 27.2373 173.081 28.0538 173.977C31.4044 177.575 36.1819 180.716 41.3856 183.536C43.9916 184.951 46.7318 186.286 49.5516 187.563C52.3698 188.841 55.2503 190.076 58.2039 191.252C70.019 195.962 82.612 199.995 95.4351 203.718C101.842 205.584 108.363 207.323 114.889 209.106L134.436 214.449L173.561 225.095L251.842 246.344L330.153 267.557L486.809 309.963C460.266 303.499 433.871 296.822 407.486 290.13L367.975 279.998L328.546 269.753C302.263 262.917 276.082 255.941 249.882 248.991C223.734 241.97 197.608 234.919 171.503 227.84L132.418 217.125L112.89 211.748C106.394 209.955 99.8595 208.158 93.4009 206.245C80.4984 202.422 67.8043 198.283 55.7992 193.416C49.7496 190.994 44.0104 188.301 38.63 185.36C33.2857 182.381 28.2978 179.048 24.7062 175.077C23.821 174.076 23.0489 173.039 22.3953 171.975C21.758 170.894 21.2782 169.781 20.9616 168.649C20.3383 166.358 20.5534 164.012 21.5918 161.776C22.6537 159.581 24.3625 157.52 26.6366 155.69C28.8538 153.902 31.3926 152.268 34.2067 150.817C39.7552 147.916 45.9671 145.603 52.3509 143.569C58.747 141.564 65.3357 139.792 72.0819 138.26C78.8017 136.716 85.6195 135.35 92.4916 134.107C99.364 132.865 106.288 131.743 113.262 130.742C127.199 128.727 141.27 127.07 155.44 125.848Z" fill="url(#paint22_linear_850:15188)"/>
<path d="M160.407 123.979C153.263 124.631 146.16 125.442 139.09 126.336C132.021 127.235 124.994 128.242 118.009 129.357C104.065 131.611 90.2661 134.288 77.1249 137.885C70.54 139.652 64.2331 141.774 58.2811 144.225C56.8063 144.845 55.3663 145.494 53.9775 146.179C52.5831 146.86 51.2343 147.575 49.9581 148.333C47.3724 149.822 45.1246 151.511 43.2732 153.356C41.4276 155.189 40.2119 157.227 39.6982 159.349C39.2207 161.47 39.483 163.628 40.4682 165.684C40.688 166.202 40.9926 166.705 41.2759 167.212C41.6088 167.709 41.9162 168.211 42.3038 168.695C43.0425 169.672 43.8861 170.62 44.8289 171.532C46.7291 173.359 48.8861 175.086 51.2762 176.691C56.1176 179.893 61.4451 182.816 67.1892 185.421C70.0415 186.741 72.9569 188.013 75.9354 189.234C78.9071 190.459 81.926 191.643 84.9922 192.784C97.2982 197.319 109.992 201.46 123.022 205.189C129.516 207.077 136.094 208.882 142.647 210.717L162.317 216.207L201.692 227.141C254.223 241.678 306.867 256.064 359.624 270.3C412.386 284.521 465.273 298.569 518.285 312.444L516.153 315.404C463.245 301.322 410.521 287.017 357.981 272.49C305.392 258.012 252.928 243.374 200.589 228.574L161.352 217.452L141.752 211.869C135.223 210.003 128.672 208.167 122.172 206.241C109.133 202.437 96.4353 198.221 84.1329 193.611C81.0659 192.449 78.0427 191.244 75.0631 189.998C72.078 188.758 69.1557 187.463 66.2962 186.114C60.5166 183.452 55.1627 180.47 50.3045 177.207C47.8865 175.558 45.7079 173.787 43.7928 171.913C42.8356 170.972 41.9809 169.994 41.2341 168.986C40.8417 168.486 40.5289 167.965 40.1925 167.45C39.9047 166.924 39.5971 166.402 39.3749 165.864C38.8887 164.792 38.5761 163.694 38.4415 162.586C38.3177 161.476 38.3899 160.36 38.6568 159.259C39.2158 157.06 40.5019 154.951 42.4387 153.056C44.355 151.178 46.6749 149.46 49.3382 147.947C50.6458 147.183 52.023 146.464 53.4436 145.781C54.8588 145.093 56.3226 144.443 57.8194 143.825C63.8383 141.385 70.2104 139.278 76.858 137.53C90.093 133.978 103.943 131.362 117.927 129.169C124.927 128.079 131.97 127.103 139.058 126.24C146.141 125.378 153.255 124.599 160.407 123.979Z" fill="url(#paint23_linear_850:15188)"/>
<path d="M160.407 123.979C152.982 124.664 145.593 125.483 138.228 126.368C130.864 127.257 123.53 128.23 116.226 129.287C101.612 131.37 87.1874 133.911 73.0124 136.9C65.9461 138.42 58.9635 140.085 52.1531 141.975C45.3266 143.836 38.7488 146.012 32.4785 148.484C29.3634 149.726 26.3898 151.093 23.5778 152.574C22.1785 153.317 20.846 154.102 19.5648 154.914C18.2974 155.731 17.1081 156.592 16.0028 157.491C13.7829 159.275 12.0859 161.275 10.9852 163.404C9.92453 165.53 9.64129 167.77 10.155 169.968C10.6963 172.17 11.8591 174.298 13.593 176.263C15.3177 178.243 17.3894 180.107 19.7726 181.821C24.5015 185.285 30.1107 188.297 35.9911 191.068C47.8226 196.585 60.8244 201.15 74.0843 205.344C80.7304 207.433 87.4729 209.407 94.2743 211.314L114.707 217.041L155.573 228.495L482.501 320.127L480.223 323.047L154.489 229.886L113.773 218.24L93.4143 212.418C86.6165 210.477 79.8661 208.466 73.215 206.34C59.9412 202.07 46.9191 197.429 35.0309 191.806C29.1216 188.981 23.4732 185.909 18.6867 182.354C16.2626 180.585 14.1599 178.664 12.4146 176.625C10.6375 174.576 9.45581 172.358 8.92088 170.068C8.41008 167.764 8.73311 165.422 9.86769 163.2C11.0303 161.002 12.8088 158.939 15.1261 157.101C16.2673 156.186 17.4942 155.311 18.8006 154.479C20.1163 153.656 21.4815 152.864 22.9104 152.116C25.7723 150.629 28.7965 149.259 31.9626 148.015C38.2987 145.554 44.9408 143.392 51.8297 141.549C58.6883 139.68 65.7078 138.04 72.8054 136.546C87.0304 133.612 101.5 131.129 116.155 129.105C123.472 128.076 130.819 127.133 138.198 126.276C145.575 125.421 152.974 124.633 160.407 123.979Z" fill="url(#paint24_linear_850:15188)"/>
<path d="M160.406 123.979C153.247 124.672 146.132 125.513 139.047 126.427C131.962 127.34 124.907 128.333 117.903 129.435C103.907 131.654 90.0334 134.198 76.6938 137.508C70.0283 139.134 63.5455 141.02 57.2864 143.154C51.0991 145.311 45.1724 147.781 40.2785 150.82C37.8417 152.309 35.7563 153.994 34.0809 155.825C32.4427 157.614 31.4312 159.585 31.1094 161.619C30.964 162.627 30.9935 163.641 31.1976 164.646C31.418 165.657 31.7934 166.655 32.3191 167.625C33.4214 169.596 34.9563 171.469 36.8832 173.194C40.7559 176.697 45.7608 179.779 51.1268 182.591C56.5699 185.391 62.2974 187.983 68.2759 190.354C80.2414 195.14 92.9186 199.313 105.838 203.18C112.301 205.118 118.835 206.949 125.43 208.78L145.145 214.312C158.279 218.011 171.435 221.683 184.611 225.327C210.93 232.661 237.267 239.97 263.624 247.254L303.157 258.183L342.729 269.062C395.52 283.533 448.355 297.953 501.235 312.322C474.31 305.816 447.572 299.037 420.859 292.224L380.873 281.887C367.558 278.422 354.279 274.907 340.991 271.404C314.423 264.389 287.955 257.236 261.499 250.068L221.903 239.199C208.721 235.553 195.511 231.945 182.377 228.237C169.227 224.549 156.085 220.853 142.95 217.147L123.255 211.577C116.704 209.721 110.115 207.832 103.621 205.845C90.6287 201.875 77.8561 197.591 65.7167 192.649C59.6078 190.186 53.7766 187.482 48.2615 184.554C42.7712 181.593 37.5922 178.336 33.4938 174.521C31.4123 172.598 29.7682 170.516 28.6054 168.329C28.0307 167.216 27.6287 166.073 27.4046 164.915C27.1934 163.747 27.1857 162.569 27.3818 161.401C27.58 160.233 27.9875 159.082 28.5969 157.967C29.213 156.866 30.0004 155.802 30.9488 154.789C32.8374 152.808 35.1696 150.993 37.8797 149.396C43.2087 146.214 49.4247 143.743 55.835 141.602C62.2626 139.497 68.9219 137.66 75.7661 136.103C82.5739 134.526 89.4943 133.155 96.471 131.918C103.448 130.682 110.48 129.579 117.567 128.609C131.723 126.652 146.019 125.085 160.406 123.979Z" fill="url(#paint25_linear_850:15188)"/>
<path d="M88.0419 140.646C85.6264 141.483 83.4065 142.51 81.4407 143.7C79.5506 144.893 78.0339 146.37 77.8464 147.985C77.745 148.786 77.928 149.591 78.3834 150.346C78.8375 151.109 79.4622 151.832 80.2403 152.493C81.8469 153.825 83.7396 155.023 85.8687 156.056C90.1984 158.126 94.8369 159.951 99.7248 161.506C104.599 163.098 109.616 164.541 114.708 165.885C124.869 168.608 135.31 170.963 145.81 173.208C151.061 174.33 156.337 175.413 161.636 176.458C166.931 177.506 172.255 178.51 177.579 179.54L209.495 185.724L241.432 191.87L305.308 204.156L433.128 228.606L560.999 252.981C539.467 249.357 518.018 245.562 496.554 241.795L480.464 238.954L464.394 236.074L432.269 230.281C389.466 222.496 346.739 214.564 304.087 206.483L272.113 200.394C261.461 198.354 250.795 196.34 240.16 194.266L208.242 188.072L176.343 181.842C155.076 177.684 133.859 173.21 113.515 167.454C108.444 165.996 103.444 164.438 98.5799 162.724C93.6566 161.042 89.0312 159.06 84.7759 156.811C82.6274 155.67 80.74 154.361 79.1634 152.92C78.3772 152.183 77.7615 151.385 77.3335 150.548C76.8909 149.706 76.7547 148.816 76.9341 147.939C77.1135 147.062 77.6042 146.219 78.3729 145.467C79.1129 144.73 80.0273 144.063 81.0873 143.485C83.1858 142.357 85.5246 141.402 88.0419 140.646Z" fill="url(#paint26_linear_850:15188)"/>
<path d="M14.0868 162.145C11.5337 163.048 9.2316 164.187 7.2644 165.52C3.33209 168.169 1.18469 171.608 1.24378 175.163C1.2563 176.037 1.37279 176.909 1.5923 177.773C1.82846 178.636 2.14914 179.49 2.55272 180.33C4.21149 183.695 7.15387 186.784 10.553 189.639C14.0326 192.482 17.9328 195.129 22.2059 197.547C30.7171 202.426 40.2481 206.65 50.1423 210.503C60.0721 214.35 70.3195 217.892 80.845 221.113C101.923 227.666 123.094 234.107 144.358 240.437C165.659 246.721 187.02 252.931 208.524 258.959C251.512 271.037 294.94 282.527 338.808 293.429C349.787 296.13 360.763 298.838 371.802 301.451C382.833 304.075 393.893 306.658 404.979 309.199C416.069 311.735 427.199 314.207 438.369 316.614C449.553 318.997 460.743 321.376 472.044 323.558C460.64 321.578 449.324 319.413 438.06 317.156C426.794 314.904 415.567 312.579 404.382 310.18C398.784 308.991 393.204 307.771 387.623 306.551C382.061 305.303 376.484 304.075 370.937 302.801L362.608 300.904L354.298 298.976C348.751 297.7 343.232 296.383 337.709 295.072C315.638 289.793 293.691 284.329 271.869 278.678C250.059 273.017 228.375 267.184 206.815 261.179C185.272 255.157 163.84 248.993 142.521 242.686C121.242 236.332 100.073 229.847 79.0133 223.234C68.4401 219.9 58.158 216.242 48.2077 212.272C43.2599 210.257 38.4073 208.15 33.7238 205.907C29.0163 203.674 24.5288 201.277 20.2842 198.729C16.0206 196.174 12.1506 193.39 8.72188 190.412C5.23194 187.428 2.62808 184.102 1.02629 180.581C0.662446 179.694 0.386492 178.794 0.199869 177.887C0.0295724 176.978 -0.0320354 176.063 0.0155671 175.149C0.119891 173.319 0.769689 171.515 1.9339 169.824C3.10351 168.147 4.79472 166.62 6.91633 165.326C9.01564 164.046 11.4352 162.972 14.0868 162.145Z" fill="url(#paint27_linear_850:15188)"/>
<path d="M231.02 65.0845L231.186 31.5648M231.02 65.0845L212.267 90.8967M231.02 65.0845L262.36 44.0109M231.186 31.5648L263.12 9.29173M231.186 31.5648L258.815 55.6968M263.12 9.29173L290.15 33.1268M263.12 9.29173L262.36 44.0109M290.15 33.1268L323.693 39.2787M290.15 33.1268L258.815 55.6968M323.693 39.2787L304.341 64.7939M323.693 39.2787L291.159 61.2549M304.341 64.7939L303.878 98.9134M304.341 64.7939L272.704 86.4673M303.878 98.9134L271.944 121.186M303.878 98.9134L276.249 74.7814M271.944 121.186L244.914 97.3514M271.944 121.186L272.704 86.4673M244.914 97.3514L212.267 90.8967M244.914 97.3514L276.249 74.7814M212.267 90.8967L243.305 68.9265M262.36 44.0109L243.305 68.9265M243.305 68.9265L276.249 74.7814M258.815 55.6968L291.159 61.2549M291.159 61.2549L272.704 86.4673" stroke="url(#paint28_linear_850:15188)" stroke-width="2"/>
<defs>
<linearGradient id="paint0_linear_850:15188" x1="121.264" y1="174.039" x2="431.444" y2="174.039" gradientUnits="userSpaceOnUse">
<stop stop-color="#FF5788"/>
<stop offset="0.04965" stop-color="#FF5995" stop-opacity="0.8892"/>
<stop offset="0.15231" stop-color="#FF5CAE" stop-opacity="0.68307"/>
<stop offset="0.25925" stop-color="#FF5EC3" stop-opacity="0.50033"/>
<stop offset="0.3683" stop-color="#FF61D6" stop-opacity="0.34625"/>
<stop offset="0.48003" stop-color="#FF63E5" stop-opacity="0.22066"/>
<stop offset="0.59527" stop-color="#FF64F0" stop-opacity="0.12337"/>
<stop offset="0.71545" stop-color="#FF65F9" stop-opacity="0.05428"/>
<stop offset="0.84382" stop-color="#FF66FD" stop-opacity="0.01322"/>
<stop offset="0.9946" stop-color="#FF66FF" stop-opacity="0"/>
</linearGradient>
<linearGradient id="paint1_linear_850:15188" x1="245211" y1="33544.9" x2="397099" y2="33544.9" gradientUnits="userSpaceOnUse">
<stop stop-color="#FF5788"/>
<stop offset="0.04965" stop-color="#FF5995" stop-opacity="0.8892"/>
<stop offset="0.15231" stop-color="#FF5CAE" stop-opacity="0.68307"/>
<stop offset="0.25925" stop-color="#FF5EC3" stop-opacity="0.50033"/>
<stop offset="0.3683" stop-color="#FF61D6" stop-opacity="0.34625"/>
<stop offset="0.48003" stop-color="#FF63E5" stop-opacity="0.22066"/>
<stop offset="0.59527" stop-color="#FF64F0" stop-opacity="0.12337"/>
<stop offset="0.71545" stop-color="#FF65F9" stop-opacity="0.05428"/>
<stop offset="0.84382" stop-color="#FF66FD" stop-opacity="0.01322"/>
<stop offset="0.9946" stop-color="#FF66FF" stop-opacity="0"/>
</linearGradient>
<linearGradient id="paint2_linear_850:15188" x1="99.9808" y1="176.832" x2="411.455" y2="176.832" gradientUnits="userSpaceOnUse">
<stop stop-color="#FF694E"/>
<stop offset="0.04965" stop-color="#FF6856" stop-opacity="0.8892"/>
<stop offset="0.15231" stop-color="#FF6564" stop-opacity="0.68307"/>
<stop offset="0.25925" stop-color="#FF6370" stop-opacity="0.50033"/>
<stop offset="0.3683" stop-color="#FF617A" stop-opacity="0.34625"/>
<stop offset="0.48003" stop-color="#FF6083" stop-opacity="0.22066"/>
<stop offset="0.59527" stop-color="#FF5E8A" stop-opacity="0.12337"/>
<stop offset="0.71545" stop-color="#FF5E8E" stop-opacity="0.05428"/>
<stop offset="0.84382" stop-color="#FF5D91" stop-opacity="0.01322"/>
<stop offset="0.9946" stop-color="#FF5D92" stop-opacity="0"/>
</linearGradient>
<linearGradient id="paint3_linear_850:15188" x1="253477" y1="36889.5" x2="419348" y2="36889.5" gradientUnits="userSpaceOnUse">
<stop stop-color="#FF5788"/>
<stop offset="0.04965" stop-color="#FF5995" stop-opacity="0.8892"/>
<stop offset="0.15231" stop-color="#FF5CAE" stop-opacity="0.68307"/>
<stop offset="0.25925" stop-color="#FF5EC3" stop-opacity="0.50033"/>
<stop offset="0.3683" stop-color="#FF61D6" stop-opacity="0.34625"/>
<stop offset="0.48003" stop-color="#FF63E5" stop-opacity="0.22066"/>
<stop offset="0.59527" stop-color="#FF64F0" stop-opacity="0.12337"/>
<stop offset="0.71545" stop-color="#FF65F9" stop-opacity="0.05428"/>
<stop offset="0.84382" stop-color="#FF66FD" stop-opacity="0.01322"/>
<stop offset="0.9946" stop-color="#FF66FF" stop-opacity="0"/>
</linearGradient>
<linearGradient id="paint4_linear_850:15188" x1="17.767" y1="252.952" x2="301.974" y2="-58.4071" gradientUnits="userSpaceOnUse">
<stop offset="0.0139607" stop-color="#8F67E2"/>
<stop offset="0.1403" stop-color="#7D89E5"/>
<stop offset="0.2948" stop-color="#6AACE9"/>
<stop offset="0.4216" stop-color="#5EC1EB"/>
<stop offset="0.5042" stop-color="#5AC9EC"/>
<stop offset="1" stop-color="#51EABD"/>
</linearGradient>
<linearGradient id="paint5_linear_850:15188" x1="60.8838" y1="165.923" x2="564.808" y2="183.558" gradientUnits="userSpaceOnUse">
<stop stop-color="#8758FE"/>
<stop offset="0.2326" stop-color="#B264FE"/>
<stop offset="0.6051" stop-color="#FF78FF"/>
</linearGradient>
<linearGradient id="paint6_linear_850:15188" x1="271705" y1="16945.2" x2="425702" y2="16945.2" gradientUnits="userSpaceOnUse">
<stop stop-color="#FF5788"/>
<stop offset="0.04965" stop-color="#FF5995" stop-opacity="0.8892"/>
<stop offset="0.15231" stop-color="#FF5CAE" stop-opacity="0.68307"/>
<stop offset="0.25925" stop-color="#FF5EC3" stop-opacity="0.50033"/>
<stop offset="0.3683" stop-color="#FF61D6" stop-opacity="0.34625"/>
<stop offset="0.48003" stop-color="#FF63E5" stop-opacity="0.22066"/>
<stop offset="0.59527" stop-color="#FF64F0" stop-opacity="0.12337"/>
<stop offset="0.71545" stop-color="#FF65F9" stop-opacity="0.05428"/>
<stop offset="0.84382" stop-color="#FF66FD" stop-opacity="0.01322"/>
<stop offset="0.9946" stop-color="#FF66FF" stop-opacity="0"/>
</linearGradient>
<linearGradient id="paint7_linear_850:15188" x1="264929" y1="17416.6" x2="416461" y2="17416.6" gradientUnits="userSpaceOnUse">
<stop stop-color="#FF5788"/>
<stop offset="0.04965" stop-color="#FF5995" stop-opacity="0.8892"/>
<stop offset="0.15231" stop-color="#FF5CAE" stop-opacity="0.68307"/>
<stop offset="0.25925" stop-color="#FF5EC3" stop-opacity="0.50033"/>
<stop offset="0.3683" stop-color="#FF61D6" stop-opacity="0.34625"/>
<stop offset="0.48003" stop-color="#FF63E5" stop-opacity="0.22066"/>
<stop offset="0.59527" stop-color="#FF64F0" stop-opacity="0.12337"/>
<stop offset="0.71545" stop-color="#FF65F9" stop-opacity="0.05428"/>
<stop offset="0.84382" stop-color="#FF66FD" stop-opacity="0.01322"/>
<stop offset="0.9946" stop-color="#FF66FF" stop-opacity="0"/>
</linearGradient>
<linearGradient id="paint8_linear_850:15188" x1="262495" y1="18206.7" x2="417962" y2="18206.7" gradientUnits="userSpaceOnUse">
<stop stop-color="#FF694E"/>
<stop offset="0.04965" stop-color="#FF6856" stop-opacity="0.8892"/>
<stop offset="0.15231" stop-color="#FF6564" stop-opacity="0.68307"/>
<stop offset="0.25925" stop-color="#FF6370" stop-opacity="0.50033"/>
<stop offset="0.3683" stop-color="#FF617A" stop-opacity="0.34625"/>
<stop offset="0.48003" stop-color="#FF6083" stop-opacity="0.22066"/>
<stop offset="0.59527" stop-color="#FF5E8A" stop-opacity="0.12337"/>
<stop offset="0.71545" stop-color="#FF5E8E" stop-opacity="0.05428"/>
<stop offset="0.84382" stop-color="#FF5D91" stop-opacity="0.01322"/>
<stop offset="0.9946" stop-color="#FF5D92" stop-opacity="0"/>
</linearGradient>
<linearGradient id="paint9_linear_850:15188" x1="274013" y1="19109.8" x2="439444" y2="19109.8" gradientUnits="userSpaceOnUse">
<stop stop-color="#FF5788"/>
<stop offset="0.04965" stop-color="#FF5995" stop-opacity="0.8892"/>
<stop offset="0.15231" stop-color="#FF5CAE" stop-opacity="0.68307"/>
<stop offset="0.25925" stop-color="#FF5EC3" stop-opacity="0.50033"/>
<stop offset="0.3683" stop-color="#FF61D6" stop-opacity="0.34625"/>
<stop offset="0.48003" stop-color="#FF63E5" stop-opacity="0.22066"/>
<stop offset="0.59527" stop-color="#FF64F0" stop-opacity="0.12337"/>
<stop offset="0.71545" stop-color="#FF65F9" stop-opacity="0.05428"/>
<stop offset="0.84382" stop-color="#FF66FD" stop-opacity="0.01322"/>
<stop offset="0.9946" stop-color="#FF66FF" stop-opacity="0"/>
</linearGradient>
<linearGradient id="paint10_linear_850:15188" x1="72.6857" y1="189.08" x2="213.875" y2="-35.51" gradientUnits="userSpaceOnUse">
<stop offset="0.0139607" stop-color="#8F67E2"/>
<stop offset="0.1403" stop-color="#7D89E5"/>
<stop offset="0.2948" stop-color="#6AACE9"/>
<stop offset="0.4216" stop-color="#5EC1EB"/>
<stop offset="0.5042" stop-color="#5AC9EC"/>
<stop offset="1" stop-color="#51EABD"/>
</linearGradient>
<linearGradient id="paint11_linear_850:15188" x1="83.6436" y1="184.229" x2="210.697" y2="-32.8356" gradientUnits="userSpaceOnUse">
<stop offset="0.0139607" stop-color="#8F67E2"/>
<stop offset="0.1403" stop-color="#7D89E5"/>
<stop offset="0.2948" stop-color="#6AACE9"/>
<stop offset="0.4216" stop-color="#5EC1EB"/>
<stop offset="0.5042" stop-color="#5AC9EC"/>
<stop offset="1" stop-color="#51EABD"/>
</linearGradient>
<linearGradient id="paint12_linear_850:15188" x1="271693" y1="22280.7" x2="425833" y2="22280.7" gradientUnits="userSpaceOnUse">
<stop stop-color="#FF5788"/>
<stop offset="0.04965" stop-color="#FF5995" stop-opacity="0.8892"/>
<stop offset="0.15231" stop-color="#FF5CAE" stop-opacity="0.68307"/>
<stop offset="0.25925" stop-color="#FF5EC3" stop-opacity="0.50033"/>
<stop offset="0.3683" stop-color="#FF61D6" stop-opacity="0.34625"/>
<stop offset="0.48003" stop-color="#FF63E5" stop-opacity="0.22066"/>
<stop offset="0.59527" stop-color="#FF64F0" stop-opacity="0.12337"/>
<stop offset="0.71545" stop-color="#FF65F9" stop-opacity="0.05428"/>
<stop offset="0.84382" stop-color="#FF66FD" stop-opacity="0.01322"/>
<stop offset="0.9946" stop-color="#FF66FF" stop-opacity="0"/>
</linearGradient>
<linearGradient id="paint13_linear_850:15188" x1="264933" y1="22931.4" x2="416614" y2="22931.4" gradientUnits="userSpaceOnUse">
<stop stop-color="#FF5788"/>
<stop offset="0.04965" stop-color="#FF5995" stop-opacity="0.8892"/>
<stop offset="0.15231" stop-color="#FF5CAE" stop-opacity="0.68307"/>
<stop offset="0.25925" stop-color="#FF5EC3" stop-opacity="0.50033"/>
<stop offset="0.3683" stop-color="#FF61D6" stop-opacity="0.34625"/>
<stop offset="0.48003" stop-color="#FF63E5" stop-opacity="0.22066"/>
<stop offset="0.59527" stop-color="#FF64F0" stop-opacity="0.12337"/>
<stop offset="0.71545" stop-color="#FF65F9" stop-opacity="0.05428"/>
<stop offset="0.84382" stop-color="#FF66FD" stop-opacity="0.01322"/>
<stop offset="0.9946" stop-color="#FF66FF" stop-opacity="0"/>
</linearGradient>
<linearGradient id="paint14_linear_850:15188" x1="262500" y1="24010.6" x2="418122" y2="24010.6" gradientUnits="userSpaceOnUse">
<stop stop-color="#FF694E"/>
<stop offset="0.04965" stop-color="#FF6856" stop-opacity="0.8892"/>
<stop offset="0.15231" stop-color="#FF6564" stop-opacity="0.68307"/>
<stop offset="0.25925" stop-color="#FF6370" stop-opacity="0.50033"/>
<stop offset="0.3683" stop-color="#FF617A" stop-opacity="0.34625"/>
<stop offset="0.48003" stop-color="#FF6083" stop-opacity="0.22066"/>
<stop offset="0.59527" stop-color="#FF5E8A" stop-opacity="0.12337"/>
<stop offset="0.71545" stop-color="#FF5E8E" stop-opacity="0.05428"/>
<stop offset="0.84382" stop-color="#FF5D91" stop-opacity="0.01322"/>
<stop offset="0.9946" stop-color="#FF5D92" stop-opacity="0"/>
</linearGradient>
<linearGradient id="paint15_linear_850:15188" x1="274035" y1="25202.8" x2="439646" y2="25202.8" gradientUnits="userSpaceOnUse">
<stop stop-color="#FF5788"/>
<stop offset="0.04965" stop-color="#FF5995" stop-opacity="0.8892"/>
<stop offset="0.15231" stop-color="#FF5CAE" stop-opacity="0.68307"/>
<stop offset="0.25925" stop-color="#FF5EC3" stop-opacity="0.50033"/>
<stop offset="0.3683" stop-color="#FF61D6" stop-opacity="0.34625"/>
<stop offset="0.48003" stop-color="#FF63E5" stop-opacity="0.22066"/>
<stop offset="0.59527" stop-color="#FF64F0" stop-opacity="0.12337"/>
<stop offset="0.71545" stop-color="#FF65F9" stop-opacity="0.05428"/>
<stop offset="0.84382" stop-color="#FF66FD" stop-opacity="0.01322"/>
<stop offset="0.9946" stop-color="#FF66FF" stop-opacity="0"/>
</linearGradient>
<linearGradient id="paint16_linear_850:15188" x1="90.0704" y1="152.54" x2="594.102" y2="173.379" gradientUnits="userSpaceOnUse">
<stop stop-color="#8758FE"/>
<stop offset="0.2326" stop-color="#B264FE"/>
<stop offset="0.6051" stop-color="#FF78FF"/>
</linearGradient>
<linearGradient id="paint17_linear_850:15188" x1="100.967" y1="150.288" x2="604.238" y2="172.604" gradientUnits="userSpaceOnUse">
<stop stop-color="#8758FE"/>
<stop offset="0.2326" stop-color="#B264FE"/>
<stop offset="0.6051" stop-color="#FF78FF"/>
</linearGradient>
<linearGradient id="paint18_linear_850:15188" x1="129.439" y1="145.047" x2="628.501" y2="189.782" gradientUnits="userSpaceOnUse">
<stop stop-color="#8758FE"/>
<stop offset="0.2326" stop-color="#B264FE"/>
<stop offset="0.6051" stop-color="#FF78FF"/>
</linearGradient>
<linearGradient id="paint19_linear_850:15188" x1="86.1775" y1="166.768" x2="586.794" y2="194.62" gradientUnits="userSpaceOnUse">
<stop stop-color="#8758FE"/>
<stop offset="0.2326" stop-color="#B264FE"/>
<stop offset="0.6051" stop-color="#FF78FF"/>
</linearGradient>
<linearGradient id="paint20_linear_850:15188" x1="327845" y1="70979.4" x2="668433" y2="164988" gradientUnits="userSpaceOnUse">
<stop stop-color="#FF5788"/>
<stop offset="0.04965" stop-color="#FF5995" stop-opacity="0.8892"/>
<stop offset="0.15231" stop-color="#FF5CAE" stop-opacity="0.68307"/>
<stop offset="0.25925" stop-color="#FF5EC3" stop-opacity="0.50033"/>
<stop offset="0.3683" stop-color="#FF61D6" stop-opacity="0.34625"/>
<stop offset="0.48003" stop-color="#FF63E5" stop-opacity="0.22066"/>
<stop offset="0.59527" stop-color="#FF64F0" stop-opacity="0.12337"/>
<stop offset="0.71545" stop-color="#FF65F9" stop-opacity="0.05428"/>
<stop offset="0.84382" stop-color="#FF66FD" stop-opacity="0.01322"/>
<stop offset="0.9946" stop-color="#FF66FF" stop-opacity="0"/>
</linearGradient>
<linearGradient id="paint21_linear_850:15188" x1="313663" y1="72280" x2="649809" y2="163214" gradientUnits="userSpaceOnUse">
<stop stop-color="#FF5788"/>
<stop offset="0.04965" stop-color="#FF5995" stop-opacity="0.8892"/>
<stop offset="0.15231" stop-color="#FF5CAE" stop-opacity="0.68307"/>
<stop offset="0.25925" stop-color="#FF5EC3" stop-opacity="0.50033"/>
<stop offset="0.3683" stop-color="#FF61D6" stop-opacity="0.34625"/>
<stop offset="0.48003" stop-color="#FF63E5" stop-opacity="0.22066"/>
<stop offset="0.59527" stop-color="#FF64F0" stop-opacity="0.12337"/>
<stop offset="0.71545" stop-color="#FF65F9" stop-opacity="0.05428"/>
<stop offset="0.84382" stop-color="#FF66FD" stop-opacity="0.01322"/>
<stop offset="0.9946" stop-color="#FF66FF" stop-opacity="0"/>
</linearGradient>
<linearGradient id="paint22_linear_850:15188" x1="-38.9544" y1="196.077" x2="704.268" y2="217.176" gradientUnits="userSpaceOnUse">
<stop stop-color="#8758FE"/>
<stop offset="0.2326" stop-color="#B264FE"/>
<stop offset="0.6051" stop-color="#FF78FF"/>
</linearGradient>
<linearGradient id="paint23_linear_850:15188" x1="320052" y1="79680.7" x2="687600" y2="176921" gradientUnits="userSpaceOnUse">
<stop stop-color="#FF5788"/>
<stop offset="0.04965" stop-color="#FF5995" stop-opacity="0.8892"/>
<stop offset="0.15231" stop-color="#FF5CAE" stop-opacity="0.68307"/>
<stop offset="0.25925" stop-color="#FF5EC3" stop-opacity="0.50033"/>
<stop offset="0.3683" stop-color="#FF61D6" stop-opacity="0.34625"/>
<stop offset="0.48003" stop-color="#FF63E5" stop-opacity="0.22066"/>
<stop offset="0.59527" stop-color="#FF64F0" stop-opacity="0.12337"/>
<stop offset="0.71545" stop-color="#FF65F9" stop-opacity="0.05428"/>
<stop offset="0.84382" stop-color="#FF66FD" stop-opacity="0.01322"/>
<stop offset="0.9946" stop-color="#FF66FF" stop-opacity="0"/>
</linearGradient>
<linearGradient id="paint24_linear_850:15188" x1="-51.8557" y1="199.911" x2="703.585" y2="220.071" gradientUnits="userSpaceOnUse">
<stop stop-color="#8758FE"/>
<stop offset="0.2326" stop-color="#B264FE"/>
<stop offset="0.6051" stop-color="#FF78FF"/>
</linearGradient>
<linearGradient id="paint25_linear_850:15188" x1="-59.4533" y1="311.615" x2="361.057" y2="-58.8688" gradientUnits="userSpaceOnUse">
<stop offset="0.0139607" stop-color="#8F67E2"/>
<stop offset="0.1403" stop-color="#7D89E5"/>
<stop offset="0.2948" stop-color="#6AACE9"/>
<stop offset="0.4216" stop-color="#5EC1EB"/>
<stop offset="0.5042" stop-color="#5AC9EC"/>
<stop offset="1" stop-color="#51EABD"/>
</linearGradient>
<linearGradient id="paint26_linear_850:15188" x1="-11.6919" y1="252.559" x2="221.154" y2="-98.7565" gradientUnits="userSpaceOnUse">
<stop offset="0.0139607" stop-color="#8F67E2"/>
<stop offset="0.1403" stop-color="#7D89E5"/>
<stop offset="0.2948" stop-color="#6AACE9"/>
<stop offset="0.4216" stop-color="#5EC1EB"/>
<stop offset="0.5042" stop-color="#5AC9EC"/>
<stop offset="1" stop-color="#51EABD"/>
</linearGradient>
<linearGradient id="paint27_linear_850:15188" x1="-60.315" y1="223.714" x2="692.029" y2="248.382" gradientUnits="userSpaceOnUse">
<stop stop-color="#8758FE"/>
<stop offset="0.2326" stop-color="#B264FE"/>
<stop offset="0.6051" stop-color="#FF78FF"/>
</linearGradient>
<linearGradient id="paint28_linear_850:15188" x1="230.596" y1="114.456" x2="300.367" y2="-22.5413" gradientUnits="userSpaceOnUse">
<stop stop-color="#8758FE"/>
<stop offset="0.2326" stop-color="#B264FE"/>
<stop offset="0.6051" stop-color="#FF78FF"/>
</linearGradient>
</defs>
</svg>
