<svg width="100%" height="100%" viewBox="0 0 24 20" fill="none" xmlns="http://www.w3.org/2000/svg">
<path fill-rule="evenodd" clip-rule="evenodd" d="M1.64325 8.65988C8.08437 5.86259 12.3723 4.00387 14.5255 3.10211C20.6538 0.544065 21.942 0.102388 22.7701 0.0839844C22.9542 0.0839844 23.359 0.120791 23.6351 0.34163C23.8559 0.525662 23.9111 0.764904 23.9479 0.948936C23.9848 1.13297 24.0216 1.51943 23.9848 1.81389C23.6535 5.31049 22.218 13.7944 21.4819 17.6959C21.1691 19.3521 20.5618 19.9042 19.9729 19.9594C18.6846 20.0699 17.7093 19.1129 16.4762 18.3032C14.5255 17.0333 13.4397 16.242 11.5442 14.9906C9.3542 13.5551 10.7712 12.7638 12.0227 11.4756C12.3539 11.1443 18.0037 5.99141 18.1141 5.53133C18.1325 5.47612 18.1325 5.25529 18.0037 5.14487C17.8749 5.03445 17.6909 5.07125 17.5436 5.10806C17.3412 5.14487 14.2495 7.20603 8.2316 11.2731C7.34825 11.8804 6.55691 12.1749 5.83918 12.1565C5.04784 12.1381 3.53878 11.7148 2.39778 11.3467C1.01754 10.9051 -0.0866539 10.6658 0.00536217 9.89289C0.0605718 9.48802 0.612668 9.08315 1.64325 8.65988Z" fill="url(#paint0_linear_768:12167)"/>
<defs>
<linearGradient id="paint0_linear_768:12167" x1="-4.38959" y1="19.8935" x2="27.7001" y2="6.33418" gradientUnits="userSpaceOnUse">
<stop offset="0.0139607" stop-color="#8F67E2"/>
<stop offset="0.1403" stop-color="#7D89E5"/>
<stop offset="0.2948" stop-color="#6AACE9"/>
<stop offset="0.4216" stop-color="#5EC1EB"/>
<stop offset="0.5042" stop-color="#5AC9EC"/>
<stop offset="1" stop-color="#51EABD"/>
</linearGradient>
</defs>
</svg>
