<svg width="100%" height="100%" viewBox="0 0 24 24" fill="none" xmlns="http://www.w3.org/2000/svg">
<path fill-rule="evenodd" clip-rule="evenodd" d="M1.64325 10.6599C8.08437 7.86259 12.3723 6.00387 14.5255 5.10211C20.6538 2.54406 21.942 2.10239 22.7701 2.08398C22.9542 2.08398 23.359 2.12079 23.6351 2.34163C23.8559 2.52566 23.9111 2.7649 23.9479 2.94894C23.9848 3.13297 24.0216 3.51943 23.9848 3.81389C23.6535 7.31049 22.218 15.7944 21.4819 19.6959C21.1691 21.3521 20.5618 21.9042 19.9729 21.9594C18.6846 22.0699 17.7093 21.1129 16.4762 20.3032C14.5255 19.0333 13.4397 18.242 11.5442 16.9906C9.3542 15.5551 10.7712 14.7638 12.0227 13.4756C12.3539 13.1443 18.0037 7.99141 18.1141 7.53133C18.1325 7.47612 18.1325 7.25529 18.0037 7.14487C17.8749 7.03445 17.6909 7.07125 17.5436 7.10806C17.3412 7.14487 14.2495 9.20603 8.2316 13.2731C7.34825 13.8804 6.55691 14.1749 5.83918 14.1565C5.04784 14.1381 3.53878 13.7148 2.39778 13.3467C1.01754 12.9051 -0.0866539 12.6658 0.00536217 11.8929C0.0605718 11.488 0.612668 11.0832 1.64325 10.6599Z" fill="white"/>
</svg>
