<svg width="40" height="40" viewBox="0 0 40 40" fill="none" xmlns="http://www.w3.org/2000/svg">
<path fill-rule="evenodd" clip-rule="evenodd" d="M3.39824 9.33398H3.33301V7.33398H3.39824H3.46372H3.52946H3.59544H3.66168H3.72816H3.79488H3.86185H3.92906H3.99652H4.06421H4.13214H4.20031H4.26871H4.33734H4.40621H4.47531H4.54463H4.61419H4.68397H4.75397H4.8242H4.89465H4.96532H5.0362H5.10731H5.17863H5.25016H5.32191H5.39387H5.46604H5.53841H5.61099H5.68378H5.75677H5.82997H5.90336H5.97695H6.05074H6.12473H6.19891H6.27329H6.34785H6.42261H6.49756H6.57269H6.64801H6.72351H6.7992H6.87506H6.95111H7.02734H7.10374H7.18031H7.25707H7.33399H7.41108H7.48835H7.56578H7.64338H7.72114H7.79907H7.87715H7.9554H8.03381H8.11238H8.1911H8.26997H8.349H8.42818H8.50751H8.58699H8.66662H8.74639H8.8263H8.90636H8.98656H9.0669H9.14737H9.22799H9.30873H9.38962H9.47063H9.55177H9.63305H9.71445H9.79598H9.87763H9.9594H10.0413H10.1233H10.2055H10.2877H10.3701H10.4526H10.5352H10.6179H10.7007H10.7836H10.8666H10.9498H11.033H11.1164H11.1998H11.2833H11.367H11.4507H11.5346H11.6185H11.7025H11.7866H11.8708H11.9551H12.0395H12.1239H12.2085H12.2931H12.3778H12.4626H12.5474H12.6323H12.7173H12.8024H12.8876H12.9728H13.0581H13.1434H13.2288H13.3143H13.3999H13.4855H13.5711H13.6569H13.7426H13.8285H13.9143H14.0003H14.0863H14.1723H14.2584H14.3445H14.4307H14.5169H14.6031H14.6894H14.7758H14.8621H14.9486H15.035H15.1215H15.208H15.2945H15.3811H15.4676H15.5543H15.6409H15.7275H15.8142H15.9009H15.9876H16.0744H16.1611H16.2479H16.3346H16.4214H16.5082H16.595H16.6818H16.7686H16.8554H16.9422H17.029H17.1158H17.2026H17.2894H17.3762H17.463H17.5497H17.6365H17.7232H17.81H17.8967H17.9834H18.0701H18.1567H18.2434H18.33H18.4166H18.5032H18.5897H18.6762H18.7627H18.8491H18.9356H19.0219H19.1083H19.1946H19.2809H19.3671H19.4533H19.5394H19.6255H19.7116H19.7976H19.8835H19.9694H20.0553H20.1411H20.2268H20.3125H20.3981H20.4837H20.5692H20.6546H20.74H20.8253H20.9105H20.9957H21.0808H21.1658H21.2508H21.3357H21.4205H21.5052H21.5899H21.6744H21.7589H21.8433H21.9276H22.0118H22.096H22.18H22.264H22.3479H22.4316H22.5153H22.5989H22.6823H22.7657H22.849H22.9322H23.0152H23.0982H23.1811H23.2638H23.3464H23.429H23.5114H23.5937H23.6758H23.7579H23.8398H23.9216H24.0033H24.0849H24.1663H24.2477H24.3288H24.4099H24.4908H24.5716H24.6523H24.7328H24.8132H24.8934H24.9735H25.0535H25.1333H25.213H25.2925H25.3719H25.4511H25.5302H25.6091H25.6879H25.7665H25.845H25.9233H26.0014H26.0794H26.1572H26.2349H26.3124H26.3897H26.4668H26.5438H26.6206H26.6973H26.7737H26.85H26.9261H27.002H27.0778H27.1534H27.2287H27.3039H27.3789H27.4538H27.5284H27.6028H27.6771H27.7511H27.825H27.8986H27.9721H28.0454H28.1184H28.1913H28.2639H28.3364H28.4086H28.4806H28.5525H28.6241H28.6955H28.7666H28.8376H28.9083H28.9789H29.0492H29.1192H29.1891H29.2587H29.3281H29.3973H29.4662H29.535H29.6034H29.6717H29.7397H29.8075H29.875H29.9423H30.0093H30.0761H30.1427H30.209H30.2751H30.3409H30.4065H30.4718H30.5368H30.6017H30.6662H30.7305H30.7945H30.8583H30.9218H30.985H31.048H31.1107H31.1732H31.2353H31.2972H31.3589H31.4202H31.4813H31.5421H31.6026H31.6629H31.7228H31.7825H31.8419H31.901H31.9598H32.0183H32.0765H32.1345H32.1921H32.2495H32.3065H32.3633H32.4197H32.4759H32.5317H32.5873H32.6425H32.6975H32.7521H32.8064H32.8604H32.9141H32.9675H33.0205H33.0732H33.1257H33.1778H33.2295H33.281H33.3321H33.3829H33.4334H33.4835H33.5333H33.5828H33.632H33.6808H33.7292H33.7774H33.8252H33.8726H33.9197H33.9665H34.0129H34.059H34.1047H34.15H34.1951H34.2397H34.284H34.328H34.3716H34.4148H34.4577H34.5002H34.5423H34.5841H34.6255H34.6666H34.7072H34.7475H34.7875H34.827H34.8662H34.905H34.9434H34.9814H35.0191H35.0564H35.0933H35.1298H35.1659H35.2016H35.237H35.2719H35.3064H35.3406H35.3744H35.4077H35.4407H35.4732H35.5054H35.5371H35.5685H35.5994H35.63H35.6601H35.6898H35.7191H35.748H35.7764H35.8045H35.8321H35.8593H35.8861H35.9124H35.9384H35.9639H35.989H36.0136H36.0378H36.0616H36.085H36.1079H36.1303H36.1524H36.174H36.1951H36.2159H36.2361H36.256H36.2753H36.2943H36.3127H36.3308H36.3483H36.3655H36.3821H36.3983H36.4141H36.4293H36.4442H36.4585H36.4724H36.4858H36.4988H36.5113H36.5233H36.5348H36.5459H36.5565H36.5666H36.5762H36.5854H36.5941H36.6023H36.61H36.6172H36.6239H36.6301H36.6359H36.6412H36.6459H36.6502H36.654H36.6572H36.66H36.6623H36.6641H36.6653H36.6661C36.6663 7.33398 36.6663 7.33398 36.6663 8.33398C36.6663 9.33398 36.6663 9.33398 36.6661 9.33398H36.6653H36.6641H36.6623H36.66H36.6572H36.654H36.6502H36.6459H36.6412H36.6359H36.6301H36.6239H36.6172H36.61H36.6023H36.5941H36.5854H36.5762H36.5666H36.5565H36.5459H36.5348H36.5233H36.5113H36.4988H36.4858H36.4724H36.4585H36.4442H36.4293H36.4141H36.3983H36.3821H36.3655H36.3483H36.3308H36.3127H36.2943H36.2753H36.256H36.2361H36.2159H36.1951H36.174H36.1524H36.1303H36.1079H36.085H36.0616H36.0378H36.0136H35.989H35.9639H35.9384H35.9124H35.8861H35.8593H35.8321H35.8045H35.7764H35.748H35.7191H35.6898H35.6601H35.63H35.5994H35.5685H35.5371H35.5054H35.4732H35.4407H35.4077H35.3744H35.3406H35.3064H35.2719H35.237H35.2016H35.1659H35.1298H35.0933H35.0564H35.0191H34.9814H34.9434H34.905H34.8662H34.827H34.7875H34.7475H34.7072H34.6666H34.6255H34.5841H34.5423H34.5002H34.4577H34.4148H34.3716H34.328H34.284H34.2397H34.1951H34.15H34.1047H34.059H34.0129H33.9665H33.9197H33.8726H33.8252H33.7774H33.7292H33.6808H33.632H33.5828H33.5333H33.4835H33.4334H33.3829H33.3321H33.281H33.2295H33.1778H33.1257H33.0732H33.0205H32.9675H32.9141H32.8604H32.8064H32.7521H32.6975H32.6425H32.5873H32.5317H32.4759H32.4197H32.3633H32.3065H32.2495H32.1921H32.1345H32.0765H32.0183H31.9598H31.901H31.8419H31.7825H31.7228H31.6629H31.6026H31.5421H31.4813H31.4202H31.3589H31.2972H31.2353H31.1732H31.1107H31.048H30.985H30.9218H30.8583H30.7945H30.7305H30.6662H30.6017H30.5368H30.4718H30.4065H30.3409H30.2751H30.209H30.1427H30.0761H30.0093H29.9423H29.875H29.8075H29.7397H29.6717H29.6034H29.535H29.4662H29.3973H29.3281H29.2587H29.1891H29.1192H29.0492H28.9789H28.9083H28.8376H28.7666H28.6955H28.6241H28.5525H28.4806H28.4086H28.3364H28.2639H28.1913H28.1184H28.0454H27.9721H27.8986H27.825H27.7511H27.6771H27.6028H27.5284H27.4538H27.3789H27.3039H27.2287H27.1534H27.0778H27.002H26.9261H26.85H26.7737H26.6973H26.6206H26.5438H26.4668H26.3897H26.3124H26.2349H26.1572H26.0794H26.0014H25.9233H25.845H25.7665H25.6879H25.6091H25.5302H25.4511H25.3719H25.2925H25.213H25.1333H25.0535H24.9735H24.8934H24.8132H24.7328H24.6523H24.5716H24.4908H24.4099H24.3288H24.2477H24.1663H24.0849H24.0033H23.9216H23.8398H23.7579H23.6758H23.5937H23.5114H23.429H23.3464H23.2638H23.1811H23.0982H23.0152H22.9322H22.849H22.7657H22.6823H22.5989H22.5153H22.4316H22.3479H22.264H22.18H22.096H22.0118H21.9276H21.8433H21.7589H21.6744H21.5899H21.5052H21.4205H21.3357H21.2508H21.1658H21.0808H20.9957H20.9105H20.8253H20.74H20.6546H20.5692H20.4837H20.3981H20.3125H20.2268H20.1411H20.0553H19.9694H19.8835H19.7976H19.7116H19.6255H19.5394H19.4533H19.3671H19.2809H19.1946H19.1083H19.0219H18.9356H18.8491H18.7627H18.6762H18.5897H18.5032H18.4166H18.33H18.2434H18.1567H18.0701H17.9834H17.8967H17.81H17.7232H17.6365H17.5497H17.463H17.3762H17.2894H17.2026H17.1158H17.029H16.9422H16.8554H16.7686H16.6818H16.595H16.5082H16.4214H16.3346H16.2479H16.1611H16.0744H15.9876H15.9009H15.8142H15.7275H15.6409H15.5543H15.4676H15.3811H15.2945H15.208H15.1215H15.035H14.9486H14.8621H14.7758H14.6894H14.6031H14.5169H14.4307H14.3445H14.2584H14.1723H14.0863H14.0003H13.9143H13.8285H13.7426H13.6569H13.5711H13.4855H13.3999H13.3143H13.2288H13.1434H13.0581H12.9728H12.8876H12.8024H12.7173H12.6323H12.5474H12.4626H12.3778H12.2931H12.2085H12.1239H12.0395H11.9551H11.8708H11.7866H11.7025H11.6185H11.5346H11.4507H11.367H11.2833H11.1998H11.1164H11.033H10.9498H10.8666H10.7836H10.7007H10.6179H10.5352H10.4526H10.3701H10.2877H10.2055H10.1233H10.0413H9.9594H9.87763H9.79598H9.71445H9.63305H9.55177H9.47063H9.38962H9.30873H9.22799H9.14737H9.0669H8.98656H8.90636H8.8263H8.74639H8.66662H8.58699H8.50751H8.42818H8.349H8.26997H8.1911H8.11238H8.03381H7.9554H7.87715H7.79907H7.72114H7.64338H7.56578H7.48835H7.41108H7.33399H7.25707H7.18031H7.10374H7.02734H6.95111H6.87506H6.7992H6.72351H6.64801H6.57269H6.49756H6.42261H6.34785H6.27329H6.19891H6.12473H6.05074H5.97695H5.90336H5.82997H5.75677H5.68378H5.61099H5.53841H5.46604H5.39387H5.32191H5.25016H5.17863H5.10731H5.0362H4.96532H4.89465H4.8242H4.75397H4.68397H4.61419H4.54463H4.47531H4.40621H4.33734H4.26871H4.20031H4.13214H4.06421H3.99652H3.92906H3.86185H3.79488H3.72816H3.66168H3.59544H3.52946H3.46372H3.39824ZM29.9997 21.0007H3.33301V19.0007H29.9997V21.0007ZM36.6663 32.6673H3.33301V30.6673H36.6663V32.6673Z" fill="white"/>
</svg>
