<svg width="100%" height="100%" viewBox="0 0 24 24" fill="none" xmlns="http://www.w3.org/2000/svg">
<path d="M21.534 6.98636C21.5473 7.2 21.5473 7.42273 21.5473 7.64091C21.5473 14.3136 16.5977 22 7.55285 22C4.7637 22 2.1782 21.1682 0 19.7364C0.39845 19.7818 0.779193 19.8 1.1865 19.8C3.48866 19.8 5.60487 19 7.29165 17.6455C5.13116 17.6 3.31599 16.1455 2.69618 14.1455C3.45324 14.2591 4.13503 14.2591 4.91422 14.0545C3.80178 13.8225 2.80188 13.2022 2.08441 12.299C1.36694 11.3958 0.976145 10.2655 0.978418 9.1V9.03636C1.62922 9.41363 2.39513 9.64545 3.19646 9.67727C2.52282 9.21634 1.97037 8.59187 1.5881 7.85923C1.20582 7.12659 1.00553 6.30842 1.00498 5.47727C1.00498 4.53636 1.24405 3.67727 1.67349 2.93182C2.90826 4.49244 4.44906 5.76883 6.19575 6.67802C7.94244 7.58722 9.85593 8.10888 11.8118 8.20909C11.1168 4.77727 13.6137 2 16.6154 2C18.0321 2 19.3071 2.60909 20.2059 3.59091C21.3171 3.37727 22.3796 2.95 23.3271 2.37727C22.9596 3.54545 22.1893 4.53182 21.1666 5.15454C22.1583 5.04545 23.1146 4.76364 24 4.36818C23.3315 5.37727 22.4947 6.27273 21.534 6.98636Z" fill="url(#paint0_linear_1058:13387)"/>
<defs>
<linearGradient id="paint0_linear_1058:13387" x1="-3.06657" y1="9.62882" x2="35.2188" y2="10.1439" gradientUnits="userSpaceOnUse">
<stop stop-color="#8758FE"/>
<stop offset="0.2326" stop-color="#B264FE"/>
<stop offset="0.6051" stop-color="#FF78FF"/>
</linearGradient>
</defs>
</svg>
