<svg width="24" height="20" viewBox="0 0 24 20" fill="none" xmlns="http://www.w3.org/2000/svg">
<path d="M21.534 4.98636C21.5473 5.2 21.5473 5.42273 21.5473 5.64091C21.5473 12.3136 16.5977 20 7.55285 20C4.7637 20 2.1782 19.1682 0 17.7364C0.39845 17.7818 0.779193 17.8 1.1865 17.8C3.48866 17.8 5.60487 17 7.29165 15.6455C5.13116 15.6 3.31599 14.1455 2.69618 12.1455C3.45324 12.2591 4.13503 12.2591 4.91422 12.0545C3.80178 11.8225 2.80188 11.2022 2.08441 10.299C1.36694 9.39583 0.976145 8.26548 0.978418 7.1V7.03636C1.62922 7.41363 2.39513 7.64545 3.19646 7.67727C2.52282 7.21634 1.97037 6.59187 1.5881 5.85923C1.20582 5.12659 1.00553 4.30842 1.00498 3.47727C1.00498 2.53636 1.24405 1.67727 1.67349 0.931818C2.90826 2.49244 4.44906 3.76883 6.19575 4.67802C7.94244 5.58722 9.85593 6.10888 11.8118 6.20909C11.1168 2.77727 13.6137 0 16.6154 0C18.0321 0 19.3071 0.609091 20.2059 1.59091C21.3171 1.37727 22.3796 0.949999 23.3271 0.377272C22.9596 1.54545 22.1893 2.53182 21.1666 3.15454C22.1583 3.04545 23.1146 2.76364 24 2.36818C23.3315 3.37727 22.4947 4.27273 21.534 4.98636Z" fill="url(#paint0_linear_768:12162)"/>
<defs>
<linearGradient id="paint0_linear_768:12162" x1="-4.38959" y1="19.9249" x2="27.7563" y2="6.42043" gradientUnits="userSpaceOnUse">
<stop offset="0.0139607" stop-color="#8F67E2"/>
<stop offset="0.1403" stop-color="#7D89E5"/>
<stop offset="0.2948" stop-color="#6AACE9"/>
<stop offset="0.4216" stop-color="#5EC1EB"/>
<stop offset="0.5042" stop-color="#5AC9EC"/>
<stop offset="1" stop-color="#51EABD"/>
</linearGradient>
</defs>
</svg>
