<svg width="74" height="72" viewBox="0 0 74 72" fill="none" xmlns="http://www.w3.org/2000/svg">
<path d="M38.6929 8.93673C39.6091 9.97116 40.3775 11.0647 41.0573 12.2469C41.7075 13.3996 42.269 14.6113 42.7124 15.8822C43.1557 17.1235 43.4513 18.4239 43.6582 19.7835C43.865 21.1135 43.9241 22.473 43.8946 23.8621C43.865 25.2512 43.7172 26.6107 43.4513 27.9407C43.1853 29.2707 42.8306 30.5711 42.3577 31.842C41.8848 33.1129 41.3233 34.3246 40.6435 35.5068C39.9637 36.689 39.1953 37.8121 38.3382 38.9057C37.4516 39.9992 36.5058 40.9745 35.5009 41.8907C34.496 42.8069 33.4025 43.6049 32.2794 44.3143C31.1268 45.0236 29.9445 45.6442 28.7032 46.1171C27.4619 46.6196 26.1615 47.0038 24.802 47.2698C23.4424 47.5358 22.1124 47.6835 20.7825 47.6835C19.4229 47.6835 18.0929 47.5653 16.7925 47.2993C15.4625 47.0333 14.1917 46.6196 12.9503 46.0876C11.6795 45.526 10.4677 44.8462 9.34459 44.0187C8.19194 43.1616 7.12797 42.2158 6.1822 41.1519C5.23644 40.0583 4.37934 38.8761 3.67001 37.6052C2.96069 36.3048 2.36958 34.9157 1.92625 33.438C1.48292 31.9602 1.18736 30.3938 1.06914 28.7682C0.950923 27.1427 0.980485 25.5172 1.18737 23.8916C1.39426 22.2661 1.74894 20.6701 2.28093 19.1037C2.81293 17.5373 3.49267 16.03 4.32021 14.5818C5.14776 13.1336 6.12308 11.774 7.24618 10.5032C8.36928 9.23228 9.58105 8.10919 10.8815 7.10431C12.1819 6.12899 13.5414 5.30145 14.9601 4.62168C16.3787 3.94191 17.8269 3.43947 19.3342 3.08481C20.812 2.73015 22.3193 2.55282 23.8266 2.52326C25.3339 2.49371 26.7822 2.64148 28.1712 2.90748C29.5603 3.20303 30.8903 3.6168 32.1612 4.17835C33.4025 4.7399 34.5847 5.41967 35.6783 6.24721C36.7718 6.95654 37.7767 7.9023 38.6929 8.93673ZM24.7724 47.0333C27.4915 46.5013 30.0332 45.4374 32.2794 43.9892C34.5256 42.5705 36.5058 40.7676 38.1609 38.7283C39.816 36.689 41.1755 34.3542 42.1213 31.842C43.067 29.3298 43.6286 26.6107 43.7173 23.803C43.7764 20.9657 43.3626 18.2466 42.476 15.7935C41.5893 13.2813 40.2593 10.976 38.5451 9.05495C36.8013 7.07476 34.6438 5.44922 32.1907 4.32613C29.6786 3.17348 26.8413 2.55282 23.7971 2.61193C20.6642 2.67104 17.6496 3.43947 14.8714 4.79901C12.0341 6.15855 9.49237 8.13874 7.39396 10.5327C5.26598 12.9562 3.58134 15.7935 2.51735 18.8968C1.45337 21.9706 0.980507 25.2807 1.2465 28.6205C1.5125 31.9011 2.45824 34.9157 3.87688 37.487C5.29553 39.9992 7.18708 42.1272 9.40372 43.7527C11.5612 45.3191 14.0439 46.4422 16.6743 47.0038C19.2751 47.5653 21.9942 47.5949 24.7724 47.0333Z" stroke="#2B2BAD" stroke-width="2" stroke-miterlimit="10"/>
<path d="M38.6929 8.93673C39.6091 9.97116 40.3775 11.0647 41.0573 12.2469C41.7075 13.3996 42.269 14.6113 42.7124 15.8822C43.1557 17.1235 43.4513 18.4239 43.6582 19.7835C43.865 21.1135 43.9241 22.473 43.8946 23.8621C43.865 25.2512 43.7172 26.6107 43.4513 27.9407C43.1853 29.2707 42.8306 30.5711 42.3577 31.842C41.8848 33.1129 41.3233 34.3246 40.6435 35.5068C39.9637 36.689 39.1953 37.8121 38.3382 38.9057C37.4516 39.9992 36.5058 40.9745 35.5009 41.8907C34.496 42.8069 33.4025 43.6049 32.2794 44.3143C31.1268 45.0236 29.9445 45.6442 28.7032 46.1171C27.4619 46.6196 26.1615 47.0038 24.802 47.2698C23.4424 47.5358 22.1124 47.6835 20.7825 47.6835C19.4229 47.6835 18.0929 47.5653 16.7925 47.2993C15.4625 47.0333 14.1917 46.6196 12.9503 46.0876C11.6795 45.526 10.4677 44.8462 9.34459 44.0187C8.19194 43.1616 7.12797 42.2158 6.1822 41.1519C5.23644 40.0583 4.37934 38.8761 3.67001 37.6052C2.96069 36.3048 2.36958 34.9157 1.92625 33.438C1.48292 31.9602 1.18736 30.3938 1.06914 28.7682C0.950923 27.1427 0.980485 25.5172 1.18737 23.8916C1.39426 22.2661 1.74894 20.6701 2.28093 19.1037C2.81293 17.5373 3.49267 16.03 4.32021 14.5818C5.14776 13.1336 6.12308 11.774 7.24618 10.5032C8.36928 9.23228 9.58105 8.10919 10.8815 7.10431C12.1819 6.12899 13.5414 5.30145 14.9601 4.62168C16.3787 3.94191 17.8269 3.43947 19.3342 3.08481C20.812 2.73015 22.3193 2.55282 23.8266 2.52326C25.3339 2.49371 26.7822 2.64148 28.1712 2.90748C29.5603 3.20303 30.8903 3.6168 32.1612 4.17835C33.4025 4.7399 34.5847 5.41967 35.6783 6.24721C36.7718 6.95654 37.7767 7.9023 38.6929 8.93673ZM24.7724 47.0333C27.4915 46.5013 30.0332 45.4374 32.2794 43.9892C34.5256 42.5705 36.5058 40.7676 38.1609 38.7283C39.816 36.689 41.1755 34.3542 42.1213 31.842C43.067 29.3298 43.6286 26.6107 43.7173 23.803C43.7764 20.9657 43.3626 18.2466 42.476 15.7935C41.5893 13.2813 40.2593 10.976 38.5451 9.05495C36.8013 7.07476 34.6438 5.44922 32.1907 4.32613C29.6786 3.17348 26.8413 2.55282 23.7971 2.61193C20.6642 2.67104 17.6496 3.43947 14.8714 4.79901C12.0341 6.15855 9.49237 8.13874 7.39396 10.5327C5.26598 12.9562 3.58134 15.7935 2.51735 18.8968C1.45337 21.9706 0.980507 25.2807 1.2465 28.6205C1.5125 31.9011 2.45824 34.9157 3.87688 37.487C5.29553 39.9992 7.18708 42.1272 9.40372 43.7527C11.5612 45.3191 14.0439 46.4422 16.6743 47.0038C19.2751 47.5653 21.9942 47.5949 24.7724 47.0333Z" stroke="#2B2BAD" stroke-width="2" stroke-miterlimit="10"/>
<path d="M72.801 34.4715L43.7483 23.8316C43.8074 20.9943 43.3937 18.2753 42.507 15.8222C41.6203 13.31 40.2904 11.0047 38.5762 9.08361C36.8324 7.10342 34.6749 5.47788 32.2218 4.35479C29.7096 3.20213 26.8723 2.58148 23.8281 2.64059L49.4525 5.12322C53.5015 5.005 57.1663 5.8621 60.3287 7.51719C63.3729 9.08361 65.9442 11.3889 67.954 14.1671C69.9046 16.8566 71.3233 20.019 72.1508 23.5065C72.9488 26.8758 73.1852 30.5702 72.801 34.4715Z" stroke="#2B2BAD" stroke-width="2" stroke-miterlimit="10"/>
<path d="M49.4488 5.12326L23.8244 2.64062C20.6916 2.69974 17.677 3.46817 14.8988 4.82771C12.0615 6.18724 9.51975 8.16744 7.42133 10.5614C5.29336 12.9849 3.60871 15.8222 2.54473 18.9255C1.48074 21.9993 1.00788 25.3094 1.27388 28.6492L16.4948 44.8454C16.2879 39.9392 17.1154 35.0035 18.8001 30.3043C20.5143 25.5754 23.056 21.2013 26.248 17.4478C29.3808 13.7238 33.1048 10.6796 37.1243 8.55166C41.0551 6.45324 45.2224 5.24148 49.4488 5.12326Z" stroke="#2B2BAD" stroke-width="2" stroke-miterlimit="10"/>
<path d="M33.2564 10.9443L12.1836 6.36328" stroke="#2B2BAD" stroke-width="2" stroke-miterlimit="10"/>
<path d="M20.7833 25.7225L3.78906 15.9102" stroke="#2B2BAD" stroke-width="2" stroke-miterlimit="10"/>
<path d="M16.4983 44.8447L1.27734 28.6484C1.54334 31.9291 2.48911 34.9437 3.90776 37.515C5.32641 40.0272 7.21792 42.1551 9.43456 43.7807C11.5921 45.3471 14.0747 46.4702 16.7051 47.0317C19.2764 47.5637 21.9955 47.5933 24.7737 47.0613L47.0583 67.9568C43.4526 69.0799 39.9059 69.4345 36.5662 69.0503C33.1083 68.6366 29.8867 67.4544 27.0494 65.5628C24.0939 63.5826 21.6113 60.834 19.7789 57.4352C17.8873 53.859 16.7051 49.6326 16.4983 44.8447Z" stroke="#2B2BAD" stroke-width="2" stroke-miterlimit="10"/>
<path d="M21.8479 60.6264L5.50391 39.9082" stroke="#2B2BAD" stroke-width="2" stroke-miterlimit="10"/>
<path d="M52.4363 5.21192C52.1999 5.18237 51.9635 5.18237 51.6975 5.15281C51.461 5.12326 51.195 5.12326 50.9586 5.12326C50.7221 5.12326 50.4562 5.12326 50.1902 5.12326C49.9242 5.12326 49.6877 5.12326 49.4217 5.12326C45.2249 5.24148 41.028 6.45324 37.0972 8.55166C33.0777 10.6796 29.3538 13.7534 26.2209 17.4478C23.029 21.2013 20.4872 25.5754 18.773 30.3043C17.0884 35.0035 16.2608 39.9392 16.4677 44.8454C16.5268 46.5005 16.7337 48.0669 17.0292 49.5742C17.3248 51.0815 17.709 52.5002 18.1819 53.8597C18.6548 55.1897 19.2459 56.4606 19.8961 57.6428C20.5463 58.825 21.2556 59.889 22.0536 60.8938L5.62096 40.1166C5.02986 39.3481 4.46832 38.5501 3.96588 37.693C3.46344 36.8359 3.02011 35.9197 2.66544 34.9444C2.28123 33.9691 1.98569 32.9642 1.71969 31.9298C1.48325 30.8658 1.3059 29.7723 1.21723 28.6492C0.951239 25.3094 1.42414 21.9993 2.48812 18.9255C3.55211 15.8222 5.23675 12.9849 7.36472 10.5614C9.49269 8.13789 12.0345 6.18724 14.8422 4.82771C17.6204 3.46817 20.635 2.69974 23.7678 2.64062C23.9452 2.64062 24.1521 2.64062 24.3294 2.64062C24.5067 2.64062 24.7136 2.64062 24.8909 2.64062C25.0683 2.64062 25.2751 2.67018 25.4525 2.67018C25.6298 2.67018 25.8367 2.69974 26.014 2.72929C33.9644 3.46817 44.5156 4.47304 52.4363 5.21192Z" stroke="#2B2BAD" stroke-width="2" stroke-miterlimit="10"/>
<path d="M52.4363 5.21192C52.1999 5.18237 51.9635 5.18237 51.6975 5.15281C51.461 5.12326 51.195 5.12326 50.9586 5.12326C50.7221 5.12326 50.4562 5.12326 50.1902 5.12326C49.9242 5.12326 49.6877 5.12326 49.4217 5.12326C45.2249 5.24148 41.028 6.45324 37.0972 8.55166C33.0777 10.6796 29.3538 13.7534 26.2209 17.4478C23.029 21.2013 20.4872 25.5754 18.773 30.3043C17.0884 35.0035 16.2608 39.9392 16.4677 44.8454C16.5268 46.5005 16.7337 48.0669 17.0292 49.5742C17.3248 51.0815 17.709 52.5002 18.1819 53.8597C18.6548 55.1897 19.2459 56.4606 19.8961 57.6428C20.5463 58.825 21.2556 59.889 22.0536 60.8938L5.62096 40.1166C5.02986 39.3481 4.46832 38.5501 3.96588 37.693C3.46344 36.8359 3.02011 35.9197 2.66544 34.9444C2.28123 33.9691 1.98569 32.9642 1.71969 31.9298C1.48325 30.8658 1.3059 29.7723 1.21723 28.6492C0.951239 25.3094 1.42414 21.9993 2.48812 18.9255C3.55211 15.8222 5.23675 12.9849 7.36472 10.5614C9.49269 8.13789 12.0345 6.18724 14.8422 4.82771C17.6204 3.46817 20.635 2.69974 23.7678 2.64062C23.9452 2.64062 24.1521 2.64062 24.3294 2.64062C24.5067 2.64062 24.7136 2.64062 24.8909 2.64062C25.0683 2.64062 25.2751 2.67018 25.4525 2.67018C25.6298 2.67018 25.8367 2.69974 26.014 2.72929C33.9644 3.46817 44.5156 4.47304 52.4363 5.21192Z" stroke="#2B2BAD" stroke-width="2" stroke-miterlimit="10"/>
<path d="M47.0561 67.9286L24.7715 47.0331C27.4906 46.5011 30.0323 45.4371 32.2785 43.9889C34.5247 42.5703 36.5049 40.7674 38.16 38.7281C39.815 36.6888 41.1746 34.3539 42.1203 31.8417C43.0661 29.3296 43.6277 26.6105 43.7163 23.8027L72.7691 34.4426C72.3849 38.2848 71.4391 41.9792 70.0204 45.4667C68.6018 48.9246 66.7398 52.1757 64.5232 55.1016C62.277 58.0572 59.6761 60.6876 56.7797 62.8451C53.8537 65.0913 50.5731 66.835 47.0561 67.9286Z" stroke="#2B2BAD" stroke-width="2" stroke-miterlimit="10"/>
<path d="M59.6163 60.5406L34.4648 42.4824" stroke="#2B2BAD" stroke-width="2" stroke-miterlimit="10"/>
<path d="M68.4838 48.8952L41.0566 34.2949" stroke="#2B2BAD" stroke-width="2" stroke-miterlimit="10"/>
<path d="M72.7991 34.4715L43.7464 23.8316C43.8055 20.9943 43.3917 18.2753 42.5051 15.8222C41.6184 13.31 40.2884 11.0047 38.5742 9.08361C36.8304 7.10342 34.6729 5.47788 32.2198 4.35479C29.7077 3.20213 26.8704 2.58148 23.8262 2.64059L49.4505 5.12322C53.4996 5.005 57.1644 5.8621 60.3268 7.51719C63.371 9.08361 65.9423 11.3889 67.952 14.1671C69.9027 16.8566 71.3213 20.019 72.1488 23.5065C72.9468 26.8758 73.1833 30.5702 72.7991 34.4715Z" stroke="#2B2BAD" stroke-width="2" stroke-miterlimit="10"/>
<path d="M71.1145 20.137L41.4707 13.3984" stroke="#2B2BAD" stroke-width="2" stroke-miterlimit="10"/>
<path d="M63.2232 9.34869L34.5547 5.6543" stroke="#2B2BAD" stroke-width="2" stroke-miterlimit="10"/>
<path d="M26.0734 2.69922L52.4366 5.21141C56.0127 5.53651 59.2342 6.71872 62.0124 8.49203C64.6724 10.2062 66.9186 12.482 68.6623 15.201C70.347 17.8315 71.5883 20.8461 72.2976 24.1267C72.9774 27.3187 73.1843 30.8062 72.8296 34.471C72.4454 38.3132 71.4996 42.0076 70.081 45.4951C68.6623 48.953 66.8004 52.2041 64.5837 55.1301C62.3375 58.0856 59.7367 60.716 56.8403 62.8735C53.8848 65.0902 50.6041 66.8339 47.1166 67.9275L24.832 47.032C27.5511 46.5 30.0929 45.436 32.339 43.9878C34.5852 42.5691 36.5654 40.7663 38.2205 38.727C39.8756 36.6876 41.2352 34.3528 42.1809 31.8406C43.1267 29.3284 43.6882 26.6093 43.7769 23.8016C43.836 21.1416 43.4518 18.5999 42.7129 16.265C41.9445 13.8711 40.7623 11.684 39.255 9.79246C37.7181 7.87137 35.797 6.21628 33.6395 5.00452C31.3342 3.79276 28.7924 2.96522 26.0734 2.69922Z" stroke="#2B2BAD" stroke-width="2" stroke-miterlimit="10"/>
<path d="M26.0734 2.69922L52.4366 5.21141C56.0127 5.53651 59.2342 6.71872 62.0124 8.49203C64.6724 10.2062 66.9186 12.482 68.6623 15.201C70.347 17.8315 71.5883 20.8461 72.2976 24.1267C72.9774 27.3187 73.1843 30.8062 72.8296 34.471C72.4454 38.3132 71.4996 42.0076 70.081 45.4951C68.6623 48.953 66.8004 52.2041 64.5837 55.1301C62.3375 58.0856 59.7367 60.716 56.8403 62.8735C53.8848 65.0902 50.6041 66.8339 47.1166 67.9275L24.832 47.032C27.5511 46.5 30.0929 45.436 32.339 43.9878C34.5852 42.5691 36.5654 40.7663 38.2205 38.727C39.8756 36.6876 41.2352 34.3528 42.1809 31.8406C43.1267 29.3284 43.6882 26.6093 43.7769 23.8016C43.836 21.1416 43.4518 18.5999 42.7129 16.265C41.9445 13.8711 40.7623 11.684 39.255 9.79246C37.7181 7.87137 35.797 6.21628 33.6395 5.00452C31.3342 3.79276 28.7924 2.96522 26.0734 2.69922Z" stroke="#2B2BAD" stroke-width="2" stroke-miterlimit="10"/>
<path d="M16.4963 44.8466L1.27539 28.6504C1.54139 31.931 2.48716 34.9456 3.90581 37.5169C5.32445 40.0291 7.21597 42.1571 9.43261 43.7826C11.5901 45.3491 14.0728 46.4722 16.7032 47.0337C19.2745 47.5657 21.9936 47.5952 24.7717 47.0633L47.0563 67.9587C43.4506 69.0818 39.904 69.4365 36.5643 69.0523C33.1063 68.6385 29.8848 67.4563 27.0475 65.5648C24.092 63.5846 21.6093 60.836 19.7769 57.4371C17.8854 53.8609 16.7032 49.6346 16.4963 44.8466Z" stroke="#2B2BAD" stroke-width="2" stroke-miterlimit="10"/>
<path d="M33.253 68.3726L14.1309 46.2949" stroke="#2B2BAD" stroke-width="2" stroke-miterlimit="10"/>
<path d="M22.0831 60.8945L5.65039 40.1172C6.80304 41.5654 8.13304 42.8363 9.58124 43.8707C11.0294 44.9051 12.5959 45.7327 14.251 46.3238C15.8765 46.9149 17.6202 47.2695 19.3935 47.3878C21.1373 47.506 22.9402 47.3878 24.7726 47.0331L47.0572 67.9286C44.6928 68.6675 42.3579 69.0812 40.0822 69.1404C37.7768 69.229 35.5307 68.963 33.3731 68.4015C31.1861 67.8104 29.1172 66.8942 27.2257 65.6529C25.3341 64.4115 23.5904 62.8156 22.0831 60.8945Z" stroke="#2B2BAD" stroke-width="2" stroke-miterlimit="10"/>
<path d="M22.0831 60.8945L5.65039 40.1172C6.80304 41.5654 8.13304 42.8363 9.58124 43.8707C11.0294 44.9051 12.5959 45.7327 14.251 46.3238C15.8765 46.9149 17.6202 47.2695 19.3935 47.3878C21.1373 47.506 22.9402 47.3878 24.7726 47.0331L47.0572 67.9286C44.6928 68.6675 42.3579 69.0812 40.0822 69.1404C37.7768 69.229 35.5307 68.963 33.3731 68.4015C31.1861 67.8104 29.1172 66.8942 27.2257 65.6529C25.3341 64.4115 23.5904 62.8156 22.0831 60.8945Z" stroke="#2B2BAD" stroke-width="2" stroke-miterlimit="10"/>
</svg>
