<svg width="80" height="72" viewBox="0 0 80 72" fill="none" xmlns="http://www.w3.org/2000/svg">
<path d="M4.07338 7.81913L46.9358 1.80078L46.8624 48.0393L4 54.0577L4.07338 7.81913ZM46.7523 47.9659L46.8257 1.91087L4.18349 7.89253L4.11009 53.9476L46.7523 47.9659Z" stroke="#80EEBF" stroke-width="2" stroke-miterlimit="10"/>
<path d="M4.07338 7.81913L46.9358 1.80078L46.8624 48.0393L4 54.0577L4.07338 7.81913ZM46.7523 47.9659L46.8257 1.91087L4.18349 7.89253L4.11009 53.9476L46.7523 47.9659Z" stroke="#80EEBF" stroke-width="2" stroke-miterlimit="10"/>
<path d="M33.1379 23.6355L76.0003 17.6172L75.9269 63.8557L33.0645 69.8741L33.1379 23.6355ZM75.8168 63.7823L75.8902 17.7273L33.2479 23.7089L33.1746 69.764L75.8168 63.7823Z" stroke="#80EEBF" stroke-width="2" stroke-miterlimit="10"/>
<path d="M33.1379 23.6355L76.0003 17.6172L75.9269 63.8557L33.0645 69.8741L33.1379 23.6355ZM75.8168 63.7823L75.8902 17.7273L33.2479 23.7089L33.1746 69.764L75.8168 63.7823Z" stroke="#80EEBF" stroke-width="2" stroke-miterlimit="10"/>
<path d="M33.1385 23.6356L4.07422 7.81913L46.9366 1.80078L76.0008 17.6173L33.1385 23.6356Z" stroke="#80EEBF" stroke-width="2" stroke-miterlimit="10"/>
<path d="M33.1385 23.6356L4.07422 7.81913L46.9366 1.80078L76.0008 17.6173L33.1385 23.6356Z" stroke="#80EEBF" stroke-width="2" stroke-miterlimit="10"/>
<path d="M76.0009 17.6173L75.9275 63.8558L46.8633 48.0393L46.9367 1.80078L76.0009 17.6173Z" stroke="#80EEBF" stroke-width="2" stroke-miterlimit="10"/>
<path d="M76.0009 17.6173L75.9275 63.8558L46.8633 48.0393L46.9367 1.80078L76.0009 17.6173Z" stroke="#80EEBF" stroke-width="2" stroke-miterlimit="10"/>
<path d="M75.9266 63.8556L33.0642 69.8739L4 54.0574L46.8624 48.0391L75.9266 63.8556Z" stroke="#80EEBF" stroke-width="2" stroke-miterlimit="10"/>
<path d="M75.9266 63.8556L33.0642 69.8739L4 54.0574L46.8624 48.0391L75.9266 63.8556Z" stroke="#80EEBF" stroke-width="2" stroke-miterlimit="10"/>
<path d="M33.0642 69.8734L4 54.0569L4.07338 7.81836L33.1376 23.6349L33.0642 69.8734Z" stroke="#80EEBF" stroke-width="2" stroke-miterlimit="10"/>
<path d="M33.0642 69.8734L4 54.0569L4.07338 7.81836L33.1376 23.6349L33.0642 69.8734Z" stroke="#80EEBF" stroke-width="2" stroke-miterlimit="10"/>
<path d="M75.8162 63.7817L46.752 47.9652L46.8253 1.91016L75.8896 17.7267L75.8162 63.7817Z" stroke="#80EEBF" stroke-width="2" stroke-miterlimit="10"/>
<path d="M75.8162 63.7817L46.752 47.9652L46.8253 1.91016L75.8896 17.7267L75.8162 63.7817Z" stroke="#80EEBF" stroke-width="2" stroke-miterlimit="10"/>
<path d="M75.89 17.7267L33.2478 23.7083L4.18359 7.9285L46.8258 1.91016L75.89 17.7267Z" stroke="#80EEBF" stroke-width="2" stroke-miterlimit="10"/>
<path d="M75.89 17.7267L33.2478 23.7083L4.18359 7.9285L46.8258 1.91016L75.89 17.7267Z" stroke="#80EEBF" stroke-width="2" stroke-miterlimit="10"/>
<path d="M33.247 23.7095L33.1736 69.7646L4.10938 53.948L4.18277 7.92969L33.247 23.7095Z" stroke="#80EEBF" stroke-width="2" stroke-miterlimit="10"/>
<path d="M33.247 23.7095L33.1736 69.7646L4.10938 53.948L4.18277 7.92969L33.247 23.7095Z" stroke="#80EEBF" stroke-width="2" stroke-miterlimit="10"/>
<path d="M33.1736 69.765L4.10938 53.9484L46.7516 47.9668L75.8158 63.7833L33.1736 69.765Z" stroke="#80EEBF" stroke-width="2" stroke-miterlimit="10"/>
<path d="M33.1736 69.765L4.10938 53.9484L46.7516 47.9668L75.8158 63.7833L33.1736 69.765Z" stroke="#80EEBF" stroke-width="2" stroke-miterlimit="10"/>
</svg>
