<svg width="80" height="72" viewBox="0 0 80 72" fill="none" xmlns="http://www.w3.org/2000/svg">
<path d="M27.3073 5.75977L50.4547 45.9161L4 52.4383L27.3073 5.75977ZM27.3073 5.98357L4.15986 52.3104L50.2629 45.8202L27.3073 5.98357Z" stroke="#807FFE" stroke-width="2" stroke-miterlimit="10"/>
<path d="M27.3073 5.75977L50.4547 45.9161L4 52.4383L27.3073 5.75977ZM27.3073 5.98357L4.15986 52.3104L50.2629 45.8202L27.3073 5.98357Z" stroke="#807FFE" stroke-width="2" stroke-miterlimit="10"/>
<path d="M52.8522 19.668L75.9996 59.8243L29.5449 66.3465L52.8522 19.668ZM52.8522 19.8918L29.7048 66.2186L75.8078 59.7283L52.8522 19.8918Z" stroke="#807FFE" stroke-width="2" stroke-miterlimit="10"/>
<path d="M52.8522 19.668L75.9996 59.8243L29.5449 66.3465L52.8522 19.668ZM52.8522 19.8918L29.7048 66.2186L75.8078 59.7283L52.8522 19.8918Z" stroke="#807FFE" stroke-width="2" stroke-miterlimit="10"/>
<path d="M52.8519 19.6674L75.9994 59.8237L50.4541 45.9161L27.3066 5.75977L52.8519 19.6674Z" stroke="#807FFE" stroke-width="2" stroke-miterlimit="10"/>
<path d="M52.8519 19.6674L75.9994 59.8237L50.4541 45.9161L27.3066 5.75977L52.8519 19.6674Z" stroke="#807FFE" stroke-width="2" stroke-miterlimit="10"/>
<path d="M76 59.8237L29.5453 66.3459L4 52.4702L50.4547 45.916L76 59.8237Z" stroke="#807FFE" stroke-width="2" stroke-miterlimit="10"/>
<path d="M76 59.8237L29.5453 66.3459L4 52.4702L50.4547 45.916L76 59.8237Z" stroke="#807FFE" stroke-width="2" stroke-miterlimit="10"/>
<path d="M29.5453 66.3459L4 52.4703L27.3073 5.75977L52.8526 19.6674L29.5453 66.3459Z" stroke="#807FFE" stroke-width="2" stroke-miterlimit="10"/>
<path d="M29.5453 66.3459L4 52.4703L27.3073 5.75977L52.8526 19.6674L29.5453 66.3459Z" stroke="#807FFE" stroke-width="2" stroke-miterlimit="10"/>
<path d="M52.8529 19.892L29.7054 66.2188L4.16016 52.3112L27.3076 5.98438L52.8529 19.892Z" stroke="#807FFE" stroke-width="2" stroke-miterlimit="10"/>
<path d="M52.8529 19.892L29.7054 66.2188L4.16016 52.3112L27.3076 5.98438L52.8529 19.892Z" stroke="#807FFE" stroke-width="2" stroke-miterlimit="10"/>
<path d="M29.7054 66.2174L4.16016 52.3098L50.2632 45.8516L75.8085 59.7272L29.7054 66.2174Z" stroke="#807FFE" stroke-width="2" stroke-miterlimit="10"/>
<path d="M29.7054 66.2174L4.16016 52.3098L50.2632 45.8516L75.8085 59.7272L29.7054 66.2174Z" stroke="#807FFE" stroke-width="2" stroke-miterlimit="10"/>
<path d="M75.8075 59.7286L50.2622 45.8529L27.3066 5.98438L52.8519 19.892L75.8075 59.7286Z" stroke="#807FFE" stroke-width="2" stroke-miterlimit="10"/>
<path d="M75.8075 59.7286L50.2622 45.8529L27.3066 5.98438L52.8519 19.892L75.8075 59.7286Z" stroke="#807FFE" stroke-width="2" stroke-miterlimit="10"/>
</svg>
