<svg width="100%" height="100%" viewBox="0 0 1440 978" fill="none" xmlns="http://www.w3.org/2000/svg">
<path d="M0.559422 969.016L381.444 714.908V263.317L0.552734 9.85742" stroke="white" stroke-opacity="0.4" stroke-linecap="round" stroke-linejoin="round"/>
<path d="M0.860383 1208.54L494.324 714.865V263.266L0.552734 -229.449" stroke="white" stroke-opacity="0.4" stroke-linecap="round" stroke-linejoin="round"/>
<path d="M360.265 1208.54L607.211 714.859V263.266L359.322 -231" stroke="white" stroke-opacity="0.4" stroke-linecap="round" stroke-linejoin="round"/>
<path d="M719.664 1208.54L720.09 714.859V263.266L719.644 -231" stroke="white" stroke-opacity="0.4" stroke-linecap="round" stroke-linejoin="round"/>
<path d="M1079.06 1208.54L832.969 714.865V263.266L1079.96 -230.994" stroke="white" stroke-opacity="0.4" stroke-linecap="round" stroke-linejoin="round"/>
<path d="M1438.47 1208.54L945.852 714.866V263.267L1440.04 -230.738" stroke="white" stroke-opacity="0.4" stroke-linecap="round" stroke-linejoin="round"/>
<path d="M1440.01 969.567L1058.73 714.907V263.317L1440.03 9.27734" stroke="white" stroke-opacity="0.4" stroke-linecap="round" stroke-linejoin="round"/>
<path d="M0.351562 849.098L268.552 714.908V263.318L0.351562 129.441" stroke="white" stroke-opacity="0.4" stroke-linecap="round" stroke-linejoin="round"/>
<path d="M1439.83 849.189L1171.62 714.858V263.268L1439.83 129.385" stroke="white" stroke-opacity="0.4" stroke-linecap="round" stroke-linejoin="round"/>
<path d="M268.551 714.906L1171.62 714.857" stroke="white" stroke-opacity="0.4" stroke-linecap="round" stroke-linejoin="round"/>
<path d="M0.351562 669.115L268.349 601.963H1171.44L1439.83 669.26" stroke="white" stroke-opacity="0.4" stroke-linecap="round" stroke-linejoin="round"/>
<path d="M0.351562 489.258L1439.83 489.245" stroke="white" stroke-opacity="0.4" stroke-linecap="round" stroke-linejoin="round"/>
<path d="M0.351562 309.402L268.349 376.198H1171.62L1439.83 309.229" stroke="white" stroke-opacity="0.4" stroke-linecap="round" stroke-linejoin="round"/>
<path d="M268.551 263.319L1171.62 263.268" stroke="white" stroke-opacity="0.4" stroke-linecap="round" stroke-linejoin="round"/>
<path d="M1439.52 851.326H0.0351562" stroke="white" stroke-opacity="0.4" stroke-linecap="round" stroke-linejoin="round"/>
<path d="M1439.52 901.103H0.0351562" stroke="white" stroke-opacity="0.4" stroke-linecap="round" stroke-linejoin="round"/>
<path d="M1439.83 77.5756H0.351562" stroke="white" stroke-opacity="0.4" stroke-linecap="round" stroke-linejoin="round"/>
<path d="M1439.83 127.222H0.351562" stroke="white" stroke-opacity="0.4" stroke-linecap="round" stroke-linejoin="round"/>
<path fill-rule="evenodd" clip-rule="evenodd" d="M73.9199 812.285H1366.15V166.17H73.9199V812.285Z" stroke="white" stroke-opacity="0.4" stroke-linecap="round" stroke-linejoin="round"/>
<path fill-rule="evenodd" clip-rule="evenodd" d="M136.6 780.942H1303.56V197.451H136.6V780.942Z" stroke="white" stroke-opacity="0.4" stroke-linecap="round" stroke-linejoin="round"/>
<path fill-rule="evenodd" clip-rule="evenodd" d="M188.32 754.967H1251.69V223.266H188.32V754.967Z" stroke="white" stroke-opacity="0.4" stroke-linecap="round" stroke-linejoin="round"/>
<path fill-rule="evenodd" clip-rule="evenodd" d="M231.732 733.335H1208.5V244.934H231.732V733.335Z" stroke="white" stroke-opacity="0.4" stroke-linecap="round" stroke-linejoin="round"/>
</svg>
