<svg width="158" height="40" viewBox="0 0 158 40" fill="none" xmlns="http://www.w3.org/2000/svg">
<path d="M3.75781 16.4561L12.5379 23.8292L30.7747 16.4561H3.75781Z" fill="white"/>
<path d="M3.02734 17.2754L7.03447 40.0002L11.7896 24.6307L3.02734 17.2754Z" fill="white"/>
<path d="M17.4889 0L2.58237 14.9421L0 0H17.4889Z" fill="white"/>
<path d="M18.9495 0L26.1267 7.21282L3.74023 15.3517L18.9495 0Z" fill="white"/>
<path d="M45.8945 0.0178105L27.2659 6.80321L20.4805 0L45.8945 0.0178105Z" fill="white"/>
<path d="M45.6291 8.30661V11.3107H50.8855V13.4211H45.6291V17.5607H43V6.19434H51.5774V8.30661H45.6291Z" fill="white"/>
<path d="M61.5401 17.5615L59.3501 14.3968H56.9276V17.5615H54.293V6.1951H59.2099C60.1091 6.17393 61.0025 6.34581 61.8298 6.69917C62.5385 6.99437 63.14 7.49948 63.5536 8.1467C63.9671 8.79393 64.1729 9.55228 64.1434 10.3199C64.1734 11.0869 63.9646 11.8442 63.5458 12.4872C63.127 13.1302 62.519 13.6272 61.8058 13.9093L64.3537 17.5615H61.5401ZM60.8741 8.85022C60.462 8.50925 59.8618 8.33877 59.0733 8.33877H56.9276V12.3011H59.0697C59.8593 12.3011 60.4595 12.1282 60.8704 11.7823C61.0775 11.6015 61.2406 11.3758 61.3474 11.1224C61.4542 10.869 61.5018 10.5946 61.4866 10.3199C61.4829 9.6811 61.2757 9.19118 60.8648 8.85022H60.8741Z" fill="white"/>
<path d="M75.2066 15.1253H69.9336L68.9281 17.5607H66.2344L71.297 6.19434H73.9003L78.9777 17.5607H76.2102L75.2066 15.1253ZM74.38 13.1294L72.5775 8.77744L70.7767 13.1294H74.38Z" fill="white"/>
<path d="M88.303 11.7016H90.7015V16.3176C90.0556 16.7977 89.3306 17.1608 88.5595 17.3904C87.7658 17.6353 86.9399 17.7597 86.1093 17.7597C85.007 17.7743 83.9183 17.5142 82.9415 17.0026C82.0263 16.5244 81.2603 15.8031 80.7275 14.9181C80.1996 13.996 79.9219 12.9517 79.9219 11.889C79.9219 10.8263 80.1996 9.78212 80.7275 8.86004C81.2559 7.96681 82.0226 7.23857 82.9415 6.757C83.9334 6.24362 85.037 5.98416 86.1536 6.00182C87.0812 5.98932 88.0022 6.15998 88.8639 6.50404C89.6513 6.82279 90.3519 7.32397 90.9081 7.96638L89.22 9.52474C88.8494 9.11508 88.396 8.78885 87.89 8.56763C87.384 8.34641 86.8368 8.23525 86.2846 8.24149C85.6126 8.22845 84.9482 8.38531 84.3529 8.69755C83.8012 8.98963 83.3452 9.43447 83.0393 9.97895C82.7292 10.5615 82.5669 11.2114 82.5669 11.8715C82.5669 12.5316 82.7292 13.1815 83.0393 13.7641C83.3446 14.3092 83.7973 14.7572 84.3455 15.0565C84.9307 15.3714 85.5871 15.5304 86.2514 15.5181C86.9626 15.5288 87.6652 15.3619 88.2956 15.0325L88.303 11.7016Z" fill="white"/>
<path d="M104.742 17.5625L104.727 10.7437L101.39 16.3623H100.205L96.8841 10.8896V17.5625H94.4062V6.19607H96.5815L100.836 13.2567L105.022 6.19238H107.181L107.212 17.5588L104.742 17.5625Z" fill="white"/>
<path d="M119.912 15.4503V17.5607H111.119V6.19434H119.702V8.30661H113.732V10.7734H119.005V12.8192H113.732V15.4503H119.912Z" fill="white"/>
<path d="M134.231 6.19434V17.5607H132.074L126.403 10.67V17.57H123.807V6.19434H125.982L131.628 13.0962V6.19434H134.231Z" fill="white"/>
<path d="M140.49 8.338H136.855V6.19434H146.754V8.338H143.119V17.5607H140.49V8.338Z" fill="white"/>
<path d="M150.373 17.393C149.644 17.205 148.956 16.8832 148.344 16.444L149.235 14.4628C149.764 14.8405 150.35 15.131 150.971 15.3232C151.621 15.5362 152.3 15.6458 152.984 15.6482C153.731 15.6482 154.284 15.5368 154.644 15.314C154.806 15.2292 154.941 15.1021 155.035 14.9463C155.129 14.7904 155.179 14.6117 155.179 14.4295C155.181 14.3006 155.154 14.1729 155.099 14.0561C155.045 13.9394 154.964 13.8366 154.864 13.7556C154.624 13.5612 154.348 13.4151 154.052 13.3254C153.723 13.2171 153.277 13.0983 152.715 12.969C151.994 12.8058 151.283 12.5992 150.587 12.3505C150.038 12.1467 149.55 11.806 149.168 11.3608C148.774 10.9066 148.576 10.3004 148.576 9.54214C148.57 8.90362 148.756 8.27805 149.111 7.74744C149.515 7.17503 150.075 6.73238 150.726 6.47343C151.563 6.1375 152.46 5.97725 153.362 6.0026C154.078 6.00184 154.792 6.08865 155.488 6.26109C156.128 6.41016 156.742 6.6594 157.305 6.99965L156.499 9.01037C155.546 8.44152 154.46 8.13334 153.351 8.11672C152.613 8.11672 152.069 8.23612 151.72 8.47492C151.558 8.57246 151.424 8.71061 151.331 8.87573C151.239 9.04086 151.191 9.22727 151.192 9.41658C151.192 9.80555 151.395 10.0948 151.801 10.2844C152.4 10.5318 153.023 10.7174 153.659 10.8383C154.38 11.0004 155.089 11.2064 155.785 11.455C156.331 11.6564 156.819 11.9908 157.203 12.428C157.598 12.8724 157.796 13.4731 157.796 14.2301C157.8 14.8649 157.611 15.4859 157.253 16.0101C156.843 16.5826 156.277 17.0248 155.622 17.2841C154.782 17.6195 153.881 17.7797 152.977 17.7549C152.096 17.7586 151.219 17.6367 150.373 17.393Z" fill="white"/>
<path d="M45.6291 24.546V27.5501H50.8855V29.6605H45.6291V33.8019H43V22.4355H51.5774V24.546H45.6291Z" fill="white"/>
<path d="M56.0688 33.2348C55.1485 32.7518 54.3792 32.0241 53.8456 31.1317C53.3197 30.2153 53.043 29.177 53.043 28.1203C53.043 27.0635 53.3197 26.0252 53.8456 25.1088C54.3792 24.2164 55.1485 23.4887 56.0688 23.0058C57.055 22.5026 58.1463 22.2402 59.2532 22.2402C60.3602 22.2402 61.4515 22.5026 62.4377 23.0058C63.3636 23.5004 64.1379 24.2376 64.6777 25.1384C65.2175 26.0392 65.5027 27.0699 65.5027 28.1203C65.5027 29.1707 65.2175 30.2013 64.6777 31.1022C64.1379 32.003 63.3636 32.7401 62.4377 33.2348C61.4515 33.738 60.3602 34.0003 59.2532 34.0003C58.1463 34.0003 57.055 33.738 56.0688 33.2348ZM61.0743 31.2942C61.6102 30.9899 62.051 30.5424 62.3473 30.0017C62.6512 29.4206 62.8099 28.7744 62.8099 28.1184C62.8099 27.4625 62.6512 26.8163 62.3473 26.2351C62.051 25.6944 61.6102 25.2469 61.0743 24.9426C60.5167 24.6385 59.8919 24.4791 59.2569 24.4791C58.622 24.4791 57.9971 24.6385 57.4396 24.9426C56.9037 25.2469 56.4629 25.6944 56.1666 26.2351C55.8627 26.8163 55.704 27.4625 55.704 28.1184C55.704 28.7744 55.8627 29.4206 56.1666 30.0017C56.4629 30.5424 56.9037 30.9899 57.4396 31.2942C57.9971 31.5984 58.622 31.7577 59.2569 31.7577C59.8919 31.7577 60.5167 31.5984 61.0743 31.2942Z" fill="white"/>
<path d="M68.5006 32.6443C67.5966 31.7457 67.1445 30.4624 67.1445 28.7945V22.4355H69.7736V28.7133C69.7736 30.748 70.6174 31.7654 72.305 31.7654C73.1278 31.7654 73.7551 31.5192 74.1869 31.0268C74.6186 30.5344 74.8351 29.7633 74.8363 28.7133V22.4355H77.4322V28.8001C77.4322 30.4667 76.9808 31.75 76.078 32.6498C75.1752 33.5496 73.912 33.9989 72.2884 33.9977C70.6672 33.9977 69.4047 33.5465 68.5006 32.6443Z" fill="white"/>
<path d="M90.5242 22.4355V33.8019H88.3674L82.7033 26.9001V33.8019H80.1074V22.4355H82.2827L87.9246 29.3374V22.4355H90.5242Z" fill="white"/>
<path d="M93.3008 22.4351H98.4668C99.5965 22.4122 100.716 22.6537 101.736 23.1404C102.649 23.5785 103.417 24.2692 103.95 25.1308C104.466 26.0417 104.738 27.071 104.738 28.1183C104.738 29.1655 104.466 30.1949 103.95 31.1058C103.418 31.9673 102.649 32.6575 101.736 33.0943C100.716 33.5817 99.5967 33.8238 98.4668 33.8015H93.3008V22.4351ZM98.3321 31.6412C99.4674 31.6412 100.373 31.3249 101.05 30.6922C101.726 30.0595 102.064 29.2015 102.063 28.1183C102.063 27.0363 101.725 26.1783 101.05 25.5444C100.374 24.9105 99.4686 24.5941 98.3321 24.5954H95.9336V31.6412H98.3321Z" fill="white"/>
<path d="M113.81 31.3666H108.537L107.53 33.8019H104.838L109.899 22.4355H112.496L117.574 33.8019H114.806L113.81 31.3666ZM112.982 29.3688L111.181 25.0168L109.38 29.3688H112.982Z" fill="white"/>
<path d="M120.041 24.5792H116.406V22.4355H126.299V24.5792H122.664V33.8019H120.035L120.041 24.5792Z" fill="white"/>
<path d="M128.09 22.4355H130.719V33.8019H128.09V22.4355Z" fill="white"/>
<path d="M135.804 33.2348C134.887 32.7499 134.121 32.0224 133.59 31.1317C133.064 30.2153 132.787 29.177 132.787 28.1203C132.787 27.0635 133.064 26.0252 133.59 25.1088C134.121 24.2181 134.887 23.4906 135.804 23.0058C136.79 22.5026 137.881 22.2402 138.988 22.2402C140.095 22.2402 141.186 22.5026 142.173 23.0058C143.099 23.5 143.874 24.237 144.414 25.1378C144.954 26.0387 145.24 27.0696 145.24 28.1203C145.24 29.1709 144.954 30.2018 144.414 31.1027C143.874 32.0036 143.099 32.7405 142.173 33.2348C141.186 33.738 140.095 34.0003 138.988 34.0003C137.881 34.0003 136.79 33.738 135.804 33.2348ZM140.809 31.2942C141.346 30.9902 141.787 30.5427 142.084 30.0017C142.387 29.4203 142.545 28.7742 142.545 28.1184C142.545 27.4626 142.387 26.8166 142.084 26.2351C141.787 25.6942 141.346 25.2466 140.809 24.9426C140.252 24.6385 139.627 24.4791 138.992 24.4791C138.357 24.4791 137.732 24.6385 137.175 24.9426C136.639 25.2469 136.198 25.6944 135.901 26.2351C135.598 26.8163 135.439 27.4625 135.439 28.1184C135.439 28.7744 135.598 29.4206 135.901 30.0017C136.198 30.5424 136.639 30.9899 137.175 31.2942C137.732 31.5984 138.357 31.7577 138.992 31.7577C139.627 31.7577 140.252 31.5984 140.809 31.2942Z" fill="white"/>
<path d="M157.686 22.4355V33.8019H155.528L149.865 26.9001V33.8019H147.268V22.4355H149.443L155.088 29.3374V22.4355H157.686Z" fill="white"/>
</svg>
